G04 #@! TF.GenerationSoftware,KiCad,Pcbnew,8.0.8*
G04 #@! TF.CreationDate,2025-02-05T10:03:22-05:00*
G04 #@! TF.ProjectId,RW_board,52575f62-6f61-4726-942e-6b696361645f,rev?*
G04 #@! TF.SameCoordinates,Original*
G04 #@! TF.FileFunction,Copper,L3,Inr*
G04 #@! TF.FilePolarity,Positive*
%FSLAX46Y46*%
G04 Gerber Fmt 4.6, Leading zero omitted, Abs format (unit mm)*
G04 Created by KiCad (PCBNEW 8.0.8) date 2025-02-05 10:03:22*
%MOMM*%
%LPD*%
G01*
G04 APERTURE LIST*
G04 Aperture macros list*
%AMRoundRect*
0 Rectangle with rounded corners*
0 $1 Rounding radius*
0 $2 $3 $4 $5 $6 $7 $8 $9 X,Y pos of 4 corners*
0 Add a 4 corners polygon primitive as box body*
4,1,4,$2,$3,$4,$5,$6,$7,$8,$9,$2,$3,0*
0 Add four circle primitives for the rounded corners*
1,1,$1+$1,$2,$3*
1,1,$1+$1,$4,$5*
1,1,$1+$1,$6,$7*
1,1,$1+$1,$8,$9*
0 Add four rect primitives between the rounded corners*
20,1,$1+$1,$2,$3,$4,$5,0*
20,1,$1+$1,$4,$5,$6,$7,0*
20,1,$1+$1,$6,$7,$8,$9,0*
20,1,$1+$1,$8,$9,$2,$3,0*%
G04 Aperture macros list end*
G04 #@! TA.AperFunction,ComponentPad*
%ADD10C,0.800000*%
G04 #@! TD*
G04 #@! TA.AperFunction,ComponentPad*
%ADD11C,7.000000*%
G04 #@! TD*
G04 #@! TA.AperFunction,ComponentPad*
%ADD12RoundRect,0.200000X-0.200000X-0.450000X0.200000X-0.450000X0.200000X0.450000X-0.200000X0.450000X0*%
G04 #@! TD*
G04 #@! TA.AperFunction,ComponentPad*
%ADD13O,0.800000X1.300000*%
G04 #@! TD*
G04 #@! TA.AperFunction,ComponentPad*
%ADD14O,1.000000X2.100000*%
G04 #@! TD*
G04 #@! TA.AperFunction,ComponentPad*
%ADD15O,1.000000X1.800000*%
G04 #@! TD*
G04 #@! TA.AperFunction,ViaPad*
%ADD16C,0.600000*%
G04 #@! TD*
G04 APERTURE END LIST*
D10*
X127556845Y-77772845D03*
X127556845Y-81485155D03*
D11*
X129413000Y-79629000D03*
D10*
X129413000Y-82254000D03*
X131269155Y-77772845D03*
X131269155Y-81485155D03*
X132038000Y-79629000D03*
D12*
X138119000Y-117299000D03*
D13*
X139369000Y-117299000D03*
X140619000Y-117299000D03*
X141869000Y-117299000D03*
X143119000Y-117299000D03*
X144369000Y-117299000D03*
X145619000Y-117299000D03*
X146869000Y-117299000D03*
D10*
X166412000Y-79629000D03*
X167180845Y-77772845D03*
X167180845Y-81485155D03*
D11*
X169037000Y-79629000D03*
D10*
X169037000Y-82254000D03*
X170893155Y-77772845D03*
X170893155Y-81485155D03*
X166412000Y-119253000D03*
X167180845Y-117396845D03*
X167180845Y-121109155D03*
X169037000Y-116628000D03*
D11*
X169037000Y-119253000D03*
D10*
X170893155Y-117396845D03*
X170893155Y-121109155D03*
X127556845Y-117396845D03*
X127556845Y-121109155D03*
X129413000Y-116628000D03*
D11*
X129413000Y-119253000D03*
D10*
X131269155Y-117396845D03*
X131269155Y-121109155D03*
X132038000Y-119253000D03*
D14*
X152906000Y-115200000D03*
X161546000Y-115200000D03*
D15*
X152906000Y-119380000D03*
X161546000Y-119380000D03*
D16*
X131064000Y-102997000D03*
X127621000Y-97536000D03*
X152755600Y-78130400D03*
X142240000Y-119380000D03*
X162052000Y-89916000D03*
X142367000Y-83820000D03*
X140250000Y-85000000D03*
X159131000Y-111125000D03*
X140716000Y-98806000D03*
X152730200Y-81229200D03*
X156591000Y-81661000D03*
X162115500Y-86169500D03*
X171145200Y-105029000D03*
X128894781Y-88863190D03*
X130048000Y-114300000D03*
X136906000Y-100711000D03*
X161671000Y-98425000D03*
X160528000Y-77978000D03*
X149860000Y-119380000D03*
X132994400Y-84150200D03*
X159512000Y-94361000D03*
X138049000Y-84963000D03*
X149860000Y-109220000D03*
X140589000Y-101219000D03*
X139700000Y-119380000D03*
X140716000Y-97409000D03*
X134112000Y-94742000D03*
X128397000Y-106045000D03*
X154140089Y-87122780D03*
X127635000Y-85090000D03*
X140614400Y-96367600D03*
X157480000Y-119380000D03*
X162560000Y-101600000D03*
X164465000Y-81026000D03*
X144780000Y-119380000D03*
X137668000Y-77851000D03*
X146456400Y-84277200D03*
X155956000Y-89916000D03*
X142367000Y-86360000D03*
X141224000Y-100457000D03*
X160274000Y-88011000D03*
X158369000Y-89916000D03*
X147320000Y-119380000D03*
X129540000Y-99618800D03*
X132130800Y-86360000D03*
X167059066Y-94213003D03*
X128905000Y-86360000D03*
X137160000Y-119380000D03*
X166370000Y-85598000D03*
X160020000Y-119380000D03*
X130048000Y-112649000D03*
X134112000Y-95859600D03*
X142367000Y-84963000D03*
X160528000Y-113665000D03*
X154940000Y-119380000D03*
X158750000Y-86106000D03*
X138049000Y-83693000D03*
X152527000Y-79629000D03*
X168275000Y-96901000D03*
X140843000Y-86360000D03*
X164000000Y-115951000D03*
X162560000Y-106680000D03*
X149860000Y-114300000D03*
X167640000Y-111760000D03*
X162560000Y-111760000D03*
X134010400Y-105054400D03*
X135636000Y-77825600D03*
X140335000Y-83693000D03*
X133604000Y-85191600D03*
X157480000Y-116840000D03*
X134112000Y-97942400D03*
X152806400Y-113487200D03*
X145000000Y-82000000D03*
X134112000Y-96926400D03*
X146964400Y-78181200D03*
X136652000Y-89535000D03*
X138811000Y-81788000D03*
X138049000Y-81788000D03*
X136652000Y-90297000D03*
X156006579Y-86514503D03*
X146142000Y-85090000D03*
X147066000Y-79629000D03*
X171200000Y-93726000D03*
X166116000Y-93853000D03*
X160274000Y-97028000D03*
X159623974Y-92274102D03*
X163830000Y-84455000D03*
X149225000Y-83439000D03*
X159004000Y-81280000D03*
X140589000Y-89662000D03*
X155905200Y-87761000D03*
X144526000Y-91186000D03*
X160909000Y-93218000D03*
X149479000Y-91313000D03*
X159639000Y-113538000D03*
X154826000Y-113538000D03*
X157216000Y-84582000D03*
X128905000Y-91440000D03*
X135763000Y-86741000D03*
X135763000Y-86106000D03*
X147701000Y-90424000D03*
X165608000Y-89408000D03*
X164592000Y-90297000D03*
X148844000Y-89662000D03*
X135763000Y-85293200D03*
X135763000Y-84709000D03*
X149352000Y-90297000D03*
X164414557Y-91114559D03*
X144907000Y-90424000D03*
X160528000Y-92456000D03*
X165508118Y-88523520D03*
X147701000Y-85852000D03*
X164719000Y-88392000D03*
X148695368Y-86508632D03*
X145542000Y-84500000D03*
X157988000Y-92456000D03*
X135737600Y-83210400D03*
X135763000Y-83820000D03*
X144915716Y-83871837D03*
X164719000Y-87503000D03*
X158623000Y-94234000D03*
X143764000Y-91694000D03*
X141986000Y-93218000D03*
X141986000Y-89281000D03*
X140716000Y-93218000D03*
X141478000Y-88519000D03*
X142494000Y-88519000D03*
X159258000Y-107315000D03*
X158115000Y-82042000D03*
X158150330Y-83105214D03*
X157480000Y-82550000D03*
X152781000Y-82550000D03*
X130962400Y-97180400D03*
X131247357Y-102023072D03*
X133959600Y-100076000D03*
X134010400Y-104038400D03*
X130429000Y-101981000D03*
X129997200Y-98958400D03*
X133146800Y-96774000D03*
X129540000Y-93472000D03*
X138836400Y-104952800D03*
X165913000Y-109093000D03*
X134874000Y-105156000D03*
X131318000Y-87249000D03*
X142254000Y-81421000D03*
X158623000Y-107950000D03*
G04 #@! TA.AperFunction,Conductor*
G36*
X146626434Y-77240185D02*
G01*
X146672189Y-77292989D01*
X146682133Y-77362147D01*
X146653108Y-77425703D01*
X146620231Y-77450841D01*
X146620774Y-77451706D01*
X146462137Y-77551384D01*
X146334584Y-77678937D01*
X146238611Y-77831676D01*
X146179031Y-78001945D01*
X146179030Y-78001950D01*
X146158835Y-78181196D01*
X146158835Y-78181203D01*
X146179030Y-78360449D01*
X146179031Y-78360454D01*
X146238611Y-78530723D01*
X146287052Y-78607816D01*
X146334584Y-78683462D01*
X146462138Y-78811016D01*
X146614878Y-78906989D01*
X146785145Y-78966568D01*
X146785150Y-78966569D01*
X146964396Y-78986765D01*
X146964400Y-78986765D01*
X146964404Y-78986765D01*
X147143649Y-78966569D01*
X147143652Y-78966568D01*
X147143655Y-78966568D01*
X147313922Y-78906989D01*
X147466662Y-78811016D01*
X147594216Y-78683462D01*
X147690189Y-78530722D01*
X147749768Y-78360455D01*
X147755492Y-78309654D01*
X147769965Y-78181203D01*
X147769965Y-78181196D01*
X147749769Y-78001950D01*
X147749768Y-78001945D01*
X147690188Y-77831676D01*
X147594215Y-77678937D01*
X147466662Y-77551384D01*
X147308026Y-77451706D01*
X147308958Y-77450221D01*
X147263742Y-77409395D01*
X147245431Y-77341968D01*
X147266480Y-77275344D01*
X147320208Y-77230677D01*
X147369405Y-77220500D01*
X152268675Y-77220500D01*
X152335714Y-77240185D01*
X152381469Y-77292989D01*
X152391413Y-77362147D01*
X152362388Y-77425703D01*
X152334647Y-77449494D01*
X152253337Y-77500584D01*
X152125784Y-77628137D01*
X152029811Y-77780876D01*
X151970231Y-77951145D01*
X151970230Y-77951150D01*
X151950035Y-78130396D01*
X151950035Y-78130403D01*
X151970230Y-78309649D01*
X151970231Y-78309654D01*
X152029811Y-78479923D01*
X152125784Y-78632662D01*
X152201932Y-78708810D01*
X152235417Y-78770133D01*
X152230433Y-78839825D01*
X152188561Y-78895758D01*
X152180224Y-78901484D01*
X152024739Y-78999182D01*
X151897184Y-79126737D01*
X151801211Y-79279476D01*
X151741631Y-79449745D01*
X151741630Y-79449750D01*
X151721435Y-79628996D01*
X151721435Y-79629003D01*
X151741630Y-79808249D01*
X151741631Y-79808254D01*
X151801211Y-79978523D01*
X151828273Y-80021591D01*
X151897184Y-80131262D01*
X152024738Y-80258816D01*
X152082848Y-80295329D01*
X152177478Y-80354789D01*
X152216879Y-80368576D01*
X152273655Y-80409297D01*
X152299403Y-80474250D01*
X152285947Y-80542812D01*
X152241902Y-80590609D01*
X152227938Y-80599383D01*
X152100384Y-80726937D01*
X152004411Y-80879676D01*
X151944831Y-81049945D01*
X151944830Y-81049950D01*
X151924635Y-81229196D01*
X151924635Y-81229203D01*
X151944830Y-81408449D01*
X151944831Y-81408454D01*
X152004411Y-81578723D01*
X152100384Y-81731462D01*
X152196240Y-81827318D01*
X152229725Y-81888641D01*
X152224741Y-81958333D01*
X152196242Y-82002678D01*
X152151185Y-82047736D01*
X152151184Y-82047737D01*
X152055211Y-82200476D01*
X151995631Y-82370745D01*
X151995630Y-82370750D01*
X151975435Y-82549996D01*
X151975435Y-82550003D01*
X151995630Y-82729249D01*
X151995631Y-82729254D01*
X152055211Y-82899523D01*
X152092776Y-82959307D01*
X152151184Y-83052262D01*
X152278738Y-83179816D01*
X152363482Y-83233064D01*
X152418104Y-83267386D01*
X152431478Y-83275789D01*
X152553428Y-83318461D01*
X152601745Y-83335368D01*
X152601750Y-83335369D01*
X152780996Y-83355565D01*
X152781000Y-83355565D01*
X152781004Y-83355565D01*
X152960249Y-83335369D01*
X152960252Y-83335368D01*
X152960255Y-83335368D01*
X153130522Y-83275789D01*
X153283262Y-83179816D01*
X153410816Y-83052262D01*
X153506789Y-82899522D01*
X153566368Y-82729255D01*
X153566830Y-82725158D01*
X153586565Y-82550003D01*
X153586565Y-82549996D01*
X153566369Y-82370750D01*
X153566368Y-82370745D01*
X153558942Y-82349522D01*
X153506789Y-82200478D01*
X153410816Y-82047738D01*
X153314959Y-81951881D01*
X153281474Y-81890558D01*
X153286458Y-81820866D01*
X153314959Y-81776519D01*
X153320956Y-81770522D01*
X153360016Y-81731462D01*
X153404293Y-81660996D01*
X155785435Y-81660996D01*
X155785435Y-81661003D01*
X155805630Y-81840249D01*
X155805631Y-81840254D01*
X155865211Y-82010523D01*
X155950833Y-82146789D01*
X155961184Y-82163262D01*
X156088738Y-82290816D01*
X156241478Y-82386789D01*
X156411745Y-82446368D01*
X156411750Y-82446369D01*
X156567720Y-82463942D01*
X156632134Y-82491008D01*
X156671689Y-82548603D01*
X156677057Y-82573278D01*
X156694630Y-82729250D01*
X156694631Y-82729254D01*
X156754211Y-82899523D01*
X156791776Y-82959307D01*
X156850184Y-83052262D01*
X156977738Y-83179816D01*
X157130478Y-83275789D01*
X157300745Y-83335368D01*
X157308711Y-83336265D01*
X157373125Y-83363330D01*
X157411871Y-83418530D01*
X157424540Y-83454734D01*
X157424541Y-83454736D01*
X157520975Y-83608210D01*
X157539975Y-83675447D01*
X157519607Y-83742282D01*
X157466339Y-83787496D01*
X157402098Y-83797402D01*
X157216004Y-83776435D01*
X157215996Y-83776435D01*
X157036750Y-83796630D01*
X157036745Y-83796631D01*
X156866476Y-83856211D01*
X156713737Y-83952184D01*
X156586184Y-84079737D01*
X156490211Y-84232476D01*
X156430631Y-84402745D01*
X156430630Y-84402750D01*
X156410435Y-84581996D01*
X156410435Y-84582003D01*
X156430630Y-84761249D01*
X156430631Y-84761254D01*
X156490211Y-84931523D01*
X156534660Y-85002262D01*
X156586184Y-85084262D01*
X156713738Y-85211816D01*
X156735976Y-85225789D01*
X156863912Y-85306177D01*
X156866478Y-85307789D01*
X157026934Y-85363935D01*
X157036745Y-85367368D01*
X157036750Y-85367369D01*
X157215996Y-85387565D01*
X157216000Y-85387565D01*
X157216004Y-85387565D01*
X157395249Y-85367369D01*
X157395252Y-85367368D01*
X157395255Y-85367368D01*
X157565522Y-85307789D01*
X157718262Y-85211816D01*
X157845816Y-85084262D01*
X157941789Y-84931522D01*
X158001368Y-84761255D01*
X158001369Y-84761249D01*
X158021565Y-84582003D01*
X158021565Y-84581996D01*
X158001369Y-84402750D01*
X158001368Y-84402745D01*
X157981395Y-84345666D01*
X157941789Y-84232478D01*
X157934802Y-84221359D01*
X157845354Y-84079003D01*
X157826354Y-84011767D01*
X157846722Y-83944931D01*
X157899989Y-83899717D01*
X157964232Y-83889811D01*
X158150327Y-83910779D01*
X158150330Y-83910779D01*
X158150334Y-83910779D01*
X158329579Y-83890583D01*
X158329582Y-83890582D01*
X158329585Y-83890582D01*
X158499852Y-83831003D01*
X158652592Y-83735030D01*
X158780146Y-83607476D01*
X158876119Y-83454736D01*
X158935698Y-83284469D01*
X158935699Y-83284463D01*
X158955895Y-83105217D01*
X158955895Y-83105210D01*
X158935699Y-82925964D01*
X158935698Y-82925959D01*
X158876118Y-82755690D01*
X158785495Y-82611465D01*
X158766495Y-82544229D01*
X158785496Y-82479520D01*
X158840788Y-82391524D01*
X158855485Y-82349522D01*
X158900368Y-82221255D01*
X158900369Y-82221249D01*
X158920565Y-82042003D01*
X158920565Y-82041996D01*
X158900369Y-81862750D01*
X158900368Y-81862745D01*
X158889458Y-81831565D01*
X158840789Y-81692478D01*
X158836149Y-81685094D01*
X158744815Y-81539737D01*
X158617262Y-81412184D01*
X158464523Y-81316211D01*
X158294254Y-81256631D01*
X158294249Y-81256630D01*
X158115004Y-81236435D01*
X158114996Y-81236435D01*
X157935750Y-81256630D01*
X157935745Y-81256631D01*
X157765476Y-81316211D01*
X157612737Y-81412184D01*
X157559150Y-81465771D01*
X157497827Y-81499255D01*
X157428135Y-81494270D01*
X157372202Y-81452399D01*
X157354428Y-81419044D01*
X157316788Y-81311476D01*
X157265088Y-81229196D01*
X157220816Y-81158738D01*
X157093262Y-81031184D01*
X156940523Y-80935211D01*
X156770254Y-80875631D01*
X156770249Y-80875630D01*
X156591004Y-80855435D01*
X156590996Y-80855435D01*
X156411750Y-80875630D01*
X156411745Y-80875631D01*
X156241476Y-80935211D01*
X156088737Y-81031184D01*
X155961184Y-81158737D01*
X155865211Y-81311476D01*
X155805631Y-81481745D01*
X155805630Y-81481750D01*
X155785435Y-81660996D01*
X153404293Y-81660996D01*
X153455989Y-81578722D01*
X153515568Y-81408455D01*
X153523256Y-81340220D01*
X153535765Y-81229203D01*
X153535765Y-81229196D01*
X153515569Y-81049950D01*
X153515568Y-81049945D01*
X153475421Y-80935211D01*
X153455989Y-80879678D01*
X153453445Y-80875630D01*
X153360015Y-80726937D01*
X153232462Y-80599384D01*
X153079719Y-80503409D01*
X153040319Y-80489622D01*
X152983543Y-80448900D01*
X152957796Y-80383947D01*
X152971253Y-80315386D01*
X153015300Y-80267588D01*
X153029262Y-80258816D01*
X153156816Y-80131262D01*
X153252789Y-79978522D01*
X153312368Y-79808255D01*
X153332565Y-79629000D01*
X153312368Y-79449745D01*
X153252789Y-79279478D01*
X153156816Y-79126738D01*
X153080667Y-79050589D01*
X153047182Y-78989266D01*
X153052166Y-78919574D01*
X153094038Y-78863641D01*
X153102376Y-78857914D01*
X153105120Y-78856189D01*
X153105122Y-78856189D01*
X153257862Y-78760216D01*
X153385416Y-78632662D01*
X153481389Y-78479922D01*
X153540968Y-78309655D01*
X153555441Y-78181203D01*
X153561165Y-78130403D01*
X153561165Y-78130396D01*
X153540969Y-77951150D01*
X153540968Y-77951145D01*
X153481389Y-77780878D01*
X153385416Y-77628138D01*
X153257862Y-77500584D01*
X153176553Y-77449494D01*
X153130262Y-77397159D01*
X153119614Y-77328105D01*
X153147989Y-77264257D01*
X153206379Y-77225885D01*
X153242525Y-77220500D01*
X159854060Y-77220500D01*
X159921099Y-77240185D01*
X159966854Y-77292989D01*
X159976798Y-77362147D01*
X159947773Y-77425703D01*
X159941741Y-77432181D01*
X159898184Y-77475737D01*
X159802211Y-77628476D01*
X159742631Y-77798745D01*
X159742630Y-77798750D01*
X159722435Y-77977996D01*
X159722435Y-77978003D01*
X159742630Y-78157249D01*
X159742631Y-78157254D01*
X159802211Y-78327523D01*
X159889421Y-78466316D01*
X159898184Y-78480262D01*
X160025738Y-78607816D01*
X160178478Y-78703789D01*
X160339734Y-78760215D01*
X160348745Y-78763368D01*
X160348750Y-78763369D01*
X160527996Y-78783565D01*
X160528000Y-78783565D01*
X160528004Y-78783565D01*
X160707249Y-78763369D01*
X160707252Y-78763368D01*
X160707255Y-78763368D01*
X160877522Y-78703789D01*
X161030262Y-78607816D01*
X161157816Y-78480262D01*
X161253789Y-78327522D01*
X161313368Y-78157255D01*
X161313369Y-78157249D01*
X161333565Y-77978003D01*
X161333565Y-77977996D01*
X161313369Y-77798750D01*
X161313368Y-77798745D01*
X161253788Y-77628476D01*
X161157815Y-77475737D01*
X161114259Y-77432181D01*
X161080774Y-77370858D01*
X161085758Y-77301166D01*
X161127630Y-77245233D01*
X161193094Y-77220816D01*
X161201940Y-77220500D01*
X165597646Y-77220500D01*
X165664685Y-77240185D01*
X165710440Y-77292989D01*
X165720384Y-77362147D01*
X165704004Y-77408249D01*
X165504620Y-77740899D01*
X165336562Y-78096227D01*
X165336561Y-78096229D01*
X165204143Y-78466315D01*
X165108637Y-78847593D01*
X165078526Y-79050589D01*
X165050962Y-79236409D01*
X165031675Y-79629000D01*
X165050962Y-80021591D01*
X165050962Y-80021596D01*
X165050963Y-80021601D01*
X165081301Y-80226127D01*
X165071666Y-80295329D01*
X165026147Y-80348336D01*
X164959196Y-80368320D01*
X164892671Y-80349315D01*
X164814523Y-80300211D01*
X164644254Y-80240631D01*
X164644249Y-80240630D01*
X164465004Y-80220435D01*
X164464996Y-80220435D01*
X164285750Y-80240630D01*
X164285745Y-80240631D01*
X164115476Y-80300211D01*
X163962737Y-80396184D01*
X163835184Y-80523737D01*
X163739211Y-80676476D01*
X163679631Y-80846745D01*
X163679630Y-80846750D01*
X163659435Y-81025996D01*
X163659435Y-81026003D01*
X163679630Y-81205249D01*
X163679631Y-81205254D01*
X163739211Y-81375523D01*
X163828167Y-81517095D01*
X163835184Y-81528262D01*
X163962738Y-81655816D01*
X164115478Y-81751789D01*
X164285745Y-81811368D01*
X164285750Y-81811369D01*
X164464996Y-81831565D01*
X164465000Y-81831565D01*
X164465004Y-81831565D01*
X164644249Y-81811369D01*
X164644252Y-81811368D01*
X164644255Y-81811368D01*
X164814522Y-81751789D01*
X164967262Y-81655816D01*
X165094816Y-81528262D01*
X165190789Y-81375522D01*
X165195902Y-81360910D01*
X165236621Y-81304132D01*
X165301572Y-81278382D01*
X165370135Y-81291835D01*
X165420540Y-81340220D01*
X165425039Y-81348842D01*
X165504614Y-81517089D01*
X165504618Y-81517095D01*
X165504619Y-81517097D01*
X165706694Y-81854239D01*
X165872623Y-82077969D01*
X165940846Y-82169956D01*
X166204807Y-82461192D01*
X166496043Y-82725153D01*
X166496049Y-82725158D01*
X166811761Y-82959306D01*
X166879211Y-82999734D01*
X167148899Y-83161379D01*
X167148902Y-83161380D01*
X167148903Y-83161381D01*
X167504228Y-83329438D01*
X167874316Y-83461857D01*
X168255600Y-83557364D01*
X168644409Y-83615038D01*
X169037000Y-83634325D01*
X169429591Y-83615038D01*
X169818400Y-83557364D01*
X170199684Y-83461857D01*
X170569772Y-83329438D01*
X170925097Y-83161381D01*
X171262239Y-82959306D01*
X171301634Y-82930088D01*
X171367206Y-82905965D01*
X171435412Y-82921121D01*
X171484596Y-82970746D01*
X171499500Y-83029687D01*
X171499500Y-97548794D01*
X171479815Y-97615833D01*
X171427011Y-97661588D01*
X171376953Y-97672785D01*
X168907156Y-97701727D01*
X168839890Y-97682830D01*
X168793520Y-97630566D01*
X168782767Y-97561528D01*
X168811045Y-97497637D01*
X168817998Y-97490079D01*
X168904816Y-97403262D01*
X169000789Y-97250522D01*
X169060368Y-97080255D01*
X169062709Y-97059478D01*
X169080565Y-96901003D01*
X169080565Y-96900996D01*
X169060369Y-96721750D01*
X169060368Y-96721745D01*
X169000788Y-96551476D01*
X168904815Y-96398737D01*
X168777262Y-96271184D01*
X168624523Y-96175211D01*
X168454254Y-96115631D01*
X168454249Y-96115630D01*
X168275004Y-96095435D01*
X168274996Y-96095435D01*
X168095750Y-96115630D01*
X168095745Y-96115631D01*
X167925476Y-96175211D01*
X167772737Y-96271184D01*
X167645184Y-96398737D01*
X167549211Y-96551476D01*
X167489631Y-96721745D01*
X167489630Y-96721750D01*
X167469435Y-96900996D01*
X167469435Y-96901003D01*
X167489630Y-97080249D01*
X167489631Y-97080254D01*
X167549211Y-97250523D01*
X167645184Y-97403262D01*
X167746588Y-97504666D01*
X167780073Y-97565989D01*
X167775089Y-97635681D01*
X167733217Y-97691614D01*
X167667753Y-97716031D01*
X167660360Y-97716338D01*
X162187051Y-97780479D01*
X162119786Y-97761582D01*
X162119626Y-97761482D01*
X162047779Y-97716338D01*
X162020522Y-97699211D01*
X162020520Y-97699210D01*
X162020518Y-97699209D01*
X161850262Y-97639633D01*
X161850249Y-97639630D01*
X161671004Y-97619435D01*
X161670996Y-97619435D01*
X161491750Y-97639630D01*
X161491737Y-97639633D01*
X161321479Y-97699209D01*
X161202812Y-97773772D01*
X161138294Y-97792769D01*
X152330894Y-97895981D01*
X152263629Y-97877084D01*
X152220087Y-97830448D01*
X152163162Y-97723949D01*
X151974810Y-97442061D01*
X151759735Y-97179991D01*
X151759734Y-97179990D01*
X151759730Y-97179985D01*
X151520014Y-96940269D01*
X151257944Y-96725194D01*
X151257943Y-96725193D01*
X151257939Y-96725190D01*
X150976051Y-96536838D01*
X150976046Y-96536835D01*
X150976039Y-96536831D01*
X150677065Y-96377026D01*
X150677060Y-96377024D01*
X150363841Y-96247284D01*
X150126246Y-96175211D01*
X150039414Y-96148871D01*
X150039411Y-96148870D01*
X150039410Y-96148870D01*
X149706901Y-96082729D01*
X149469199Y-96059318D01*
X149369512Y-96049500D01*
X149030488Y-96049500D01*
X148939738Y-96058437D01*
X148693098Y-96082729D01*
X148360589Y-96148870D01*
X148036158Y-96247284D01*
X147722939Y-96377024D01*
X147722934Y-96377026D01*
X147423960Y-96536831D01*
X147423942Y-96536842D01*
X147142069Y-96725184D01*
X147142055Y-96725194D01*
X146879985Y-96940269D01*
X146640269Y-97179985D01*
X146425194Y-97442055D01*
X146425184Y-97442069D01*
X146236842Y-97723942D01*
X146236836Y-97723952D01*
X146140463Y-97904252D01*
X146091500Y-97954096D01*
X146032558Y-97969789D01*
X145724808Y-97973396D01*
X145675903Y-97963966D01*
X145661461Y-97957984D01*
X145661422Y-97957969D01*
X145610419Y-97939977D01*
X145610418Y-97939976D01*
X145610416Y-97939976D01*
X145610414Y-97939975D01*
X145610412Y-97939975D01*
X145525477Y-97927763D01*
X145468000Y-97919500D01*
X145467998Y-97919500D01*
X141560223Y-97919500D01*
X141493184Y-97899815D01*
X141447429Y-97847011D01*
X141437485Y-97777853D01*
X141443181Y-97754546D01*
X141501367Y-97588257D01*
X141501368Y-97588255D01*
X141503877Y-97565989D01*
X141521565Y-97409003D01*
X141521565Y-97408996D01*
X141501369Y-97229750D01*
X141501368Y-97229745D01*
X141441788Y-97059476D01*
X141345815Y-96906737D01*
X141339114Y-96900036D01*
X141305629Y-96838713D01*
X141310613Y-96769021D01*
X141321796Y-96746392D01*
X141340189Y-96717122D01*
X141399768Y-96546855D01*
X141399769Y-96546849D01*
X141419965Y-96367603D01*
X141419965Y-96367596D01*
X141399769Y-96188350D01*
X141399768Y-96188345D01*
X141385955Y-96148870D01*
X141340189Y-96018078D01*
X141244216Y-95865338D01*
X141116662Y-95737784D01*
X140963924Y-95641812D01*
X140963923Y-95641811D01*
X140923544Y-95627682D01*
X140866769Y-95586960D01*
X140841022Y-95522007D01*
X140840500Y-95510641D01*
X140840500Y-94233996D01*
X157817435Y-94233996D01*
X157817435Y-94234003D01*
X157837630Y-94413249D01*
X157837631Y-94413254D01*
X157897211Y-94583523D01*
X157977010Y-94710522D01*
X157993184Y-94736262D01*
X158120738Y-94863816D01*
X158273478Y-94959789D01*
X158362148Y-94990816D01*
X158443745Y-95019368D01*
X158443750Y-95019369D01*
X158622996Y-95039565D01*
X158623000Y-95039565D01*
X158623004Y-95039565D01*
X158802249Y-95019369D01*
X158802251Y-95019368D01*
X158802255Y-95019368D01*
X158802258Y-95019366D01*
X158802262Y-95019366D01*
X158908345Y-94982246D01*
X158978124Y-94978684D01*
X159015270Y-94994292D01*
X159162478Y-95086789D01*
X159332745Y-95146368D01*
X159332750Y-95146369D01*
X159511996Y-95166565D01*
X159512000Y-95166565D01*
X159512004Y-95166565D01*
X159691249Y-95146369D01*
X159691252Y-95146368D01*
X159691255Y-95146368D01*
X159861522Y-95086789D01*
X160014262Y-94990816D01*
X160141816Y-94863262D01*
X160237789Y-94710522D01*
X160297368Y-94540255D01*
X160297369Y-94540249D01*
X160317565Y-94361003D01*
X160317565Y-94360996D01*
X160300890Y-94212999D01*
X166253501Y-94212999D01*
X166253501Y-94213006D01*
X166273696Y-94392252D01*
X166273697Y-94392257D01*
X166333277Y-94562526D01*
X166426270Y-94710522D01*
X166429250Y-94715265D01*
X166556804Y-94842819D01*
X166709544Y-94938792D01*
X166858217Y-94990815D01*
X166879811Y-94998371D01*
X166879816Y-94998372D01*
X167059062Y-95018568D01*
X167059066Y-95018568D01*
X167059070Y-95018568D01*
X167238315Y-94998372D01*
X167238318Y-94998371D01*
X167238321Y-94998371D01*
X167408588Y-94938792D01*
X167561328Y-94842819D01*
X167688882Y-94715265D01*
X167784855Y-94562525D01*
X167844434Y-94392258D01*
X167847956Y-94361000D01*
X167864631Y-94213006D01*
X167864631Y-94212999D01*
X167844435Y-94033753D01*
X167844434Y-94033748D01*
X167812956Y-93943789D01*
X167784855Y-93863481D01*
X167783160Y-93860784D01*
X167707323Y-93740090D01*
X167688882Y-93710741D01*
X167561328Y-93583187D01*
X167442005Y-93508211D01*
X167408589Y-93487214D01*
X167238320Y-93427634D01*
X167238315Y-93427633D01*
X167059070Y-93407438D01*
X167059062Y-93407438D01*
X166879816Y-93427633D01*
X166879811Y-93427634D01*
X166709542Y-93487214D01*
X166556803Y-93583187D01*
X166429250Y-93710740D01*
X166333277Y-93863479D01*
X166273697Y-94033748D01*
X166273696Y-94033753D01*
X166253501Y-94212999D01*
X160300890Y-94212999D01*
X160297369Y-94181750D01*
X160297368Y-94181745D01*
X160235489Y-94004905D01*
X160236913Y-94004406D01*
X160226867Y-93943455D01*
X160254580Y-93879316D01*
X160312569Y-93840342D01*
X160382424Y-93838906D01*
X160415914Y-93853582D01*
X160465082Y-93884476D01*
X160559478Y-93943789D01*
X160713593Y-93997716D01*
X160729745Y-94003368D01*
X160729750Y-94003369D01*
X160908996Y-94023565D01*
X160909000Y-94023565D01*
X160909004Y-94023565D01*
X161088249Y-94003369D01*
X161088252Y-94003368D01*
X161088255Y-94003368D01*
X161258522Y-93943789D01*
X161411262Y-93847816D01*
X161538816Y-93720262D01*
X161634789Y-93567522D01*
X161694368Y-93397255D01*
X161694369Y-93397249D01*
X161714565Y-93218003D01*
X161714565Y-93217996D01*
X161694369Y-93038750D01*
X161694368Y-93038745D01*
X161634788Y-92868476D01*
X161595231Y-92805522D01*
X161538816Y-92715738D01*
X161411262Y-92588184D01*
X161411256Y-92588179D01*
X161390765Y-92575304D01*
X161344474Y-92522970D01*
X161334594Y-92462964D01*
X161333565Y-92462964D01*
X161333565Y-92456715D01*
X161333517Y-92456424D01*
X161333565Y-92456003D01*
X161333565Y-92456000D01*
X161332882Y-92449941D01*
X161313369Y-92276750D01*
X161313368Y-92276745D01*
X161253788Y-92106476D01*
X161211257Y-92038789D01*
X161157816Y-91953738D01*
X161030262Y-91826184D01*
X160877523Y-91730211D01*
X160707254Y-91670631D01*
X160707249Y-91670630D01*
X160528004Y-91650435D01*
X160527996Y-91650435D01*
X160348750Y-91670630D01*
X160348745Y-91670631D01*
X160178476Y-91730211D01*
X160025737Y-91826184D01*
X159898184Y-91953737D01*
X159802211Y-92106476D01*
X159742631Y-92276745D01*
X159742630Y-92276750D01*
X159722435Y-92455996D01*
X159722435Y-92456003D01*
X159742630Y-92635249D01*
X159742631Y-92635254D01*
X159802211Y-92805523D01*
X159898184Y-92958262D01*
X160025740Y-93085818D01*
X160046233Y-93098694D01*
X160092525Y-93151028D01*
X160102410Y-93211037D01*
X160103435Y-93211037D01*
X160103435Y-93217256D01*
X160103484Y-93217554D01*
X160103435Y-93217989D01*
X160103435Y-93218003D01*
X160123630Y-93397249D01*
X160123631Y-93397254D01*
X160185511Y-93574095D01*
X160184087Y-93574593D01*
X160194130Y-93635553D01*
X160166413Y-93699690D01*
X160108420Y-93738660D01*
X160038565Y-93740090D01*
X160005085Y-93725417D01*
X159861523Y-93635211D01*
X159691254Y-93575631D01*
X159691249Y-93575630D01*
X159512004Y-93555435D01*
X159511996Y-93555435D01*
X159332750Y-93575630D01*
X159332742Y-93575632D01*
X159226653Y-93612754D01*
X159156874Y-93616315D01*
X159119727Y-93600706D01*
X158972523Y-93508211D01*
X158802254Y-93448631D01*
X158802249Y-93448630D01*
X158623004Y-93428435D01*
X158622996Y-93428435D01*
X158443750Y-93448630D01*
X158443745Y-93448631D01*
X158273476Y-93508211D01*
X158120737Y-93604184D01*
X157993184Y-93731737D01*
X157897211Y-93884476D01*
X157837631Y-94054745D01*
X157837630Y-94054750D01*
X157817435Y-94233996D01*
X140840500Y-94233996D01*
X140840500Y-94110510D01*
X140860185Y-94043471D01*
X140912989Y-93997716D01*
X140923535Y-93993472D01*
X141065522Y-93943789D01*
X141218262Y-93847816D01*
X141263319Y-93802759D01*
X141324642Y-93769274D01*
X141394334Y-93774258D01*
X141438681Y-93802759D01*
X141483738Y-93847816D01*
X141636478Y-93943789D01*
X141790593Y-93997716D01*
X141806745Y-94003368D01*
X141806750Y-94003369D01*
X141985996Y-94023565D01*
X141986000Y-94023565D01*
X141986004Y-94023565D01*
X142165249Y-94003369D01*
X142165252Y-94003368D01*
X142165255Y-94003368D01*
X142335522Y-93943789D01*
X142488262Y-93847816D01*
X142615816Y-93720262D01*
X142711789Y-93567522D01*
X142771368Y-93397255D01*
X142771369Y-93397249D01*
X142791565Y-93218003D01*
X142791565Y-93217996D01*
X142771369Y-93038750D01*
X142771368Y-93038745D01*
X142711788Y-92868476D01*
X142672231Y-92805522D01*
X142615816Y-92715738D01*
X142488262Y-92588184D01*
X142467764Y-92575304D01*
X142335523Y-92492211D01*
X142165254Y-92432631D01*
X142165249Y-92432630D01*
X141986004Y-92412435D01*
X141985996Y-92412435D01*
X141806750Y-92432630D01*
X141806745Y-92432631D01*
X141636476Y-92492211D01*
X141483737Y-92588184D01*
X141438680Y-92633241D01*
X141377357Y-92666725D01*
X141307665Y-92661740D01*
X141263320Y-92633241D01*
X141218263Y-92588185D01*
X141218262Y-92588184D01*
X141065523Y-92492211D01*
X140895254Y-92432631D01*
X140895249Y-92432630D01*
X140716004Y-92412435D01*
X140715996Y-92412435D01*
X140536750Y-92432630D01*
X140536742Y-92432632D01*
X140497454Y-92446380D01*
X140427675Y-92449941D01*
X140367048Y-92415212D01*
X140334821Y-92353219D01*
X140332500Y-92329338D01*
X140332500Y-91693996D01*
X142958435Y-91693996D01*
X142958435Y-91694003D01*
X142978630Y-91873249D01*
X142978631Y-91873254D01*
X143038211Y-92043523D01*
X143134184Y-92196262D01*
X143261738Y-92323816D01*
X143308533Y-92353219D01*
X143407193Y-92415212D01*
X143414478Y-92419789D01*
X143537865Y-92462964D01*
X143584745Y-92479368D01*
X143584750Y-92479369D01*
X143763996Y-92499565D01*
X143764000Y-92499565D01*
X143764004Y-92499565D01*
X143943249Y-92479369D01*
X143943252Y-92479368D01*
X143943255Y-92479368D01*
X144010048Y-92455996D01*
X157182435Y-92455996D01*
X157182435Y-92456003D01*
X157202630Y-92635249D01*
X157202631Y-92635254D01*
X157262211Y-92805523D01*
X157301769Y-92868478D01*
X157358184Y-92958262D01*
X157485738Y-93085816D01*
X157638478Y-93181789D01*
X157741932Y-93217989D01*
X157808745Y-93241368D01*
X157808750Y-93241369D01*
X157987996Y-93261565D01*
X157988000Y-93261565D01*
X157988004Y-93261565D01*
X158167249Y-93241369D01*
X158167252Y-93241368D01*
X158167255Y-93241368D01*
X158337522Y-93181789D01*
X158490262Y-93085816D01*
X158617816Y-92958262D01*
X158713789Y-92805522D01*
X158773368Y-92635255D01*
X158773595Y-92633241D01*
X158793565Y-92456003D01*
X158793565Y-92455996D01*
X158773369Y-92276750D01*
X158773368Y-92276745D01*
X158713788Y-92106476D01*
X158671257Y-92038789D01*
X158617816Y-91953738D01*
X158490262Y-91826184D01*
X158337523Y-91730211D01*
X158167254Y-91670631D01*
X158167249Y-91670630D01*
X157988004Y-91650435D01*
X157987996Y-91650435D01*
X157808750Y-91670630D01*
X157808745Y-91670631D01*
X157638476Y-91730211D01*
X157485737Y-91826184D01*
X157358184Y-91953737D01*
X157262211Y-92106476D01*
X157202631Y-92276745D01*
X157202630Y-92276750D01*
X157182435Y-92455996D01*
X144010048Y-92455996D01*
X144113522Y-92419789D01*
X144266262Y-92323816D01*
X144393816Y-92196262D01*
X144489789Y-92043522D01*
X144489790Y-92043518D01*
X144490393Y-92042559D01*
X144542727Y-91996268D01*
X144581502Y-91985311D01*
X144627611Y-91980116D01*
X144705250Y-91971369D01*
X144705253Y-91971368D01*
X144705255Y-91971368D01*
X144875522Y-91911789D01*
X145028262Y-91815816D01*
X145155816Y-91688262D01*
X145251789Y-91535522D01*
X145311368Y-91365255D01*
X145313709Y-91344478D01*
X145331565Y-91186003D01*
X145331565Y-91185998D01*
X145331517Y-91185573D01*
X145331565Y-91185298D01*
X145331565Y-91179036D01*
X145332662Y-91179036D01*
X145343571Y-91116751D01*
X145388765Y-91066694D01*
X145409262Y-91053816D01*
X145536816Y-90926262D01*
X145632789Y-90773522D01*
X145692368Y-90603255D01*
X145699123Y-90543302D01*
X145712565Y-90424003D01*
X145712565Y-90423996D01*
X146895435Y-90423996D01*
X146895435Y-90424003D01*
X146915630Y-90603249D01*
X146915631Y-90603254D01*
X146975211Y-90773523D01*
X147026098Y-90854508D01*
X147071184Y-90926262D01*
X147198738Y-91053816D01*
X147351478Y-91149789D01*
X147521745Y-91209368D01*
X147521750Y-91209369D01*
X147700996Y-91229565D01*
X147701000Y-91229565D01*
X147701004Y-91229565D01*
X147880249Y-91209369D01*
X147880252Y-91209368D01*
X147880255Y-91209368D01*
X148050522Y-91149789D01*
X148203262Y-91053816D01*
X148330816Y-90926262D01*
X148426789Y-90773522D01*
X148441621Y-90731135D01*
X148482343Y-90674359D01*
X148547295Y-90648611D01*
X148615857Y-90662067D01*
X148663657Y-90706117D01*
X148722184Y-90799262D01*
X148734682Y-90811760D01*
X148768167Y-90873083D01*
X148763183Y-90942775D01*
X148756086Y-90957136D01*
X148756231Y-90957206D01*
X148753210Y-90963478D01*
X148693633Y-91133737D01*
X148693630Y-91133750D01*
X148673435Y-91312996D01*
X148673435Y-91313003D01*
X148693630Y-91492249D01*
X148693631Y-91492254D01*
X148753211Y-91662523D01*
X148849184Y-91815262D01*
X148976738Y-91942816D01*
X149129478Y-92038789D01*
X149299745Y-92098368D01*
X149299750Y-92098369D01*
X149478996Y-92118565D01*
X149479000Y-92118565D01*
X149479004Y-92118565D01*
X149658249Y-92098369D01*
X149658252Y-92098368D01*
X149658255Y-92098368D01*
X149828522Y-92038789D01*
X149981262Y-91942816D01*
X150108816Y-91815262D01*
X150204789Y-91662522D01*
X150264368Y-91492255D01*
X150264369Y-91492249D01*
X150284565Y-91313003D01*
X150284565Y-91312996D01*
X150264369Y-91133750D01*
X150264368Y-91133745D01*
X150257656Y-91114562D01*
X150257654Y-91114555D01*
X163608992Y-91114555D01*
X163608992Y-91114562D01*
X163629187Y-91293808D01*
X163629188Y-91293813D01*
X163688768Y-91464082D01*
X163720602Y-91514745D01*
X163784741Y-91616821D01*
X163912295Y-91744375D01*
X164002637Y-91801141D01*
X164025992Y-91815816D01*
X164065035Y-91840348D01*
X164159061Y-91873249D01*
X164235302Y-91899927D01*
X164235307Y-91899928D01*
X164414553Y-91920124D01*
X164414557Y-91920124D01*
X164414561Y-91920124D01*
X164593806Y-91899928D01*
X164593809Y-91899927D01*
X164593812Y-91899927D01*
X164764079Y-91840348D01*
X164916819Y-91744375D01*
X165044373Y-91616821D01*
X165140346Y-91464081D01*
X165199925Y-91293814D01*
X165211426Y-91191738D01*
X165220122Y-91114562D01*
X165220122Y-91114555D01*
X165199926Y-90935309D01*
X165199925Y-90935307D01*
X165199925Y-90935304D01*
X165196068Y-90924284D01*
X165192506Y-90854508D01*
X165219479Y-90806304D01*
X165217475Y-90804706D01*
X165221815Y-90799263D01*
X165237990Y-90773522D01*
X165317789Y-90646522D01*
X165377368Y-90476255D01*
X165383256Y-90424003D01*
X165395602Y-90314419D01*
X165422668Y-90250005D01*
X165480263Y-90210450D01*
X165532705Y-90205082D01*
X165607996Y-90213565D01*
X165608000Y-90213565D01*
X165608004Y-90213565D01*
X165787249Y-90193369D01*
X165787252Y-90193368D01*
X165787255Y-90193368D01*
X165957522Y-90133789D01*
X166110262Y-90037816D01*
X166237816Y-89910262D01*
X166333789Y-89757522D01*
X166393368Y-89587255D01*
X166395709Y-89566478D01*
X166413565Y-89408003D01*
X166413565Y-89407996D01*
X166393369Y-89228750D01*
X166393368Y-89228745D01*
X166369221Y-89159737D01*
X166333789Y-89058478D01*
X166317267Y-89032184D01*
X166259727Y-88940609D01*
X166240727Y-88873372D01*
X166247680Y-88833682D01*
X166293484Y-88702782D01*
X166293487Y-88702769D01*
X166313683Y-88523523D01*
X166313683Y-88523516D01*
X166293487Y-88344270D01*
X166293486Y-88344265D01*
X166247462Y-88212737D01*
X166233907Y-88173998D01*
X166137934Y-88021258D01*
X166010380Y-87893704D01*
X165857641Y-87797731D01*
X165687372Y-87738151D01*
X165687368Y-87738150D01*
X165623663Y-87730973D01*
X165559249Y-87703906D01*
X165519694Y-87646312D01*
X165514327Y-87593870D01*
X165524565Y-87503003D01*
X165524565Y-87502996D01*
X165504369Y-87323750D01*
X165504368Y-87323745D01*
X165490884Y-87285211D01*
X165444789Y-87153478D01*
X165439033Y-87144318D01*
X165402257Y-87085789D01*
X165348816Y-87000738D01*
X165221262Y-86873184D01*
X165197342Y-86858154D01*
X165068523Y-86777211D01*
X164898254Y-86717631D01*
X164898249Y-86717630D01*
X164719004Y-86697435D01*
X164718996Y-86697435D01*
X164539750Y-86717630D01*
X164539745Y-86717631D01*
X164369476Y-86777211D01*
X164216737Y-86873184D01*
X164089184Y-87000737D01*
X163993211Y-87153476D01*
X163933631Y-87323745D01*
X163933630Y-87323750D01*
X163913435Y-87502996D01*
X163913435Y-87503003D01*
X163933630Y-87682249D01*
X163933633Y-87682262D01*
X163993209Y-87852519D01*
X164011437Y-87881530D01*
X164030436Y-87948767D01*
X164011437Y-88013470D01*
X163993209Y-88042480D01*
X163933633Y-88212737D01*
X163933630Y-88212750D01*
X163913435Y-88391996D01*
X163913435Y-88392003D01*
X163933630Y-88571249D01*
X163933631Y-88571254D01*
X163993211Y-88741523D01*
X164076058Y-88873372D01*
X164089184Y-88894262D01*
X164216738Y-89021816D01*
X164369478Y-89117789D01*
X164539745Y-89177368D01*
X164539749Y-89177369D01*
X164636625Y-89188283D01*
X164701582Y-89195602D01*
X164765995Y-89222668D01*
X164805550Y-89280263D01*
X164810918Y-89332705D01*
X164804397Y-89390581D01*
X164777331Y-89454995D01*
X164719736Y-89494551D01*
X164667294Y-89499918D01*
X164592004Y-89491435D01*
X164591996Y-89491435D01*
X164412750Y-89511630D01*
X164412745Y-89511631D01*
X164242476Y-89571211D01*
X164089737Y-89667184D01*
X163962184Y-89794737D01*
X163866211Y-89947476D01*
X163806631Y-90117745D01*
X163806630Y-90117750D01*
X163786435Y-90296996D01*
X163786435Y-90297003D01*
X163806631Y-90476252D01*
X163810488Y-90487275D01*
X163814049Y-90557054D01*
X163787092Y-90605267D01*
X163789082Y-90606854D01*
X163784741Y-90612297D01*
X163688768Y-90765035D01*
X163629188Y-90935304D01*
X163629187Y-90935309D01*
X163608992Y-91114555D01*
X150257654Y-91114555D01*
X150204789Y-90963478D01*
X150191780Y-90942775D01*
X150147990Y-90873083D01*
X150108816Y-90810738D01*
X150096318Y-90798240D01*
X150062833Y-90736917D01*
X150067817Y-90667225D01*
X150074914Y-90652864D01*
X150074769Y-90652795D01*
X150077786Y-90646529D01*
X150077787Y-90646523D01*
X150077789Y-90646522D01*
X150137368Y-90476255D01*
X150143206Y-90424440D01*
X150157565Y-90297003D01*
X150157565Y-90296996D01*
X150137369Y-90117750D01*
X150137368Y-90117745D01*
X150122228Y-90074478D01*
X150077789Y-89947478D01*
X150061615Y-89921738D01*
X150058007Y-89915996D01*
X155150435Y-89915996D01*
X155150435Y-89916003D01*
X155170630Y-90095249D01*
X155170631Y-90095254D01*
X155230211Y-90265523D01*
X155260935Y-90314419D01*
X155326184Y-90418262D01*
X155453738Y-90545816D01*
X155606478Y-90641789D01*
X155776745Y-90701368D01*
X155776750Y-90701369D01*
X155955996Y-90721565D01*
X155956000Y-90721565D01*
X155956004Y-90721565D01*
X156135249Y-90701369D01*
X156135252Y-90701368D01*
X156135255Y-90701368D01*
X156305522Y-90641789D01*
X156458262Y-90545816D01*
X156585816Y-90418262D01*
X156681789Y-90265522D01*
X156741368Y-90095255D01*
X156743709Y-90074478D01*
X156761565Y-89916003D01*
X156761565Y-89915996D01*
X157563435Y-89915996D01*
X157563435Y-89916003D01*
X157583630Y-90095249D01*
X157583631Y-90095254D01*
X157643211Y-90265523D01*
X157673935Y-90314419D01*
X157739184Y-90418262D01*
X157866738Y-90545816D01*
X158019478Y-90641789D01*
X158189745Y-90701368D01*
X158189750Y-90701369D01*
X158368996Y-90721565D01*
X158369000Y-90721565D01*
X158369004Y-90721565D01*
X158548249Y-90701369D01*
X158548252Y-90701368D01*
X158548255Y-90701368D01*
X158718522Y-90641789D01*
X158871262Y-90545816D01*
X158998816Y-90418262D01*
X159094789Y-90265522D01*
X159154368Y-90095255D01*
X159156709Y-90074478D01*
X159174565Y-89916003D01*
X159174565Y-89915996D01*
X161246435Y-89915996D01*
X161246435Y-89916003D01*
X161266630Y-90095249D01*
X161266631Y-90095254D01*
X161326211Y-90265523D01*
X161356935Y-90314419D01*
X161422184Y-90418262D01*
X161549738Y-90545816D01*
X161702478Y-90641789D01*
X161872745Y-90701368D01*
X161872750Y-90701369D01*
X162051996Y-90721565D01*
X162052000Y-90721565D01*
X162052004Y-90721565D01*
X162231249Y-90701369D01*
X162231252Y-90701368D01*
X162231255Y-90701368D01*
X162401522Y-90641789D01*
X162554262Y-90545816D01*
X162681816Y-90418262D01*
X162777789Y-90265522D01*
X162837368Y-90095255D01*
X162839709Y-90074478D01*
X162857565Y-89916003D01*
X162857565Y-89915996D01*
X162837369Y-89736750D01*
X162837368Y-89736745D01*
X162822864Y-89695294D01*
X162777789Y-89566478D01*
X162766528Y-89548557D01*
X162726512Y-89484871D01*
X162681816Y-89413738D01*
X162554262Y-89286184D01*
X162489344Y-89245393D01*
X162401523Y-89190211D01*
X162231254Y-89130631D01*
X162231249Y-89130630D01*
X162052004Y-89110435D01*
X162051996Y-89110435D01*
X161872750Y-89130630D01*
X161872745Y-89130631D01*
X161702476Y-89190211D01*
X161549737Y-89286184D01*
X161422184Y-89413737D01*
X161326211Y-89566476D01*
X161266631Y-89736745D01*
X161266630Y-89736750D01*
X161246435Y-89915996D01*
X159174565Y-89915996D01*
X159154369Y-89736750D01*
X159154368Y-89736745D01*
X159139864Y-89695294D01*
X159094789Y-89566478D01*
X159083528Y-89548557D01*
X159043512Y-89484871D01*
X158998816Y-89413738D01*
X158871262Y-89286184D01*
X158806344Y-89245393D01*
X158718523Y-89190211D01*
X158548254Y-89130631D01*
X158548249Y-89130630D01*
X158369004Y-89110435D01*
X158368996Y-89110435D01*
X158189750Y-89130630D01*
X158189745Y-89130631D01*
X158019476Y-89190211D01*
X157866737Y-89286184D01*
X157739184Y-89413737D01*
X157643211Y-89566476D01*
X157583631Y-89736745D01*
X157583630Y-89736750D01*
X157563435Y-89915996D01*
X156761565Y-89915996D01*
X156741369Y-89736750D01*
X156741368Y-89736745D01*
X156726864Y-89695294D01*
X156681789Y-89566478D01*
X156670528Y-89548557D01*
X156630512Y-89484871D01*
X156585816Y-89413738D01*
X156458262Y-89286184D01*
X156393344Y-89245393D01*
X156305523Y-89190211D01*
X156135254Y-89130631D01*
X156135249Y-89130630D01*
X155956004Y-89110435D01*
X155955996Y-89110435D01*
X155776750Y-89130630D01*
X155776745Y-89130631D01*
X155606476Y-89190211D01*
X155453737Y-89286184D01*
X155326184Y-89413737D01*
X155230211Y-89566476D01*
X155170631Y-89736745D01*
X155170630Y-89736750D01*
X155150435Y-89915996D01*
X150058007Y-89915996D01*
X149981815Y-89794737D01*
X149854262Y-89667184D01*
X149814537Y-89642223D01*
X149701522Y-89571211D01*
X149701519Y-89571210D01*
X149701516Y-89571208D01*
X149696936Y-89569002D01*
X149645080Y-89522176D01*
X149629853Y-89484871D01*
X149629368Y-89482749D01*
X149629368Y-89482745D01*
X149569789Y-89312478D01*
X149553267Y-89286184D01*
X149517176Y-89228745D01*
X149473816Y-89159738D01*
X149346262Y-89032184D01*
X149193523Y-88936211D01*
X149023254Y-88876631D01*
X149023249Y-88876630D01*
X148844004Y-88856435D01*
X148843996Y-88856435D01*
X148664750Y-88876630D01*
X148664745Y-88876631D01*
X148494476Y-88936211D01*
X148341737Y-89032184D01*
X148214184Y-89159737D01*
X148118211Y-89312476D01*
X148058631Y-89482745D01*
X148058630Y-89482749D01*
X148052377Y-89538254D01*
X148025310Y-89602668D01*
X147967716Y-89642223D01*
X147897879Y-89644360D01*
X147888208Y-89641413D01*
X147880266Y-89638634D01*
X147880249Y-89638630D01*
X147701004Y-89618435D01*
X147700996Y-89618435D01*
X147521750Y-89638630D01*
X147521745Y-89638631D01*
X147351476Y-89698211D01*
X147198737Y-89794184D01*
X147071184Y-89921737D01*
X146975211Y-90074476D01*
X146915631Y-90244745D01*
X146915630Y-90244750D01*
X146895435Y-90423996D01*
X145712565Y-90423996D01*
X145692369Y-90244750D01*
X145692368Y-90244745D01*
X145674390Y-90193368D01*
X145632789Y-90074478D01*
X145536816Y-89921738D01*
X145409262Y-89794184D01*
X145391880Y-89783262D01*
X145256523Y-89698211D01*
X145086254Y-89638631D01*
X145086249Y-89638630D01*
X144907004Y-89618435D01*
X144906996Y-89618435D01*
X144727750Y-89638630D01*
X144727745Y-89638631D01*
X144557476Y-89698211D01*
X144404737Y-89794184D01*
X144277184Y-89921737D01*
X144181211Y-90074476D01*
X144121631Y-90244745D01*
X144121630Y-90244750D01*
X144101435Y-90423996D01*
X144101435Y-90424004D01*
X144101484Y-90424440D01*
X144101435Y-90424719D01*
X144101435Y-90430963D01*
X144100341Y-90430963D01*
X144089422Y-90493260D01*
X144044237Y-90543302D01*
X144023740Y-90556181D01*
X143896184Y-90683737D01*
X143866402Y-90731135D01*
X143815743Y-90811760D01*
X143799607Y-90837440D01*
X143747272Y-90883731D01*
X143708497Y-90894688D01*
X143584749Y-90908630D01*
X143584745Y-90908631D01*
X143414476Y-90968211D01*
X143261737Y-91064184D01*
X143134184Y-91191737D01*
X143038211Y-91344476D01*
X142978631Y-91514745D01*
X142978630Y-91514750D01*
X142958435Y-91693996D01*
X140332500Y-91693996D01*
X140332500Y-88518996D01*
X140672435Y-88518996D01*
X140672435Y-88519003D01*
X140692630Y-88698249D01*
X140692631Y-88698254D01*
X140752211Y-88868523D01*
X140775595Y-88905738D01*
X140848184Y-89021262D01*
X140975738Y-89148816D01*
X141128478Y-89244789D01*
X141128479Y-89244789D01*
X141129440Y-89245393D01*
X141175731Y-89297728D01*
X141186688Y-89336503D01*
X141200630Y-89460250D01*
X141200631Y-89460254D01*
X141260211Y-89630523D01*
X141340010Y-89757522D01*
X141356184Y-89783262D01*
X141483738Y-89910816D01*
X141636478Y-90006789D01*
X141725148Y-90037816D01*
X141806745Y-90066368D01*
X141806750Y-90066369D01*
X141985996Y-90086565D01*
X141986000Y-90086565D01*
X141986004Y-90086565D01*
X142165249Y-90066369D01*
X142165252Y-90066368D01*
X142165255Y-90066368D01*
X142335522Y-90006789D01*
X142488262Y-89910816D01*
X142615816Y-89783262D01*
X142711789Y-89630522D01*
X142771368Y-89460255D01*
X142785311Y-89336503D01*
X142812377Y-89272090D01*
X142842559Y-89245393D01*
X142843518Y-89244790D01*
X142843522Y-89244789D01*
X142996262Y-89148816D01*
X143123816Y-89021262D01*
X143219789Y-88868522D01*
X143279368Y-88698255D01*
X143285840Y-88640815D01*
X143299565Y-88519003D01*
X143299565Y-88518996D01*
X143279369Y-88339750D01*
X143279368Y-88339745D01*
X143219789Y-88169478D01*
X143123816Y-88016738D01*
X143118074Y-88010996D01*
X159468435Y-88010996D01*
X159468435Y-88011003D01*
X159488630Y-88190249D01*
X159488631Y-88190254D01*
X159548211Y-88360523D01*
X159644184Y-88513262D01*
X159771738Y-88640816D01*
X159862080Y-88697582D01*
X159870335Y-88702769D01*
X159924478Y-88736789D01*
X160094745Y-88796368D01*
X160094750Y-88796369D01*
X160273996Y-88816565D01*
X160274000Y-88816565D01*
X160274004Y-88816565D01*
X160453249Y-88796369D01*
X160453252Y-88796368D01*
X160453255Y-88796368D01*
X160623522Y-88736789D01*
X160776262Y-88640816D01*
X160903816Y-88513262D01*
X160999789Y-88360522D01*
X161059368Y-88190255D01*
X161061709Y-88169478D01*
X161079565Y-88011003D01*
X161079565Y-88010996D01*
X161059369Y-87831750D01*
X161059368Y-87831745D01*
X161045884Y-87793211D01*
X160999789Y-87661478D01*
X160903816Y-87508738D01*
X160776262Y-87381184D01*
X160623523Y-87285211D01*
X160453254Y-87225631D01*
X160453249Y-87225630D01*
X160274004Y-87205435D01*
X160273996Y-87205435D01*
X160094750Y-87225630D01*
X160094745Y-87225631D01*
X159924476Y-87285211D01*
X159771737Y-87381184D01*
X159644184Y-87508737D01*
X159548211Y-87661476D01*
X159488631Y-87831745D01*
X159488630Y-87831750D01*
X159468435Y-88010996D01*
X143118074Y-88010996D01*
X142996262Y-87889184D01*
X142937910Y-87852519D01*
X142843523Y-87793211D01*
X142673254Y-87733631D01*
X142673249Y-87733630D01*
X142494004Y-87713435D01*
X142493996Y-87713435D01*
X142314750Y-87733630D01*
X142314745Y-87733631D01*
X142144476Y-87793211D01*
X142051972Y-87851336D01*
X141984735Y-87870336D01*
X141920028Y-87851336D01*
X141827523Y-87793211D01*
X141657254Y-87733631D01*
X141657249Y-87733630D01*
X141478004Y-87713435D01*
X141477996Y-87713435D01*
X141298750Y-87733630D01*
X141298745Y-87733631D01*
X141128476Y-87793211D01*
X140975737Y-87889184D01*
X140848184Y-88016737D01*
X140752211Y-88169476D01*
X140692631Y-88339745D01*
X140692630Y-88339750D01*
X140672435Y-88518996D01*
X140332500Y-88518996D01*
X140332500Y-87204222D01*
X140352185Y-87137183D01*
X140404989Y-87091428D01*
X140474147Y-87081484D01*
X140497455Y-87087181D01*
X140663737Y-87145366D01*
X140663743Y-87145367D01*
X140663745Y-87145368D01*
X140663746Y-87145368D01*
X140663750Y-87145369D01*
X140842996Y-87165565D01*
X140843000Y-87165565D01*
X140843004Y-87165565D01*
X141022249Y-87145369D01*
X141022252Y-87145368D01*
X141022255Y-87145368D01*
X141192522Y-87085789D01*
X141345262Y-86989816D01*
X141472816Y-86862262D01*
X141500006Y-86818988D01*
X141552341Y-86772698D01*
X141621394Y-86762050D01*
X141685243Y-86790425D01*
X141709993Y-86818987D01*
X141737184Y-86862262D01*
X141864738Y-86989816D01*
X141907627Y-87016765D01*
X142010626Y-87081484D01*
X142017478Y-87085789D01*
X142123201Y-87122783D01*
X142187745Y-87145368D01*
X142187750Y-87145369D01*
X142366996Y-87165565D01*
X142367000Y-87165565D01*
X142367004Y-87165565D01*
X142546249Y-87145369D01*
X142546252Y-87145368D01*
X142546255Y-87145368D01*
X142716522Y-87085789D01*
X142869262Y-86989816D01*
X142996816Y-86862262D01*
X143092789Y-86709522D01*
X143152368Y-86539255D01*
X143155157Y-86514503D01*
X143172565Y-86360003D01*
X143172565Y-86359996D01*
X143152369Y-86180750D01*
X143152368Y-86180745D01*
X143126215Y-86106003D01*
X143092789Y-86010478D01*
X142996816Y-85857738D01*
X142888259Y-85749181D01*
X142854774Y-85687858D01*
X142859758Y-85618166D01*
X142888259Y-85573819D01*
X142922394Y-85539684D01*
X142996816Y-85465262D01*
X143092789Y-85312522D01*
X143152368Y-85142255D01*
X143157609Y-85095738D01*
X143172565Y-84963003D01*
X143172565Y-84962996D01*
X143152369Y-84783750D01*
X143152368Y-84783745D01*
X143092788Y-84613475D01*
X143020064Y-84497737D01*
X142996816Y-84460738D01*
X142996814Y-84460736D01*
X142994764Y-84457473D01*
X142975763Y-84390236D01*
X142994764Y-84325527D01*
X143092788Y-84169524D01*
X143121916Y-84086281D01*
X143152368Y-83999255D01*
X143152369Y-83999249D01*
X143172565Y-83820003D01*
X143172565Y-83819996D01*
X143152369Y-83640750D01*
X143152368Y-83640745D01*
X143092788Y-83470475D01*
X143062977Y-83423032D01*
X143043976Y-83355795D01*
X143064343Y-83288960D01*
X143117611Y-83243745D01*
X143166897Y-83233064D01*
X144151585Y-83224575D01*
X144218789Y-83243681D01*
X144264997Y-83296088D01*
X144275536Y-83365158D01*
X144257645Y-83414542D01*
X144189927Y-83522313D01*
X144130347Y-83692582D01*
X144130346Y-83692587D01*
X144110151Y-83871833D01*
X144110151Y-83871840D01*
X144130346Y-84051086D01*
X144130347Y-84051091D01*
X144189927Y-84221360D01*
X144253677Y-84322816D01*
X144285900Y-84374099D01*
X144413454Y-84501653D01*
X144566194Y-84597626D01*
X144649348Y-84626723D01*
X144694288Y-84642448D01*
X144751064Y-84683170D01*
X144770375Y-84718535D01*
X144816209Y-84849519D01*
X144887514Y-84963000D01*
X144912184Y-85002262D01*
X145039738Y-85129816D01*
X145046965Y-85134357D01*
X145186740Y-85222184D01*
X145192478Y-85225789D01*
X145305840Y-85265455D01*
X145362615Y-85306177D01*
X145381925Y-85341541D01*
X145384794Y-85349738D01*
X145416210Y-85439521D01*
X145416212Y-85439524D01*
X145439247Y-85476184D01*
X145512184Y-85592262D01*
X145639738Y-85719816D01*
X145792478Y-85815789D01*
X145912367Y-85857740D01*
X145962745Y-85875368D01*
X145962750Y-85875369D01*
X146141996Y-85895565D01*
X146142000Y-85895565D01*
X146142004Y-85895565D01*
X146321249Y-85875369D01*
X146321252Y-85875368D01*
X146321255Y-85875368D01*
X146491522Y-85815789D01*
X146644262Y-85719816D01*
X146693536Y-85670541D01*
X146754857Y-85637057D01*
X146824548Y-85642041D01*
X146880482Y-85683912D01*
X146904900Y-85749376D01*
X146904436Y-85772106D01*
X146895435Y-85851995D01*
X146895435Y-85852003D01*
X146915630Y-86031249D01*
X146915631Y-86031254D01*
X146975211Y-86201523D01*
X147055548Y-86329377D01*
X147071184Y-86354262D01*
X147198738Y-86481816D01*
X147351478Y-86577789D01*
X147498602Y-86629270D01*
X147521745Y-86637368D01*
X147521750Y-86637369D01*
X147700996Y-86657565D01*
X147701000Y-86657565D01*
X147701004Y-86657565D01*
X147793600Y-86647132D01*
X147862421Y-86659186D01*
X147913801Y-86706536D01*
X147924525Y-86729397D01*
X147969579Y-86858155D01*
X148052307Y-86989815D01*
X148065552Y-87010894D01*
X148193106Y-87138448D01*
X148283448Y-87195214D01*
X148331856Y-87225631D01*
X148345846Y-87234421D01*
X148516113Y-87294000D01*
X148516118Y-87294001D01*
X148695364Y-87314197D01*
X148695368Y-87314197D01*
X148695372Y-87314197D01*
X148874617Y-87294001D01*
X148874620Y-87294000D01*
X148874623Y-87294000D01*
X149044890Y-87234421D01*
X149197630Y-87138448D01*
X149213302Y-87122776D01*
X153334524Y-87122776D01*
X153334524Y-87122783D01*
X153354719Y-87302029D01*
X153354720Y-87302034D01*
X153414300Y-87472303D01*
X153437194Y-87508738D01*
X153510273Y-87625042D01*
X153637827Y-87752596D01*
X153790567Y-87848569D01*
X153923036Y-87894922D01*
X153960834Y-87908148D01*
X153960839Y-87908149D01*
X154140085Y-87928345D01*
X154140089Y-87928345D01*
X154140093Y-87928345D01*
X154319338Y-87908149D01*
X154319341Y-87908148D01*
X154319344Y-87908148D01*
X154489611Y-87848569D01*
X154642351Y-87752596D01*
X154769905Y-87625042D01*
X154865878Y-87472302D01*
X154925457Y-87302035D01*
X154925701Y-87299871D01*
X154945654Y-87122783D01*
X154945654Y-87122776D01*
X154925458Y-86943530D01*
X154925457Y-86943525D01*
X154907206Y-86891368D01*
X154865878Y-86773258D01*
X154769905Y-86620518D01*
X154663886Y-86514499D01*
X155201014Y-86514499D01*
X155201014Y-86514506D01*
X155221209Y-86693752D01*
X155221210Y-86693757D01*
X155280790Y-86864026D01*
X155370804Y-87007281D01*
X155376763Y-87016765D01*
X155504317Y-87144319D01*
X155538130Y-87165565D01*
X155647711Y-87234420D01*
X155657057Y-87240292D01*
X155785428Y-87285211D01*
X155827324Y-87299871D01*
X155827329Y-87299872D01*
X156006575Y-87320068D01*
X156006579Y-87320068D01*
X156006583Y-87320068D01*
X156185828Y-87299872D01*
X156185831Y-87299871D01*
X156185834Y-87299871D01*
X156356101Y-87240292D01*
X156508841Y-87144319D01*
X156636395Y-87016765D01*
X156732368Y-86864025D01*
X156791947Y-86693758D01*
X156791948Y-86693752D01*
X156812144Y-86514506D01*
X156812144Y-86514499D01*
X156791948Y-86335253D01*
X156791947Y-86335248D01*
X156754355Y-86227816D01*
X156732368Y-86164981D01*
X156695305Y-86105996D01*
X157944435Y-86105996D01*
X157944435Y-86106003D01*
X157964630Y-86285249D01*
X157964631Y-86285254D01*
X158024211Y-86455523D01*
X158103781Y-86582157D01*
X158120184Y-86608262D01*
X158247738Y-86735816D01*
X158307327Y-86773258D01*
X158348797Y-86799316D01*
X158400478Y-86831789D01*
X158492606Y-86864026D01*
X158570745Y-86891368D01*
X158570750Y-86891369D01*
X158749996Y-86911565D01*
X158750000Y-86911565D01*
X158750004Y-86911565D01*
X158929249Y-86891369D01*
X158929252Y-86891368D01*
X158929255Y-86891368D01*
X159099522Y-86831789D01*
X159252262Y-86735816D01*
X159379816Y-86608262D01*
X159475789Y-86455522D01*
X159535368Y-86285255D01*
X159535369Y-86285249D01*
X159548411Y-86169496D01*
X161309935Y-86169496D01*
X161309935Y-86169503D01*
X161330130Y-86348749D01*
X161330131Y-86348754D01*
X161389711Y-86519023D01*
X161453485Y-86620518D01*
X161485684Y-86671762D01*
X161613238Y-86799316D01*
X161703580Y-86856082D01*
X161759737Y-86891368D01*
X161765978Y-86895289D01*
X161903829Y-86943525D01*
X161936245Y-86954868D01*
X161936250Y-86954869D01*
X162115496Y-86975065D01*
X162115500Y-86975065D01*
X162115504Y-86975065D01*
X162294749Y-86954869D01*
X162294752Y-86954868D01*
X162294755Y-86954868D01*
X162465022Y-86895289D01*
X162617762Y-86799316D01*
X162745316Y-86671762D01*
X162841289Y-86519022D01*
X162900868Y-86348755D01*
X162902146Y-86337411D01*
X162921065Y-86169503D01*
X162921065Y-86169496D01*
X162900869Y-85990250D01*
X162900868Y-85990245D01*
X162867738Y-85895565D01*
X162841289Y-85819978D01*
X162745316Y-85667238D01*
X162676074Y-85597996D01*
X165564435Y-85597996D01*
X165564435Y-85598003D01*
X165584630Y-85777249D01*
X165584631Y-85777254D01*
X165644211Y-85947523D01*
X165696820Y-86031249D01*
X165740184Y-86100262D01*
X165867738Y-86227816D01*
X165877741Y-86234101D01*
X166010015Y-86317215D01*
X166020478Y-86323789D01*
X166091810Y-86348749D01*
X166190745Y-86383368D01*
X166190750Y-86383369D01*
X166369996Y-86403565D01*
X166370000Y-86403565D01*
X166370004Y-86403565D01*
X166549249Y-86383369D01*
X166549252Y-86383368D01*
X166549255Y-86383368D01*
X166719522Y-86323789D01*
X166872262Y-86227816D01*
X166999816Y-86100262D01*
X167095789Y-85947522D01*
X167155368Y-85777255D01*
X167157709Y-85756478D01*
X167175565Y-85598003D01*
X167175565Y-85597996D01*
X167155369Y-85418750D01*
X167155368Y-85418745D01*
X167152500Y-85410549D01*
X167095789Y-85248478D01*
X167079267Y-85222184D01*
X167046410Y-85169892D01*
X166999816Y-85095738D01*
X166872262Y-84968184D01*
X166719523Y-84872211D01*
X166549254Y-84812631D01*
X166549249Y-84812630D01*
X166370004Y-84792435D01*
X166369996Y-84792435D01*
X166190750Y-84812630D01*
X166190745Y-84812631D01*
X166020476Y-84872211D01*
X165867737Y-84968184D01*
X165740184Y-85095737D01*
X165644211Y-85248476D01*
X165584631Y-85418745D01*
X165584630Y-85418750D01*
X165564435Y-85597996D01*
X162676074Y-85597996D01*
X162617762Y-85539684D01*
X162558549Y-85502478D01*
X162465023Y-85443711D01*
X162294754Y-85384131D01*
X162294749Y-85384130D01*
X162115504Y-85363935D01*
X162115496Y-85363935D01*
X161936250Y-85384130D01*
X161936245Y-85384131D01*
X161765976Y-85443711D01*
X161613237Y-85539684D01*
X161485684Y-85667237D01*
X161389711Y-85819976D01*
X161330131Y-85990245D01*
X161330130Y-85990250D01*
X161309935Y-86169496D01*
X159548411Y-86169496D01*
X159555565Y-86106003D01*
X159555565Y-86105996D01*
X159535369Y-85926750D01*
X159535368Y-85926745D01*
X159509215Y-85852003D01*
X159475789Y-85756478D01*
X159459267Y-85730184D01*
X159397092Y-85631233D01*
X159379816Y-85603738D01*
X159252262Y-85476184D01*
X159234880Y-85465262D01*
X159099523Y-85380211D01*
X158929254Y-85320631D01*
X158929249Y-85320630D01*
X158750004Y-85300435D01*
X158749996Y-85300435D01*
X158570750Y-85320630D01*
X158570745Y-85320631D01*
X158400476Y-85380211D01*
X158247737Y-85476184D01*
X158120184Y-85603737D01*
X158024211Y-85756476D01*
X157964631Y-85926745D01*
X157964630Y-85926750D01*
X157944435Y-86105996D01*
X156695305Y-86105996D01*
X156636395Y-86012241D01*
X156508841Y-85884687D01*
X156465952Y-85857738D01*
X156356102Y-85788714D01*
X156185833Y-85729134D01*
X156185828Y-85729133D01*
X156006583Y-85708938D01*
X156006575Y-85708938D01*
X155827329Y-85729133D01*
X155827324Y-85729134D01*
X155657055Y-85788714D01*
X155504316Y-85884687D01*
X155376763Y-86012240D01*
X155280790Y-86164979D01*
X155221210Y-86335248D01*
X155221209Y-86335253D01*
X155201014Y-86514499D01*
X154663886Y-86514499D01*
X154642351Y-86492964D01*
X154624609Y-86481816D01*
X154489612Y-86396991D01*
X154319343Y-86337411D01*
X154319338Y-86337410D01*
X154140093Y-86317215D01*
X154140085Y-86317215D01*
X153960839Y-86337410D01*
X153960834Y-86337411D01*
X153790565Y-86396991D01*
X153637826Y-86492964D01*
X153510273Y-86620517D01*
X153414300Y-86773256D01*
X153354720Y-86943525D01*
X153354719Y-86943530D01*
X153334524Y-87122776D01*
X149213302Y-87122776D01*
X149325184Y-87010894D01*
X149421157Y-86858154D01*
X149480736Y-86687887D01*
X149483970Y-86659186D01*
X149500933Y-86508635D01*
X149500933Y-86508628D01*
X149480737Y-86329382D01*
X149480736Y-86329377D01*
X149435998Y-86201523D01*
X149421157Y-86159110D01*
X149325184Y-86006370D01*
X149197630Y-85878816D01*
X149164083Y-85857737D01*
X149044891Y-85782843D01*
X148874622Y-85723263D01*
X148874617Y-85723262D01*
X148695372Y-85703067D01*
X148695363Y-85703067D01*
X148602766Y-85713499D01*
X148533944Y-85701444D01*
X148482566Y-85654094D01*
X148471842Y-85631233D01*
X148460214Y-85598003D01*
X148426789Y-85502478D01*
X148330816Y-85349738D01*
X148203262Y-85222184D01*
X148050523Y-85126211D01*
X147880254Y-85066631D01*
X147880249Y-85066630D01*
X147701004Y-85046435D01*
X147700996Y-85046435D01*
X147521750Y-85066630D01*
X147521745Y-85066631D01*
X147351476Y-85126211D01*
X147198737Y-85222184D01*
X147149463Y-85271458D01*
X147088140Y-85304942D01*
X147018448Y-85299957D01*
X146962515Y-85258086D01*
X146938099Y-85192621D01*
X146938563Y-85169892D01*
X146939104Y-85165096D01*
X146944407Y-85118019D01*
X146947565Y-85090002D01*
X146947565Y-85089997D01*
X146936845Y-84994859D01*
X146948899Y-84926037D01*
X146972384Y-84893294D01*
X147028585Y-84837093D01*
X147086216Y-84779462D01*
X147182189Y-84626722D01*
X147241768Y-84456455D01*
X147243316Y-84442718D01*
X147261965Y-84277203D01*
X147261965Y-84277196D01*
X147241769Y-84097950D01*
X147241768Y-84097945D01*
X147207235Y-83999255D01*
X147182189Y-83927678D01*
X147086216Y-83774938D01*
X146958662Y-83647384D01*
X146895149Y-83607476D01*
X146805923Y-83551411D01*
X146635654Y-83491831D01*
X146635649Y-83491830D01*
X146456404Y-83471635D01*
X146456396Y-83471635D01*
X146277150Y-83491830D01*
X146277145Y-83491831D01*
X146106876Y-83551411D01*
X145954137Y-83647384D01*
X145899048Y-83702473D01*
X145837724Y-83735957D01*
X145770410Y-83731832D01*
X145763423Y-83729387D01*
X145706648Y-83688664D01*
X145687339Y-83653303D01*
X145641505Y-83522315D01*
X145565564Y-83401456D01*
X145546564Y-83334221D01*
X145566931Y-83267386D01*
X145620199Y-83222171D01*
X145669487Y-83211490D01*
X145796000Y-83210400D01*
X145796000Y-82091853D01*
X145796780Y-82077969D01*
X145805565Y-82000002D01*
X145805565Y-81999997D01*
X145796780Y-81922030D01*
X145796000Y-81908146D01*
X145796000Y-77344500D01*
X145815685Y-77277461D01*
X145868489Y-77231706D01*
X145920000Y-77220500D01*
X146559395Y-77220500D01*
X146626434Y-77240185D01*
G37*
G04 #@! TD.AperFunction*
G04 #@! TA.AperFunction,Conductor*
G36*
X148787039Y-111779685D02*
G01*
X148832794Y-111832489D01*
X148844000Y-111884000D01*
X148844000Y-118621000D01*
X148824315Y-118688039D01*
X148771511Y-118733794D01*
X148720000Y-118745000D01*
X145158000Y-118745000D01*
X145090961Y-118725315D01*
X145045206Y-118672511D01*
X145034000Y-118621000D01*
X145034000Y-115570000D01*
X145033999Y-115569999D01*
X144780000Y-115519200D01*
X145542000Y-115519200D01*
X145542000Y-111760000D01*
X148720000Y-111760000D01*
X148787039Y-111779685D01*
G37*
G04 #@! TD.AperFunction*
G04 #@! TA.AperFunction,Conductor*
G36*
X139805326Y-81301674D02*
G01*
X139827000Y-81354000D01*
X139827000Y-84825683D01*
X139820314Y-84856422D01*
X139813302Y-84871776D01*
X139794867Y-85000000D01*
X139813302Y-85128223D01*
X139813302Y-85128224D01*
X139813303Y-85128226D01*
X139820312Y-85143575D01*
X139827000Y-85174314D01*
X139827000Y-93929200D01*
X136144000Y-93929200D01*
X136144000Y-87007281D01*
X136150686Y-86976543D01*
X136199697Y-86869226D01*
X136218133Y-86741000D01*
X136199697Y-86612774D01*
X136150686Y-86505457D01*
X136144000Y-86474718D01*
X136144000Y-86372281D01*
X136150686Y-86341543D01*
X136199697Y-86234226D01*
X136218133Y-86106000D01*
X136199697Y-85977774D01*
X136150686Y-85870457D01*
X136144000Y-85839718D01*
X136144000Y-85559481D01*
X136150686Y-85528743D01*
X136199697Y-85421426D01*
X136218133Y-85293200D01*
X136199697Y-85164974D01*
X136150686Y-85057657D01*
X136144000Y-85026918D01*
X136144000Y-84975281D01*
X136146671Y-84963000D01*
X137593867Y-84963000D01*
X137612302Y-85091223D01*
X137612302Y-85091224D01*
X137612303Y-85091226D01*
X137666118Y-85209063D01*
X137750951Y-85306967D01*
X137859931Y-85377004D01*
X137984228Y-85413500D01*
X138113772Y-85413500D01*
X138238069Y-85377004D01*
X138347049Y-85306967D01*
X138431882Y-85209063D01*
X138485697Y-85091226D01*
X138504133Y-84963000D01*
X138485697Y-84834774D01*
X138431882Y-84716937D01*
X138347049Y-84619033D01*
X138280032Y-84575964D01*
X138238068Y-84548995D01*
X138113772Y-84512500D01*
X137984228Y-84512500D01*
X137859931Y-84548995D01*
X137750954Y-84619031D01*
X137750950Y-84619034D01*
X137666119Y-84716935D01*
X137612302Y-84834776D01*
X137593867Y-84963000D01*
X136146671Y-84963000D01*
X136150686Y-84944543D01*
X136199697Y-84837226D01*
X136218133Y-84709000D01*
X136199697Y-84580774D01*
X136150686Y-84473457D01*
X136144000Y-84442718D01*
X136144000Y-84086281D01*
X136150686Y-84055543D01*
X136199697Y-83948226D01*
X136218133Y-83820000D01*
X136199873Y-83693000D01*
X137593867Y-83693000D01*
X137612302Y-83821223D01*
X137612302Y-83821224D01*
X137612303Y-83821226D01*
X137666118Y-83939063D01*
X137750951Y-84036967D01*
X137859931Y-84107004D01*
X137984228Y-84143500D01*
X138113772Y-84143500D01*
X138238069Y-84107004D01*
X138347049Y-84036967D01*
X138431882Y-83939063D01*
X138485697Y-83821226D01*
X138504133Y-83693000D01*
X138485697Y-83564774D01*
X138431882Y-83446937D01*
X138347049Y-83349033D01*
X138280032Y-83305964D01*
X138238068Y-83278995D01*
X138113772Y-83242500D01*
X137984228Y-83242500D01*
X137859931Y-83278995D01*
X137750954Y-83349031D01*
X137750950Y-83349034D01*
X137666119Y-83446935D01*
X137612302Y-83564776D01*
X137593867Y-83693000D01*
X136199873Y-83693000D01*
X136199697Y-83691774D01*
X136150686Y-83584457D01*
X136144000Y-83553718D01*
X136144000Y-83421064D01*
X136150687Y-83390323D01*
X136174297Y-83338626D01*
X136192733Y-83210400D01*
X136174297Y-83082174D01*
X136161751Y-83054702D01*
X136150687Y-83030474D01*
X136144000Y-82999734D01*
X136144000Y-81354000D01*
X136165674Y-81301674D01*
X136218000Y-81280000D01*
X139753000Y-81280000D01*
X139805326Y-81301674D01*
G37*
G04 #@! TD.AperFunction*
G04 #@! TA.AperFunction,Conductor*
G36*
X140313326Y-93950874D02*
G01*
X140335000Y-94003200D01*
X140335000Y-95974510D01*
X140316926Y-96022969D01*
X140231520Y-96121532D01*
X140231519Y-96121534D01*
X140177702Y-96239376D01*
X140159267Y-96367600D01*
X140177702Y-96495823D01*
X140231519Y-96613665D01*
X140231521Y-96613667D01*
X140316925Y-96712229D01*
X140335000Y-96760689D01*
X140335000Y-97142718D01*
X140328313Y-97173459D01*
X140279302Y-97280776D01*
X140260867Y-97409000D01*
X140279302Y-97537223D01*
X140279302Y-97537224D01*
X140279303Y-97537226D01*
X140328313Y-97644543D01*
X140335000Y-97675281D01*
X140335000Y-98425000D01*
X140347917Y-98437917D01*
X140369591Y-98490243D01*
X140351517Y-98538702D01*
X140333121Y-98559932D01*
X140333119Y-98559934D01*
X140279302Y-98677776D01*
X140260867Y-98806000D01*
X140279302Y-98934223D01*
X140279302Y-98934224D01*
X140279303Y-98934226D01*
X140333118Y-99052063D01*
X140417951Y-99149967D01*
X140526931Y-99220004D01*
X140651228Y-99256500D01*
X140780772Y-99256500D01*
X140905069Y-99220004D01*
X141014049Y-99149967D01*
X141098882Y-99052063D01*
X141152697Y-98934226D01*
X141171133Y-98806000D01*
X141152697Y-98677774D01*
X141098882Y-98559937D01*
X141098880Y-98559935D01*
X141098880Y-98559934D01*
X141098878Y-98559932D01*
X141088071Y-98547459D01*
X141070186Y-98493720D01*
X141095538Y-98443074D01*
X141143997Y-98425000D01*
X145468000Y-98425000D01*
X145520326Y-98446674D01*
X145542000Y-98499000D01*
X145542000Y-115519200D01*
X141425000Y-115519200D01*
X141372674Y-115497526D01*
X141351000Y-115445200D01*
X141351000Y-102819200D01*
X136091000Y-102819200D01*
X136038674Y-102797526D01*
X136017000Y-102745200D01*
X136017000Y-101219000D01*
X140133867Y-101219000D01*
X140152302Y-101347223D01*
X140152302Y-101347224D01*
X140152303Y-101347226D01*
X140206118Y-101465063D01*
X140290951Y-101562967D01*
X140399931Y-101633004D01*
X140524228Y-101669500D01*
X140653772Y-101669500D01*
X140778069Y-101633004D01*
X140887049Y-101562967D01*
X140971882Y-101465063D01*
X141025697Y-101347226D01*
X141044133Y-101219000D01*
X141025697Y-101090774D01*
X140975669Y-100981231D01*
X140973649Y-100924632D01*
X141012242Y-100883179D01*
X141063829Y-100879489D01*
X141159228Y-100907500D01*
X141288772Y-100907500D01*
X141413069Y-100871004D01*
X141522049Y-100800967D01*
X141606882Y-100703063D01*
X141660697Y-100585226D01*
X141679133Y-100457000D01*
X141660697Y-100328774D01*
X141606882Y-100210937D01*
X141522049Y-100113033D01*
X141455032Y-100069964D01*
X141413068Y-100042995D01*
X141288772Y-100006500D01*
X141159228Y-100006500D01*
X141034931Y-100042995D01*
X140925954Y-100113031D01*
X140925950Y-100113034D01*
X140841119Y-100210935D01*
X140787302Y-100328776D01*
X140768867Y-100457000D01*
X140787302Y-100585223D01*
X140837329Y-100694766D01*
X140839350Y-100751367D01*
X140800757Y-100792820D01*
X140749168Y-100796510D01*
X140653772Y-100768500D01*
X140524228Y-100768500D01*
X140399931Y-100804995D01*
X140290954Y-100875031D01*
X140290950Y-100875034D01*
X140206119Y-100972935D01*
X140152302Y-101090776D01*
X140133867Y-101219000D01*
X136017000Y-101219000D01*
X136017000Y-100711000D01*
X136450867Y-100711000D01*
X136469302Y-100839223D01*
X136469302Y-100839224D01*
X136469303Y-100839226D01*
X136523118Y-100957063D01*
X136607951Y-101054967D01*
X136716931Y-101125004D01*
X136841228Y-101161500D01*
X136970772Y-101161500D01*
X137095069Y-101125004D01*
X137204049Y-101054967D01*
X137288882Y-100957063D01*
X137342697Y-100839226D01*
X137361133Y-100711000D01*
X137342697Y-100582774D01*
X137288882Y-100464937D01*
X137204049Y-100367033D01*
X137137032Y-100323964D01*
X137095068Y-100296995D01*
X136970772Y-100260500D01*
X136841228Y-100260500D01*
X136716931Y-100296995D01*
X136607954Y-100367031D01*
X136607950Y-100367034D01*
X136523119Y-100464935D01*
X136469302Y-100582776D01*
X136450867Y-100711000D01*
X136017000Y-100711000D01*
X136017000Y-94003200D01*
X136038674Y-93950874D01*
X136091000Y-93929200D01*
X136144000Y-93929200D01*
X139827000Y-93929200D01*
X140261000Y-93929200D01*
X140313326Y-93950874D01*
G37*
G04 #@! TD.AperFunction*
G04 #@! TA.AperFunction,Conductor*
G36*
X135223535Y-77240185D02*
G01*
X135269290Y-77292989D01*
X135279234Y-77362147D01*
X135250209Y-77425703D01*
X135244177Y-77432181D01*
X135243383Y-77432974D01*
X135243379Y-77432978D01*
X135243379Y-77432979D01*
X135223890Y-77458377D01*
X135155137Y-77547977D01*
X135099671Y-77681887D01*
X135099670Y-77681891D01*
X135080775Y-77825413D01*
X135080750Y-77825600D01*
X135096509Y-77945303D01*
X135099670Y-77969308D01*
X135099671Y-77969312D01*
X135155137Y-78103222D01*
X135155138Y-78103224D01*
X135155139Y-78103225D01*
X135243379Y-78218221D01*
X135358375Y-78306461D01*
X135358376Y-78306461D01*
X135358377Y-78306462D01*
X135380185Y-78315495D01*
X135492291Y-78361930D01*
X135619280Y-78378648D01*
X135635999Y-78380850D01*
X135636000Y-78380850D01*
X135636001Y-78380850D01*
X135650977Y-78378878D01*
X135779709Y-78361930D01*
X135913625Y-78306461D01*
X136028621Y-78218221D01*
X136116861Y-78103225D01*
X136172330Y-77969309D01*
X136191250Y-77825600D01*
X136191225Y-77825413D01*
X136183954Y-77770183D01*
X136172330Y-77681891D01*
X136116861Y-77547975D01*
X136028621Y-77432979D01*
X136028618Y-77432976D01*
X136028616Y-77432974D01*
X136027823Y-77432181D01*
X136027367Y-77431346D01*
X136023673Y-77426532D01*
X136024423Y-77425955D01*
X135994338Y-77370858D01*
X135999322Y-77301166D01*
X136041194Y-77245233D01*
X136106658Y-77220816D01*
X136115504Y-77220500D01*
X137220097Y-77220500D01*
X137287136Y-77240185D01*
X137332891Y-77292989D01*
X137342835Y-77362147D01*
X137313810Y-77425703D01*
X137295584Y-77442875D01*
X137275381Y-77458377D01*
X137275380Y-77458378D01*
X137275379Y-77458379D01*
X137255946Y-77483705D01*
X137187137Y-77573377D01*
X137131671Y-77707287D01*
X137131670Y-77707291D01*
X137121518Y-77784405D01*
X137112750Y-77851000D01*
X137125665Y-77949101D01*
X137131670Y-77994708D01*
X137131671Y-77994712D01*
X137187137Y-78128622D01*
X137187138Y-78128624D01*
X137187139Y-78128625D01*
X137275379Y-78243621D01*
X137390375Y-78331861D01*
X137524291Y-78387330D01*
X137651280Y-78404048D01*
X137667999Y-78406250D01*
X137668000Y-78406250D01*
X137668001Y-78406250D01*
X137682977Y-78404278D01*
X137811709Y-78387330D01*
X137945625Y-78331861D01*
X138060621Y-78243621D01*
X138148861Y-78128625D01*
X138204330Y-77994709D01*
X138223250Y-77851000D01*
X138204330Y-77707291D01*
X138148861Y-77573375D01*
X138060621Y-77458379D01*
X138040416Y-77442875D01*
X137999214Y-77386447D01*
X137995059Y-77316701D01*
X138029272Y-77255781D01*
X138090989Y-77223029D01*
X138115903Y-77220500D01*
X145166500Y-77220500D01*
X145233539Y-77240185D01*
X145279294Y-77292989D01*
X145290500Y-77344500D01*
X145290500Y-81341600D01*
X145270815Y-81408639D01*
X145218011Y-81454394D01*
X145150315Y-81464539D01*
X145000002Y-81444750D01*
X144999999Y-81444750D01*
X144856291Y-81463670D01*
X144856287Y-81463671D01*
X144722377Y-81519137D01*
X144607379Y-81607379D01*
X144519137Y-81722377D01*
X144463671Y-81856287D01*
X144463670Y-81856291D01*
X144444750Y-81999999D01*
X144444750Y-82000000D01*
X144463670Y-82143708D01*
X144463671Y-82143712D01*
X144519137Y-82277622D01*
X144519138Y-82277624D01*
X144519139Y-82277625D01*
X144607379Y-82392621D01*
X144722375Y-82480861D01*
X144856291Y-82536330D01*
X144983280Y-82553048D01*
X144999999Y-82555250D01*
X145000000Y-82555250D01*
X145000001Y-82555250D01*
X145068550Y-82546225D01*
X145143709Y-82536330D01*
X145143710Y-82536329D01*
X145150314Y-82535460D01*
X145219349Y-82546225D01*
X145271605Y-82592605D01*
X145290500Y-82658399D01*
X145290500Y-82781579D01*
X145270815Y-82848618D01*
X145246743Y-82876115D01*
X145242814Y-82879450D01*
X145178966Y-82907825D01*
X145163220Y-82908912D01*
X144646885Y-82911615D01*
X144579744Y-82892282D01*
X144565850Y-82882031D01*
X144488412Y-82816090D01*
X144357024Y-82757449D01*
X144343773Y-82753681D01*
X144289829Y-82738345D01*
X144289804Y-82738339D01*
X144289805Y-82738339D01*
X144147225Y-82719093D01*
X143162555Y-82727582D01*
X143162542Y-82727582D01*
X143162539Y-82727583D01*
X143131639Y-82731027D01*
X143059835Y-82739031D01*
X143022646Y-82747091D01*
X143010547Y-82749713D01*
X143010545Y-82749713D01*
X143010543Y-82749714D01*
X143010525Y-82749719D01*
X142912322Y-82781806D01*
X142912313Y-82781811D01*
X142790493Y-82858357D01*
X142750268Y-82892501D01*
X142686420Y-82920876D01*
X142670675Y-82921962D01*
X142041287Y-82925258D01*
X141974146Y-82905925D01*
X141960255Y-82895677D01*
X141893057Y-82838457D01*
X141842588Y-82815933D01*
X141761671Y-82779820D01*
X141761665Y-82779818D01*
X141694471Y-82760716D01*
X141694454Y-82760712D01*
X141551880Y-82741467D01*
X141197430Y-82744523D01*
X141197402Y-82744523D01*
X141197398Y-82744524D01*
X141197391Y-82744524D01*
X141197373Y-82744525D01*
X141162071Y-82746465D01*
X141150686Y-82747091D01*
X141150683Y-82747091D01*
X141150670Y-82747092D01*
X141132586Y-82748929D01*
X141127889Y-82749406D01*
X141127885Y-82749406D01*
X141127862Y-82749409D01*
X141081599Y-82756284D01*
X140945784Y-82803810D01*
X140883799Y-82836034D01*
X140782086Y-82908988D01*
X140716138Y-82932065D01*
X140710465Y-82932224D01*
X140207149Y-82934860D01*
X140140008Y-82915527D01*
X140093977Y-82862963D01*
X140082500Y-82810862D01*
X140082500Y-81353997D01*
X140063052Y-81256230D01*
X140063051Y-81256229D01*
X140063051Y-81256225D01*
X140043708Y-81209527D01*
X140042059Y-81204920D01*
X140041377Y-81203899D01*
X140041377Y-81203898D01*
X140008574Y-81154805D01*
X139985993Y-81121010D01*
X139985990Y-81121007D01*
X139903098Y-81065621D01*
X139850779Y-81043950D01*
X139850769Y-81043947D01*
X139753002Y-81024500D01*
X139753000Y-81024500D01*
X136218000Y-81024500D01*
X136217998Y-81024500D01*
X136120230Y-81043947D01*
X136120224Y-81043949D01*
X136073530Y-81063290D01*
X136068922Y-81064938D01*
X135985010Y-81121006D01*
X135985007Y-81121009D01*
X135929621Y-81203901D01*
X135907950Y-81256220D01*
X135907947Y-81256230D01*
X135888500Y-81353997D01*
X135888500Y-82533621D01*
X135868815Y-82600660D01*
X135816011Y-82646415D01*
X135748317Y-82656560D01*
X135737605Y-82655150D01*
X135737599Y-82655150D01*
X135593891Y-82674070D01*
X135593887Y-82674071D01*
X135459977Y-82729537D01*
X135344979Y-82817779D01*
X135256737Y-82932777D01*
X135201271Y-83066687D01*
X135201270Y-83066691D01*
X135182350Y-83210400D01*
X135197973Y-83329070D01*
X135201270Y-83354108D01*
X135201271Y-83354112D01*
X135259849Y-83495534D01*
X135257268Y-83496602D01*
X135270533Y-83551296D01*
X135261236Y-83592838D01*
X135226670Y-83676290D01*
X135226670Y-83676291D01*
X135207750Y-83819999D01*
X135207750Y-83820000D01*
X135226670Y-83963708D01*
X135226671Y-83963712D01*
X135282138Y-84097623D01*
X135282139Y-84097625D01*
X135352264Y-84189014D01*
X135377458Y-84254183D01*
X135363420Y-84322628D01*
X135352264Y-84339986D01*
X135282139Y-84431374D01*
X135282138Y-84431376D01*
X135226671Y-84565287D01*
X135226670Y-84565291D01*
X135207750Y-84708999D01*
X135207750Y-84709000D01*
X135226669Y-84852706D01*
X135226669Y-84852708D01*
X135226670Y-84852709D01*
X135265432Y-84946291D01*
X135268480Y-84953648D01*
X135275948Y-85023118D01*
X135268480Y-85048552D01*
X135226669Y-85149493D01*
X135221126Y-85191599D01*
X135207750Y-85293200D01*
X135223509Y-85412903D01*
X135226670Y-85436908D01*
X135226671Y-85436912D01*
X135282138Y-85570823D01*
X135282139Y-85570825D01*
X135323029Y-85624114D01*
X135348223Y-85689283D01*
X135334185Y-85757728D01*
X135323029Y-85775086D01*
X135282139Y-85828374D01*
X135282138Y-85828376D01*
X135226671Y-85962287D01*
X135226670Y-85962291D01*
X135207751Y-86105996D01*
X135207750Y-86106000D01*
X135222208Y-86215821D01*
X135226670Y-86249708D01*
X135226671Y-86249712D01*
X135279000Y-86376048D01*
X135286469Y-86445518D01*
X135279000Y-86470952D01*
X135226671Y-86597287D01*
X135226670Y-86597291D01*
X135207786Y-86740730D01*
X135207750Y-86741000D01*
X135216241Y-86805498D01*
X135226670Y-86884708D01*
X135226671Y-86884712D01*
X135282137Y-87018622D01*
X135282138Y-87018624D01*
X135282139Y-87018625D01*
X135370379Y-87133621D01*
X135485375Y-87221861D01*
X135619291Y-87277330D01*
X135763000Y-87296250D01*
X135764500Y-87296250D01*
X135765719Y-87296607D01*
X135771059Y-87297311D01*
X135770949Y-87298143D01*
X135831539Y-87315935D01*
X135877294Y-87368739D01*
X135888500Y-87420250D01*
X135888500Y-93688354D01*
X135868815Y-93755393D01*
X135863501Y-93761986D01*
X135802621Y-93853102D01*
X135780950Y-93905420D01*
X135780947Y-93905430D01*
X135761500Y-94003197D01*
X135761500Y-94003200D01*
X135761500Y-100456999D01*
X135761500Y-100710999D01*
X135761500Y-101218999D01*
X135761500Y-102745200D01*
X135761500Y-102745202D01*
X135761499Y-102745202D01*
X135780947Y-102842969D01*
X135780948Y-102842970D01*
X135780949Y-102842975D01*
X135800290Y-102889668D01*
X135801939Y-102894279D01*
X135858006Y-102978189D01*
X135858009Y-102978192D01*
X135940899Y-103033577D01*
X135993225Y-103055251D01*
X136081765Y-103072863D01*
X136143676Y-103105248D01*
X136178250Y-103165963D01*
X136181573Y-103193939D01*
X136194260Y-106099233D01*
X136174868Y-106166357D01*
X136122265Y-106212342D01*
X136071235Y-106223770D01*
X129063837Y-106278801D01*
X128996645Y-106259644D01*
X128950477Y-106207201D01*
X128939924Y-106138621D01*
X128952250Y-106045000D01*
X128933330Y-105901291D01*
X128877861Y-105767375D01*
X128789621Y-105652379D01*
X128674625Y-105564139D01*
X128674624Y-105564138D01*
X128674622Y-105564137D01*
X128540712Y-105508671D01*
X128540710Y-105508670D01*
X128540709Y-105508670D01*
X128468854Y-105499210D01*
X128397001Y-105489750D01*
X128396999Y-105489750D01*
X128253291Y-105508670D01*
X128253287Y-105508671D01*
X128119377Y-105564137D01*
X128004379Y-105652379D01*
X127916137Y-105767377D01*
X127860671Y-105901287D01*
X127860670Y-105901291D01*
X127841750Y-106044999D01*
X127841750Y-106045000D01*
X127855451Y-106149067D01*
X127844686Y-106218103D01*
X127798306Y-106270359D01*
X127733486Y-106289249D01*
X127065474Y-106294495D01*
X126998282Y-106275338D01*
X126952114Y-106222895D01*
X126940500Y-106170499D01*
X126940500Y-104038399D01*
X133455150Y-104038399D01*
X133455150Y-104038400D01*
X133474070Y-104182108D01*
X133474071Y-104182112D01*
X133529537Y-104316022D01*
X133529538Y-104316024D01*
X133529539Y-104316025D01*
X133617779Y-104431021D01*
X133617782Y-104431023D01*
X133639939Y-104448026D01*
X133681141Y-104504454D01*
X133685294Y-104574200D01*
X133651081Y-104635120D01*
X133639939Y-104644774D01*
X133617782Y-104661776D01*
X133617780Y-104661777D01*
X133617779Y-104661779D01*
X133607500Y-104675175D01*
X133529537Y-104776777D01*
X133474071Y-104910687D01*
X133474070Y-104910691D01*
X133455150Y-105054399D01*
X133455150Y-105054400D01*
X133474070Y-105198108D01*
X133474071Y-105198112D01*
X133529537Y-105332022D01*
X133529538Y-105332024D01*
X133529539Y-105332025D01*
X133617779Y-105447021D01*
X133732775Y-105535261D01*
X133866691Y-105590730D01*
X133993680Y-105607448D01*
X134010399Y-105609650D01*
X134010400Y-105609650D01*
X134010401Y-105609650D01*
X134025377Y-105607678D01*
X134154109Y-105590730D01*
X134288025Y-105535261D01*
X134403021Y-105447021D01*
X134491261Y-105332025D01*
X134546730Y-105198109D01*
X134565650Y-105054400D01*
X134546730Y-104910691D01*
X134491261Y-104776775D01*
X134403021Y-104661779D01*
X134380859Y-104644773D01*
X134339659Y-104588348D01*
X134335504Y-104518602D01*
X134369716Y-104457681D01*
X134380850Y-104448033D01*
X134403021Y-104431021D01*
X134491261Y-104316025D01*
X134546730Y-104182109D01*
X134565650Y-104038400D01*
X134546730Y-103894691D01*
X134491261Y-103760775D01*
X134403021Y-103645779D01*
X134288025Y-103557539D01*
X134288024Y-103557538D01*
X134288022Y-103557537D01*
X134154112Y-103502071D01*
X134154110Y-103502070D01*
X134154109Y-103502070D01*
X134082254Y-103492610D01*
X134010401Y-103483150D01*
X134010399Y-103483150D01*
X133866691Y-103502070D01*
X133866687Y-103502071D01*
X133732777Y-103557537D01*
X133617779Y-103645779D01*
X133529537Y-103760777D01*
X133474071Y-103894687D01*
X133474070Y-103894691D01*
X133455150Y-104038399D01*
X126940500Y-104038399D01*
X126940500Y-101980999D01*
X129873750Y-101980999D01*
X129873750Y-101981000D01*
X129892670Y-102124708D01*
X129892671Y-102124712D01*
X129948137Y-102258622D01*
X129948138Y-102258624D01*
X129948139Y-102258625D01*
X130036379Y-102373621D01*
X130151375Y-102461861D01*
X130151376Y-102461861D01*
X130151377Y-102461862D01*
X130154516Y-102463162D01*
X130285291Y-102517330D01*
X130412280Y-102534048D01*
X130428999Y-102536250D01*
X130429000Y-102536250D01*
X130429001Y-102536250D01*
X130460947Y-102532044D01*
X130529982Y-102542809D01*
X130582238Y-102589189D01*
X130601124Y-102656458D01*
X130585956Y-102711745D01*
X130586249Y-102711866D01*
X130585285Y-102714191D01*
X130584520Y-102716983D01*
X130583138Y-102719376D01*
X130527671Y-102853287D01*
X130527670Y-102853291D01*
X130508750Y-102996999D01*
X130508750Y-102997000D01*
X130527670Y-103140708D01*
X130527671Y-103140712D01*
X130583137Y-103274622D01*
X130583138Y-103274624D01*
X130583139Y-103274625D01*
X130671379Y-103389621D01*
X130786375Y-103477861D01*
X130920291Y-103533330D01*
X131047280Y-103550048D01*
X131063999Y-103552250D01*
X131064000Y-103552250D01*
X131064001Y-103552250D01*
X131078977Y-103550278D01*
X131207709Y-103533330D01*
X131341625Y-103477861D01*
X131456621Y-103389621D01*
X131544861Y-103274625D01*
X131600330Y-103140709D01*
X131619250Y-102997000D01*
X131600330Y-102853291D01*
X131544861Y-102719375D01*
X131544860Y-102719374D01*
X131544860Y-102719373D01*
X131508930Y-102672549D01*
X131483735Y-102607380D01*
X131497773Y-102538935D01*
X131531817Y-102498688D01*
X131639978Y-102415693D01*
X131728218Y-102300697D01*
X131783687Y-102166781D01*
X131802607Y-102023072D01*
X131783687Y-101879363D01*
X131728218Y-101745447D01*
X131639978Y-101630451D01*
X131524982Y-101542211D01*
X131524981Y-101542210D01*
X131524979Y-101542209D01*
X131391069Y-101486743D01*
X131391067Y-101486742D01*
X131391066Y-101486742D01*
X131319211Y-101477282D01*
X131247358Y-101467822D01*
X131247356Y-101467822D01*
X131103648Y-101486742D01*
X131103644Y-101486743D01*
X130969733Y-101542210D01*
X130969732Y-101542210D01*
X130941077Y-101564198D01*
X130875907Y-101589391D01*
X130807463Y-101575352D01*
X130790105Y-101564196D01*
X130706626Y-101500139D01*
X130706623Y-101500138D01*
X130572712Y-101444671D01*
X130572710Y-101444670D01*
X130572709Y-101444670D01*
X130500854Y-101435210D01*
X130429001Y-101425750D01*
X130428999Y-101425750D01*
X130285291Y-101444670D01*
X130285287Y-101444671D01*
X130151377Y-101500137D01*
X130036379Y-101588379D01*
X129948137Y-101703377D01*
X129892671Y-101837287D01*
X129892670Y-101837291D01*
X129873750Y-101980999D01*
X126940500Y-101980999D01*
X126940500Y-99618800D01*
X128984750Y-99618800D01*
X128991426Y-99669512D01*
X129003670Y-99762508D01*
X129003671Y-99762512D01*
X129059137Y-99896422D01*
X129059138Y-99896424D01*
X129059139Y-99896425D01*
X129147379Y-100011421D01*
X129262375Y-100099661D01*
X129396291Y-100155130D01*
X129523280Y-100171848D01*
X129539999Y-100174050D01*
X129540000Y-100174050D01*
X129540001Y-100174050D01*
X129554977Y-100172078D01*
X129683709Y-100155130D01*
X129817625Y-100099661D01*
X129848462Y-100075999D01*
X133404350Y-100075999D01*
X133404350Y-100076000D01*
X133423270Y-100219708D01*
X133423271Y-100219712D01*
X133478737Y-100353622D01*
X133478738Y-100353624D01*
X133478739Y-100353625D01*
X133566979Y-100468621D01*
X133681975Y-100556861D01*
X133815891Y-100612330D01*
X133942880Y-100629048D01*
X133959599Y-100631250D01*
X133959600Y-100631250D01*
X133959601Y-100631250D01*
X133974577Y-100629278D01*
X134103309Y-100612330D01*
X134237225Y-100556861D01*
X134352221Y-100468621D01*
X134440461Y-100353625D01*
X134495930Y-100219709D01*
X134514850Y-100076000D01*
X134495930Y-99932291D01*
X134440461Y-99798375D01*
X134352221Y-99683379D01*
X134237225Y-99595139D01*
X134237224Y-99595138D01*
X134237222Y-99595137D01*
X134103312Y-99539671D01*
X134103310Y-99539670D01*
X134103309Y-99539670D01*
X134031454Y-99530210D01*
X133959601Y-99520750D01*
X133959599Y-99520750D01*
X133815891Y-99539670D01*
X133815887Y-99539671D01*
X133681977Y-99595137D01*
X133566979Y-99683379D01*
X133478737Y-99798377D01*
X133423271Y-99932287D01*
X133423270Y-99932291D01*
X133404350Y-100075999D01*
X129848462Y-100075999D01*
X129932621Y-100011421D01*
X130020861Y-99896425D01*
X130076330Y-99762509D01*
X130095250Y-99618800D01*
X130094541Y-99613416D01*
X130105305Y-99544383D01*
X130151684Y-99492126D01*
X130170028Y-99482669D01*
X130228450Y-99458469D01*
X130274825Y-99439261D01*
X130389821Y-99351021D01*
X130478061Y-99236025D01*
X130533530Y-99102109D01*
X130552450Y-98958400D01*
X130533530Y-98814691D01*
X130478061Y-98680775D01*
X130389821Y-98565779D01*
X130274825Y-98477539D01*
X130274824Y-98477538D01*
X130274822Y-98477537D01*
X130140912Y-98422071D01*
X130140910Y-98422070D01*
X130140909Y-98422070D01*
X130069054Y-98412610D01*
X129997201Y-98403150D01*
X129997199Y-98403150D01*
X129853491Y-98422070D01*
X129853487Y-98422071D01*
X129719577Y-98477537D01*
X129604579Y-98565779D01*
X129516337Y-98680777D01*
X129460871Y-98814687D01*
X129460870Y-98814691D01*
X129441950Y-98958399D01*
X129441950Y-98958404D01*
X129442659Y-98963792D01*
X129431889Y-99032827D01*
X129385506Y-99085080D01*
X129367172Y-99094531D01*
X129262376Y-99137938D01*
X129147379Y-99226179D01*
X129059137Y-99341177D01*
X129003671Y-99475087D01*
X129003670Y-99475091D01*
X128985459Y-99613418D01*
X128984750Y-99618800D01*
X126940500Y-99618800D01*
X126940500Y-97918742D01*
X126960185Y-97851703D01*
X127012989Y-97805948D01*
X127082147Y-97796004D01*
X127145703Y-97825029D01*
X127162870Y-97843249D01*
X127228379Y-97928621D01*
X127343375Y-98016861D01*
X127477291Y-98072330D01*
X127604280Y-98089048D01*
X127620999Y-98091250D01*
X127621000Y-98091250D01*
X127621001Y-98091250D01*
X127635977Y-98089278D01*
X127764709Y-98072330D01*
X127898625Y-98016861D01*
X128013621Y-97928621D01*
X128101861Y-97813625D01*
X128157330Y-97679709D01*
X128176250Y-97536000D01*
X128157330Y-97392291D01*
X128101861Y-97258375D01*
X128042028Y-97180399D01*
X130407150Y-97180399D01*
X130407150Y-97180400D01*
X130426070Y-97324108D01*
X130426071Y-97324112D01*
X130481537Y-97458022D01*
X130481538Y-97458024D01*
X130481539Y-97458025D01*
X130569779Y-97573021D01*
X130684775Y-97661261D01*
X130684776Y-97661261D01*
X130684777Y-97661262D01*
X130710074Y-97671740D01*
X130818691Y-97716730D01*
X130945680Y-97733448D01*
X130962399Y-97735650D01*
X130962400Y-97735650D01*
X130962401Y-97735650D01*
X130977377Y-97733678D01*
X131106109Y-97716730D01*
X131240025Y-97661261D01*
X131355021Y-97573021D01*
X131443261Y-97458025D01*
X131498730Y-97324109D01*
X131517650Y-97180400D01*
X131517356Y-97178170D01*
X131505234Y-97086095D01*
X131498730Y-97036691D01*
X131443261Y-96902775D01*
X131355021Y-96787779D01*
X131337064Y-96774000D01*
X132591550Y-96774000D01*
X132608270Y-96901002D01*
X132610470Y-96917708D01*
X132610471Y-96917712D01*
X132665937Y-97051622D01*
X132665938Y-97051624D01*
X132665939Y-97051625D01*
X132754179Y-97166621D01*
X132869175Y-97254861D01*
X132869176Y-97254861D01*
X132869177Y-97254862D01*
X132887388Y-97262405D01*
X133003091Y-97310330D01*
X133130080Y-97327048D01*
X133146799Y-97329250D01*
X133146800Y-97329250D01*
X133146801Y-97329250D01*
X133161777Y-97327278D01*
X133290509Y-97310330D01*
X133424425Y-97254861D01*
X133480708Y-97211672D01*
X133545877Y-97186478D01*
X133614322Y-97200516D01*
X133654570Y-97234561D01*
X133719378Y-97319020D01*
X133719380Y-97319022D01*
X133741539Y-97336026D01*
X133782741Y-97392454D01*
X133786894Y-97462200D01*
X133752681Y-97523120D01*
X133741539Y-97532774D01*
X133719382Y-97549776D01*
X133719380Y-97549777D01*
X133719379Y-97549779D01*
X133666435Y-97618776D01*
X133631137Y-97664777D01*
X133575671Y-97798687D01*
X133575670Y-97798691D01*
X133556750Y-97942399D01*
X133556750Y-97942400D01*
X133575670Y-98086108D01*
X133575671Y-98086112D01*
X133631137Y-98220022D01*
X133631138Y-98220024D01*
X133631139Y-98220025D01*
X133719379Y-98335021D01*
X133834375Y-98423261D01*
X133968291Y-98478730D01*
X134095280Y-98495448D01*
X134111999Y-98497650D01*
X134112000Y-98497650D01*
X134112001Y-98497650D01*
X134126977Y-98495678D01*
X134255709Y-98478730D01*
X134389625Y-98423261D01*
X134504621Y-98335021D01*
X134592861Y-98220025D01*
X134648330Y-98086109D01*
X134667250Y-97942400D01*
X134666752Y-97938621D01*
X134654549Y-97845930D01*
X134648330Y-97798691D01*
X134592861Y-97664775D01*
X134504621Y-97549779D01*
X134482459Y-97532773D01*
X134441259Y-97476348D01*
X134437104Y-97406602D01*
X134471316Y-97345681D01*
X134482450Y-97336033D01*
X134504621Y-97319021D01*
X134592861Y-97204025D01*
X134648330Y-97070109D01*
X134667250Y-96926400D01*
X134648330Y-96782691D01*
X134592861Y-96648775D01*
X134504621Y-96533779D01*
X134504619Y-96533778D01*
X134504619Y-96533777D01*
X134455875Y-96496375D01*
X134449359Y-96491374D01*
X134408157Y-96434948D01*
X134404002Y-96365202D01*
X134438214Y-96304282D01*
X134449355Y-96294628D01*
X134504621Y-96252221D01*
X134592861Y-96137225D01*
X134648330Y-96003309D01*
X134667250Y-95859600D01*
X134648330Y-95715891D01*
X134592861Y-95581975D01*
X134504621Y-95466979D01*
X134504619Y-95466978D01*
X134504619Y-95466977D01*
X134468481Y-95439248D01*
X134416256Y-95399174D01*
X134375055Y-95342748D01*
X134370900Y-95273002D01*
X134405112Y-95212082D01*
X134416251Y-95202429D01*
X134504621Y-95134621D01*
X134592861Y-95019625D01*
X134648330Y-94885709D01*
X134667250Y-94742000D01*
X134648330Y-94598291D01*
X134592861Y-94464375D01*
X134504621Y-94349379D01*
X134389625Y-94261139D01*
X134389624Y-94261138D01*
X134389622Y-94261137D01*
X134255712Y-94205671D01*
X134255710Y-94205670D01*
X134255709Y-94205670D01*
X134183854Y-94196210D01*
X134112001Y-94186750D01*
X134111999Y-94186750D01*
X133968291Y-94205670D01*
X133968287Y-94205671D01*
X133834377Y-94261137D01*
X133719379Y-94349379D01*
X133631137Y-94464377D01*
X133575671Y-94598287D01*
X133575670Y-94598291D01*
X133556750Y-94741999D01*
X133556750Y-94742000D01*
X133575670Y-94885708D01*
X133575671Y-94885712D01*
X133631137Y-95019622D01*
X133631138Y-95019624D01*
X133631139Y-95019625D01*
X133719379Y-95134621D01*
X133774175Y-95176668D01*
X133807742Y-95202425D01*
X133848944Y-95258853D01*
X133853099Y-95328599D01*
X133818886Y-95389519D01*
X133807742Y-95399175D01*
X133719381Y-95466977D01*
X133631137Y-95581977D01*
X133575671Y-95715887D01*
X133575670Y-95715891D01*
X133556750Y-95859599D01*
X133556750Y-95859600D01*
X133575670Y-96003308D01*
X133575671Y-96003312D01*
X133631137Y-96137222D01*
X133631138Y-96137224D01*
X133631139Y-96137225D01*
X133644687Y-96154882D01*
X133669881Y-96220049D01*
X133655843Y-96288494D01*
X133607029Y-96338484D01*
X133538938Y-96354148D01*
X133473187Y-96330512D01*
X133470825Y-96328743D01*
X133424425Y-96293139D01*
X133424423Y-96293138D01*
X133290512Y-96237671D01*
X133290510Y-96237670D01*
X133290509Y-96237670D01*
X133218654Y-96228210D01*
X133146801Y-96218750D01*
X133146799Y-96218750D01*
X133003091Y-96237670D01*
X133003087Y-96237671D01*
X132869177Y-96293137D01*
X132754179Y-96381379D01*
X132665937Y-96496377D01*
X132610471Y-96630287D01*
X132610470Y-96630291D01*
X132591550Y-96774000D01*
X131337064Y-96774000D01*
X131240025Y-96699539D01*
X131240024Y-96699538D01*
X131240022Y-96699537D01*
X131106112Y-96644071D01*
X131106110Y-96644070D01*
X131106109Y-96644070D01*
X131034254Y-96634610D01*
X130962401Y-96625150D01*
X130962399Y-96625150D01*
X130818691Y-96644070D01*
X130818687Y-96644071D01*
X130684777Y-96699537D01*
X130569779Y-96787779D01*
X130481537Y-96902777D01*
X130426071Y-97036687D01*
X130426070Y-97036691D01*
X130407150Y-97180399D01*
X128042028Y-97180399D01*
X128013621Y-97143379D01*
X127898625Y-97055139D01*
X127898624Y-97055138D01*
X127898622Y-97055137D01*
X127764712Y-96999671D01*
X127764710Y-96999670D01*
X127764709Y-96999670D01*
X127692854Y-96990210D01*
X127621001Y-96980750D01*
X127620999Y-96980750D01*
X127477291Y-96999670D01*
X127477287Y-96999671D01*
X127343377Y-97055137D01*
X127285877Y-97099259D01*
X127228379Y-97143379D01*
X127228378Y-97143380D01*
X127228377Y-97143381D01*
X127162875Y-97228744D01*
X127106447Y-97269947D01*
X127036701Y-97274101D01*
X126975781Y-97239888D01*
X126943029Y-97178170D01*
X126940500Y-97153257D01*
X126940500Y-93471999D01*
X128984750Y-93471999D01*
X128984750Y-93472000D01*
X129003670Y-93615708D01*
X129003671Y-93615712D01*
X129059137Y-93749622D01*
X129059138Y-93749624D01*
X129059139Y-93749625D01*
X129147379Y-93864621D01*
X129262375Y-93952861D01*
X129396291Y-94008330D01*
X129523280Y-94025048D01*
X129539999Y-94027250D01*
X129540000Y-94027250D01*
X129540001Y-94027250D01*
X129554977Y-94025278D01*
X129683709Y-94008330D01*
X129817625Y-93952861D01*
X129932621Y-93864621D01*
X130020861Y-93749625D01*
X130076330Y-93615709D01*
X130095250Y-93472000D01*
X130076330Y-93328291D01*
X130020861Y-93194375D01*
X129932621Y-93079379D01*
X129817625Y-92991139D01*
X129817624Y-92991138D01*
X129817622Y-92991137D01*
X129683712Y-92935671D01*
X129683710Y-92935670D01*
X129683709Y-92935670D01*
X129611854Y-92926210D01*
X129540001Y-92916750D01*
X129539999Y-92916750D01*
X129396291Y-92935670D01*
X129396287Y-92935671D01*
X129262377Y-92991137D01*
X129147379Y-93079379D01*
X129059137Y-93194377D01*
X129003671Y-93328287D01*
X129003670Y-93328291D01*
X128984750Y-93471999D01*
X126940500Y-93471999D01*
X126940500Y-91440000D01*
X128349750Y-91440000D01*
X128357398Y-91498095D01*
X128368670Y-91583708D01*
X128368671Y-91583712D01*
X128424137Y-91717622D01*
X128424138Y-91717624D01*
X128424139Y-91717625D01*
X128512379Y-91832621D01*
X128627375Y-91920861D01*
X128761291Y-91976330D01*
X128888280Y-91993048D01*
X128904999Y-91995250D01*
X128905000Y-91995250D01*
X128905001Y-91995250D01*
X128919977Y-91993278D01*
X129048709Y-91976330D01*
X129182625Y-91920861D01*
X129297621Y-91832621D01*
X129385861Y-91717625D01*
X129441330Y-91583709D01*
X129460250Y-91440000D01*
X129441330Y-91296291D01*
X129404350Y-91207013D01*
X129385862Y-91162377D01*
X129385861Y-91162376D01*
X129385861Y-91162375D01*
X129297621Y-91047379D01*
X129182625Y-90959139D01*
X129182624Y-90959138D01*
X129182622Y-90959137D01*
X129048712Y-90903671D01*
X129048710Y-90903670D01*
X129048709Y-90903670D01*
X128976854Y-90894210D01*
X128905001Y-90884750D01*
X128904999Y-90884750D01*
X128761291Y-90903670D01*
X128761287Y-90903671D01*
X128627377Y-90959137D01*
X128512379Y-91047379D01*
X128424137Y-91162377D01*
X128368671Y-91296287D01*
X128368670Y-91296291D01*
X128355528Y-91396116D01*
X128349750Y-91440000D01*
X126940500Y-91440000D01*
X126940500Y-88863189D01*
X128339531Y-88863189D01*
X128339531Y-88863190D01*
X128358451Y-89006898D01*
X128358452Y-89006902D01*
X128413918Y-89140812D01*
X128413919Y-89140814D01*
X128413920Y-89140815D01*
X128502160Y-89255811D01*
X128617156Y-89344051D01*
X128751072Y-89399520D01*
X128878061Y-89416238D01*
X128894780Y-89418440D01*
X128894781Y-89418440D01*
X128894782Y-89418440D01*
X128909758Y-89416468D01*
X129038490Y-89399520D01*
X129172406Y-89344051D01*
X129287402Y-89255811D01*
X129375642Y-89140815D01*
X129431111Y-89006899D01*
X129450031Y-88863190D01*
X129431111Y-88719481D01*
X129391603Y-88624098D01*
X129375643Y-88585567D01*
X129375642Y-88585566D01*
X129375642Y-88585565D01*
X129287402Y-88470569D01*
X129172406Y-88382329D01*
X129172405Y-88382328D01*
X129172403Y-88382327D01*
X129038493Y-88326861D01*
X129038491Y-88326860D01*
X129038490Y-88326860D01*
X128966635Y-88317400D01*
X128894782Y-88307940D01*
X128894780Y-88307940D01*
X128751072Y-88326860D01*
X128751068Y-88326861D01*
X128617158Y-88382327D01*
X128502160Y-88470569D01*
X128413918Y-88585567D01*
X128358452Y-88719477D01*
X128358451Y-88719481D01*
X128339531Y-88863189D01*
X126940500Y-88863189D01*
X126940500Y-86359999D01*
X128349750Y-86359999D01*
X128349750Y-86360000D01*
X128368670Y-86503708D01*
X128368671Y-86503712D01*
X128424137Y-86637622D01*
X128424138Y-86637624D01*
X128424139Y-86637625D01*
X128512379Y-86752621D01*
X128627375Y-86840861D01*
X128761291Y-86896330D01*
X128888280Y-86913048D01*
X128904999Y-86915250D01*
X128905000Y-86915250D01*
X128905001Y-86915250D01*
X128919977Y-86913278D01*
X129048709Y-86896330D01*
X129182625Y-86840861D01*
X129297621Y-86752621D01*
X129385861Y-86637625D01*
X129441330Y-86503709D01*
X129460250Y-86360000D01*
X129460250Y-86359999D01*
X131575550Y-86359999D01*
X131575550Y-86360000D01*
X131594470Y-86503708D01*
X131594471Y-86503712D01*
X131649937Y-86637622D01*
X131649938Y-86637624D01*
X131649939Y-86637625D01*
X131738179Y-86752621D01*
X131853175Y-86840861D01*
X131987091Y-86896330D01*
X132114080Y-86913048D01*
X132130799Y-86915250D01*
X132130800Y-86915250D01*
X132130801Y-86915250D01*
X132145777Y-86913278D01*
X132274509Y-86896330D01*
X132408425Y-86840861D01*
X132523421Y-86752621D01*
X132611661Y-86637625D01*
X132667130Y-86503709D01*
X132686050Y-86360000D01*
X132667130Y-86216291D01*
X132611661Y-86082375D01*
X132523421Y-85967379D01*
X132408425Y-85879139D01*
X132408424Y-85879138D01*
X132408422Y-85879137D01*
X132274512Y-85823671D01*
X132274510Y-85823670D01*
X132274509Y-85823670D01*
X132202654Y-85814210D01*
X132130801Y-85804750D01*
X132130799Y-85804750D01*
X131987091Y-85823670D01*
X131987087Y-85823671D01*
X131853177Y-85879137D01*
X131738179Y-85967379D01*
X131649937Y-86082377D01*
X131594471Y-86216287D01*
X131594470Y-86216291D01*
X131575550Y-86359999D01*
X129460250Y-86359999D01*
X129441330Y-86216291D01*
X129385861Y-86082375D01*
X129297621Y-85967379D01*
X129182625Y-85879139D01*
X129182624Y-85879138D01*
X129182622Y-85879137D01*
X129048712Y-85823671D01*
X129048710Y-85823670D01*
X129048709Y-85823670D01*
X128976854Y-85814210D01*
X128905001Y-85804750D01*
X128904999Y-85804750D01*
X128761291Y-85823670D01*
X128761287Y-85823671D01*
X128627377Y-85879137D01*
X128512379Y-85967379D01*
X128424137Y-86082377D01*
X128368671Y-86216287D01*
X128368670Y-86216291D01*
X128349750Y-86359999D01*
X126940500Y-86359999D01*
X126940500Y-85454497D01*
X126960185Y-85387458D01*
X127012989Y-85341703D01*
X127082147Y-85331759D01*
X127145703Y-85360784D01*
X127162870Y-85379004D01*
X127242379Y-85482621D01*
X127357375Y-85570861D01*
X127491291Y-85626330D01*
X127618280Y-85643048D01*
X127634999Y-85645250D01*
X127635000Y-85645250D01*
X127635001Y-85645250D01*
X127649977Y-85643278D01*
X127778709Y-85626330D01*
X127912625Y-85570861D01*
X128027621Y-85482621D01*
X128115861Y-85367625D01*
X128171330Y-85233709D01*
X128190250Y-85090000D01*
X128171330Y-84946291D01*
X128128211Y-84842192D01*
X128115862Y-84812377D01*
X128115861Y-84812376D01*
X128115861Y-84812375D01*
X128027621Y-84697379D01*
X127912625Y-84609139D01*
X127912624Y-84609138D01*
X127912622Y-84609137D01*
X127778712Y-84553671D01*
X127778710Y-84553670D01*
X127778709Y-84553670D01*
X127696297Y-84542820D01*
X127635001Y-84534750D01*
X127634999Y-84534750D01*
X127491291Y-84553670D01*
X127491287Y-84553671D01*
X127357377Y-84609137D01*
X127321913Y-84636350D01*
X127242379Y-84697379D01*
X127242378Y-84697380D01*
X127242377Y-84697381D01*
X127162875Y-84800989D01*
X127106447Y-84842192D01*
X127036701Y-84846346D01*
X126975781Y-84812133D01*
X126943029Y-84750415D01*
X126940500Y-84725502D01*
X126940500Y-84150200D01*
X132439150Y-84150200D01*
X132457894Y-84292575D01*
X132458070Y-84293908D01*
X132458071Y-84293912D01*
X132513537Y-84427822D01*
X132513538Y-84427823D01*
X132513539Y-84427825D01*
X132601779Y-84542821D01*
X132716775Y-84631061D01*
X132850691Y-84686530D01*
X132994400Y-84705450D01*
X133018792Y-84702238D01*
X133087824Y-84713002D01*
X133140081Y-84759380D01*
X133158968Y-84826649D01*
X133138489Y-84893450D01*
X133133354Y-84900661D01*
X133123141Y-84913970D01*
X133123138Y-84913976D01*
X133067671Y-85047887D01*
X133067670Y-85047891D01*
X133048750Y-85191600D01*
X133063170Y-85301132D01*
X133067670Y-85335308D01*
X133067671Y-85335312D01*
X133123137Y-85469222D01*
X133123138Y-85469224D01*
X133123139Y-85469225D01*
X133211379Y-85584221D01*
X133326375Y-85672461D01*
X133326376Y-85672461D01*
X133326377Y-85672462D01*
X133371013Y-85690950D01*
X133460291Y-85727930D01*
X133587280Y-85744648D01*
X133603999Y-85746850D01*
X133604000Y-85746850D01*
X133604001Y-85746850D01*
X133618977Y-85744878D01*
X133747709Y-85727930D01*
X133881625Y-85672461D01*
X133996621Y-85584221D01*
X134084861Y-85469225D01*
X134140330Y-85335309D01*
X134159250Y-85191600D01*
X134140330Y-85047891D01*
X134084861Y-84913975D01*
X133996621Y-84798979D01*
X133881625Y-84710739D01*
X133881624Y-84710738D01*
X133881622Y-84710737D01*
X133747712Y-84655271D01*
X133747710Y-84655270D01*
X133747709Y-84655270D01*
X133628390Y-84639561D01*
X133604001Y-84636350D01*
X133603998Y-84636350D01*
X133579607Y-84639561D01*
X133510572Y-84628795D01*
X133458316Y-84582415D01*
X133439431Y-84515146D01*
X133459912Y-84448346D01*
X133465034Y-84441152D01*
X133475261Y-84427825D01*
X133477676Y-84421996D01*
X133502939Y-84361003D01*
X133530730Y-84293909D01*
X133549650Y-84150200D01*
X133530730Y-84006491D01*
X133475261Y-83872575D01*
X133387021Y-83757579D01*
X133272025Y-83669339D01*
X133272024Y-83669338D01*
X133272022Y-83669337D01*
X133138112Y-83613871D01*
X133138110Y-83613870D01*
X133138109Y-83613870D01*
X133066254Y-83604410D01*
X132994401Y-83594950D01*
X132994399Y-83594950D01*
X132850691Y-83613870D01*
X132850687Y-83613871D01*
X132716777Y-83669337D01*
X132601779Y-83757579D01*
X132513537Y-83872577D01*
X132458071Y-84006487D01*
X132458070Y-84006491D01*
X132439150Y-84150200D01*
X126940500Y-84150200D01*
X126940500Y-82715001D01*
X126960185Y-82647962D01*
X127012989Y-82602207D01*
X127082147Y-82592263D01*
X127135336Y-82613225D01*
X127426571Y-82815931D01*
X127759179Y-83000543D01*
X128108758Y-83150559D01*
X128108761Y-83150560D01*
X128108766Y-83150562D01*
X128471709Y-83264436D01*
X128471712Y-83264436D01*
X128471720Y-83264439D01*
X128844340Y-83341015D01*
X129147104Y-83371803D01*
X129222795Y-83379500D01*
X129222796Y-83379500D01*
X129603205Y-83379500D01*
X129670261Y-83372681D01*
X129981660Y-83341015D01*
X130354280Y-83264439D01*
X130425123Y-83242212D01*
X130717233Y-83150562D01*
X130717234Y-83150561D01*
X130717242Y-83150559D01*
X131066821Y-83000543D01*
X131399429Y-82815931D01*
X131711654Y-82598616D01*
X132000291Y-82350829D01*
X132262380Y-82075112D01*
X132495229Y-81774295D01*
X132696451Y-81451464D01*
X132863981Y-81109932D01*
X132996098Y-80753204D01*
X133091448Y-80384940D01*
X133149053Y-80008919D01*
X133168320Y-79629000D01*
X133149053Y-79249081D01*
X133091448Y-78873060D01*
X132996098Y-78504796D01*
X132986198Y-78478066D01*
X132905142Y-78259206D01*
X132863981Y-78148068D01*
X132855313Y-78130398D01*
X132696451Y-77806536D01*
X132696446Y-77806527D01*
X132495232Y-77483710D01*
X132495229Y-77483705D01*
X132446227Y-77420400D01*
X132420760Y-77355338D01*
X132434509Y-77286835D01*
X132483112Y-77236640D01*
X132544285Y-77220500D01*
X135156496Y-77220500D01*
X135223535Y-77240185D01*
G37*
G04 #@! TD.AperFunction*
M02*
