G04 #@! TF.GenerationSoftware,KiCad,Pcbnew,8.0.8*
G04 #@! TF.CreationDate,2025-02-05T10:03:22-05:00*
G04 #@! TF.ProjectId,RW_board,52575f62-6f61-4726-942e-6b696361645f,rev?*
G04 #@! TF.SameCoordinates,Original*
G04 #@! TF.FileFunction,Soldermask,Top*
G04 #@! TF.FilePolarity,Negative*
%FSLAX46Y46*%
G04 Gerber Fmt 4.6, Leading zero omitted, Abs format (unit mm)*
G04 Created by KiCad (PCBNEW 8.0.8) date 2025-02-05 10:03:22*
%MOMM*%
%LPD*%
G01*
G04 APERTURE LIST*
G04 Aperture macros list*
%AMRoundRect*
0 Rectangle with rounded corners*
0 $1 Rounding radius*
0 $2 $3 $4 $5 $6 $7 $8 $9 X,Y pos of 4 corners*
0 Add a 4 corners polygon primitive as box body*
4,1,4,$2,$3,$4,$5,$6,$7,$8,$9,$2,$3,0*
0 Add four circle primitives for the rounded corners*
1,1,$1+$1,$2,$3*
1,1,$1+$1,$4,$5*
1,1,$1+$1,$6,$7*
1,1,$1+$1,$8,$9*
0 Add four rect primitives between the rounded corners*
20,1,$1+$1,$2,$3,$4,$5,0*
20,1,$1+$1,$4,$5,$6,$7,0*
20,1,$1+$1,$6,$7,$8,$9,0*
20,1,$1+$1,$8,$9,$2,$3,0*%
%AMRotRect*
0 Rectangle, with rotation*
0 The origin of the aperture is its center*
0 $1 length*
0 $2 width*
0 $3 Rotation angle, in degrees counterclockwise*
0 Add horizontal line*
21,1,$1,$2,0,0,$3*%
G04 Aperture macros list end*
%ADD10C,0.010000*%
%ADD11RoundRect,0.135000X-0.135000X-0.185000X0.135000X-0.185000X0.135000X0.185000X-0.135000X0.185000X0*%
%ADD12RoundRect,0.140000X0.140000X0.170000X-0.140000X0.170000X-0.140000X-0.170000X0.140000X-0.170000X0*%
%ADD13R,1.000000X1.000000*%
%ADD14C,0.800000*%
%ADD15C,7.000000*%
%ADD16RoundRect,0.135000X0.185000X-0.135000X0.185000X0.135000X-0.185000X0.135000X-0.185000X-0.135000X0*%
%ADD17RoundRect,0.135000X0.135000X0.185000X-0.135000X0.185000X-0.135000X-0.185000X0.135000X-0.185000X0*%
%ADD18C,6.400000*%
%ADD19RoundRect,0.140000X-0.140000X-0.170000X0.140000X-0.170000X0.140000X0.170000X-0.140000X0.170000X0*%
%ADD20RoundRect,0.225000X-0.225000X-0.250000X0.225000X-0.250000X0.225000X0.250000X-0.225000X0.250000X0*%
%ADD21R,1.600000X2.180000*%
%ADD22RoundRect,0.135000X-0.185000X0.135000X-0.185000X-0.135000X0.185000X-0.135000X0.185000X0.135000X0*%
%ADD23RoundRect,0.140000X0.170000X-0.140000X0.170000X0.140000X-0.170000X0.140000X-0.170000X-0.140000X0*%
%ADD24RoundRect,0.225000X0.225000X0.250000X-0.225000X0.250000X-0.225000X-0.250000X0.225000X-0.250000X0*%
%ADD25RoundRect,0.200000X-0.200000X-0.450000X0.200000X-0.450000X0.200000X0.450000X-0.200000X0.450000X0*%
%ADD26O,0.800000X1.300000*%
%ADD27RotRect,0.700000X1.000000X135.000000*%
%ADD28RotRect,0.600000X0.700000X45.000000*%
%ADD29RoundRect,0.140000X-0.170000X0.140000X-0.170000X-0.140000X0.170000X-0.140000X0.170000X0.140000X0*%
%ADD30RoundRect,0.250000X-0.475000X0.250000X-0.475000X-0.250000X0.475000X-0.250000X0.475000X0.250000X0*%
%ADD31RoundRect,0.102000X1.700000X-0.490000X1.700000X0.490000X-1.700000X0.490000X-1.700000X-0.490000X0*%
%ADD32R,1.650000X2.600000*%
%ADD33RoundRect,0.062500X-0.375000X-0.062500X0.375000X-0.062500X0.375000X0.062500X-0.375000X0.062500X0*%
%ADD34RoundRect,0.062500X-0.062500X-0.375000X0.062500X-0.375000X0.062500X0.375000X-0.062500X0.375000X0*%
%ADD35R,5.150000X5.150000*%
%ADD36R,0.700000X1.000000*%
%ADD37R,0.700000X0.600000*%
%ADD38RoundRect,0.218750X0.218750X0.256250X-0.218750X0.256250X-0.218750X-0.256250X0.218750X-0.256250X0*%
%ADD39R,0.600000X1.250000*%
%ADD40R,0.340000X0.500000*%
%ADD41R,0.340000X1.000000*%
%ADD42R,0.340000X0.800000*%
%ADD43R,1.640000X0.600000*%
%ADD44R,2.290000X1.710000*%
%ADD45RoundRect,0.250000X0.475000X-0.250000X0.475000X0.250000X-0.475000X0.250000X-0.475000X-0.250000X0*%
%ADD46R,1.100000X0.600000*%
%ADD47R,0.690000X0.385000*%
%ADD48R,0.690000X1.035000*%
%ADD49RoundRect,0.250000X-0.450000X0.262500X-0.450000X-0.262500X0.450000X-0.262500X0.450000X0.262500X0*%
%ADD50R,0.300000X0.800000*%
%ADD51R,0.800000X0.300000*%
%ADD52R,5.800000X3.800000*%
%ADD53RoundRect,0.200000X-0.275000X0.200000X-0.275000X-0.200000X0.275000X-0.200000X0.275000X0.200000X0*%
%ADD54RoundRect,0.087500X0.725000X0.087500X-0.725000X0.087500X-0.725000X-0.087500X0.725000X-0.087500X0*%
%ADD55C,0.650000*%
%ADD56O,1.204000X2.304000*%
%ADD57O,1.204000X2.004000*%
G04 APERTURE END LIST*
D10*
X154376000Y-115250000D02*
X153676000Y-115250000D01*
X153676000Y-114000000D01*
X154376000Y-114000000D01*
X154376000Y-115250000D01*
G36*
X154376000Y-115250000D02*
G01*
X153676000Y-115250000D01*
X153676000Y-114000000D01*
X154376000Y-114000000D01*
X154376000Y-115250000D01*
G37*
X155176000Y-115250000D02*
X154476000Y-115250000D01*
X154476000Y-114000000D01*
X155176000Y-114000000D01*
X155176000Y-115250000D01*
G36*
X155176000Y-115250000D02*
G01*
X154476000Y-115250000D01*
X154476000Y-114000000D01*
X155176000Y-114000000D01*
X155176000Y-115250000D01*
G37*
X155676000Y-115250000D02*
X155276000Y-115250000D01*
X155276000Y-114000000D01*
X155676000Y-114000000D01*
X155676000Y-115250000D01*
G36*
X155676000Y-115250000D02*
G01*
X155276000Y-115250000D01*
X155276000Y-114000000D01*
X155676000Y-114000000D01*
X155676000Y-115250000D01*
G37*
X156176000Y-115250000D02*
X155776000Y-115250000D01*
X155776000Y-114000000D01*
X156176000Y-114000000D01*
X156176000Y-115250000D01*
G36*
X156176000Y-115250000D02*
G01*
X155776000Y-115250000D01*
X155776000Y-114000000D01*
X156176000Y-114000000D01*
X156176000Y-115250000D01*
G37*
X156676000Y-115250000D02*
X156276000Y-115250000D01*
X156276000Y-114000000D01*
X156676000Y-114000000D01*
X156676000Y-115250000D01*
G36*
X156676000Y-115250000D02*
G01*
X156276000Y-115250000D01*
X156276000Y-114000000D01*
X156676000Y-114000000D01*
X156676000Y-115250000D01*
G37*
X157176000Y-115250000D02*
X156776000Y-115250000D01*
X156776000Y-114000000D01*
X157176000Y-114000000D01*
X157176000Y-115250000D01*
G36*
X157176000Y-115250000D02*
G01*
X156776000Y-115250000D01*
X156776000Y-114000000D01*
X157176000Y-114000000D01*
X157176000Y-115250000D01*
G37*
X157676000Y-115250000D02*
X157276000Y-115250000D01*
X157276000Y-114000000D01*
X157676000Y-114000000D01*
X157676000Y-115250000D01*
G36*
X157676000Y-115250000D02*
G01*
X157276000Y-115250000D01*
X157276000Y-114000000D01*
X157676000Y-114000000D01*
X157676000Y-115250000D01*
G37*
X158176000Y-115250000D02*
X157776000Y-115250000D01*
X157776000Y-114000000D01*
X158176000Y-114000000D01*
X158176000Y-115250000D01*
G36*
X158176000Y-115250000D02*
G01*
X157776000Y-115250000D01*
X157776000Y-114000000D01*
X158176000Y-114000000D01*
X158176000Y-115250000D01*
G37*
X158676000Y-115250000D02*
X158276000Y-115250000D01*
X158276000Y-114000000D01*
X158676000Y-114000000D01*
X158676000Y-115250000D01*
G36*
X158676000Y-115250000D02*
G01*
X158276000Y-115250000D01*
X158276000Y-114000000D01*
X158676000Y-114000000D01*
X158676000Y-115250000D01*
G37*
X159176000Y-115250000D02*
X158776000Y-115250000D01*
X158776000Y-114000000D01*
X159176000Y-114000000D01*
X159176000Y-115250000D01*
G36*
X159176000Y-115250000D02*
G01*
X158776000Y-115250000D01*
X158776000Y-114000000D01*
X159176000Y-114000000D01*
X159176000Y-115250000D01*
G37*
X159976000Y-115250000D02*
X159276000Y-115250000D01*
X159276000Y-114000000D01*
X159976000Y-114000000D01*
X159976000Y-115250000D01*
G36*
X159976000Y-115250000D02*
G01*
X159276000Y-115250000D01*
X159276000Y-114000000D01*
X159976000Y-114000000D01*
X159976000Y-115250000D01*
G37*
X160776000Y-115250000D02*
X160076000Y-115250000D01*
X160076000Y-114000000D01*
X160776000Y-114000000D01*
X160776000Y-115250000D01*
G36*
X160776000Y-115250000D02*
G01*
X160076000Y-115250000D01*
X160076000Y-114000000D01*
X160776000Y-114000000D01*
X160776000Y-115250000D01*
G37*
D11*
X154430000Y-89154000D03*
X155450000Y-89154000D03*
D12*
X165834000Y-84198500D03*
X164874000Y-84198500D03*
D11*
X169160000Y-96901000D03*
X170180000Y-96901000D03*
D13*
X140716000Y-107696000D03*
D14*
X127556845Y-77772845D03*
X127556845Y-81485155D03*
D15*
X129413000Y-79629000D03*
D14*
X129413000Y-82254000D03*
X131269155Y-77772845D03*
X131269155Y-81485155D03*
X132038000Y-79629000D03*
D13*
X132588000Y-93472000D03*
D11*
X131011200Y-96266000D03*
X132031200Y-96266000D03*
D16*
X151500000Y-115760000D03*
X151500000Y-114740000D03*
D11*
X147616000Y-78105000D03*
X148636000Y-78105000D03*
D12*
X132866800Y-98029000D03*
X131906800Y-98029000D03*
D17*
X139657000Y-94279000D03*
X138637000Y-94279000D03*
D18*
X149200000Y-99500000D03*
D19*
X145925600Y-85852000D03*
X146885600Y-85852000D03*
D20*
X138290000Y-100487000D03*
X139840000Y-100487000D03*
D21*
X169799000Y-85707000D03*
X169799000Y-94887000D03*
D22*
X149733000Y-83945000D03*
X149733000Y-84965000D03*
D16*
X128524000Y-99189000D03*
X128524000Y-98169000D03*
D23*
X132969000Y-89380000D03*
X132969000Y-88420000D03*
D24*
X132601000Y-112649000D03*
X131051000Y-112649000D03*
D19*
X139020000Y-88750000D03*
X139980000Y-88750000D03*
D25*
X138119000Y-117299000D03*
D26*
X139369000Y-117299000D03*
X140619000Y-117299000D03*
X141869000Y-117299000D03*
X143119000Y-117299000D03*
X144369000Y-117299000D03*
X145619000Y-117299000D03*
X146869000Y-117299000D03*
D11*
X147626000Y-79629000D03*
X148646000Y-79629000D03*
D27*
X162355777Y-97757437D03*
D28*
X163557858Y-96555355D03*
X162143645Y-95141142D03*
X160800142Y-96484645D03*
D29*
X133248400Y-103964800D03*
X133248400Y-104924800D03*
D22*
X134620000Y-101247000D03*
X134620000Y-102267000D03*
D29*
X133985000Y-90579000D03*
X133985000Y-91539000D03*
X160020000Y-82085000D03*
X160020000Y-83045000D03*
D12*
X131036000Y-86233000D03*
X130076000Y-86233000D03*
D23*
X133985000Y-87094000D03*
X133985000Y-86134000D03*
D16*
X159004000Y-83075000D03*
X159004000Y-82055000D03*
X163000000Y-118260000D03*
X163000000Y-117240000D03*
D12*
X132864800Y-99045000D03*
X131904800Y-99045000D03*
D30*
X146496039Y-80932750D03*
X146496039Y-82832750D03*
D31*
X137160000Y-112691000D03*
X137160000Y-110321000D03*
D11*
X147893322Y-81157909D03*
X148913322Y-81157909D03*
D14*
X166412000Y-79629000D03*
X167180845Y-77772845D03*
X167180845Y-81485155D03*
D15*
X169037000Y-79629000D03*
D14*
X169037000Y-82254000D03*
X170893155Y-77772845D03*
X170893155Y-81485155D03*
D17*
X135003000Y-88265000D03*
X133983000Y-88265000D03*
D29*
X128397000Y-103914000D03*
X128397000Y-104874000D03*
D30*
X134493000Y-82489000D03*
X134493000Y-84389000D03*
D11*
X168527000Y-114681000D03*
X169547000Y-114681000D03*
D32*
X142745000Y-78587600D03*
X145545000Y-78587600D03*
D33*
X156836500Y-85261000D03*
X156836500Y-85761000D03*
X156836500Y-86261000D03*
X156836500Y-86761000D03*
X156836500Y-87261000D03*
X156836500Y-87761000D03*
X156836500Y-88261000D03*
X156836500Y-88761000D03*
X156836500Y-89261000D03*
X156836500Y-89761000D03*
X156836500Y-90261000D03*
X156836500Y-90761000D03*
D34*
X157524000Y-91448500D03*
X158024000Y-91448500D03*
X158524000Y-91448500D03*
X159024000Y-91448500D03*
X159524000Y-91448500D03*
X160024000Y-91448500D03*
X160524000Y-91448500D03*
X161024000Y-91448500D03*
X161524000Y-91448500D03*
X162024000Y-91448500D03*
X162524000Y-91448500D03*
X163024000Y-91448500D03*
D33*
X163711500Y-90761000D03*
X163711500Y-90261000D03*
X163711500Y-89761000D03*
X163711500Y-89261000D03*
X163711500Y-88761000D03*
X163711500Y-88261000D03*
X163711500Y-87761000D03*
X163711500Y-87261000D03*
X163711500Y-86761000D03*
X163711500Y-86261000D03*
X163711500Y-85761000D03*
X163711500Y-85261000D03*
D34*
X163024000Y-84573500D03*
X162524000Y-84573500D03*
X162024000Y-84573500D03*
X161524000Y-84573500D03*
X161024000Y-84573500D03*
X160524000Y-84573500D03*
X160024000Y-84573500D03*
X159524000Y-84573500D03*
X159024000Y-84573500D03*
X158524000Y-84573500D03*
X158024000Y-84573500D03*
X157524000Y-84573500D03*
D35*
X160274000Y-88011000D03*
D23*
X140843000Y-80617000D03*
X140843000Y-79657000D03*
D22*
X134620000Y-99215000D03*
X134620000Y-100235000D03*
D36*
X158480000Y-111113000D03*
D37*
X158480000Y-109413000D03*
X156480000Y-109413000D03*
X156480000Y-111313000D03*
D17*
X135003000Y-89408000D03*
X133983000Y-89408000D03*
X132031200Y-95123000D03*
X131011200Y-95123000D03*
D38*
X151638000Y-81153000D03*
X150063000Y-81153000D03*
X151663500Y-79629000D03*
X150088500Y-79629000D03*
D39*
X129855000Y-87650000D03*
X128905000Y-87650000D03*
X127955000Y-87650000D03*
X127955000Y-90150000D03*
X128905000Y-90150000D03*
X129855000Y-90150000D03*
D40*
X137922000Y-104319000D03*
X137272000Y-104319000D03*
X136622000Y-104319000D03*
D41*
X135972000Y-104569000D03*
D42*
X135972000Y-107569000D03*
X136622000Y-107569000D03*
X137272000Y-107569000D03*
X137922000Y-107569000D03*
D43*
X137272000Y-104869000D03*
D44*
X136947000Y-106314000D03*
D38*
X159537500Y-77978000D03*
X157962500Y-77978000D03*
X151663500Y-82677000D03*
X150088500Y-82677000D03*
X151663500Y-78105000D03*
X150088500Y-78105000D03*
D45*
X135737600Y-80966000D03*
X135737600Y-79066000D03*
D14*
X166412000Y-119253000D03*
X167180845Y-117396845D03*
X167180845Y-121109155D03*
X169037000Y-116628000D03*
D15*
X169037000Y-119253000D03*
D14*
X170893155Y-117396845D03*
X170893155Y-121109155D03*
D13*
X133223000Y-106553000D03*
X127889000Y-96012000D03*
D29*
X167086000Y-95433000D03*
X167086000Y-96393000D03*
D24*
X132601000Y-114300000D03*
X131051000Y-114300000D03*
D16*
X143764000Y-89664000D03*
X143764000Y-88644000D03*
D46*
X154432000Y-83120000D03*
X154432000Y-84520000D03*
D19*
X154079000Y-86360000D03*
X155039000Y-86360000D03*
D22*
X147782596Y-84012793D03*
X147782596Y-85032793D03*
X164465000Y-79119000D03*
X164465000Y-80139000D03*
D11*
X138637000Y-95295000D03*
X139657000Y-95295000D03*
D23*
X159524000Y-93678500D03*
X159524000Y-92718500D03*
D22*
X127381000Y-104011000D03*
X127381000Y-105031000D03*
D47*
X140335000Y-105006000D03*
D48*
X140335000Y-105918000D03*
D29*
X161036000Y-82085000D03*
X161036000Y-83045000D03*
D49*
X136271000Y-99955500D03*
X136271000Y-101780500D03*
D11*
X147952816Y-82645258D03*
X148972816Y-82645258D03*
D29*
X139250000Y-79770000D03*
X139250000Y-80730000D03*
D17*
X167096000Y-97413000D03*
X166076000Y-97413000D03*
D22*
X148717000Y-83945000D03*
X148717000Y-84965000D03*
D19*
X138652000Y-96361000D03*
X139612000Y-96361000D03*
D12*
X165834000Y-85198500D03*
X164874000Y-85198500D03*
D23*
X164000000Y-118230000D03*
X164000000Y-117270000D03*
D17*
X159260000Y-79248000D03*
X158240000Y-79248000D03*
D20*
X138290000Y-102108000D03*
X139840000Y-102108000D03*
D11*
X154430000Y-90297000D03*
X155450000Y-90297000D03*
D16*
X133985000Y-119763000D03*
X133985000Y-118743000D03*
D11*
X128649000Y-84201000D03*
X129669000Y-84201000D03*
D50*
X143000000Y-82500000D03*
X142500000Y-82500000D03*
X142000000Y-82500000D03*
X141500000Y-82500000D03*
X141000000Y-82500000D03*
X140500000Y-82500000D03*
X140000000Y-82500000D03*
X139500000Y-82500000D03*
X139000000Y-82500000D03*
X138500000Y-82500000D03*
X138000000Y-82500000D03*
X137500000Y-82500000D03*
D51*
X136750000Y-83250000D03*
X136750000Y-83750000D03*
X136750000Y-84250000D03*
X136750000Y-84750000D03*
X136750000Y-85250000D03*
X136750000Y-85750000D03*
X136750000Y-86250000D03*
X136750000Y-86750000D03*
D50*
X137500000Y-87500000D03*
X138000000Y-87500000D03*
X138500000Y-87500000D03*
X139000000Y-87500000D03*
X139500000Y-87500000D03*
X140000000Y-87500000D03*
X140500000Y-87500000D03*
X141000000Y-87500000D03*
X141500000Y-87500000D03*
X142000000Y-87500000D03*
X142500000Y-87500000D03*
X143000000Y-87500000D03*
D51*
X143750000Y-86750000D03*
X143750000Y-86250000D03*
X143750000Y-85750000D03*
X143750000Y-85250000D03*
X143750000Y-84750000D03*
X143750000Y-84250000D03*
X143750000Y-83750000D03*
X143750000Y-83250000D03*
D52*
X140250000Y-85000000D03*
D53*
X137287000Y-91377000D03*
X137287000Y-93027000D03*
D12*
X131970000Y-104887000D03*
X131010000Y-104887000D03*
D54*
X132586500Y-102458000D03*
X132586500Y-101958000D03*
X132586500Y-101458000D03*
X132586500Y-100958000D03*
X132586500Y-100458000D03*
X128361500Y-100458000D03*
X128361500Y-100958000D03*
X128361500Y-101458000D03*
X128361500Y-101958000D03*
X128361500Y-102458000D03*
D29*
X129667000Y-103914000D03*
X129667000Y-104874000D03*
D20*
X138372000Y-98851000D03*
X139922000Y-98851000D03*
D29*
X132969000Y-82324000D03*
X132969000Y-83284000D03*
D22*
X133045200Y-95146400D03*
X133045200Y-96166400D03*
D45*
X137731000Y-80960000D03*
X137731000Y-79060000D03*
D22*
X130735800Y-98027000D03*
X130735800Y-99047000D03*
D16*
X166086000Y-96423000D03*
X166086000Y-95403000D03*
X162941000Y-115699000D03*
X162941000Y-114679000D03*
D13*
X130556000Y-93472000D03*
D14*
X127556845Y-117396845D03*
X127556845Y-121109155D03*
X129413000Y-116628000D03*
D15*
X129413000Y-119253000D03*
D14*
X131269155Y-117396845D03*
X131269155Y-121109155D03*
X132038000Y-119253000D03*
D12*
X131970000Y-103871000D03*
X131010000Y-103871000D03*
D23*
X131191000Y-89507000D03*
X131191000Y-88547000D03*
D55*
X154336000Y-115700000D03*
X160116000Y-115700000D03*
D56*
X152906000Y-115200000D03*
X161546000Y-115200000D03*
D57*
X152906000Y-119380000D03*
X161546000Y-119380000D03*
D19*
X154079000Y-87680800D03*
X155039000Y-87680800D03*
X138667000Y-97454000D03*
X139627000Y-97454000D03*
D22*
X127508000Y-98169000D03*
X127508000Y-99189000D03*
D29*
X156591000Y-82451000D03*
X156591000Y-83411000D03*
M02*
