M48
; DRILL file {KiCad 8.0.8} date 2025-02-05T10:03:45-0500
; FORMAT={-:-/ absolute / metric / decimal}
; #@! TF.CreationDate,2025-02-05T10:03:45-05:00
; #@! TF.GenerationSoftware,Kicad,Pcbnew,8.0.8
; #@! TF.FileFunction,Plated,1,4,PTH
FMAT,2
METRIC
; #@! TA.AperFunction,Plated,PTH,ViaDrill
T1C0.300
; #@! TA.AperFunction,Plated,PTH,ComponentDrill
T2C0.500
; #@! TA.AperFunction,Plated,PTH,ComponentDrill
T3C0.600
; #@! TA.AperFunction,Plated,PTH,ComponentDrill
T4C3.500
%
G90
G05
T1
X127.621Y-97.536
X127.635Y-85.09
X128.397Y-106.045
X128.895Y-88.863
X128.905Y-86.36
X128.905Y-91.44
X129.54Y-93.472
X129.54Y-99.619
X129.997Y-98.958
X130.048Y-112.649
X130.048Y-114.3
X130.429Y-101.981
X130.962Y-97.18
X131.064Y-102.997
X131.247Y-102.023
X131.318Y-87.249
X132.131Y-86.36
X132.994Y-84.15
X133.147Y-96.774
X133.604Y-85.192
X133.96Y-100.076
X134.01Y-104.038
X134.01Y-105.054
X134.112Y-94.742
X134.112Y-95.86
X134.112Y-96.926
X134.112Y-97.942
X134.874Y-105.156
X135.636Y-77.826
X135.738Y-83.21
X135.763Y-83.82
X135.763Y-84.709
X135.763Y-85.293
X135.763Y-86.106
X135.763Y-86.741
X136.652Y-89.535
X136.652Y-90.297
X136.906Y-100.711
X137.16Y-119.38
X137.668Y-77.851
X138.049Y-81.788
X138.049Y-83.693
X138.049Y-84.963
X138.811Y-81.788
X138.836Y-104.953
X139.7Y-119.38
X140.25Y-85.0
X140.335Y-83.693
X140.589Y-89.662
X140.589Y-101.219
X140.614Y-96.368
X140.716Y-93.218
X140.716Y-97.409
X140.716Y-98.806
X140.843Y-86.36
X141.224Y-100.457
X141.478Y-88.519
X141.986Y-89.281
X141.986Y-93.218
X142.24Y-119.38
X142.254Y-81.421
X142.367Y-83.82
X142.367Y-84.963
X142.367Y-86.36
X142.494Y-88.519
X143.764Y-91.694
X144.526Y-91.186
X144.78Y-119.38
X144.907Y-90.424
X144.916Y-83.872
X145.0Y-82.0
X145.542Y-84.5
X146.142Y-85.09
X146.456Y-84.277
X146.964Y-78.181
X147.066Y-79.629
X147.32Y-119.38
X147.701Y-85.852
X147.701Y-90.424
X148.695Y-86.509
X148.844Y-89.662
X149.225Y-83.439
X149.352Y-90.297
X149.479Y-91.313
X149.86Y-109.22
X149.86Y-114.3
X149.86Y-119.38
X152.527Y-79.629
X152.73Y-81.229
X152.756Y-78.13
X152.781Y-82.55
X152.806Y-113.487
X154.14Y-87.123
X154.826Y-113.538
X154.94Y-119.38
X155.905Y-87.761
X155.956Y-89.916
X156.007Y-86.515
X156.591Y-81.661
X157.216Y-84.582
X157.48Y-82.55
X157.48Y-116.84
X157.48Y-119.38
X157.988Y-92.456
X158.115Y-82.042
X158.15Y-83.105
X158.369Y-89.916
X158.623Y-94.234
X158.623Y-107.95
X158.75Y-86.106
X159.004Y-81.28
X159.131Y-111.125
X159.258Y-107.315
X159.512Y-94.361
X159.624Y-92.274
X159.639Y-113.538
X160.02Y-119.38
X160.274Y-88.011
X160.274Y-97.028
X160.528Y-77.978
X160.528Y-92.456
X160.528Y-113.665
X160.909Y-93.218
X161.671Y-98.425
X162.052Y-89.916
X162.115Y-86.169
X162.56Y-101.6
X162.56Y-106.68
X162.56Y-111.76
X163.83Y-84.455
X164.0Y-115.951
X164.415Y-91.115
X164.465Y-81.026
X164.592Y-90.297
X164.719Y-87.503
X164.719Y-88.392
X165.508Y-88.524
X165.608Y-89.408
X165.913Y-109.093
X166.116Y-93.853
X166.37Y-85.598
X167.059Y-94.213
X167.64Y-111.76
X168.275Y-96.901
X171.145Y-105.029
X171.2Y-93.726
T2
X127.557Y-77.773
X127.557Y-81.485
X127.557Y-117.397
X127.557Y-121.109
X129.413Y-82.254
X129.413Y-116.628
X131.269Y-77.773
X131.269Y-81.485
X131.269Y-117.397
X131.269Y-121.109
X132.038Y-79.629
X132.038Y-119.253
X138.119Y-117.299
X139.369Y-117.299
X140.619Y-117.299
X141.869Y-117.299
X143.119Y-117.299
X144.369Y-117.299
X145.619Y-117.299
X146.869Y-117.299
X166.412Y-79.629
X166.412Y-119.253
X167.181Y-77.773
X167.181Y-81.485
X167.181Y-117.397
X167.181Y-121.109
X169.037Y-82.254
X169.037Y-116.628
X170.893Y-77.773
X170.893Y-81.485
X170.893Y-117.397
X170.893Y-121.109
T4
X129.413Y-79.629
X129.413Y-119.253
X169.037Y-79.629
X169.037Y-119.253
T3
G00X152.906Y-114.65
M15
G01X152.906Y-115.75
M16
G05
G00X152.906Y-118.98
M15
G01X152.906Y-119.78
M16
G05
G00X161.546Y-114.65
M15
G01X161.546Y-115.75
M16
G05
G00X161.546Y-118.98
M15
G01X161.546Y-119.78
M16
G05
M30
