G04 #@! TF.GenerationSoftware,KiCad,Pcbnew,8.0.8*
G04 #@! TF.CreationDate,2025-02-05T10:03:21-05:00*
G04 #@! TF.ProjectId,RW_board,52575f62-6f61-4726-942e-6b696361645f,rev?*
G04 #@! TF.SameCoordinates,Original*
G04 #@! TF.FileFunction,Copper,L1,Top*
G04 #@! TF.FilePolarity,Positive*
%FSLAX46Y46*%
G04 Gerber Fmt 4.6, Leading zero omitted, Abs format (unit mm)*
G04 Created by KiCad (PCBNEW 8.0.8) date 2025-02-05 10:03:21*
%MOMM*%
%LPD*%
G01*
G04 APERTURE LIST*
G04 Aperture macros list*
%AMRoundRect*
0 Rectangle with rounded corners*
0 $1 Rounding radius*
0 $2 $3 $4 $5 $6 $7 $8 $9 X,Y pos of 4 corners*
0 Add a 4 corners polygon primitive as box body*
4,1,4,$2,$3,$4,$5,$6,$7,$8,$9,$2,$3,0*
0 Add four circle primitives for the rounded corners*
1,1,$1+$1,$2,$3*
1,1,$1+$1,$4,$5*
1,1,$1+$1,$6,$7*
1,1,$1+$1,$8,$9*
0 Add four rect primitives between the rounded corners*
20,1,$1+$1,$2,$3,$4,$5,0*
20,1,$1+$1,$4,$5,$6,$7,0*
20,1,$1+$1,$6,$7,$8,$9,0*
20,1,$1+$1,$8,$9,$2,$3,0*%
%AMRotRect*
0 Rectangle, with rotation*
0 The origin of the aperture is its center*
0 $1 length*
0 $2 width*
0 $3 Rotation angle, in degrees counterclockwise*
0 Add horizontal line*
21,1,$1,$2,0,0,$3*%
G04 Aperture macros list end*
G04 #@! TA.AperFunction,SMDPad,CuDef*
%ADD10RoundRect,0.135000X-0.135000X-0.185000X0.135000X-0.185000X0.135000X0.185000X-0.135000X0.185000X0*%
G04 #@! TD*
G04 #@! TA.AperFunction,SMDPad,CuDef*
%ADD11RoundRect,0.140000X0.140000X0.170000X-0.140000X0.170000X-0.140000X-0.170000X0.140000X-0.170000X0*%
G04 #@! TD*
G04 #@! TA.AperFunction,SMDPad,CuDef*
%ADD12R,1.000000X1.000000*%
G04 #@! TD*
G04 #@! TA.AperFunction,ComponentPad*
%ADD13C,0.800000*%
G04 #@! TD*
G04 #@! TA.AperFunction,ComponentPad*
%ADD14C,7.000000*%
G04 #@! TD*
G04 #@! TA.AperFunction,SMDPad,CuDef*
%ADD15RoundRect,0.135000X0.185000X-0.135000X0.185000X0.135000X-0.185000X0.135000X-0.185000X-0.135000X0*%
G04 #@! TD*
G04 #@! TA.AperFunction,SMDPad,CuDef*
%ADD16RoundRect,0.135000X0.135000X0.185000X-0.135000X0.185000X-0.135000X-0.185000X0.135000X-0.185000X0*%
G04 #@! TD*
G04 #@! TA.AperFunction,SMDPad,CuDef*
%ADD17RoundRect,0.140000X-0.140000X-0.170000X0.140000X-0.170000X0.140000X0.170000X-0.140000X0.170000X0*%
G04 #@! TD*
G04 #@! TA.AperFunction,SMDPad,CuDef*
%ADD18RoundRect,0.225000X-0.225000X-0.250000X0.225000X-0.250000X0.225000X0.250000X-0.225000X0.250000X0*%
G04 #@! TD*
G04 #@! TA.AperFunction,SMDPad,CuDef*
%ADD19R,1.600000X2.180000*%
G04 #@! TD*
G04 #@! TA.AperFunction,SMDPad,CuDef*
%ADD20RoundRect,0.135000X-0.185000X0.135000X-0.185000X-0.135000X0.185000X-0.135000X0.185000X0.135000X0*%
G04 #@! TD*
G04 #@! TA.AperFunction,SMDPad,CuDef*
%ADD21RoundRect,0.140000X0.170000X-0.140000X0.170000X0.140000X-0.170000X0.140000X-0.170000X-0.140000X0*%
G04 #@! TD*
G04 #@! TA.AperFunction,SMDPad,CuDef*
%ADD22RoundRect,0.225000X0.225000X0.250000X-0.225000X0.250000X-0.225000X-0.250000X0.225000X-0.250000X0*%
G04 #@! TD*
G04 #@! TA.AperFunction,ComponentPad*
%ADD23RoundRect,0.200000X-0.200000X-0.450000X0.200000X-0.450000X0.200000X0.450000X-0.200000X0.450000X0*%
G04 #@! TD*
G04 #@! TA.AperFunction,ComponentPad*
%ADD24O,0.800000X1.300000*%
G04 #@! TD*
G04 #@! TA.AperFunction,SMDPad,CuDef*
%ADD25RotRect,0.700000X1.000000X135.000000*%
G04 #@! TD*
G04 #@! TA.AperFunction,SMDPad,CuDef*
%ADD26RotRect,0.600000X0.700000X45.000000*%
G04 #@! TD*
G04 #@! TA.AperFunction,SMDPad,CuDef*
%ADD27RoundRect,0.140000X-0.170000X0.140000X-0.170000X-0.140000X0.170000X-0.140000X0.170000X0.140000X0*%
G04 #@! TD*
G04 #@! TA.AperFunction,SMDPad,CuDef*
%ADD28RoundRect,0.250000X-0.475000X0.250000X-0.475000X-0.250000X0.475000X-0.250000X0.475000X0.250000X0*%
G04 #@! TD*
G04 #@! TA.AperFunction,SMDPad,CuDef*
%ADD29R,3.400000X0.980000*%
G04 #@! TD*
G04 #@! TA.AperFunction,SMDPad,CuDef*
%ADD30R,1.650000X2.600000*%
G04 #@! TD*
G04 #@! TA.AperFunction,SMDPad,CuDef*
%ADD31RoundRect,0.062500X-0.375000X-0.062500X0.375000X-0.062500X0.375000X0.062500X-0.375000X0.062500X0*%
G04 #@! TD*
G04 #@! TA.AperFunction,SMDPad,CuDef*
%ADD32RoundRect,0.062500X-0.062500X-0.375000X0.062500X-0.375000X0.062500X0.375000X-0.062500X0.375000X0*%
G04 #@! TD*
G04 #@! TA.AperFunction,HeatsinkPad*
%ADD33R,5.150000X5.150000*%
G04 #@! TD*
G04 #@! TA.AperFunction,SMDPad,CuDef*
%ADD34R,0.700000X1.000000*%
G04 #@! TD*
G04 #@! TA.AperFunction,SMDPad,CuDef*
%ADD35R,0.700000X0.600000*%
G04 #@! TD*
G04 #@! TA.AperFunction,SMDPad,CuDef*
%ADD36RoundRect,0.218750X0.218750X0.256250X-0.218750X0.256250X-0.218750X-0.256250X0.218750X-0.256250X0*%
G04 #@! TD*
G04 #@! TA.AperFunction,SMDPad,CuDef*
%ADD37R,0.600000X1.250000*%
G04 #@! TD*
G04 #@! TA.AperFunction,SMDPad,CuDef*
%ADD38R,0.340000X0.500000*%
G04 #@! TD*
G04 #@! TA.AperFunction,SMDPad,CuDef*
%ADD39R,0.340000X1.000000*%
G04 #@! TD*
G04 #@! TA.AperFunction,SMDPad,CuDef*
%ADD40R,0.340000X0.800000*%
G04 #@! TD*
G04 #@! TA.AperFunction,SMDPad,CuDef*
%ADD41R,1.640000X0.600000*%
G04 #@! TD*
G04 #@! TA.AperFunction,SMDPad,CuDef*
%ADD42R,2.290000X1.710000*%
G04 #@! TD*
G04 #@! TA.AperFunction,SMDPad,CuDef*
%ADD43RoundRect,0.250000X0.475000X-0.250000X0.475000X0.250000X-0.475000X0.250000X-0.475000X-0.250000X0*%
G04 #@! TD*
G04 #@! TA.AperFunction,SMDPad,CuDef*
%ADD44R,1.100000X0.600000*%
G04 #@! TD*
G04 #@! TA.AperFunction,SMDPad,CuDef*
%ADD45R,0.690000X0.385000*%
G04 #@! TD*
G04 #@! TA.AperFunction,SMDPad,CuDef*
%ADD46R,0.690000X1.035000*%
G04 #@! TD*
G04 #@! TA.AperFunction,SMDPad,CuDef*
%ADD47RoundRect,0.250000X-0.450000X0.262500X-0.450000X-0.262500X0.450000X-0.262500X0.450000X0.262500X0*%
G04 #@! TD*
G04 #@! TA.AperFunction,SMDPad,CuDef*
%ADD48R,0.300000X0.800000*%
G04 #@! TD*
G04 #@! TA.AperFunction,SMDPad,CuDef*
%ADD49R,0.800000X0.300000*%
G04 #@! TD*
G04 #@! TA.AperFunction,SMDPad,CuDef*
%ADD50R,5.800000X3.800000*%
G04 #@! TD*
G04 #@! TA.AperFunction,SMDPad,CuDef*
%ADD51RoundRect,0.200000X-0.275000X0.200000X-0.275000X-0.200000X0.275000X-0.200000X0.275000X0.200000X0*%
G04 #@! TD*
G04 #@! TA.AperFunction,SMDPad,CuDef*
%ADD52RoundRect,0.087500X0.725000X0.087500X-0.725000X0.087500X-0.725000X-0.087500X0.725000X-0.087500X0*%
G04 #@! TD*
G04 #@! TA.AperFunction,SMDPad,CuDef*
%ADD53R,0.600000X1.150000*%
G04 #@! TD*
G04 #@! TA.AperFunction,SMDPad,CuDef*
%ADD54R,0.300000X1.150000*%
G04 #@! TD*
G04 #@! TA.AperFunction,ComponentPad*
%ADD55O,1.000000X2.100000*%
G04 #@! TD*
G04 #@! TA.AperFunction,ComponentPad*
%ADD56O,1.000000X1.800000*%
G04 #@! TD*
G04 #@! TA.AperFunction,ViaPad*
%ADD57C,0.600000*%
G04 #@! TD*
G04 #@! TA.AperFunction,Conductor*
%ADD58C,0.250000*%
G04 #@! TD*
G04 #@! TA.AperFunction,Conductor*
%ADD59C,0.200000*%
G04 #@! TD*
G04 #@! TA.AperFunction,Conductor*
%ADD60C,0.300000*%
G04 #@! TD*
G04 #@! TA.AperFunction,Conductor*
%ADD61C,0.500000*%
G04 #@! TD*
G04 #@! TA.AperFunction,Conductor*
%ADD62C,0.508000*%
G04 #@! TD*
G04 #@! TA.AperFunction,Conductor*
%ADD63C,0.400000*%
G04 #@! TD*
G04 APERTURE END LIST*
D10*
X154430000Y-89154000D03*
X155450000Y-89154000D03*
D11*
X165834000Y-84198500D03*
X164874000Y-84198500D03*
D10*
X169160000Y-96901000D03*
X170180000Y-96901000D03*
D12*
X140716000Y-107696000D03*
D13*
X127556845Y-77772845D03*
X127556845Y-81485155D03*
D14*
X129413000Y-79629000D03*
D13*
X129413000Y-82254000D03*
X131269155Y-77772845D03*
X131269155Y-81485155D03*
X132038000Y-79629000D03*
D12*
X132588000Y-93472000D03*
D10*
X131011200Y-96266000D03*
X132031200Y-96266000D03*
D15*
X151500000Y-115760000D03*
X151500000Y-114740000D03*
D10*
X147616000Y-78105000D03*
X148636000Y-78105000D03*
D11*
X132866800Y-98029000D03*
X131906800Y-98029000D03*
D16*
X139657000Y-94279000D03*
X138637000Y-94279000D03*
D17*
X145925600Y-85852000D03*
X146885600Y-85852000D03*
D18*
X138290000Y-100487000D03*
X139840000Y-100487000D03*
D19*
X169799000Y-85707000D03*
X169799000Y-94887000D03*
D20*
X149733000Y-83945000D03*
X149733000Y-84965000D03*
D15*
X128524000Y-99189000D03*
X128524000Y-98169000D03*
D21*
X132969000Y-89380000D03*
X132969000Y-88420000D03*
D22*
X132601000Y-112649000D03*
X131051000Y-112649000D03*
D17*
X139020000Y-88750000D03*
X139980000Y-88750000D03*
D23*
X138119000Y-117299000D03*
D24*
X139369000Y-117299000D03*
X140619000Y-117299000D03*
X141869000Y-117299000D03*
X143119000Y-117299000D03*
X144369000Y-117299000D03*
X145619000Y-117299000D03*
X146869000Y-117299000D03*
D10*
X147626000Y-79629000D03*
X148646000Y-79629000D03*
D25*
X162355777Y-97757437D03*
D26*
X163557858Y-96555355D03*
X162143645Y-95141142D03*
X160800142Y-96484645D03*
D27*
X133248400Y-103964800D03*
X133248400Y-104924800D03*
D20*
X134620000Y-101247000D03*
X134620000Y-102267000D03*
D27*
X133985000Y-90579000D03*
X133985000Y-91539000D03*
X160020000Y-82085000D03*
X160020000Y-83045000D03*
D11*
X131036000Y-86233000D03*
X130076000Y-86233000D03*
D21*
X133985000Y-87094000D03*
X133985000Y-86134000D03*
D15*
X159004000Y-83075000D03*
X159004000Y-82055000D03*
X163000000Y-118260000D03*
X163000000Y-117240000D03*
D11*
X132864800Y-99045000D03*
X131904800Y-99045000D03*
D28*
X146496039Y-80932750D03*
X146496039Y-82832750D03*
D29*
X137160000Y-112691000D03*
X137160000Y-110321000D03*
D10*
X147893322Y-81157909D03*
X148913322Y-81157909D03*
D13*
X166412000Y-79629000D03*
X167180845Y-77772845D03*
X167180845Y-81485155D03*
D14*
X169037000Y-79629000D03*
D13*
X169037000Y-82254000D03*
X170893155Y-77772845D03*
X170893155Y-81485155D03*
D16*
X135003000Y-88265000D03*
X133983000Y-88265000D03*
D27*
X128397000Y-103914000D03*
X128397000Y-104874000D03*
D28*
X134493000Y-82489000D03*
X134493000Y-84389000D03*
D10*
X168527000Y-114681000D03*
X169547000Y-114681000D03*
D30*
X142745000Y-78587600D03*
X145545000Y-78587600D03*
D31*
X156836500Y-85261000D03*
X156836500Y-85761000D03*
X156836500Y-86261000D03*
X156836500Y-86761000D03*
X156836500Y-87261000D03*
X156836500Y-87761000D03*
X156836500Y-88261000D03*
X156836500Y-88761000D03*
X156836500Y-89261000D03*
X156836500Y-89761000D03*
X156836500Y-90261000D03*
X156836500Y-90761000D03*
D32*
X157524000Y-91448500D03*
X158024000Y-91448500D03*
X158524000Y-91448500D03*
X159024000Y-91448500D03*
X159524000Y-91448500D03*
X160024000Y-91448500D03*
X160524000Y-91448500D03*
X161024000Y-91448500D03*
X161524000Y-91448500D03*
X162024000Y-91448500D03*
X162524000Y-91448500D03*
X163024000Y-91448500D03*
D31*
X163711500Y-90761000D03*
X163711500Y-90261000D03*
X163711500Y-89761000D03*
X163711500Y-89261000D03*
X163711500Y-88761000D03*
X163711500Y-88261000D03*
X163711500Y-87761000D03*
X163711500Y-87261000D03*
X163711500Y-86761000D03*
X163711500Y-86261000D03*
X163711500Y-85761000D03*
X163711500Y-85261000D03*
D32*
X163024000Y-84573500D03*
X162524000Y-84573500D03*
X162024000Y-84573500D03*
X161524000Y-84573500D03*
X161024000Y-84573500D03*
X160524000Y-84573500D03*
X160024000Y-84573500D03*
X159524000Y-84573500D03*
X159024000Y-84573500D03*
X158524000Y-84573500D03*
X158024000Y-84573500D03*
X157524000Y-84573500D03*
D33*
X160274000Y-88011000D03*
D21*
X140843000Y-80617000D03*
X140843000Y-79657000D03*
D20*
X134620000Y-99215000D03*
X134620000Y-100235000D03*
D34*
X158480000Y-111113000D03*
D35*
X158480000Y-109413000D03*
X156480000Y-109413000D03*
X156480000Y-111313000D03*
D16*
X135003000Y-89408000D03*
X133983000Y-89408000D03*
X132031200Y-95123000D03*
X131011200Y-95123000D03*
D36*
X151638000Y-81153000D03*
X150063000Y-81153000D03*
X151663500Y-79629000D03*
X150088500Y-79629000D03*
D37*
X129855000Y-87650000D03*
X128905000Y-87650000D03*
X127955000Y-87650000D03*
X127955000Y-90150000D03*
X128905000Y-90150000D03*
X129855000Y-90150000D03*
D38*
X137922000Y-104319000D03*
X137272000Y-104319000D03*
X136622000Y-104319000D03*
D39*
X135972000Y-104569000D03*
D40*
X135972000Y-107569000D03*
X136622000Y-107569000D03*
X137272000Y-107569000D03*
X137922000Y-107569000D03*
D41*
X137272000Y-104869000D03*
D42*
X136947000Y-106314000D03*
D36*
X159537500Y-77978000D03*
X157962500Y-77978000D03*
X151663500Y-82677000D03*
X150088500Y-82677000D03*
X151663500Y-78105000D03*
X150088500Y-78105000D03*
D43*
X135737600Y-80966000D03*
X135737600Y-79066000D03*
D13*
X166412000Y-119253000D03*
X167180845Y-117396845D03*
X167180845Y-121109155D03*
X169037000Y-116628000D03*
D14*
X169037000Y-119253000D03*
D13*
X170893155Y-117396845D03*
X170893155Y-121109155D03*
D12*
X133223000Y-106553000D03*
X127889000Y-96012000D03*
D27*
X167086000Y-95433000D03*
X167086000Y-96393000D03*
D22*
X132601000Y-114300000D03*
X131051000Y-114300000D03*
D15*
X143764000Y-89664000D03*
X143764000Y-88644000D03*
D44*
X154432000Y-83120000D03*
X154432000Y-84520000D03*
D17*
X154079000Y-86360000D03*
X155039000Y-86360000D03*
D20*
X147782596Y-84012793D03*
X147782596Y-85032793D03*
X164465000Y-79119000D03*
X164465000Y-80139000D03*
D10*
X138637000Y-95295000D03*
X139657000Y-95295000D03*
D21*
X159524000Y-93678500D03*
X159524000Y-92718500D03*
D20*
X127381000Y-104011000D03*
X127381000Y-105031000D03*
D45*
X140335000Y-105006000D03*
D46*
X140335000Y-105918000D03*
D27*
X161036000Y-82085000D03*
X161036000Y-83045000D03*
D47*
X136271000Y-99955500D03*
X136271000Y-101780500D03*
D10*
X147952816Y-82645258D03*
X148972816Y-82645258D03*
D27*
X139250000Y-79770000D03*
X139250000Y-80730000D03*
D16*
X167096000Y-97413000D03*
X166076000Y-97413000D03*
D20*
X148717000Y-83945000D03*
X148717000Y-84965000D03*
D17*
X138652000Y-96361000D03*
X139612000Y-96361000D03*
D11*
X165834000Y-85198500D03*
X164874000Y-85198500D03*
D21*
X164000000Y-118230000D03*
X164000000Y-117270000D03*
D16*
X159260000Y-79248000D03*
X158240000Y-79248000D03*
D18*
X138290000Y-102108000D03*
X139840000Y-102108000D03*
D10*
X154430000Y-90297000D03*
X155450000Y-90297000D03*
D15*
X133985000Y-119763000D03*
X133985000Y-118743000D03*
D10*
X128649000Y-84201000D03*
X129669000Y-84201000D03*
D48*
X143000000Y-82500000D03*
X142500000Y-82500000D03*
X142000000Y-82500000D03*
X141500000Y-82500000D03*
X141000000Y-82500000D03*
X140500000Y-82500000D03*
X140000000Y-82500000D03*
X139500000Y-82500000D03*
X139000000Y-82500000D03*
X138500000Y-82500000D03*
X138000000Y-82500000D03*
X137500000Y-82500000D03*
D49*
X136750000Y-83250000D03*
X136750000Y-83750000D03*
X136750000Y-84250000D03*
X136750000Y-84750000D03*
X136750000Y-85250000D03*
X136750000Y-85750000D03*
X136750000Y-86250000D03*
X136750000Y-86750000D03*
D48*
X137500000Y-87500000D03*
X138000000Y-87500000D03*
X138500000Y-87500000D03*
X139000000Y-87500000D03*
X139500000Y-87500000D03*
X140000000Y-87500000D03*
X140500000Y-87500000D03*
X141000000Y-87500000D03*
X141500000Y-87500000D03*
X142000000Y-87500000D03*
X142500000Y-87500000D03*
X143000000Y-87500000D03*
D49*
X143750000Y-86750000D03*
X143750000Y-86250000D03*
X143750000Y-85750000D03*
X143750000Y-85250000D03*
X143750000Y-84750000D03*
X143750000Y-84250000D03*
X143750000Y-83750000D03*
X143750000Y-83250000D03*
D50*
X140250000Y-85000000D03*
D51*
X137287000Y-91377000D03*
X137287000Y-93027000D03*
D11*
X131970000Y-104887000D03*
X131010000Y-104887000D03*
D52*
X132586500Y-102458000D03*
X132586500Y-101958000D03*
X132586500Y-101458000D03*
X132586500Y-100958000D03*
X132586500Y-100458000D03*
X128361500Y-100458000D03*
X128361500Y-100958000D03*
X128361500Y-101458000D03*
X128361500Y-101958000D03*
X128361500Y-102458000D03*
D27*
X129667000Y-103914000D03*
X129667000Y-104874000D03*
D18*
X138372000Y-98851000D03*
X139922000Y-98851000D03*
D27*
X132969000Y-82324000D03*
X132969000Y-83284000D03*
D20*
X133045200Y-95146400D03*
X133045200Y-96166400D03*
D43*
X137731000Y-80960000D03*
X137731000Y-79060000D03*
D20*
X130735800Y-98027000D03*
X130735800Y-99047000D03*
D15*
X166086000Y-96423000D03*
X166086000Y-95403000D03*
X162941000Y-115699000D03*
X162941000Y-114679000D03*
D12*
X130556000Y-93472000D03*
D13*
X127556845Y-117396845D03*
X127556845Y-121109155D03*
X129413000Y-116628000D03*
D14*
X129413000Y-119253000D03*
D13*
X131269155Y-117396845D03*
X131269155Y-121109155D03*
X132038000Y-119253000D03*
D11*
X131970000Y-103871000D03*
X131010000Y-103871000D03*
D21*
X131191000Y-89507000D03*
X131191000Y-88547000D03*
D53*
X154026000Y-114625000D03*
X154826000Y-114625000D03*
D54*
X155976000Y-114625000D03*
X156976000Y-114625000D03*
X157476000Y-114625000D03*
X158476000Y-114625000D03*
D53*
X160426000Y-114625000D03*
X159626000Y-114625000D03*
D54*
X158976000Y-114625000D03*
X157976000Y-114625000D03*
X156476000Y-114625000D03*
X155476000Y-114625000D03*
D55*
X152906000Y-115200000D03*
X161546000Y-115200000D03*
D56*
X152906000Y-119380000D03*
X161546000Y-119380000D03*
D17*
X154079000Y-87680800D03*
X155039000Y-87680800D03*
X138667000Y-97454000D03*
X139627000Y-97454000D03*
D20*
X127508000Y-98169000D03*
X127508000Y-99189000D03*
D27*
X156591000Y-82451000D03*
X156591000Y-83411000D03*
D57*
X131064000Y-102997000D03*
X127621000Y-97536000D03*
X152755600Y-78130400D03*
X142240000Y-119380000D03*
X162052000Y-89916000D03*
X142367000Y-83820000D03*
X140250000Y-85000000D03*
X159131000Y-111125000D03*
X140716000Y-98806000D03*
X152730200Y-81229200D03*
X156591000Y-81661000D03*
X162115500Y-86169500D03*
X171145200Y-105029000D03*
X128894781Y-88863190D03*
X130048000Y-114300000D03*
X136906000Y-100711000D03*
X161671000Y-98425000D03*
X160528000Y-77978000D03*
X149860000Y-119380000D03*
X132994400Y-84150200D03*
X159512000Y-94361000D03*
X138049000Y-84963000D03*
X149860000Y-109220000D03*
X140589000Y-101219000D03*
X139700000Y-119380000D03*
X140716000Y-97409000D03*
X134112000Y-94742000D03*
X128397000Y-106045000D03*
X154140089Y-87122780D03*
X127635000Y-85090000D03*
X140614400Y-96367600D03*
X157480000Y-119380000D03*
X162560000Y-101600000D03*
X164465000Y-81026000D03*
X144780000Y-119380000D03*
X137668000Y-77851000D03*
X146456400Y-84277200D03*
X155956000Y-89916000D03*
X142367000Y-86360000D03*
X141224000Y-100457000D03*
X160274000Y-88011000D03*
X158369000Y-89916000D03*
X147320000Y-119380000D03*
X129540000Y-99618800D03*
X132130800Y-86360000D03*
X167059066Y-94213003D03*
X128905000Y-86360000D03*
X137160000Y-119380000D03*
X166370000Y-85598000D03*
X160020000Y-119380000D03*
X130048000Y-112649000D03*
X134112000Y-95859600D03*
X142367000Y-84963000D03*
X160528000Y-113665000D03*
X154940000Y-119380000D03*
X158750000Y-86106000D03*
X138049000Y-83693000D03*
X152527000Y-79629000D03*
X168275000Y-96901000D03*
X140843000Y-86360000D03*
X164000000Y-115951000D03*
X162560000Y-106680000D03*
X149860000Y-114300000D03*
X167640000Y-111760000D03*
X162560000Y-111760000D03*
X134010400Y-105054400D03*
X135636000Y-77825600D03*
X140335000Y-83693000D03*
X133604000Y-85191600D03*
X157480000Y-116840000D03*
X134112000Y-97942400D03*
X152806400Y-113487200D03*
X145000000Y-82000000D03*
X134112000Y-96926400D03*
X146964400Y-78181200D03*
X136652000Y-89535000D03*
X138811000Y-81788000D03*
X138049000Y-81788000D03*
X136652000Y-90297000D03*
X156006579Y-86514503D03*
X146142000Y-85090000D03*
X147066000Y-79629000D03*
X171200000Y-93726000D03*
X166116000Y-93853000D03*
X160274000Y-97028000D03*
X159623974Y-92274102D03*
X163830000Y-84455000D03*
X149225000Y-83439000D03*
X159004000Y-81280000D03*
X140589000Y-89662000D03*
X155905200Y-87761000D03*
X144526000Y-91186000D03*
X160909000Y-93218000D03*
X149479000Y-91313000D03*
X159639000Y-113538000D03*
X154826000Y-113538000D03*
X157216000Y-84582000D03*
X128905000Y-91440000D03*
X135763000Y-86741000D03*
X135763000Y-86106000D03*
X147701000Y-90424000D03*
X165608000Y-89408000D03*
X164592000Y-90297000D03*
X148844000Y-89662000D03*
X135763000Y-85293200D03*
X135763000Y-84709000D03*
X149352000Y-90297000D03*
X164414557Y-91114559D03*
X144907000Y-90424000D03*
X160528000Y-92456000D03*
X165508118Y-88523520D03*
X147701000Y-85852000D03*
X164719000Y-88392000D03*
X148695368Y-86508632D03*
X145542000Y-84500000D03*
X157988000Y-92456000D03*
X135737600Y-83210400D03*
X135763000Y-83820000D03*
X144915716Y-83871837D03*
X164719000Y-87503000D03*
X158623000Y-94234000D03*
X143764000Y-91694000D03*
X141986000Y-93218000D03*
X141986000Y-89281000D03*
X140716000Y-93218000D03*
X141478000Y-88519000D03*
X142494000Y-88519000D03*
X159258000Y-107315000D03*
X158115000Y-82042000D03*
X158150330Y-83105214D03*
X157480000Y-82550000D03*
X152781000Y-82550000D03*
X130962400Y-97180400D03*
X131247357Y-102023072D03*
X133959600Y-100076000D03*
X134010400Y-104038400D03*
X130429000Y-101981000D03*
X129997200Y-98958400D03*
X133146800Y-96774000D03*
X129540000Y-93472000D03*
X138836400Y-104952800D03*
X165913000Y-109093000D03*
X134874000Y-105156000D03*
X131318000Y-87249000D03*
X142254000Y-81421000D03*
X158623000Y-107950000D03*
D58*
X153924000Y-89154000D02*
X154430000Y-89154000D01*
X127508000Y-98169000D02*
X127508000Y-97649000D01*
D59*
X132057500Y-102997000D02*
X131064000Y-102997000D01*
D58*
X156210000Y-107442000D02*
X156210000Y-93345000D01*
X137160000Y-112691000D02*
X150961000Y-112691000D01*
D59*
X127889000Y-97268000D02*
X127621000Y-97536000D01*
D58*
X132111000Y-102458000D02*
X132586500Y-102458000D01*
X150961000Y-112691000D02*
X156210000Y-107442000D01*
D59*
X132057500Y-102997000D02*
X132057500Y-102511500D01*
D58*
X153670000Y-90805000D02*
X153670000Y-89408000D01*
D59*
X132057500Y-102511500D02*
X132080000Y-102489000D01*
D58*
X156210000Y-93345000D02*
X153670000Y-90805000D01*
D59*
X132057500Y-104887000D02*
X132057500Y-102997000D01*
D58*
X153670000Y-89408000D02*
X153924000Y-89154000D01*
D59*
X127889000Y-96012000D02*
X127889000Y-97268000D01*
D60*
X140000000Y-85250000D02*
X140250000Y-85000000D01*
D58*
X130922500Y-103871000D02*
X130922500Y-104887000D01*
D61*
X141194000Y-100487000D02*
X141224000Y-100457000D01*
D58*
X160524000Y-87761000D02*
X160274000Y-88011000D01*
X160799260Y-83811000D02*
X160524000Y-84086260D01*
D59*
X146885600Y-85852000D02*
X146885600Y-84706400D01*
D58*
X159537500Y-77978000D02*
X160528000Y-77978000D01*
X162052000Y-89789000D02*
X162052000Y-89916000D01*
D61*
X130963500Y-112649000D02*
X130963500Y-113665000D01*
D60*
X154079000Y-86360000D02*
X154079000Y-87061691D01*
X151841200Y-113487200D02*
X152806400Y-113487200D01*
D59*
X159524000Y-93678500D02*
X159524000Y-94349000D01*
D60*
X154079000Y-87061691D02*
X154140089Y-87122780D01*
X140000000Y-88730000D02*
X140000000Y-87500000D01*
D58*
X161036000Y-82085000D02*
X161079000Y-82085000D01*
D61*
X140009500Y-102026000D02*
X139927500Y-102108000D01*
D59*
X165970500Y-85198500D02*
X166370000Y-85598000D01*
D60*
X154079000Y-86360000D02*
X154079000Y-87020400D01*
D58*
X167086000Y-95433000D02*
X167086000Y-94239937D01*
X151663500Y-80391000D02*
X151663500Y-81127500D01*
X161266102Y-83811000D02*
X160799260Y-83811000D01*
D59*
X158480000Y-111113000D02*
X159119000Y-111113000D01*
D60*
X152806400Y-113487200D02*
X153517600Y-113487200D01*
D58*
X160024000Y-91448500D02*
X160024000Y-88261000D01*
X156591000Y-82451000D02*
X156591000Y-81661000D01*
D60*
X136750000Y-84250000D02*
X139500000Y-84250000D01*
D58*
X162941000Y-114679000D02*
X163828000Y-114679000D01*
D59*
X159524000Y-94349000D02*
X159512000Y-94361000D01*
D58*
X151663500Y-81127500D02*
X151638000Y-81153000D01*
D60*
X141500000Y-82500000D02*
X141500000Y-83750000D01*
X137500000Y-82500000D02*
X137500000Y-83144000D01*
D58*
X160524000Y-84086260D02*
X160524000Y-84573500D01*
X136906000Y-100503000D02*
X136271000Y-99868000D01*
D60*
X151663500Y-78105000D02*
X151663500Y-79629000D01*
D58*
X156836500Y-87261000D02*
X159524000Y-87261000D01*
D59*
X159119000Y-111113000D02*
X159131000Y-111125000D01*
D60*
X139356000Y-85000000D02*
X140250000Y-85000000D01*
D58*
X160274000Y-88011000D02*
X162052000Y-89789000D01*
D59*
X146885600Y-84706400D02*
X146456400Y-84277200D01*
D58*
X163828000Y-114679000D02*
X164000000Y-114851000D01*
D59*
X169160000Y-96901000D02*
X168275000Y-96901000D01*
D58*
X164537510Y-85833500D02*
X165508999Y-85833500D01*
X136906000Y-100711000D02*
X136906000Y-100503000D01*
X163970000Y-117240000D02*
X164000000Y-117270000D01*
D60*
X151500000Y-113828400D02*
X151841200Y-113487200D01*
D58*
X127525000Y-104887000D02*
X127381000Y-105031000D01*
X160426000Y-113767000D02*
X160528000Y-113665000D01*
D60*
X137500000Y-83144000D02*
X139356000Y-85000000D01*
D58*
X161079000Y-82085000D02*
X161671000Y-82677000D01*
D60*
X139980000Y-88750000D02*
X140000000Y-88730000D01*
X139500000Y-84250000D02*
X140250000Y-85000000D01*
X153517600Y-113487200D02*
X154026000Y-113995600D01*
D59*
X165834000Y-84198500D02*
X165834000Y-85198500D01*
X165834000Y-85198500D02*
X165970500Y-85198500D01*
D60*
X139500000Y-85750000D02*
X140250000Y-85000000D01*
D59*
X162338564Y-97757436D02*
X161671000Y-98425000D01*
D58*
X151663500Y-79629000D02*
X151663500Y-80391000D01*
X165508999Y-85833500D02*
X165834000Y-85508499D01*
X162524000Y-85761000D02*
X162115500Y-86169500D01*
X160524000Y-84573500D02*
X160524000Y-87761000D01*
D61*
X130963500Y-113665000D02*
X130963500Y-114300000D01*
D58*
X164000000Y-115951000D02*
X164000000Y-117270000D01*
X159524000Y-87261000D02*
X160274000Y-88011000D01*
X167086000Y-94239937D02*
X167059066Y-94213003D01*
D60*
X140750000Y-85000000D02*
X140250000Y-85000000D01*
D59*
X155831000Y-89916000D02*
X155450000Y-90297000D01*
D58*
X165834000Y-85508499D02*
X165834000Y-85198500D01*
X160024000Y-88261000D02*
X160274000Y-88011000D01*
D60*
X142500000Y-83250000D02*
X140750000Y-85000000D01*
D58*
X164465010Y-85761000D02*
X164537510Y-85833500D01*
D59*
X128397000Y-104961500D02*
X128397000Y-106045000D01*
D58*
X163000000Y-117240000D02*
X163970000Y-117240000D01*
X161671000Y-82677000D02*
X161671000Y-83406102D01*
X160426000Y-114625000D02*
X160426000Y-113767000D01*
D59*
X162355776Y-97757436D02*
X162338564Y-97757436D01*
D61*
X140671000Y-97454000D02*
X140716000Y-97409000D01*
D60*
X140000000Y-87500000D02*
X140000000Y-85250000D01*
X133968300Y-105012300D02*
X134010400Y-105054400D01*
D58*
X130922500Y-104887000D02*
X127525000Y-104887000D01*
D60*
X133248400Y-105012300D02*
X133968300Y-105012300D01*
D58*
X160020000Y-82085000D02*
X161036000Y-82085000D01*
D60*
X141500000Y-83750000D02*
X140250000Y-85000000D01*
X136750000Y-85750000D02*
X139500000Y-85750000D01*
D58*
X164000000Y-114851000D02*
X164000000Y-115951000D01*
D59*
X155956000Y-89916000D02*
X155831000Y-89916000D01*
D60*
X142500000Y-82500000D02*
X142500000Y-83250000D01*
D58*
X160274000Y-88011000D02*
X162115500Y-86169500D01*
X161671000Y-83406102D02*
X161266102Y-83811000D01*
D60*
X151500000Y-114740000D02*
X151500000Y-113828400D01*
D58*
X163711500Y-85761000D02*
X164465010Y-85761000D01*
D60*
X154026000Y-113995600D02*
X154026000Y-114625000D01*
X154079000Y-87020400D02*
X154079000Y-87503000D01*
D58*
X163711500Y-85761000D02*
X162524000Y-85761000D01*
D59*
X135003000Y-88265000D02*
X135509000Y-88265000D01*
X135763000Y-91262200D02*
X136499600Y-91998800D01*
D62*
X136652000Y-90297000D02*
X136652000Y-89535000D01*
D59*
X135763000Y-88519000D02*
X135763000Y-91262200D01*
X146964400Y-78181200D02*
X147539800Y-78181200D01*
X136499600Y-91998800D02*
X137210800Y-91998800D01*
D62*
X137287000Y-90932000D02*
X136652000Y-90297000D01*
D59*
X137287000Y-91922600D02*
X137287000Y-91427000D01*
D62*
X137287000Y-91427000D02*
X137287000Y-90932000D01*
D59*
X147539800Y-78181200D02*
X147616000Y-78105000D01*
X137210800Y-91998800D02*
X137287000Y-91922600D01*
X135509000Y-88265000D02*
X135763000Y-88519000D01*
X144400000Y-84750000D02*
X144740000Y-85090000D01*
X156260082Y-86261000D02*
X156836500Y-86261000D01*
X156006579Y-86514503D02*
X156260082Y-86261000D01*
X144740000Y-85090000D02*
X146142000Y-85090000D01*
X145925600Y-85306400D02*
X146142000Y-85090000D01*
X143750000Y-84750000D02*
X144400000Y-84750000D01*
X145925600Y-85852000D02*
X145925600Y-85306400D01*
X155297000Y-87761000D02*
X155905200Y-87761000D01*
X160800142Y-96484645D02*
X160800142Y-96501858D01*
X139020000Y-88750000D02*
X139932000Y-89662000D01*
D58*
X159524000Y-91448500D02*
X159524000Y-92718500D01*
X166086000Y-93883000D02*
X166086000Y-95403000D01*
X164211000Y-85261000D02*
X163830000Y-85261000D01*
D59*
X139500000Y-87500000D02*
X139500000Y-88270000D01*
D58*
X159524000Y-92374076D02*
X159623974Y-92274102D01*
D59*
X155039000Y-87503000D02*
X155297000Y-87761000D01*
D58*
X164811500Y-85261000D02*
X164874000Y-85198500D01*
X159524000Y-83541000D02*
X159524000Y-84573500D01*
D59*
X149225000Y-83945000D02*
X149225000Y-83439000D01*
X139932000Y-89662000D02*
X140589000Y-89662000D01*
X147749000Y-82849074D02*
X147952816Y-82645258D01*
X160800142Y-96501858D02*
X160274000Y-97028000D01*
D58*
X163711500Y-85261000D02*
X164811500Y-85261000D01*
D59*
X143547000Y-89881000D02*
X140808000Y-89881000D01*
D58*
X159994000Y-83045000D02*
X159004000Y-82055000D01*
X159524000Y-92718500D02*
X159524000Y-92374076D01*
D59*
X140808000Y-89881000D02*
X140589000Y-89662000D01*
D58*
X160159000Y-83184000D02*
X160020000Y-83045000D01*
X166116000Y-93853000D02*
X166086000Y-93883000D01*
D59*
X164874000Y-84198500D02*
X164874000Y-85198500D01*
D58*
X160020000Y-83045000D02*
X159524000Y-83541000D01*
D59*
X147749000Y-83945000D02*
X147749000Y-82849074D01*
X147749000Y-83945000D02*
X149225000Y-83945000D01*
D58*
X160020000Y-83045000D02*
X159994000Y-83045000D01*
X163711500Y-85261000D02*
X164211000Y-85261000D01*
D59*
X155905200Y-87761000D02*
X156836500Y-87761000D01*
D58*
X159004000Y-81280000D02*
X159004000Y-82055000D01*
D59*
X149225000Y-83945000D02*
X149733000Y-83945000D01*
X139500000Y-88270000D02*
X139020000Y-88750000D01*
X147626000Y-79629000D02*
X147066000Y-79629000D01*
X143764000Y-89664000D02*
X143547000Y-89881000D01*
D58*
X163830000Y-85261000D02*
X163830000Y-84455000D01*
X169450318Y-85707000D02*
X169799000Y-85707000D01*
X161524000Y-84086260D02*
X162802260Y-82808000D01*
X169646842Y-84810842D02*
X169672000Y-84836000D01*
X169799000Y-85398500D02*
X169799000Y-85707000D01*
X167086000Y-96393000D02*
X167395999Y-96393000D01*
X161524000Y-84573500D02*
X161524000Y-84086260D01*
X168656000Y-92502043D02*
X169799000Y-91359043D01*
X166116000Y-96393000D02*
X166086000Y-96423000D01*
X167395999Y-96393000D02*
X168656000Y-95132999D01*
X167086000Y-96393000D02*
X166116000Y-96393000D01*
X166076000Y-97413000D02*
X166076000Y-96433000D01*
X166551318Y-82808000D02*
X166551318Y-82808001D01*
X169799000Y-91359043D02*
X169799000Y-85707000D01*
X168656000Y-95132999D02*
X168656000Y-92502043D01*
X162802260Y-82808000D02*
X166551318Y-82808000D01*
X166551318Y-82808001D02*
X168554159Y-84810842D01*
X168554159Y-84810842D02*
X169646842Y-84810842D01*
X166076000Y-96433000D02*
X166086000Y-96423000D01*
D60*
X163030000Y-118230000D02*
X163000000Y-118260000D01*
X164000000Y-118230000D02*
X163030000Y-118230000D01*
X163000000Y-118260000D02*
X162666000Y-118260000D01*
X162666000Y-118260000D02*
X161546000Y-119380000D01*
D59*
X149479000Y-91313000D02*
X149352000Y-91186000D01*
X160909000Y-92964000D02*
X161128000Y-92745000D01*
X161128000Y-92207471D02*
X161024000Y-92103471D01*
X149733000Y-91313000D02*
X150241000Y-90805000D01*
X161128000Y-92745000D02*
X161128000Y-92207471D01*
X144145000Y-90805000D02*
X144526000Y-91186000D01*
X149733000Y-84965000D02*
X150620000Y-84965000D01*
X161024000Y-92103471D02*
X161024000Y-91448500D01*
X138000000Y-89486000D02*
X139319000Y-90805000D01*
X151663500Y-83921500D02*
X151663500Y-82677000D01*
X150241000Y-90805000D02*
X150241000Y-88265000D01*
X160909000Y-93218000D02*
X160909000Y-92964000D01*
X149733000Y-87757000D02*
X149733000Y-84965000D01*
X139319000Y-90805000D02*
X144145000Y-90805000D01*
X150241000Y-88265000D02*
X149733000Y-87757000D01*
X149352000Y-91186000D02*
X144526000Y-91186000D01*
X149479000Y-91313000D02*
X149733000Y-91313000D01*
X150620000Y-84965000D02*
X151663500Y-83921500D01*
X138000000Y-87500000D02*
X138000000Y-89486000D01*
D58*
X155813000Y-111313000D02*
X154826000Y-112300000D01*
X154826000Y-113538000D02*
X154826000Y-114625000D01*
X159626000Y-114625000D02*
X159626000Y-113551000D01*
X159626000Y-113551000D02*
X159639000Y-113538000D01*
X156480000Y-111313000D02*
X155813000Y-111313000D01*
X154826000Y-112300000D02*
X154826000Y-113538000D01*
X166624000Y-86995000D02*
X166624000Y-89760716D01*
X156718000Y-113538000D02*
X157353000Y-113538000D01*
X157480000Y-113030000D02*
X157226000Y-112776000D01*
X162805000Y-92211000D02*
X157353000Y-97663000D01*
X156476000Y-113780000D02*
X156718000Y-113538000D01*
X157353000Y-113538000D02*
X157476000Y-113661000D01*
X157226000Y-110159000D02*
X156480000Y-109413000D01*
X157226000Y-112776000D02*
X157226000Y-110159000D01*
X156476000Y-114625000D02*
X156476000Y-113780000D01*
X157476000Y-113661000D02*
X157476000Y-114625000D01*
X164173716Y-92211000D02*
X162805000Y-92211000D01*
X157353000Y-108540000D02*
X156480000Y-109413000D01*
X163711500Y-86761000D02*
X166390000Y-86761000D01*
X157480000Y-113657000D02*
X157480000Y-113030000D01*
X166390000Y-86761000D02*
X166624000Y-86995000D01*
X157476000Y-113661000D02*
X157480000Y-113657000D01*
X157353000Y-97663000D02*
X157353000Y-108540000D01*
X166624000Y-89760716D02*
X164173716Y-92211000D01*
X157734000Y-110159000D02*
X158480000Y-109413000D01*
X166423159Y-86261000D02*
X163711500Y-86261000D01*
X157734000Y-115570000D02*
X157976000Y-115328000D01*
X156976000Y-114625000D02*
X156976000Y-115447000D01*
X157730000Y-108663000D02*
X157730000Y-97819158D01*
X157976000Y-115328000D02*
X157976000Y-114625000D01*
X167005000Y-86842841D02*
X166423159Y-86261000D01*
X157976000Y-112256000D02*
X157734000Y-112014000D01*
X164329874Y-92588000D02*
X167005000Y-89912874D01*
X158480000Y-109413000D02*
X157730000Y-108663000D01*
X162961158Y-92588000D02*
X164329874Y-92588000D01*
X157730000Y-97819158D02*
X162961158Y-92588000D01*
X157734000Y-112014000D02*
X157734000Y-110159000D01*
X156976000Y-115447000D02*
X157099000Y-115570000D01*
X157099000Y-115570000D02*
X157734000Y-115570000D01*
X167005000Y-89912874D02*
X167005000Y-86842841D01*
X157976000Y-114625000D02*
X157976000Y-112256000D01*
D59*
X157224500Y-84573500D02*
X157216000Y-84582000D01*
X157524000Y-84573500D02*
X157224500Y-84573500D01*
X128905000Y-91440000D02*
X128905000Y-90150000D01*
D58*
X135636000Y-86741000D02*
X135763000Y-86741000D01*
X135763000Y-86106000D02*
X135636000Y-86106000D01*
D59*
X147701000Y-90424000D02*
X147701000Y-90150866D01*
X143764000Y-86764000D02*
X143750000Y-86750000D01*
X163786500Y-89336000D02*
X163711500Y-89261000D01*
X143764000Y-88644000D02*
X143764000Y-86764000D01*
X165536000Y-89336000D02*
X163786500Y-89336000D01*
X165608000Y-89408000D02*
X165536000Y-89336000D01*
X144300134Y-86750000D02*
X143750000Y-86750000D01*
X147701000Y-90150866D02*
X144300134Y-86750000D01*
X164592000Y-90297000D02*
X163747500Y-90297000D01*
X144400000Y-85750000D02*
X143750000Y-85750000D01*
X148312000Y-89662000D02*
X144400000Y-85750000D01*
X148844000Y-89662000D02*
X148312000Y-89662000D01*
X163747500Y-90297000D02*
X163711500Y-90261000D01*
D58*
X135636000Y-84709000D02*
X135763000Y-84709000D01*
D59*
X164414557Y-91114559D02*
X164414557Y-90968086D01*
X148447000Y-90297000D02*
X149352000Y-90297000D01*
X164207471Y-90761000D02*
X163711500Y-90761000D01*
X164414557Y-90968086D02*
X164207471Y-90761000D01*
X144400000Y-86250000D02*
X148447000Y-90297000D01*
X143750000Y-86250000D02*
X144400000Y-86250000D01*
X144907000Y-90424000D02*
X139573000Y-90424000D01*
X160524000Y-91448500D02*
X160524000Y-92452000D01*
X138430000Y-88403866D02*
X138500000Y-88333866D01*
X160524000Y-92452000D02*
X160528000Y-92456000D01*
X138500000Y-88333866D02*
X138500000Y-87500000D01*
X139573000Y-90424000D02*
X138430000Y-89281000D01*
X138430000Y-89281000D02*
X138430000Y-88403866D01*
D60*
X142745000Y-79009580D02*
X142745000Y-78500000D01*
X141000000Y-81529159D02*
X142113000Y-80416159D01*
X142113000Y-80416159D02*
X142113000Y-79641580D01*
X141000000Y-82500000D02*
X141000000Y-81529159D01*
X142113000Y-79641580D02*
X142745000Y-79009580D01*
D59*
X164239471Y-88761000D02*
X163711500Y-88761000D01*
X164470471Y-88992000D02*
X164239471Y-88761000D01*
X147749000Y-84965000D02*
X147129000Y-84345000D01*
X165039638Y-88992000D02*
X164470471Y-88992000D01*
X145301960Y-83250000D02*
X143750000Y-83250000D01*
X165508118Y-88523520D02*
X165039638Y-88992000D01*
X147129000Y-84035400D02*
X146760057Y-83666457D01*
X145718417Y-83666457D02*
X145301960Y-83250000D01*
X147129000Y-84345000D02*
X147129000Y-84035400D01*
X147701000Y-85852000D02*
X147701000Y-85013000D01*
X147701000Y-85013000D02*
X147749000Y-84965000D01*
X146760057Y-83666457D02*
X145718417Y-83666457D01*
X144381200Y-85250000D02*
X145618200Y-86487000D01*
X148717000Y-86487000D02*
X148695368Y-86508632D01*
X145618200Y-86487000D02*
X148717000Y-86487000D01*
X164588000Y-88261000D02*
X164719000Y-88392000D01*
X143750000Y-85250000D02*
X144381200Y-85250000D01*
X163711500Y-88261000D02*
X164588000Y-88261000D01*
X148717000Y-86487000D02*
X148717000Y-84965000D01*
X144708471Y-84500000D02*
X144458471Y-84250000D01*
X157988000Y-92456000D02*
X158524000Y-91920000D01*
X158524000Y-91920000D02*
X158524000Y-91448500D01*
X144458471Y-84250000D02*
X143750000Y-84250000D01*
X145542000Y-84500000D02*
X144708471Y-84500000D01*
D58*
X135763000Y-83820000D02*
X135763000Y-83693000D01*
D59*
X144915716Y-83871837D02*
X144793879Y-83750000D01*
X164461000Y-87761000D02*
X163711500Y-87761000D01*
X164719000Y-87503000D02*
X164461000Y-87761000D01*
X144793879Y-83750000D02*
X143750000Y-83750000D01*
X137500000Y-89448448D02*
X139745552Y-91694000D01*
X139745552Y-91694000D02*
X143764000Y-91694000D01*
X159024000Y-92268529D02*
X159024000Y-91448500D01*
X158623000Y-94234000D02*
X158623000Y-92669529D01*
X158623000Y-92669529D02*
X159024000Y-92268529D01*
X137500000Y-87500000D02*
X137500000Y-89448448D01*
X141986000Y-89281000D02*
X141391471Y-89281000D01*
X140500000Y-88333866D02*
X140500000Y-87500000D01*
X140560000Y-88449529D02*
X140560000Y-88393866D01*
X141391471Y-89281000D02*
X140560000Y-88449529D01*
X141986000Y-93218000D02*
X140716000Y-93218000D01*
X140560000Y-88393866D02*
X140500000Y-88333866D01*
X141478000Y-87522000D02*
X141500000Y-87500000D01*
X141478000Y-88519000D02*
X141478000Y-87522000D01*
X142500000Y-87500000D02*
X142500000Y-88513000D01*
X142500000Y-88513000D02*
X142494000Y-88519000D01*
D58*
X163191000Y-83185000D02*
X166395159Y-83185000D01*
D59*
X163557858Y-96555355D02*
X163017079Y-96014576D01*
D58*
X162574000Y-84568000D02*
X162574000Y-83802000D01*
D59*
X163017079Y-96014576D02*
X163017079Y-95961079D01*
D58*
X163017079Y-95961079D02*
X159258000Y-99720158D01*
X162524000Y-84573500D02*
X162568500Y-84573500D01*
X162574000Y-83802000D02*
X163191000Y-83185000D01*
X159258000Y-99720158D02*
X159258000Y-107315000D01*
X166395159Y-83185000D02*
X168398000Y-85187841D01*
X168398000Y-85187841D02*
X168398000Y-90580158D01*
X162568500Y-84573500D02*
X162574000Y-84568000D01*
X168398000Y-90580158D02*
X163017079Y-95961079D01*
X159024000Y-83095000D02*
X159024000Y-84573500D01*
X158115000Y-82042000D02*
X158115000Y-82186000D01*
X159004000Y-83075000D02*
X159024000Y-83095000D01*
X158115000Y-82186000D02*
X159004000Y-83075000D01*
X158524000Y-83569280D02*
X158524000Y-84573500D01*
X158150330Y-83195610D02*
X158524000Y-83569280D01*
X158150330Y-83105214D02*
X158150330Y-83195610D01*
D61*
X134620000Y-102267000D02*
X135872000Y-102267000D01*
X135872000Y-102267000D02*
X136271000Y-101868000D01*
D58*
X151384000Y-92329000D02*
X152781000Y-90932000D01*
X157480000Y-82550000D02*
X157480000Y-83542260D01*
X157480000Y-83542260D02*
X158024000Y-84086260D01*
X152781000Y-90932000D02*
X152781000Y-82550000D01*
X138637000Y-94279000D02*
X140587000Y-92329000D01*
X140587000Y-92329000D02*
X151384000Y-92329000D01*
X138637000Y-94279000D02*
X138637000Y-95295000D01*
X158024000Y-84086260D02*
X158024000Y-84573500D01*
X128397000Y-103826500D02*
X128397000Y-102493500D01*
X128397000Y-102493500D02*
X128361500Y-102458000D01*
X130436000Y-100958000D02*
X132586500Y-100958000D01*
X129667000Y-103826500D02*
X129667000Y-101727000D01*
X129667000Y-101727000D02*
X130436000Y-100958000D01*
D59*
X131011200Y-95148400D02*
X131011200Y-96164400D01*
D58*
X132954300Y-98029000D02*
X132954300Y-98021500D01*
X132954300Y-99043000D02*
X132952300Y-99045000D01*
X131312429Y-101958000D02*
X132586500Y-101958000D01*
X132954300Y-98029000D02*
X132954300Y-99043000D01*
D59*
X130962400Y-97180400D02*
X130962400Y-97099444D01*
X131011200Y-96164400D02*
X131011200Y-97131600D01*
X131011200Y-97131600D02*
X130962400Y-97180400D01*
D58*
X131247357Y-102023072D02*
X131312429Y-101958000D01*
D59*
X132105700Y-97180400D02*
X132954300Y-98029000D01*
X130962400Y-97180400D02*
X132105700Y-97180400D01*
D58*
X130735800Y-98027000D02*
X131817300Y-98027000D01*
X131817300Y-98027000D02*
X131819300Y-98029000D01*
D60*
X133849300Y-103877300D02*
X134010400Y-104038400D01*
D59*
X133908800Y-100076000D02*
X133959600Y-100076000D01*
D61*
X134620000Y-101247000D02*
X134620000Y-100235000D01*
D59*
X134067800Y-100235000D02*
X133908800Y-100076000D01*
X134620000Y-100235000D02*
X134067800Y-100235000D01*
D60*
X133248400Y-103877300D02*
X133849300Y-103877300D01*
D59*
X130083800Y-99045000D02*
X132063500Y-99045000D01*
X131530814Y-101458000D02*
X131418814Y-101346000D01*
X131064000Y-101346000D02*
X130429000Y-101981000D01*
X132586500Y-101458000D02*
X131530814Y-101458000D01*
X129997200Y-98958400D02*
X130083800Y-99045000D01*
X131418814Y-101346000D02*
X131064000Y-101346000D01*
X133146800Y-96774000D02*
X133146800Y-96268000D01*
X129540000Y-93472000D02*
X130556000Y-93472000D01*
X135128000Y-92583000D02*
X135636000Y-93091000D01*
X133098000Y-96166400D02*
X133197600Y-96266000D01*
D62*
X137287000Y-95504000D02*
X138144000Y-96361000D01*
X138144000Y-96361000D02*
X138564500Y-96361000D01*
D59*
X133045200Y-96166400D02*
X133098000Y-96166400D01*
X139630500Y-95295000D02*
X138564500Y-96361000D01*
X135128000Y-89533000D02*
X135128000Y-92583000D01*
X135003000Y-89408000D02*
X135128000Y-89533000D01*
D62*
X137287000Y-95504000D02*
X137287000Y-92977000D01*
D59*
X133146800Y-96268000D02*
X133045200Y-96166400D01*
X136017000Y-93091000D02*
X136779000Y-92329000D01*
X139657000Y-95295000D02*
X139630500Y-95295000D01*
X137287000Y-92456000D02*
X137287000Y-92977000D01*
X135636000Y-93091000D02*
X136017000Y-93091000D01*
X136779000Y-92329000D02*
X137160000Y-92329000D01*
X138836400Y-105003600D02*
X138836400Y-104952800D01*
X137160000Y-92329000D02*
X137287000Y-92456000D01*
X139250000Y-79770000D02*
X139559999Y-79770000D01*
X139860000Y-80070001D02*
X139860000Y-81390000D01*
X139860000Y-81390000D02*
X139500000Y-81750000D01*
X139559999Y-79770000D02*
X139860000Y-80070001D01*
X139500000Y-81750000D02*
X139500000Y-82500000D01*
X140500000Y-81674896D02*
X140500000Y-82500000D01*
X140843000Y-81153000D02*
X140589000Y-81407000D01*
X140589000Y-81585896D02*
X140500000Y-81674896D01*
X140843000Y-80617000D02*
X140843000Y-81153000D01*
X140589000Y-81407000D02*
X140589000Y-81585896D01*
X140434000Y-79657000D02*
X140843000Y-79657000D01*
X140208000Y-79883000D02*
X140434000Y-79657000D01*
X140208000Y-81504448D02*
X140208000Y-79883000D01*
X140000000Y-81712448D02*
X140208000Y-81504448D01*
X140000000Y-82500000D02*
X140000000Y-81712448D01*
D58*
X156591000Y-83411000D02*
X156591000Y-85261000D01*
X156591000Y-85261000D02*
X156836500Y-85261000D01*
X156300000Y-83120000D02*
X156591000Y-83411000D01*
X154432000Y-83120000D02*
X156300000Y-83120000D01*
D59*
X155892000Y-85761000D02*
X156836500Y-85761000D01*
X154432000Y-84520000D02*
X154674800Y-84520000D01*
X155293000Y-86360000D02*
X155688000Y-85965000D01*
X155688000Y-85965000D02*
X155892000Y-85761000D01*
X155892000Y-85737200D02*
X155892000Y-85761000D01*
X154674800Y-84520000D02*
X155892000Y-85737200D01*
D58*
X161036000Y-83045000D02*
X160991490Y-83045000D01*
X160991490Y-83045000D02*
X160024000Y-84012490D01*
X160024000Y-84012490D02*
X160024000Y-84573500D01*
X148913322Y-81157909D02*
X150058091Y-81157909D01*
D59*
X150058091Y-81157909D02*
X150063000Y-81153000D01*
D58*
X148646000Y-79629000D02*
X150088500Y-79629000D01*
X150088500Y-78105000D02*
X148636000Y-78105000D01*
X150056758Y-82645258D02*
X150088500Y-82677000D01*
X148972816Y-82645258D02*
X150056758Y-82645258D01*
X158240000Y-78255500D02*
X157962500Y-77978000D01*
X158240000Y-79248000D02*
X158240000Y-78255500D01*
X155321000Y-116713000D02*
X155976000Y-116058000D01*
X151892000Y-116713000D02*
X155321000Y-116713000D01*
X151500000Y-116321000D02*
X151892000Y-116713000D01*
X155976000Y-116058000D02*
X155976000Y-114625000D01*
X151500000Y-115760000D02*
X151500000Y-116321000D01*
X162941000Y-115699000D02*
X162941000Y-115824000D01*
X158976000Y-116177000D02*
X158976000Y-114625000D01*
X161925000Y-116840000D02*
X159639000Y-116840000D01*
X162941000Y-115824000D02*
X161925000Y-116840000D01*
X159639000Y-116840000D02*
X158976000Y-116177000D01*
D59*
X167096000Y-97413000D02*
X167096000Y-107910000D01*
X167096000Y-107910000D02*
X165913000Y-109093000D01*
X134297244Y-106553000D02*
X135454000Y-105396244D01*
D58*
X133975000Y-103114000D02*
X135430000Y-104569000D01*
X135430000Y-104569000D02*
X135972000Y-104569000D01*
D59*
X135454000Y-104593000D02*
X135430000Y-104569000D01*
X135454000Y-105396244D02*
X135454000Y-104593000D01*
D58*
X133484788Y-100458000D02*
X133975000Y-100948212D01*
D59*
X133223000Y-106553000D02*
X134297244Y-106553000D01*
D58*
X133975000Y-100948212D02*
X133975000Y-103114000D01*
X132586500Y-100458000D02*
X133484788Y-100458000D01*
X127463212Y-101958000D02*
X128361500Y-101958000D01*
X127224000Y-102197212D02*
X127463212Y-101958000D01*
X127381000Y-104011000D02*
X127224000Y-103854000D01*
X127224000Y-103854000D02*
X127224000Y-102197212D01*
D59*
X132207000Y-92075000D02*
X132969000Y-91313000D01*
X133985000Y-90491500D02*
X133985000Y-89410000D01*
X132969000Y-89467500D02*
X133923500Y-89467500D01*
X127955000Y-91760000D02*
X128270000Y-92075000D01*
X127955000Y-90150000D02*
X127955000Y-91760000D01*
X132969000Y-91313000D02*
X132969000Y-89467500D01*
X128270000Y-92075000D02*
X132207000Y-92075000D01*
X133923500Y-89467500D02*
X133983000Y-89408000D01*
X133985000Y-89410000D02*
X133983000Y-89408000D01*
D58*
X129499000Y-101218788D02*
X129259788Y-101458000D01*
X129259788Y-101458000D02*
X128361500Y-101458000D01*
X134620000Y-99215000D02*
X133832918Y-99215000D01*
X130293000Y-99958000D02*
X129499000Y-100752000D01*
X129499000Y-100752000D02*
X129499000Y-101218788D01*
X133089918Y-99958000D02*
X133832918Y-99215000D01*
X133089918Y-99958000D02*
X130293000Y-99958000D01*
X170182000Y-95270000D02*
X169799000Y-94887000D01*
D59*
X169799000Y-96393000D02*
X169799000Y-94887000D01*
X170180000Y-96774000D02*
X169799000Y-96393000D01*
X170180000Y-96901000D02*
X170180000Y-96774000D01*
D58*
X153593200Y-88366000D02*
X156244260Y-88366000D01*
X156349260Y-88261000D02*
X156836500Y-88261000D01*
X153416000Y-82042000D02*
X153416000Y-88188800D01*
X153416000Y-88188800D02*
X153593200Y-88366000D01*
X159260000Y-79248000D02*
X157472000Y-81036000D01*
X154422000Y-81036000D02*
X153416000Y-82042000D01*
X156244260Y-88366000D02*
X156349260Y-88261000D01*
X157472000Y-81036000D02*
X154422000Y-81036000D01*
X154430000Y-90174000D02*
X155450000Y-89154000D01*
X155557000Y-89261000D02*
X156836500Y-89261000D01*
X154430000Y-90297000D02*
X154430000Y-90174000D01*
X155450000Y-89154000D02*
X155557000Y-89261000D01*
D60*
X142254000Y-81421000D02*
X142939800Y-81421000D01*
D58*
X146193838Y-79236438D02*
X145545000Y-78587600D01*
D63*
X146499516Y-80966457D02*
X146193838Y-80660779D01*
D60*
X142000000Y-81675000D02*
X142254000Y-81421000D01*
D59*
X130302000Y-87630000D02*
X130683000Y-87249000D01*
X131318000Y-87249000D02*
X131318000Y-88332500D01*
D63*
X146193838Y-80660779D02*
X146193838Y-79236438D01*
D59*
X129855000Y-87650000D02*
X129855000Y-86366500D01*
X131318000Y-88332500D02*
X131191000Y-88459500D01*
X129855000Y-87650000D02*
X129875000Y-87630000D01*
D58*
X146499516Y-80966457D02*
X146690968Y-81157909D01*
D60*
X143394343Y-80966457D02*
X146499516Y-80966457D01*
D59*
X130683000Y-87249000D02*
X131318000Y-87249000D01*
D58*
X146690968Y-81157909D02*
X147893322Y-81157909D01*
D60*
X145545000Y-78815800D02*
X145545000Y-78587600D01*
X142939800Y-81421000D02*
X143394343Y-80966457D01*
D59*
X129855000Y-86366500D02*
X129988500Y-86233000D01*
D60*
X142000000Y-82500000D02*
X142000000Y-81675000D01*
D59*
X145545000Y-79107500D02*
X145545000Y-78587600D01*
X129875000Y-87630000D02*
X130302000Y-87630000D01*
X132031200Y-96160400D02*
X133045200Y-95146400D01*
X132588000Y-94689200D02*
X132588000Y-93472000D01*
X132031200Y-96266000D02*
X132031200Y-96160400D01*
X133045200Y-95146400D02*
X132588000Y-94689200D01*
X133983000Y-88265000D02*
X133036500Y-88265000D01*
X127955000Y-87650000D02*
X127955000Y-86040000D01*
X132969000Y-85852000D02*
X132969000Y-88332500D01*
X133983000Y-88265000D02*
X133983000Y-87183500D01*
X128524000Y-85471000D02*
X132588000Y-85471000D01*
X127955000Y-86040000D02*
X128524000Y-85471000D01*
X132588000Y-85471000D02*
X132969000Y-85852000D01*
X133983000Y-87183500D02*
X133985000Y-87181500D01*
X133036500Y-88265000D02*
X132969000Y-88332500D01*
X127498568Y-100958000D02*
X127203200Y-100662632D01*
X128361500Y-100958000D02*
X127498568Y-100958000D01*
X127508000Y-99189000D02*
X128524000Y-99189000D01*
X127203200Y-99493800D02*
X127508000Y-99189000D01*
X127203200Y-100662632D02*
X127203200Y-99493800D01*
D58*
X158633000Y-107950000D02*
X158633000Y-99812000D01*
X163024000Y-83991000D02*
X163024000Y-84573500D01*
D59*
X162687000Y-95684498D02*
X162687000Y-95758000D01*
D58*
X166240500Y-83563500D02*
X163451500Y-83563500D01*
X158623000Y-107950000D02*
X158633000Y-107950000D01*
X168021000Y-85344000D02*
X166240500Y-83563500D01*
X168021000Y-90424000D02*
X168021000Y-85344000D01*
D59*
X162143644Y-95141142D02*
X162687000Y-95684498D01*
D58*
X158633000Y-99812000D02*
X162687000Y-95758000D01*
X162687000Y-95758000D02*
X168021000Y-90424000D01*
X163451500Y-83563500D02*
X163024000Y-83991000D01*
D60*
X128649000Y-80393000D02*
X129413000Y-79629000D01*
X128649000Y-84201000D02*
X128649000Y-80393000D01*
X164465000Y-79119000D02*
X168527000Y-79119000D01*
X168527000Y-79119000D02*
X169037000Y-79629000D01*
X129413000Y-119253000D02*
X129923000Y-119763000D01*
X129923000Y-119763000D02*
X133985000Y-119763000D01*
X168527000Y-118743000D02*
X168527000Y-114681000D01*
X169037000Y-119253000D02*
X168527000Y-118743000D01*
G04 #@! TA.AperFunction,Conductor*
G36*
X131754193Y-102260040D02*
G01*
X131768637Y-102269691D01*
X131838058Y-102283500D01*
X131838060Y-102283500D01*
X133244848Y-102283500D01*
X133297174Y-102305174D01*
X133455326Y-102463326D01*
X133477000Y-102515652D01*
X133477000Y-102970348D01*
X133455326Y-103022674D01*
X133248674Y-103229326D01*
X133196348Y-103251000D01*
X132715000Y-103251000D01*
X132715000Y-105664000D01*
X133831348Y-105664000D01*
X133883674Y-105685674D01*
X134090326Y-105892326D01*
X134112000Y-105944652D01*
X134112000Y-106228500D01*
X134090326Y-106280826D01*
X134038000Y-106302500D01*
X133947500Y-106302500D01*
X133895174Y-106280826D01*
X133873500Y-106228500D01*
X133873500Y-106038180D01*
X133864767Y-105994278D01*
X133831504Y-105944496D01*
X133781722Y-105911233D01*
X133737820Y-105902500D01*
X132708180Y-105902500D01*
X132686229Y-105906866D01*
X132664277Y-105911233D01*
X132614496Y-105944495D01*
X132614495Y-105944496D01*
X132581233Y-105994277D01*
X132581233Y-105994278D01*
X132572500Y-106038180D01*
X132572500Y-107067820D01*
X132581233Y-107111722D01*
X132614496Y-107161504D01*
X132664278Y-107194767D01*
X132708180Y-107203500D01*
X132708181Y-107203500D01*
X133737819Y-107203500D01*
X133737820Y-107203500D01*
X133781722Y-107194767D01*
X133831504Y-107161504D01*
X133864767Y-107111722D01*
X133873500Y-107067820D01*
X133873500Y-106877500D01*
X133895174Y-106825174D01*
X133947500Y-106803500D01*
X134038000Y-106803500D01*
X134090326Y-106825174D01*
X134112000Y-106877500D01*
X134112000Y-106973890D01*
X134111247Y-106984419D01*
X134110501Y-106989607D01*
X134110500Y-106989622D01*
X134110500Y-108664655D01*
X134111894Y-108690651D01*
X134112000Y-108694611D01*
X134112000Y-109093000D01*
X134362000Y-109093000D01*
X134375599Y-109098633D01*
X134373990Y-109102515D01*
X134403341Y-109114673D01*
X134412236Y-109123568D01*
X134450953Y-109155342D01*
X134475063Y-109171452D01*
X134475063Y-109171451D01*
X134497038Y-109186135D01*
X134504675Y-109187653D01*
X134504682Y-109187657D01*
X134526224Y-109202051D01*
X134558937Y-109208557D01*
X134606028Y-109240022D01*
X134618500Y-109281135D01*
X134618500Y-111077655D01*
X134619963Y-111104940D01*
X134619964Y-111104960D01*
X134622798Y-111131311D01*
X134652583Y-111226435D01*
X134652589Y-111226449D01*
X134686068Y-111287762D01*
X134686072Y-111287767D01*
X134729653Y-111345985D01*
X134729655Y-111345987D01*
X134731237Y-111348100D01*
X134730287Y-111348810D01*
X134747000Y-111393604D01*
X134747000Y-111887000D01*
X139673348Y-111887000D01*
X139725674Y-111908674D01*
X139932326Y-112115326D01*
X139954000Y-112167652D01*
X139954000Y-117829348D01*
X139932326Y-117881674D01*
X139725674Y-118088326D01*
X139673348Y-118110000D01*
X133122652Y-118110000D01*
X133070326Y-118088326D01*
X132863674Y-117881674D01*
X132842000Y-117829348D01*
X132842000Y-116074000D01*
X132842000Y-115824000D01*
X132592000Y-115824000D01*
X132106652Y-115824000D01*
X132054326Y-115802326D01*
X131847674Y-115595674D01*
X131826000Y-115543348D01*
X131826000Y-109283500D01*
X131826000Y-109093000D01*
X131635500Y-109093000D01*
X131466674Y-108924174D01*
X131445000Y-108871848D01*
X131445000Y-102515652D01*
X131466674Y-102463326D01*
X131660757Y-102269242D01*
X131713082Y-102247569D01*
X131754193Y-102260040D01*
G37*
G04 #@! TD.AperFunction*
G04 #@! TA.AperFunction,Conductor*
G36*
X136102272Y-85998685D02*
G01*
X136138333Y-86034107D01*
X136169399Y-86080601D01*
X136252260Y-86135966D01*
X136252264Y-86135967D01*
X136325321Y-86150499D01*
X136325324Y-86150500D01*
X136325326Y-86150500D01*
X136697273Y-86150500D01*
X136975500Y-86150500D01*
X137042539Y-86170185D01*
X137088294Y-86222989D01*
X137099500Y-86274500D01*
X137099500Y-86744000D01*
X137079815Y-86811039D01*
X137027011Y-86856794D01*
X136975500Y-86868000D01*
X135633000Y-86868000D01*
X135565961Y-86848315D01*
X135520206Y-86795511D01*
X135509000Y-86744000D01*
X135509000Y-86103000D01*
X135528685Y-86035961D01*
X135581489Y-85990206D01*
X135633000Y-85979000D01*
X136035233Y-85979000D01*
X136102272Y-85998685D01*
G37*
G04 #@! TD.AperFunction*
G04 #@! TA.AperFunction,Conductor*
G36*
X136069152Y-105429685D02*
G01*
X136079361Y-105437911D01*
X136085465Y-105441990D01*
X136085467Y-105441992D01*
X136168357Y-105497377D01*
X136168358Y-105497377D01*
X136168359Y-105497378D01*
X136220678Y-105519049D01*
X136220683Y-105519051D01*
X136220687Y-105519051D01*
X136220688Y-105519052D01*
X136318455Y-105538500D01*
X136318458Y-105538500D01*
X138229002Y-105538500D01*
X138294777Y-105525415D01*
X138326775Y-105519051D01*
X138373478Y-105499705D01*
X138378078Y-105498060D01*
X138379098Y-105497377D01*
X138379101Y-105497377D01*
X138379102Y-105497377D01*
X138400937Y-105482786D01*
X138467611Y-105461910D01*
X138534992Y-105480394D01*
X138538714Y-105482786D01*
X138560551Y-105497377D01*
X138560552Y-105497377D01*
X138560553Y-105497378D01*
X138612872Y-105519049D01*
X138612877Y-105519051D01*
X138612881Y-105519051D01*
X138612882Y-105519052D01*
X138710649Y-105538500D01*
X138710652Y-105538500D01*
X139872510Y-105538500D01*
X139872512Y-105538500D01*
X139946679Y-105527499D01*
X139987791Y-105515028D01*
X139987808Y-105515019D01*
X139990939Y-105513813D01*
X140035577Y-105505500D01*
X140468350Y-105505500D01*
X140534125Y-105492415D01*
X140566123Y-105486051D01*
X140612826Y-105466705D01*
X140624274Y-105462610D01*
X140636053Y-105459037D01*
X140636818Y-105461559D01*
X140676864Y-105449020D01*
X140679078Y-105449000D01*
X140707638Y-105449000D01*
X140774677Y-105468685D01*
X140795319Y-105485319D01*
X140933681Y-105623681D01*
X140967166Y-105685004D01*
X140970000Y-105711362D01*
X140970000Y-111077638D01*
X140950315Y-111144677D01*
X140933681Y-111165319D01*
X140756319Y-111342681D01*
X140694996Y-111376166D01*
X140668638Y-111379000D01*
X135175362Y-111379000D01*
X135108323Y-111359315D01*
X135087681Y-111342681D01*
X134910319Y-111165319D01*
X134876834Y-111103996D01*
X134874000Y-111077638D01*
X134874000Y-109216000D01*
X134874000Y-108966000D01*
X134624000Y-108966000D01*
X134617012Y-108959012D01*
X134592902Y-108942902D01*
X134402319Y-108752319D01*
X134368834Y-108690996D01*
X134366000Y-108664638D01*
X134366000Y-106989617D01*
X134385685Y-106922578D01*
X134428001Y-106882229D01*
X134432528Y-106879614D01*
X134432532Y-106879614D01*
X134512456Y-106833470D01*
X135734470Y-105611456D01*
X135780614Y-105531532D01*
X135787589Y-105505500D01*
X135788552Y-105501907D01*
X135824917Y-105442246D01*
X135887764Y-105411717D01*
X135908327Y-105410000D01*
X136002113Y-105410000D01*
X136069152Y-105429685D01*
G37*
G04 #@! TD.AperFunction*
G04 #@! TA.AperFunction,Conductor*
G36*
X138836674Y-95906674D02*
G01*
X139043326Y-96113326D01*
X139065000Y-96165652D01*
X139065000Y-102870000D01*
X140435348Y-102870000D01*
X140487674Y-102891674D01*
X140694326Y-103098326D01*
X140716000Y-103150652D01*
X140716000Y-105002348D01*
X140694326Y-105054674D01*
X140520674Y-105228326D01*
X140468348Y-105250000D01*
X139975180Y-105250000D01*
X139953229Y-105254366D01*
X139931277Y-105258733D01*
X139913624Y-105270529D01*
X139872512Y-105283000D01*
X138710652Y-105283000D01*
X138658326Y-105261326D01*
X138451674Y-105054674D01*
X138430000Y-105002348D01*
X138430000Y-104009000D01*
X138430000Y-103759000D01*
X138180000Y-103759000D01*
X137694652Y-103759000D01*
X137642326Y-103737326D01*
X137435674Y-103530674D01*
X137414000Y-103478348D01*
X137414000Y-98319400D01*
X137414000Y-98069400D01*
X137164000Y-98069400D01*
X136424652Y-98069400D01*
X136372326Y-98047726D01*
X136165674Y-97841074D01*
X136144000Y-97788748D01*
X136144000Y-96927652D01*
X136165674Y-96875326D01*
X136372326Y-96668674D01*
X136424652Y-96647000D01*
X137418000Y-96647000D01*
X137668000Y-96647000D01*
X137668000Y-96165652D01*
X137689674Y-96113326D01*
X137896326Y-95906674D01*
X137948652Y-95885000D01*
X138784348Y-95885000D01*
X138836674Y-95906674D01*
G37*
G04 #@! TD.AperFunction*
G04 #@! TA.AperFunction,Conductor*
G36*
X139551326Y-80285674D02*
G01*
X139573000Y-80338000D01*
X139573000Y-81079000D01*
X139551326Y-81131326D01*
X139499000Y-81153000D01*
X139192000Y-81153000D01*
X139192000Y-82857000D01*
X139170326Y-82909326D01*
X139118000Y-82931000D01*
X137874500Y-82931000D01*
X137822174Y-82909326D01*
X137800500Y-82857000D01*
X137800500Y-82085180D01*
X137796422Y-82064678D01*
X137795000Y-82050242D01*
X137795000Y-81661000D01*
X136144000Y-81661000D01*
X136144000Y-82730000D01*
X136122326Y-82782326D01*
X136070000Y-82804000D01*
X135959417Y-82804000D01*
X135928672Y-82797311D01*
X135926668Y-82796395D01*
X135802372Y-82759900D01*
X135672828Y-82759900D01*
X135548531Y-82796395D01*
X135546528Y-82797311D01*
X135515783Y-82804000D01*
X132662000Y-82804000D01*
X132609674Y-82782326D01*
X132588000Y-82730000D01*
X132588000Y-81735000D01*
X132609674Y-81682674D01*
X132662000Y-81661000D01*
X133477000Y-81661000D01*
X133477000Y-80338000D01*
X133498674Y-80285674D01*
X133551000Y-80264000D01*
X139499000Y-80264000D01*
X139551326Y-80285674D01*
G37*
G04 #@! TD.AperFunction*
G04 #@! TA.AperFunction,Conductor*
G36*
X136683854Y-101103747D02*
G01*
X136716931Y-101125004D01*
X136841228Y-101161500D01*
X136970772Y-101161500D01*
X137095069Y-101125004D01*
X137128146Y-101103747D01*
X137168153Y-101092000D01*
X137184500Y-101092000D01*
X137236826Y-101113674D01*
X137258500Y-101166000D01*
X137258500Y-103478347D01*
X137270335Y-103537848D01*
X137270336Y-103537853D01*
X137281367Y-103564483D01*
X137287000Y-103592802D01*
X137287000Y-103886000D01*
X137580198Y-103886000D01*
X137608515Y-103891632D01*
X137635145Y-103902663D01*
X137694652Y-103914500D01*
X138200500Y-103914500D01*
X138252826Y-103936174D01*
X138274500Y-103988500D01*
X138274500Y-105002347D01*
X138286335Y-105061848D01*
X138286336Y-105061853D01*
X138297367Y-105088483D01*
X138303000Y-105116802D01*
X138303000Y-105209000D01*
X138281326Y-105261326D01*
X138229000Y-105283000D01*
X136318458Y-105283000D01*
X136266132Y-105261326D01*
X136244458Y-105209000D01*
X136256929Y-105167888D01*
X136283767Y-105127722D01*
X136292500Y-105083820D01*
X136292500Y-104054180D01*
X136283767Y-104010278D01*
X136250504Y-103960496D01*
X136200722Y-103927233D01*
X136156820Y-103918500D01*
X135787180Y-103918500D01*
X135765229Y-103922866D01*
X135743277Y-103927233D01*
X135693496Y-103960495D01*
X135693495Y-103960496D01*
X135660233Y-104010277D01*
X135651500Y-104054180D01*
X135651500Y-104219500D01*
X135629826Y-104271826D01*
X135577500Y-104293500D01*
X135574768Y-104293500D01*
X135522442Y-104271826D01*
X135403674Y-104153058D01*
X135382000Y-104100732D01*
X135382000Y-101166000D01*
X135403674Y-101113674D01*
X135456000Y-101092000D01*
X136643847Y-101092000D01*
X136683854Y-101103747D01*
G37*
G04 #@! TD.AperFunction*
G04 #@! TA.AperFunction,Conductor*
G36*
X135952078Y-83058710D02*
G01*
X135959417Y-83059500D01*
X135959426Y-83059500D01*
X136070002Y-83059500D01*
X136076065Y-83058903D01*
X136076108Y-83059344D01*
X136089755Y-83058000D01*
X136975500Y-83058000D01*
X137042539Y-83077685D01*
X137088294Y-83130489D01*
X137099500Y-83182000D01*
X137099500Y-83725500D01*
X137079815Y-83792539D01*
X137027011Y-83838294D01*
X136975500Y-83849500D01*
X136325323Y-83849500D01*
X136252264Y-83864032D01*
X136252256Y-83864035D01*
X136159367Y-83926102D01*
X136092690Y-83946980D01*
X136090477Y-83947000D01*
X135633000Y-83947000D01*
X135565961Y-83927315D01*
X135520206Y-83874511D01*
X135509000Y-83823000D01*
X135509000Y-83182000D01*
X135528685Y-83114961D01*
X135581489Y-83069206D01*
X135633000Y-83058000D01*
X135938823Y-83058000D01*
X135952078Y-83058710D01*
G37*
G04 #@! TD.AperFunction*
G04 #@! TA.AperFunction,Conductor*
G36*
X156091539Y-89656185D02*
G01*
X156137294Y-89708989D01*
X156148500Y-89760499D01*
X156148500Y-89860180D01*
X156154500Y-89905756D01*
X156154503Y-89905766D01*
X156179138Y-89958596D01*
X156189630Y-90027673D01*
X156179139Y-90063403D01*
X156156367Y-90112240D01*
X156154500Y-90116243D01*
X156148501Y-90161811D01*
X156148500Y-90161827D01*
X156148500Y-90360180D01*
X156154500Y-90405756D01*
X156154503Y-90405766D01*
X156179138Y-90458596D01*
X156189630Y-90527673D01*
X156179139Y-90563403D01*
X156154503Y-90616237D01*
X156154500Y-90616243D01*
X156148501Y-90661811D01*
X156148500Y-90661827D01*
X156148500Y-90860180D01*
X156154500Y-90905756D01*
X156154502Y-90905763D01*
X156189789Y-90981436D01*
X156201150Y-91005799D01*
X156279201Y-91083850D01*
X156379240Y-91130499D01*
X156424821Y-91136500D01*
X157024500Y-91136499D01*
X157091539Y-91156183D01*
X157137294Y-91208987D01*
X157148500Y-91260499D01*
X157148500Y-91860180D01*
X157154500Y-91905756D01*
X157154502Y-91905763D01*
X157186540Y-91974468D01*
X157201150Y-92005799D01*
X157279201Y-92083850D01*
X157379240Y-92130499D01*
X157387838Y-92134508D01*
X157387179Y-92135919D01*
X157437112Y-92167870D01*
X157466263Y-92231367D01*
X157458124Y-92296706D01*
X157451672Y-92312284D01*
X157451671Y-92312288D01*
X157451670Y-92312291D01*
X157435618Y-92434210D01*
X157433197Y-92452608D01*
X157432750Y-92456000D01*
X157446384Y-92559562D01*
X157451670Y-92599708D01*
X157451671Y-92599712D01*
X157507137Y-92733622D01*
X157507138Y-92733624D01*
X157507139Y-92733625D01*
X157595379Y-92848621D01*
X157710375Y-92936861D01*
X157710376Y-92936861D01*
X157710377Y-92936862D01*
X157718861Y-92940376D01*
X157844291Y-92992330D01*
X157971280Y-93009048D01*
X157987999Y-93011250D01*
X157988000Y-93011250D01*
X157988001Y-93011250D01*
X158027549Y-93006043D01*
X158131709Y-92992330D01*
X158131710Y-92992329D01*
X158132314Y-92992250D01*
X158201349Y-93003015D01*
X158253605Y-93049395D01*
X158272500Y-93115189D01*
X158272500Y-93747908D01*
X158252815Y-93814947D01*
X158234913Y-93834412D01*
X158236129Y-93835628D01*
X158230384Y-93841372D01*
X158142137Y-93956377D01*
X158086671Y-94090287D01*
X158086670Y-94090291D01*
X158067750Y-94233999D01*
X158067750Y-94234000D01*
X158086670Y-94377708D01*
X158086671Y-94377712D01*
X158142137Y-94511622D01*
X158142138Y-94511624D01*
X158142139Y-94511625D01*
X158230379Y-94626621D01*
X158345375Y-94714861D01*
X158479291Y-94770330D01*
X158606280Y-94787048D01*
X158622999Y-94789250D01*
X158623000Y-94789250D01*
X158623001Y-94789250D01*
X158637977Y-94787278D01*
X158766709Y-94770330D01*
X158900625Y-94714861D01*
X159015621Y-94626621D01*
X159103861Y-94511625D01*
X159159330Y-94377709D01*
X159178250Y-94234000D01*
X159159330Y-94090291D01*
X159103861Y-93956375D01*
X159015621Y-93841379D01*
X159015619Y-93841377D01*
X159015615Y-93841372D01*
X159009871Y-93835628D01*
X159012387Y-93833111D01*
X158980797Y-93789817D01*
X158973500Y-93747908D01*
X158973500Y-93305243D01*
X158993185Y-93238204D01*
X159045989Y-93192449D01*
X159115147Y-93182505D01*
X159153791Y-93194756D01*
X159231825Y-93234517D01*
X159231826Y-93234517D01*
X159231828Y-93234518D01*
X159266947Y-93240079D01*
X159323265Y-93249000D01*
X159724734Y-93248999D01*
X159724739Y-93248999D01*
X159724739Y-93248998D01*
X159770454Y-93241758D01*
X159816170Y-93234518D01*
X159816171Y-93234518D01*
X159816172Y-93234517D01*
X159816175Y-93234517D01*
X159926391Y-93178359D01*
X160013859Y-93090891D01*
X160069074Y-92982524D01*
X160117047Y-92931729D01*
X160184868Y-92914934D01*
X160242341Y-92934519D01*
X160243336Y-92932797D01*
X160250371Y-92936858D01*
X160250375Y-92936861D01*
X160275628Y-92947321D01*
X160295596Y-92955592D01*
X160350000Y-92999432D01*
X160372065Y-93065726D01*
X160371083Y-93086338D01*
X160353750Y-93217997D01*
X160353750Y-93218000D01*
X160372670Y-93361708D01*
X160372671Y-93361712D01*
X160428137Y-93495622D01*
X160428138Y-93495624D01*
X160428139Y-93495625D01*
X160516379Y-93610621D01*
X160549457Y-93636003D01*
X160606747Y-93679964D01*
X160647950Y-93736392D01*
X160652104Y-93806138D01*
X160618941Y-93866020D01*
X157122438Y-97362525D01*
X157052526Y-97432436D01*
X157003091Y-97518059D01*
X157003091Y-97518060D01*
X157003090Y-97518062D01*
X156977500Y-97613565D01*
X156977500Y-97613567D01*
X156977500Y-108333101D01*
X156957815Y-108400140D01*
X156941181Y-108420782D01*
X156535782Y-108826181D01*
X156474459Y-108859666D01*
X156448101Y-108862500D01*
X156105323Y-108862500D01*
X156032264Y-108877032D01*
X156032260Y-108877033D01*
X155949399Y-108932399D01*
X155894033Y-109015260D01*
X155894032Y-109015264D01*
X155879500Y-109088321D01*
X155879500Y-109737678D01*
X155894032Y-109810735D01*
X155894033Y-109810739D01*
X155894034Y-109810740D01*
X155949399Y-109893601D01*
X156032260Y-109948966D01*
X156032264Y-109948967D01*
X156105321Y-109963499D01*
X156105324Y-109963500D01*
X156105326Y-109963500D01*
X156448101Y-109963500D01*
X156515140Y-109983185D01*
X156535782Y-109999819D01*
X156814181Y-110278218D01*
X156847666Y-110339541D01*
X156850500Y-110365899D01*
X156850500Y-110638500D01*
X156830815Y-110705539D01*
X156778011Y-110751294D01*
X156726500Y-110762500D01*
X156105323Y-110762500D01*
X156032264Y-110777032D01*
X156032260Y-110777033D01*
X155949397Y-110832400D01*
X155915996Y-110882390D01*
X155862384Y-110927196D01*
X155812894Y-110937500D01*
X155763564Y-110937500D01*
X155668063Y-110963089D01*
X155668060Y-110963090D01*
X155582440Y-111012522D01*
X155582435Y-111012526D01*
X154595438Y-111999525D01*
X154525526Y-112069436D01*
X154476089Y-112155063D01*
X154472717Y-112167651D01*
X154472717Y-112167652D01*
X154452109Y-112244562D01*
X154452107Y-112244567D01*
X154450500Y-112250563D01*
X154450500Y-113080974D01*
X154430815Y-113148013D01*
X154424882Y-113156452D01*
X154400606Y-113188090D01*
X154345137Y-113260377D01*
X154289671Y-113394287D01*
X154289670Y-113394291D01*
X154270750Y-113537999D01*
X154270750Y-113538000D01*
X154289669Y-113681706D01*
X154289669Y-113681708D01*
X154289670Y-113681709D01*
X154333625Y-113787827D01*
X154341093Y-113857297D01*
X154322167Y-113904168D01*
X154290033Y-113952261D01*
X154290032Y-113952264D01*
X154275500Y-114025321D01*
X154275500Y-115025261D01*
X154255815Y-115092300D01*
X154203011Y-115138055D01*
X154183596Y-115145034D01*
X154156313Y-115152345D01*
X154113863Y-115163719D01*
X153982635Y-115239485D01*
X153982632Y-115239487D01*
X153869738Y-115352382D01*
X153867719Y-115350363D01*
X153822445Y-115383420D01*
X153752698Y-115387573D01*
X153691779Y-115353359D01*
X153659028Y-115291641D01*
X153656500Y-115266730D01*
X153656500Y-114576079D01*
X153627659Y-114431092D01*
X153627658Y-114431091D01*
X153627658Y-114431087D01*
X153608352Y-114384478D01*
X153571087Y-114294511D01*
X153571080Y-114294498D01*
X153488951Y-114171584D01*
X153488948Y-114171580D01*
X153384419Y-114067051D01*
X153384415Y-114067048D01*
X153261501Y-113984919D01*
X153261488Y-113984912D01*
X153124917Y-113928343D01*
X153124907Y-113928340D01*
X152979920Y-113899500D01*
X152979918Y-113899500D01*
X152832082Y-113899500D01*
X152832080Y-113899500D01*
X152687092Y-113928340D01*
X152687082Y-113928343D01*
X152550511Y-113984912D01*
X152550498Y-113984919D01*
X152427584Y-114067048D01*
X152427580Y-114067051D01*
X152323051Y-114171580D01*
X152323048Y-114171584D01*
X152240919Y-114294498D01*
X152240912Y-114294511D01*
X152184343Y-114431082D01*
X152184340Y-114431092D01*
X152155500Y-114576079D01*
X152155500Y-115250959D01*
X152135815Y-115317998D01*
X152083011Y-115363753D01*
X152013853Y-115373697D01*
X151950297Y-115344672D01*
X151943819Y-115338640D01*
X151912102Y-115306923D01*
X151912099Y-115306921D01*
X151796521Y-115250419D01*
X151796519Y-115250418D01*
X151796518Y-115250418D01*
X151721582Y-115239500D01*
X151278418Y-115239500D01*
X151203482Y-115250418D01*
X151203480Y-115250418D01*
X151203478Y-115250419D01*
X151087900Y-115306921D01*
X151087897Y-115306923D01*
X150996923Y-115397897D01*
X150996921Y-115397900D01*
X150940419Y-115513478D01*
X150940418Y-115513480D01*
X150940418Y-115513482D01*
X150929500Y-115588418D01*
X150929500Y-115931582D01*
X150940418Y-116006518D01*
X150940418Y-116006519D01*
X150940419Y-116006521D01*
X150996921Y-116122099D01*
X150996923Y-116122101D01*
X150996924Y-116122102D01*
X151087898Y-116213076D01*
X151087899Y-116213076D01*
X151088181Y-116213358D01*
X151121666Y-116274681D01*
X151124500Y-116301040D01*
X151124500Y-116370435D01*
X151144430Y-116444815D01*
X151150091Y-116465941D01*
X151194999Y-116543724D01*
X151195000Y-116543724D01*
X151199526Y-116551563D01*
X151199528Y-116551566D01*
X151454850Y-116806888D01*
X151661437Y-117013475D01*
X151747063Y-117062911D01*
X151842564Y-117088500D01*
X151842565Y-117088500D01*
X151842566Y-117088500D01*
X155370435Y-117088500D01*
X155370436Y-117088500D01*
X155418186Y-117075705D01*
X155465938Y-117062910D01*
X155551562Y-117013475D01*
X155621475Y-116943562D01*
X155621474Y-116943562D01*
X155680043Y-116884993D01*
X156276475Y-116288563D01*
X156278406Y-116285218D01*
X156316339Y-116219517D01*
X156316342Y-116219508D01*
X156316348Y-116219500D01*
X156325910Y-116202938D01*
X156337405Y-116160038D01*
X156339538Y-116152077D01*
X156339538Y-116152076D01*
X156351500Y-116107436D01*
X156351500Y-116008564D01*
X156351500Y-115574500D01*
X156371185Y-115507461D01*
X156423989Y-115461706D01*
X156475500Y-115450500D01*
X156493043Y-115450500D01*
X156560082Y-115470185D01*
X156605837Y-115522989D01*
X156612816Y-115542400D01*
X156626090Y-115591938D01*
X156647185Y-115628475D01*
X156675526Y-115677563D01*
X156798525Y-115800562D01*
X156868438Y-115870475D01*
X156950995Y-115918139D01*
X156954062Y-115919910D01*
X157001811Y-115932705D01*
X157001812Y-115932705D01*
X157011903Y-115935408D01*
X157049564Y-115945500D01*
X157049565Y-115945500D01*
X157049566Y-115945500D01*
X157783435Y-115945500D01*
X157783436Y-115945500D01*
X157831186Y-115932705D01*
X157878938Y-115919910D01*
X157964562Y-115870475D01*
X158034475Y-115800562D01*
X158034474Y-115800562D01*
X158276475Y-115558563D01*
X158303069Y-115512499D01*
X158353635Y-115464285D01*
X158410456Y-115450500D01*
X158476500Y-115450500D01*
X158543539Y-115470185D01*
X158589294Y-115522989D01*
X158600500Y-115574500D01*
X158600500Y-116226435D01*
X158626090Y-116321938D01*
X158626091Y-116321939D01*
X158626091Y-116321940D01*
X158670291Y-116398497D01*
X158675522Y-116407557D01*
X158675524Y-116407559D01*
X158675526Y-116407563D01*
X159408438Y-117140475D01*
X159482589Y-117183286D01*
X159494059Y-117189909D01*
X159494063Y-117189911D01*
X159589564Y-117215500D01*
X159589565Y-117215500D01*
X159589566Y-117215500D01*
X161974435Y-117215500D01*
X161974436Y-117215500D01*
X162022186Y-117202705D01*
X162069938Y-117189910D01*
X162155562Y-117140475D01*
X162225475Y-117070562D01*
X163040218Y-116255819D01*
X163101541Y-116222334D01*
X163127899Y-116219500D01*
X163162577Y-116219500D01*
X163162582Y-116219500D01*
X163237518Y-116208582D01*
X163322579Y-116166998D01*
X163353099Y-116152078D01*
X163353102Y-116152076D01*
X163444076Y-116061102D01*
X163444078Y-116061099D01*
X163482262Y-115982992D01*
X163500582Y-115945518D01*
X163511500Y-115870582D01*
X163511500Y-115527418D01*
X163500582Y-115452482D01*
X163489597Y-115430011D01*
X163444078Y-115336900D01*
X163444076Y-115336897D01*
X163353102Y-115245923D01*
X163353099Y-115245921D01*
X163237521Y-115189419D01*
X163237519Y-115189418D01*
X163237518Y-115189418D01*
X163162582Y-115178500D01*
X162719418Y-115178500D01*
X162644482Y-115189418D01*
X162644480Y-115189418D01*
X162644478Y-115189419D01*
X162528900Y-115245921D01*
X162528897Y-115245923D01*
X162508181Y-115266640D01*
X162446858Y-115300125D01*
X162377166Y-115295141D01*
X162321233Y-115253269D01*
X162296816Y-115187805D01*
X162296500Y-115178959D01*
X162296500Y-114576079D01*
X162267659Y-114431092D01*
X162267658Y-114431091D01*
X162267658Y-114431087D01*
X162248352Y-114384478D01*
X162211087Y-114294511D01*
X162211080Y-114294498D01*
X162128951Y-114171584D01*
X162128948Y-114171580D01*
X162024419Y-114067051D01*
X162024415Y-114067048D01*
X161901501Y-113984919D01*
X161901488Y-113984912D01*
X161764917Y-113928343D01*
X161764907Y-113928340D01*
X161619920Y-113899500D01*
X161619918Y-113899500D01*
X161472082Y-113899500D01*
X161472080Y-113899500D01*
X161327092Y-113928340D01*
X161327082Y-113928343D01*
X161190511Y-113984912D01*
X161190498Y-113984919D01*
X161067584Y-114067048D01*
X161067580Y-114067051D01*
X160963051Y-114171580D01*
X160963048Y-114171584D01*
X160880919Y-114294498D01*
X160880912Y-114294511D01*
X160824343Y-114431082D01*
X160824340Y-114431092D01*
X160795500Y-114576079D01*
X160795500Y-115266730D01*
X160775815Y-115333769D01*
X160723011Y-115379524D01*
X160653853Y-115389468D01*
X160590297Y-115360443D01*
X160582488Y-115352155D01*
X160582262Y-115352382D01*
X160469367Y-115239487D01*
X160469365Y-115239485D01*
X160403750Y-115201602D01*
X160338136Y-115163719D01*
X160307622Y-115155543D01*
X160268405Y-115145035D01*
X160208746Y-115108671D01*
X160178217Y-115045824D01*
X160176500Y-115025261D01*
X160176500Y-114025323D01*
X160176499Y-114025321D01*
X160161967Y-113952264D01*
X160161966Y-113952261D01*
X160161966Y-113952260D01*
X160161964Y-113952258D01*
X160161964Y-113952256D01*
X160137859Y-113916180D01*
X160116981Y-113849503D01*
X160126400Y-113799838D01*
X160131375Y-113787827D01*
X160175330Y-113681709D01*
X160194250Y-113538000D01*
X160175330Y-113394291D01*
X160119861Y-113260375D01*
X160031621Y-113145379D01*
X159916625Y-113057139D01*
X159916624Y-113057138D01*
X159916622Y-113057137D01*
X159782712Y-113001671D01*
X159782710Y-113001670D01*
X159782709Y-113001670D01*
X159705257Y-112991473D01*
X159639001Y-112982750D01*
X159638999Y-112982750D01*
X159495291Y-113001670D01*
X159495287Y-113001671D01*
X159361377Y-113057137D01*
X159246379Y-113145379D01*
X159158137Y-113260377D01*
X159102671Y-113394287D01*
X159102670Y-113394291D01*
X159091449Y-113479525D01*
X159083750Y-113538000D01*
X159096528Y-113635060D01*
X159099722Y-113659314D01*
X159088957Y-113728349D01*
X159042577Y-113780605D01*
X158976783Y-113799500D01*
X158801326Y-113799500D01*
X158750190Y-113809671D01*
X158701810Y-113809671D01*
X158650674Y-113799500D01*
X158475500Y-113799500D01*
X158408461Y-113779815D01*
X158362706Y-113727011D01*
X158351500Y-113675500D01*
X158351500Y-112206566D01*
X158351500Y-112206565D01*
X158351500Y-112206564D01*
X158325911Y-112111063D01*
X158276475Y-112025437D01*
X158145819Y-111894781D01*
X158112334Y-111833458D01*
X158109500Y-111807100D01*
X158109500Y-110365899D01*
X158129185Y-110298860D01*
X158145819Y-110278218D01*
X158424218Y-109999819D01*
X158485541Y-109966334D01*
X158511899Y-109963500D01*
X158854676Y-109963500D01*
X158854677Y-109963499D01*
X158927740Y-109948966D01*
X159010601Y-109893601D01*
X159065966Y-109810740D01*
X159080500Y-109737674D01*
X159080500Y-109088326D01*
X159080500Y-109088323D01*
X159080499Y-109088321D01*
X159065967Y-109015264D01*
X159065966Y-109015260D01*
X159053846Y-108997121D01*
X159010601Y-108932399D01*
X158927740Y-108877034D01*
X158927739Y-108877033D01*
X158927735Y-108877032D01*
X158854677Y-108862500D01*
X158854674Y-108862500D01*
X158511899Y-108862500D01*
X158444860Y-108842815D01*
X158424218Y-108826181D01*
X158245917Y-108647880D01*
X158212432Y-108586557D01*
X158217416Y-108516865D01*
X158259288Y-108460932D01*
X158324752Y-108436515D01*
X158381050Y-108445638D01*
X158479291Y-108486330D01*
X158606280Y-108503048D01*
X158622999Y-108505250D01*
X158623000Y-108505250D01*
X158623001Y-108505250D01*
X158637977Y-108503278D01*
X158766709Y-108486330D01*
X158900625Y-108430861D01*
X159015621Y-108342621D01*
X159103861Y-108227625D01*
X159159330Y-108093709D01*
X159175108Y-107973860D01*
X159203374Y-107909965D01*
X159261699Y-107871494D01*
X159281856Y-107867109D01*
X159401709Y-107851330D01*
X159535625Y-107795861D01*
X159650621Y-107707621D01*
X159738861Y-107592625D01*
X159794330Y-107458709D01*
X159813250Y-107315000D01*
X159794330Y-107171291D01*
X159738861Y-107037375D01*
X159659123Y-106933459D01*
X159633930Y-106868291D01*
X159633500Y-106857974D01*
X159633500Y-99927056D01*
X159653185Y-99860017D01*
X159669814Y-99839380D01*
X162778906Y-96730287D01*
X162840227Y-96696804D01*
X162909919Y-96701788D01*
X162954266Y-96730289D01*
X163208194Y-96984216D01*
X163433530Y-97209552D01*
X163495473Y-97250940D01*
X163593213Y-97270383D01*
X163690954Y-97250940D01*
X163752896Y-97209552D01*
X164212055Y-96750393D01*
X164253443Y-96688451D01*
X164272886Y-96590710D01*
X164253443Y-96492970D01*
X164212055Y-96431027D01*
X163993993Y-96212965D01*
X163732792Y-95951763D01*
X163699307Y-95890440D01*
X163704291Y-95820748D01*
X163732790Y-95776403D01*
X165428769Y-94080424D01*
X165490090Y-94046941D01*
X165559782Y-94051925D01*
X165615715Y-94093797D01*
X165631009Y-94120654D01*
X165635139Y-94130625D01*
X165684875Y-94195441D01*
X165710070Y-94260609D01*
X165710500Y-94270928D01*
X165710500Y-94861959D01*
X165690815Y-94928998D01*
X165674181Y-94949640D01*
X165582923Y-95040897D01*
X165582921Y-95040900D01*
X165526419Y-95156478D01*
X165526418Y-95156480D01*
X165526418Y-95156482D01*
X165515500Y-95231418D01*
X165515500Y-95574582D01*
X165526418Y-95649518D01*
X165526418Y-95649519D01*
X165526419Y-95649521D01*
X165582921Y-95765099D01*
X165582923Y-95765102D01*
X165643140Y-95825319D01*
X165676625Y-95886642D01*
X165671641Y-95956334D01*
X165643140Y-96000681D01*
X165582923Y-96060897D01*
X165582921Y-96060900D01*
X165526419Y-96176478D01*
X165526418Y-96176480D01*
X165526418Y-96176482D01*
X165515500Y-96251418D01*
X165515500Y-96594582D01*
X165526418Y-96669518D01*
X165526418Y-96669519D01*
X165526419Y-96669521D01*
X165582921Y-96785099D01*
X165582923Y-96785102D01*
X165623140Y-96825319D01*
X165656625Y-96886642D01*
X165651641Y-96956334D01*
X165628537Y-96992282D01*
X165628893Y-96992537D01*
X165623697Y-96999813D01*
X165623140Y-97000681D01*
X165622923Y-97000897D01*
X165622921Y-97000900D01*
X165566419Y-97116478D01*
X165566418Y-97116480D01*
X165566418Y-97116482D01*
X165555500Y-97191418D01*
X165555500Y-97634582D01*
X165566418Y-97709518D01*
X165566418Y-97709519D01*
X165566419Y-97709521D01*
X165622921Y-97825099D01*
X165622923Y-97825102D01*
X165713897Y-97916076D01*
X165713900Y-97916078D01*
X165824656Y-97970222D01*
X165829482Y-97972582D01*
X165904418Y-97983500D01*
X165904423Y-97983500D01*
X166247577Y-97983500D01*
X166247582Y-97983500D01*
X166322518Y-97972582D01*
X166380310Y-97944329D01*
X166438099Y-97916078D01*
X166438100Y-97916076D01*
X166438102Y-97916076D01*
X166498320Y-97855857D01*
X166559641Y-97822374D01*
X166629333Y-97827358D01*
X166673681Y-97855859D01*
X166709181Y-97891359D01*
X166742666Y-97952682D01*
X166745500Y-97979040D01*
X166745500Y-107713455D01*
X166725815Y-107780494D01*
X166709181Y-107801136D01*
X166008877Y-108501439D01*
X165947554Y-108534924D01*
X165921128Y-108536208D01*
X165921128Y-108537750D01*
X165913000Y-108537750D01*
X165769291Y-108556670D01*
X165769287Y-108556671D01*
X165635377Y-108612137D01*
X165520379Y-108700379D01*
X165432137Y-108815377D01*
X165376671Y-108949287D01*
X165376670Y-108949291D01*
X165357750Y-109092999D01*
X165357750Y-109093000D01*
X165376670Y-109236708D01*
X165376671Y-109236712D01*
X165432137Y-109370622D01*
X165432138Y-109370624D01*
X165432139Y-109370625D01*
X165520379Y-109485621D01*
X165635375Y-109573861D01*
X165769291Y-109629330D01*
X165896280Y-109646048D01*
X165912999Y-109648250D01*
X165913000Y-109648250D01*
X165913001Y-109648250D01*
X165927977Y-109646278D01*
X166056709Y-109629330D01*
X166190625Y-109573861D01*
X166305621Y-109485621D01*
X166393861Y-109370625D01*
X166449330Y-109236709D01*
X166468250Y-109093000D01*
X166468250Y-109092999D01*
X166468250Y-109084871D01*
X166472049Y-109084871D01*
X166479388Y-109033418D01*
X166504556Y-108997124D01*
X167376470Y-108125212D01*
X167422614Y-108045288D01*
X167446500Y-107956143D01*
X167446500Y-107863856D01*
X167446500Y-97979040D01*
X167466185Y-97912001D01*
X167482814Y-97891363D01*
X167549076Y-97825102D01*
X167549076Y-97825100D01*
X167549078Y-97825099D01*
X167592934Y-97735389D01*
X167605582Y-97709518D01*
X167616500Y-97634582D01*
X167616500Y-97191418D01*
X167605582Y-97116482D01*
X167603222Y-97111656D01*
X167549078Y-97000900D01*
X167549076Y-97000897D01*
X167532395Y-96984216D01*
X167498910Y-96922893D01*
X167503894Y-96853201D01*
X167532394Y-96808855D01*
X167575859Y-96765391D01*
X167590737Y-96736188D01*
X167621179Y-96699589D01*
X167620813Y-96699223D01*
X167624799Y-96695236D01*
X167625744Y-96694101D01*
X167626552Y-96693480D01*
X167626561Y-96693475D01*
X167696474Y-96623562D01*
X168536819Y-95783217D01*
X168598142Y-95749732D01*
X168667834Y-95754716D01*
X168723767Y-95796588D01*
X168748184Y-95862052D01*
X168748500Y-95870898D01*
X168748500Y-96001678D01*
X168763032Y-96074735D01*
X168763033Y-96074739D01*
X168777388Y-96096223D01*
X168818399Y-96157601D01*
X168901259Y-96212965D01*
X168901260Y-96212966D01*
X168901264Y-96212967D01*
X168974321Y-96227499D01*
X168974324Y-96227500D01*
X168974326Y-96227500D01*
X169324500Y-96227500D01*
X169391539Y-96247185D01*
X169437294Y-96299989D01*
X169448500Y-96351500D01*
X169448500Y-96439144D01*
X169458113Y-96475021D01*
X169467727Y-96510900D01*
X169467727Y-96510901D01*
X169468229Y-96512774D01*
X169472386Y-96528288D01*
X169518530Y-96608212D01*
X169589737Y-96679418D01*
X169623181Y-96712862D01*
X169656666Y-96774185D01*
X169659500Y-96800544D01*
X169659500Y-97122582D01*
X169670418Y-97197518D01*
X169670418Y-97197519D01*
X169670419Y-97197521D01*
X169726921Y-97313099D01*
X169726923Y-97313102D01*
X169817897Y-97404076D01*
X169817900Y-97404078D01*
X169895613Y-97442069D01*
X169933482Y-97460582D01*
X170008418Y-97471500D01*
X170008423Y-97471500D01*
X170351577Y-97471500D01*
X170351582Y-97471500D01*
X170426518Y-97460582D01*
X170508261Y-97420620D01*
X170542099Y-97404078D01*
X170542102Y-97404076D01*
X170633076Y-97313102D01*
X170633078Y-97313099D01*
X170674316Y-97228744D01*
X170689582Y-97197518D01*
X170700500Y-97122582D01*
X170700500Y-96679418D01*
X170689582Y-96604482D01*
X170669067Y-96562518D01*
X170633078Y-96488900D01*
X170633076Y-96488897D01*
X170577527Y-96433348D01*
X170544042Y-96372025D01*
X170549026Y-96302333D01*
X170590898Y-96246400D01*
X170641013Y-96224050D01*
X170696740Y-96212966D01*
X170779601Y-96157601D01*
X170834966Y-96074740D01*
X170849500Y-96001674D01*
X170849500Y-94362253D01*
X170869185Y-94295214D01*
X170921989Y-94249459D01*
X170991147Y-94239515D01*
X171020947Y-94247690D01*
X171056291Y-94262330D01*
X171183280Y-94279048D01*
X171199999Y-94281250D01*
X171200000Y-94281250D01*
X171200001Y-94281250D01*
X171256139Y-94273859D01*
X171343709Y-94262330D01*
X171343709Y-94262329D01*
X171351766Y-94261269D01*
X171351943Y-94262614D01*
X171413249Y-94264071D01*
X171471114Y-94303229D01*
X171498622Y-94367456D01*
X171499500Y-94382185D01*
X171499500Y-116160038D01*
X171479815Y-116227077D01*
X171427011Y-116272832D01*
X171357853Y-116282776D01*
X171304663Y-116261813D01*
X171023429Y-116066069D01*
X171023424Y-116066066D01*
X170690820Y-115881456D01*
X170341233Y-115731437D01*
X169978290Y-115617563D01*
X169978284Y-115617562D01*
X169978281Y-115617561D01*
X169978280Y-115617561D01*
X169605660Y-115540985D01*
X169605659Y-115540984D01*
X169605655Y-115540984D01*
X169227205Y-115502500D01*
X169227204Y-115502500D01*
X169051500Y-115502500D01*
X168984461Y-115482815D01*
X168938706Y-115430011D01*
X168927500Y-115378500D01*
X168927500Y-115197040D01*
X168947185Y-115130001D01*
X168963821Y-115109357D01*
X168980077Y-115093101D01*
X168980078Y-115093099D01*
X169013242Y-115025261D01*
X169036582Y-114977518D01*
X169047500Y-114902582D01*
X169047500Y-114459418D01*
X169036582Y-114384482D01*
X168992595Y-114294505D01*
X168980078Y-114268900D01*
X168980076Y-114268897D01*
X168889102Y-114177923D01*
X168889099Y-114177921D01*
X168773521Y-114121419D01*
X168773519Y-114121418D01*
X168773518Y-114121418D01*
X168698582Y-114110500D01*
X168355418Y-114110500D01*
X168280482Y-114121418D01*
X168280480Y-114121418D01*
X168280478Y-114121419D01*
X168164900Y-114177921D01*
X168164897Y-114177923D01*
X168073923Y-114268897D01*
X168073921Y-114268900D01*
X168017419Y-114384478D01*
X168017418Y-114384480D01*
X168017418Y-114384482D01*
X168006500Y-114459418D01*
X168006500Y-114902582D01*
X168017418Y-114977518D01*
X168017418Y-114977519D01*
X168017419Y-114977521D01*
X168073921Y-115093099D01*
X168073922Y-115093101D01*
X168090179Y-115109357D01*
X168123666Y-115170679D01*
X168126500Y-115197040D01*
X168126500Y-115516848D01*
X168106815Y-115583887D01*
X168054011Y-115629642D01*
X168039621Y-115635161D01*
X167732766Y-115731437D01*
X167383179Y-115881456D01*
X167050575Y-116066066D01*
X167050570Y-116066069D01*
X166738343Y-116283385D01*
X166449709Y-116531170D01*
X166187615Y-116806893D01*
X165954771Y-117107704D01*
X165753553Y-117430527D01*
X165753548Y-117430536D01*
X165586022Y-117772059D01*
X165586016Y-117772074D01*
X165453904Y-118128787D01*
X165358551Y-118497064D01*
X165300946Y-118873081D01*
X165281680Y-119253000D01*
X165300946Y-119632918D01*
X165358551Y-120008935D01*
X165358552Y-120008940D01*
X165426813Y-120272580D01*
X165453904Y-120377212D01*
X165586016Y-120733925D01*
X165586022Y-120733940D01*
X165753548Y-121075463D01*
X165753553Y-121075472D01*
X165954771Y-121398295D01*
X166095110Y-121579599D01*
X166120579Y-121644661D01*
X166106830Y-121713165D01*
X166058228Y-121763360D01*
X165997054Y-121779500D01*
X132452946Y-121779500D01*
X132385907Y-121759815D01*
X132340152Y-121707011D01*
X132330208Y-121637853D01*
X132354890Y-121579599D01*
X132389410Y-121535002D01*
X132495229Y-121398295D01*
X132696451Y-121075464D01*
X132863981Y-120733932D01*
X132996098Y-120377204D01*
X133027371Y-120256417D01*
X133063231Y-120196454D01*
X133125818Y-120165395D01*
X133147413Y-120163500D01*
X133468959Y-120163500D01*
X133535998Y-120183185D01*
X133556640Y-120199819D01*
X133572897Y-120216076D01*
X133572900Y-120216078D01*
X133655420Y-120256419D01*
X133688482Y-120272582D01*
X133763418Y-120283500D01*
X133763423Y-120283500D01*
X134206577Y-120283500D01*
X134206582Y-120283500D01*
X134281518Y-120272582D01*
X134339310Y-120244329D01*
X134397099Y-120216078D01*
X134397102Y-120216076D01*
X134488076Y-120125102D01*
X134488078Y-120125099D01*
X134516329Y-120067310D01*
X134544582Y-120009518D01*
X134555500Y-119934582D01*
X134555500Y-119853920D01*
X152155499Y-119853920D01*
X152184340Y-119998907D01*
X152184343Y-119998917D01*
X152240912Y-120135488D01*
X152240919Y-120135501D01*
X152323048Y-120258415D01*
X152323051Y-120258419D01*
X152427580Y-120362948D01*
X152427584Y-120362951D01*
X152550498Y-120445080D01*
X152550511Y-120445087D01*
X152687082Y-120501656D01*
X152687087Y-120501658D01*
X152687091Y-120501658D01*
X152687092Y-120501659D01*
X152832079Y-120530500D01*
X152832082Y-120530500D01*
X152979920Y-120530500D01*
X153077462Y-120511096D01*
X153124913Y-120501658D01*
X153261495Y-120445084D01*
X153384416Y-120362951D01*
X153488951Y-120258416D01*
X153571084Y-120135495D01*
X153627658Y-119998913D01*
X153656500Y-119853920D01*
X160795499Y-119853920D01*
X160824340Y-119998907D01*
X160824343Y-119998917D01*
X160880912Y-120135488D01*
X160880919Y-120135501D01*
X160963048Y-120258415D01*
X160963051Y-120258419D01*
X161067580Y-120362948D01*
X161067584Y-120362951D01*
X161190498Y-120445080D01*
X161190511Y-120445087D01*
X161327082Y-120501656D01*
X161327087Y-120501658D01*
X161327091Y-120501658D01*
X161327092Y-120501659D01*
X161472079Y-120530500D01*
X161472082Y-120530500D01*
X161619920Y-120530500D01*
X161717462Y-120511096D01*
X161764913Y-120501658D01*
X161901495Y-120445084D01*
X162024416Y-120362951D01*
X162128951Y-120258416D01*
X162211084Y-120135495D01*
X162267658Y-119998913D01*
X162296500Y-119853918D01*
X162296500Y-119247254D01*
X162316185Y-119180215D01*
X162332815Y-119159577D01*
X162676361Y-118816030D01*
X162737682Y-118782547D01*
X162773867Y-118781305D01*
X162773949Y-118780176D01*
X162778417Y-118780500D01*
X162778418Y-118780500D01*
X163221577Y-118780500D01*
X163221582Y-118780500D01*
X163296518Y-118769582D01*
X163344721Y-118746017D01*
X163412098Y-118713079D01*
X163412100Y-118713076D01*
X163412102Y-118713076D01*
X163428782Y-118696395D01*
X163490100Y-118662911D01*
X163559792Y-118667892D01*
X163588224Y-118686164D01*
X163589710Y-118684120D01*
X163597604Y-118689854D01*
X163597609Y-118689859D01*
X163707825Y-118746017D01*
X163707826Y-118746017D01*
X163707828Y-118746018D01*
X163742947Y-118751579D01*
X163799265Y-118760500D01*
X164200734Y-118760499D01*
X164200739Y-118760499D01*
X164200739Y-118760498D01*
X164246454Y-118753258D01*
X164292170Y-118746018D01*
X164292171Y-118746018D01*
X164292172Y-118746017D01*
X164292175Y-118746017D01*
X164402391Y-118689859D01*
X164489859Y-118602391D01*
X164546017Y-118492175D01*
X164546017Y-118492173D01*
X164546018Y-118492172D01*
X164546018Y-118492171D01*
X164549901Y-118467650D01*
X164560500Y-118400735D01*
X164560499Y-118059266D01*
X164560499Y-118059260D01*
X164546018Y-117967829D01*
X164546018Y-117967828D01*
X164546017Y-117967826D01*
X164546017Y-117967825D01*
X164489859Y-117857609D01*
X164489857Y-117857607D01*
X164489854Y-117857603D01*
X164402396Y-117770145D01*
X164402393Y-117770143D01*
X164402391Y-117770141D01*
X164292175Y-117713983D01*
X164292174Y-117713982D01*
X164292171Y-117713981D01*
X164200735Y-117699500D01*
X163799260Y-117699500D01*
X163799260Y-117699501D01*
X163707829Y-117713981D01*
X163707828Y-117713981D01*
X163597607Y-117770142D01*
X163597603Y-117770145D01*
X163574568Y-117793181D01*
X163513245Y-117826666D01*
X163486887Y-117829500D01*
X163483447Y-117829500D01*
X163421408Y-117811283D01*
X163421334Y-117811436D01*
X163420439Y-117810998D01*
X163416408Y-117809815D01*
X163412237Y-117806989D01*
X163296521Y-117750419D01*
X163296519Y-117750418D01*
X163296518Y-117750418D01*
X163221582Y-117739500D01*
X162778418Y-117739500D01*
X162731583Y-117746323D01*
X162703479Y-117750418D01*
X162587900Y-117806922D01*
X162514946Y-117879874D01*
X162489268Y-117899577D01*
X162420090Y-117939518D01*
X162420084Y-117939522D01*
X162059292Y-118300313D01*
X161997969Y-118333798D01*
X161928277Y-118328814D01*
X161902719Y-118315733D01*
X161901502Y-118314920D01*
X161901488Y-118314912D01*
X161764917Y-118258343D01*
X161764907Y-118258340D01*
X161619920Y-118229500D01*
X161619918Y-118229500D01*
X161472082Y-118229500D01*
X161472080Y-118229500D01*
X161327092Y-118258340D01*
X161327082Y-118258343D01*
X161190511Y-118314912D01*
X161190498Y-118314919D01*
X161067584Y-118397048D01*
X161067580Y-118397051D01*
X160963051Y-118501580D01*
X160963048Y-118501584D01*
X160880919Y-118624498D01*
X160880912Y-118624511D01*
X160824343Y-118761082D01*
X160824340Y-118761092D01*
X160795500Y-118906079D01*
X160795500Y-118906082D01*
X160795500Y-119853918D01*
X160795500Y-119853920D01*
X160795499Y-119853920D01*
X153656500Y-119853920D01*
X153656500Y-119853918D01*
X153656500Y-118906082D01*
X153656500Y-118906079D01*
X153627659Y-118761092D01*
X153627658Y-118761091D01*
X153627658Y-118761087D01*
X153627415Y-118760500D01*
X153571087Y-118624511D01*
X153571080Y-118624498D01*
X153488951Y-118501584D01*
X153488948Y-118501580D01*
X153384419Y-118397051D01*
X153384415Y-118397048D01*
X153261501Y-118314919D01*
X153261488Y-118314912D01*
X153124917Y-118258343D01*
X153124907Y-118258340D01*
X152979920Y-118229500D01*
X152979918Y-118229500D01*
X152832082Y-118229500D01*
X152832080Y-118229500D01*
X152687092Y-118258340D01*
X152687082Y-118258343D01*
X152550511Y-118314912D01*
X152550498Y-118314919D01*
X152427584Y-118397048D01*
X152427580Y-118397051D01*
X152323051Y-118501580D01*
X152323048Y-118501584D01*
X152240919Y-118624498D01*
X152240912Y-118624511D01*
X152184343Y-118761082D01*
X152184340Y-118761092D01*
X152155500Y-118906079D01*
X152155500Y-118906082D01*
X152155500Y-119853918D01*
X152155500Y-119853920D01*
X152155499Y-119853920D01*
X134555500Y-119853920D01*
X134555500Y-119591418D01*
X134544582Y-119516482D01*
X134542222Y-119511656D01*
X134488078Y-119400900D01*
X134488076Y-119400897D01*
X134397102Y-119309923D01*
X134397099Y-119309921D01*
X134281521Y-119253419D01*
X134281519Y-119253418D01*
X134281518Y-119253418D01*
X134206582Y-119242500D01*
X133763418Y-119242500D01*
X133688482Y-119253418D01*
X133688480Y-119253418D01*
X133688478Y-119253419D01*
X133572900Y-119309921D01*
X133572897Y-119309923D01*
X133556640Y-119326181D01*
X133495317Y-119359666D01*
X133468959Y-119362500D01*
X133291744Y-119362500D01*
X133224705Y-119342815D01*
X133178950Y-119290011D01*
X133167903Y-119244780D01*
X133167787Y-119242500D01*
X133149053Y-118873081D01*
X133093166Y-118508275D01*
X133102472Y-118439030D01*
X133147738Y-118385807D01*
X133214593Y-118365505D01*
X133215736Y-118365500D01*
X139673350Y-118365500D01*
X139742161Y-118351812D01*
X139771123Y-118346051D01*
X139817826Y-118326705D01*
X139822428Y-118325059D01*
X139823449Y-118324377D01*
X139823450Y-118324377D01*
X139906340Y-118268992D01*
X140112992Y-118062340D01*
X140112992Y-118062339D01*
X140112991Y-118062339D01*
X140115905Y-118059426D01*
X140119772Y-118052191D01*
X140168377Y-117979449D01*
X140190051Y-117927123D01*
X140199450Y-117879874D01*
X140209500Y-117829350D01*
X140209500Y-117613071D01*
X142468499Y-117613071D01*
X142493497Y-117738738D01*
X142493499Y-117738744D01*
X142542533Y-117857124D01*
X142542538Y-117857133D01*
X142613723Y-117963668D01*
X142613726Y-117963672D01*
X142704327Y-118054273D01*
X142704331Y-118054276D01*
X142810866Y-118125461D01*
X142810875Y-118125466D01*
X142837692Y-118136574D01*
X142929256Y-118174501D01*
X142929260Y-118174501D01*
X142929261Y-118174502D01*
X143054928Y-118199500D01*
X143054931Y-118199500D01*
X143183071Y-118199500D01*
X143267615Y-118182682D01*
X143308744Y-118174501D01*
X143427127Y-118125465D01*
X143533669Y-118054276D01*
X143624276Y-117963669D01*
X143634588Y-117948235D01*
X143640898Y-117938793D01*
X143694510Y-117893988D01*
X143763835Y-117885281D01*
X143826863Y-117915435D01*
X143847102Y-117938793D01*
X143863723Y-117963668D01*
X143863726Y-117963672D01*
X143954327Y-118054273D01*
X143954331Y-118054276D01*
X144060866Y-118125461D01*
X144060875Y-118125466D01*
X144087692Y-118136574D01*
X144179256Y-118174501D01*
X144179260Y-118174501D01*
X144179261Y-118174502D01*
X144304928Y-118199500D01*
X144304931Y-118199500D01*
X144433071Y-118199500D01*
X144517615Y-118182682D01*
X144558744Y-118174501D01*
X144677127Y-118125465D01*
X144783669Y-118054276D01*
X144874276Y-117963669D01*
X144884588Y-117948235D01*
X144890898Y-117938793D01*
X144944510Y-117893988D01*
X145013835Y-117885281D01*
X145076863Y-117915435D01*
X145097102Y-117938793D01*
X145113723Y-117963668D01*
X145113726Y-117963672D01*
X145204327Y-118054273D01*
X145204331Y-118054276D01*
X145310866Y-118125461D01*
X145310875Y-118125466D01*
X145337692Y-118136574D01*
X145429256Y-118174501D01*
X145429260Y-118174501D01*
X145429261Y-118174502D01*
X145554928Y-118199500D01*
X145554931Y-118199500D01*
X145683071Y-118199500D01*
X145767615Y-118182682D01*
X145808744Y-118174501D01*
X145927127Y-118125465D01*
X146033669Y-118054276D01*
X146124276Y-117963669D01*
X146134588Y-117948235D01*
X146140898Y-117938793D01*
X146194510Y-117893988D01*
X146263835Y-117885281D01*
X146326863Y-117915435D01*
X146347102Y-117938793D01*
X146363723Y-117963668D01*
X146363726Y-117963672D01*
X146454327Y-118054273D01*
X146454331Y-118054276D01*
X146560866Y-118125461D01*
X146560875Y-118125466D01*
X146587692Y-118136574D01*
X146679256Y-118174501D01*
X146679260Y-118174501D01*
X146679261Y-118174502D01*
X146804928Y-118199500D01*
X146804931Y-118199500D01*
X146933071Y-118199500D01*
X147017615Y-118182682D01*
X147058744Y-118174501D01*
X147177127Y-118125465D01*
X147283669Y-118054276D01*
X147374276Y-117963669D01*
X147445465Y-117857127D01*
X147494501Y-117738744D01*
X147519500Y-117613069D01*
X147519500Y-116984931D01*
X147519500Y-116984928D01*
X147494502Y-116859261D01*
X147494501Y-116859260D01*
X147494501Y-116859256D01*
X147445465Y-116740873D01*
X147445464Y-116740872D01*
X147445461Y-116740866D01*
X147374276Y-116634331D01*
X147374273Y-116634327D01*
X147283671Y-116543725D01*
X147283668Y-116543723D01*
X147177133Y-116472538D01*
X147177124Y-116472533D01*
X147058744Y-116423499D01*
X147058738Y-116423497D01*
X146933071Y-116398500D01*
X146933069Y-116398500D01*
X146804931Y-116398500D01*
X146804929Y-116398500D01*
X146679261Y-116423497D01*
X146679255Y-116423499D01*
X146560875Y-116472533D01*
X146560866Y-116472538D01*
X146454331Y-116543723D01*
X146454329Y-116543725D01*
X146363726Y-116634327D01*
X146363721Y-116634334D01*
X146347101Y-116659207D01*
X146293488Y-116704012D01*
X146224163Y-116712718D01*
X146161136Y-116682562D01*
X146140899Y-116659207D01*
X146124278Y-116634334D01*
X146124273Y-116634327D01*
X146033671Y-116543725D01*
X146033668Y-116543723D01*
X145927133Y-116472538D01*
X145927124Y-116472533D01*
X145808744Y-116423499D01*
X145808738Y-116423497D01*
X145683071Y-116398500D01*
X145683069Y-116398500D01*
X145554931Y-116398500D01*
X145554929Y-116398500D01*
X145429261Y-116423497D01*
X145429255Y-116423499D01*
X145310875Y-116472533D01*
X145310866Y-116472538D01*
X145204331Y-116543723D01*
X145204329Y-116543725D01*
X145113726Y-116634327D01*
X145113721Y-116634334D01*
X145097101Y-116659207D01*
X145043488Y-116704012D01*
X144974163Y-116712718D01*
X144911136Y-116682562D01*
X144890899Y-116659207D01*
X144874278Y-116634334D01*
X144874273Y-116634327D01*
X144783671Y-116543725D01*
X144783668Y-116543723D01*
X144677133Y-116472538D01*
X144677124Y-116472533D01*
X144558744Y-116423499D01*
X144558738Y-116423497D01*
X144433071Y-116398500D01*
X144433069Y-116398500D01*
X144304931Y-116398500D01*
X144304929Y-116398500D01*
X144179261Y-116423497D01*
X144179255Y-116423499D01*
X144060875Y-116472533D01*
X144060866Y-116472538D01*
X143954331Y-116543723D01*
X143954329Y-116543725D01*
X143863726Y-116634327D01*
X143863721Y-116634334D01*
X143847101Y-116659207D01*
X143793488Y-116704012D01*
X143724163Y-116712718D01*
X143661136Y-116682562D01*
X143640899Y-116659207D01*
X143624278Y-116634334D01*
X143624273Y-116634327D01*
X143533671Y-116543725D01*
X143533668Y-116543723D01*
X143427133Y-116472538D01*
X143427124Y-116472533D01*
X143308744Y-116423499D01*
X143308738Y-116423497D01*
X143183071Y-116398500D01*
X143183069Y-116398500D01*
X143054931Y-116398500D01*
X143054929Y-116398500D01*
X142929261Y-116423497D01*
X142929255Y-116423499D01*
X142810875Y-116472533D01*
X142810866Y-116472538D01*
X142704331Y-116543723D01*
X142704329Y-116543725D01*
X142613726Y-116634327D01*
X142613723Y-116634331D01*
X142542538Y-116740866D01*
X142542533Y-116740875D01*
X142493499Y-116859255D01*
X142493497Y-116859261D01*
X142468500Y-116984928D01*
X142468500Y-116984931D01*
X142468500Y-117613069D01*
X142468500Y-117613071D01*
X142468499Y-117613071D01*
X140209500Y-117613071D01*
X140209500Y-113190500D01*
X140229185Y-113123461D01*
X140281989Y-113077706D01*
X140333500Y-113066500D01*
X151010435Y-113066500D01*
X151010436Y-113066500D01*
X151058186Y-113053705D01*
X151105938Y-113040910D01*
X151191562Y-112991475D01*
X151261475Y-112921562D01*
X156510474Y-107672563D01*
X156510583Y-107672375D01*
X156510641Y-107672276D01*
X156540751Y-107620122D01*
X156559910Y-107586938D01*
X156585500Y-107491435D01*
X156585500Y-93295565D01*
X156584177Y-93290628D01*
X156584177Y-93290612D01*
X156584173Y-93290614D01*
X156559910Y-93200063D01*
X156559909Y-93200060D01*
X156547380Y-93178359D01*
X156510475Y-93114438D01*
X156440562Y-93044525D01*
X154475218Y-91079181D01*
X154441733Y-91017858D01*
X154446717Y-90948166D01*
X154488589Y-90892233D01*
X154554053Y-90867816D01*
X154562899Y-90867500D01*
X154601577Y-90867500D01*
X154601582Y-90867500D01*
X154676518Y-90856582D01*
X154749551Y-90820878D01*
X154792099Y-90800078D01*
X154792102Y-90800076D01*
X154883076Y-90709102D01*
X154883078Y-90709099D01*
X154928473Y-90616242D01*
X154939582Y-90593518D01*
X154950500Y-90518582D01*
X154950500Y-90235899D01*
X154970185Y-90168860D01*
X154986819Y-90148218D01*
X155374219Y-89760819D01*
X155435542Y-89727334D01*
X155461900Y-89724500D01*
X155621577Y-89724500D01*
X155621582Y-89724500D01*
X155696518Y-89713582D01*
X155753705Y-89685625D01*
X155821334Y-89652564D01*
X155822416Y-89654777D01*
X155874595Y-89636648D01*
X155880646Y-89636500D01*
X156024500Y-89636500D01*
X156091539Y-89656185D01*
G37*
G04 #@! TD.AperFunction*
G04 #@! TA.AperFunction,Conductor*
G36*
X130213952Y-102487781D02*
G01*
X130234900Y-102496458D01*
X130285291Y-102517330D01*
X130412280Y-102534048D01*
X130428999Y-102536250D01*
X130429000Y-102536250D01*
X130429001Y-102536250D01*
X130460947Y-102532044D01*
X130529982Y-102542809D01*
X130582238Y-102589189D01*
X130601124Y-102656458D01*
X130585956Y-102711745D01*
X130586249Y-102711866D01*
X130585285Y-102714191D01*
X130584520Y-102716983D01*
X130583138Y-102719376D01*
X130527671Y-102853287D01*
X130527670Y-102853291D01*
X130519196Y-102917660D01*
X130508750Y-102997000D01*
X130516106Y-103052877D01*
X130527670Y-103140708D01*
X130527671Y-103140712D01*
X130583137Y-103274622D01*
X130583138Y-103274624D01*
X130583139Y-103274625D01*
X130671379Y-103389621D01*
X130786375Y-103477861D01*
X130920291Y-103533330D01*
X131064000Y-103552250D01*
X131065500Y-103552250D01*
X131066719Y-103552607D01*
X131072059Y-103553311D01*
X131071949Y-103554143D01*
X131132539Y-103571935D01*
X131178294Y-103624739D01*
X131189500Y-103676250D01*
X131189500Y-106948000D01*
X131189500Y-108871848D01*
X131189500Y-108871850D01*
X131189499Y-108871850D01*
X131208947Y-108969617D01*
X131208948Y-108969618D01*
X131208949Y-108969623D01*
X131227854Y-109015264D01*
X131228290Y-109016316D01*
X131229939Y-109020926D01*
X131230623Y-109021949D01*
X131230623Y-109021950D01*
X131251546Y-109053264D01*
X131286009Y-109104842D01*
X131454830Y-109273663D01*
X131454834Y-109273666D01*
X131505048Y-109307218D01*
X131515389Y-109314127D01*
X131560195Y-109367739D01*
X131570500Y-109417230D01*
X131570500Y-115543348D01*
X131570500Y-115543350D01*
X131570499Y-115543350D01*
X131589947Y-115641117D01*
X131589948Y-115641118D01*
X131589949Y-115641123D01*
X131605043Y-115677563D01*
X131609290Y-115687816D01*
X131610939Y-115692426D01*
X131667009Y-115776342D01*
X131667010Y-115776343D01*
X131876572Y-115985904D01*
X131883805Y-115989770D01*
X131956551Y-116038377D01*
X132008877Y-116060051D01*
X132008881Y-116060051D01*
X132008882Y-116060052D01*
X132106649Y-116079500D01*
X132106652Y-116079500D01*
X132462500Y-116079500D01*
X132529539Y-116099185D01*
X132575294Y-116151989D01*
X132586500Y-116203500D01*
X132586500Y-116862842D01*
X132566815Y-116929881D01*
X132514011Y-116975636D01*
X132444853Y-116985580D01*
X132381297Y-116956555D01*
X132364444Y-116938743D01*
X132262384Y-116806893D01*
X132262383Y-116806892D01*
X132262380Y-116806888D01*
X132000291Y-116531171D01*
X131931992Y-116472538D01*
X131711656Y-116283385D01*
X131399429Y-116066069D01*
X131399424Y-116066066D01*
X131066820Y-115881456D01*
X130717233Y-115731437D01*
X130354290Y-115617563D01*
X130354284Y-115617562D01*
X130354281Y-115617561D01*
X130354280Y-115617561D01*
X129981660Y-115540985D01*
X129981659Y-115540984D01*
X129981655Y-115540984D01*
X129603205Y-115502500D01*
X129603204Y-115502500D01*
X129222796Y-115502500D01*
X129222795Y-115502500D01*
X128844344Y-115540984D01*
X128471715Y-115617562D01*
X128471709Y-115617563D01*
X128108766Y-115731437D01*
X127759179Y-115881456D01*
X127426575Y-116066066D01*
X127426570Y-116066069D01*
X127135337Y-116268773D01*
X127069068Y-116290914D01*
X127001349Y-116273712D01*
X126953680Y-116222630D01*
X126940500Y-116166998D01*
X126940500Y-104642979D01*
X126960185Y-104575940D01*
X127012989Y-104530185D01*
X127082147Y-104520241D01*
X127082379Y-104520275D01*
X127084480Y-104520581D01*
X127084482Y-104520582D01*
X127159418Y-104531500D01*
X127159419Y-104531500D01*
X127602577Y-104531500D01*
X127602582Y-104531500D01*
X127677518Y-104520582D01*
X127775202Y-104472827D01*
X127793099Y-104464078D01*
X127793100Y-104464076D01*
X127793102Y-104464076D01*
X127857181Y-104399996D01*
X127918502Y-104366513D01*
X127988194Y-104371497D01*
X128001143Y-104377188D01*
X128104825Y-104430017D01*
X128104826Y-104430017D01*
X128104828Y-104430018D01*
X128139947Y-104435579D01*
X128196265Y-104444500D01*
X128597734Y-104444499D01*
X128597739Y-104444499D01*
X128597739Y-104444498D01*
X128653431Y-104435678D01*
X128689170Y-104430018D01*
X128689171Y-104430018D01*
X128689172Y-104430017D01*
X128689175Y-104430017D01*
X128799391Y-104373859D01*
X128886859Y-104286391D01*
X128921517Y-104218370D01*
X128969489Y-104167577D01*
X129037310Y-104150782D01*
X129103445Y-104173319D01*
X129142482Y-104218370D01*
X129177141Y-104286391D01*
X129177142Y-104286392D01*
X129177145Y-104286396D01*
X129264603Y-104373854D01*
X129264605Y-104373855D01*
X129264609Y-104373859D01*
X129374825Y-104430017D01*
X129374826Y-104430017D01*
X129374828Y-104430018D01*
X129409947Y-104435579D01*
X129466265Y-104444500D01*
X129867734Y-104444499D01*
X129867739Y-104444499D01*
X129867739Y-104444498D01*
X129923431Y-104435678D01*
X129959170Y-104430018D01*
X129959171Y-104430018D01*
X129959172Y-104430017D01*
X129959175Y-104430017D01*
X130069391Y-104373859D01*
X130156859Y-104286391D01*
X130213017Y-104176175D01*
X130213017Y-104176173D01*
X130213018Y-104176172D01*
X130213018Y-104176171D01*
X130217039Y-104150782D01*
X130227500Y-104084735D01*
X130227499Y-103743266D01*
X130227499Y-103743265D01*
X130227499Y-103743260D01*
X130213018Y-103651829D01*
X130213018Y-103651828D01*
X130213017Y-103651826D01*
X130213017Y-103651825D01*
X130156859Y-103541609D01*
X130156857Y-103541607D01*
X130156854Y-103541603D01*
X130078819Y-103463568D01*
X130045334Y-103402245D01*
X130042500Y-103375887D01*
X130042500Y-102602342D01*
X130062185Y-102535303D01*
X130114989Y-102489548D01*
X130184147Y-102479604D01*
X130213952Y-102487781D01*
G37*
G04 #@! TD.AperFunction*
G04 #@! TA.AperFunction,Conductor*
G36*
X153305227Y-90973661D02*
G01*
X153359105Y-91018146D01*
X153363801Y-91025648D01*
X153369473Y-91035472D01*
X153369524Y-91035561D01*
X153369527Y-91035565D01*
X155798181Y-93464218D01*
X155831666Y-93525541D01*
X155834500Y-93551899D01*
X155834500Y-107235101D01*
X155814815Y-107302140D01*
X155798181Y-107322782D01*
X150841782Y-112279181D01*
X150780459Y-112312666D01*
X150754101Y-112315500D01*
X140333500Y-112315500D01*
X140266461Y-112295815D01*
X140220706Y-112243011D01*
X140209500Y-112191500D01*
X140209500Y-112167649D01*
X140190052Y-112069882D01*
X140190051Y-112069881D01*
X140190051Y-112069877D01*
X140170708Y-112023179D01*
X140169060Y-112018572D01*
X140112990Y-111934657D01*
X140024514Y-111846181D01*
X139991029Y-111784858D01*
X139996013Y-111715166D01*
X140037885Y-111659233D01*
X140103349Y-111634816D01*
X140112195Y-111634500D01*
X140668639Y-111634500D01*
X140670075Y-111634422D01*
X140695952Y-111633036D01*
X140722310Y-111630202D01*
X140817444Y-111600413D01*
X140878767Y-111566928D01*
X140936985Y-111523347D01*
X141114347Y-111345985D01*
X141132626Y-111325635D01*
X141149260Y-111304993D01*
X141195465Y-111216662D01*
X141215150Y-111149623D01*
X141225500Y-111077638D01*
X141225500Y-108551282D01*
X141245185Y-108484243D01*
X141297989Y-108438488D01*
X141302605Y-108437000D01*
X141302456Y-108436640D01*
X141313738Y-108431966D01*
X141313740Y-108431966D01*
X141396601Y-108376601D01*
X141451966Y-108293740D01*
X141466500Y-108220674D01*
X141466500Y-107171326D01*
X141466500Y-107171323D01*
X141466499Y-107171321D01*
X141451967Y-107098264D01*
X141451966Y-107098260D01*
X141396601Y-107015399D01*
X141313740Y-106960034D01*
X141313739Y-106960033D01*
X141302456Y-106955360D01*
X141304146Y-106951277D01*
X141263304Y-106929859D01*
X141228794Y-106869107D01*
X141225500Y-106840717D01*
X141225500Y-105711360D01*
X141225345Y-105708486D01*
X141224036Y-105684048D01*
X141222783Y-105672396D01*
X141221202Y-105657689D01*
X141221201Y-105657687D01*
X141204221Y-105603461D01*
X141191413Y-105562556D01*
X141183803Y-105548620D01*
X141157931Y-105501238D01*
X141157926Y-105501230D01*
X141114350Y-105443019D01*
X141114349Y-105443018D01*
X141114347Y-105443015D01*
X140975985Y-105304653D01*
X140971638Y-105300748D01*
X140934918Y-105241305D01*
X140930500Y-105208499D01*
X140930500Y-105176816D01*
X140939939Y-105129363D01*
X140952051Y-105100123D01*
X140958415Y-105068125D01*
X140971500Y-105002350D01*
X140971500Y-103150649D01*
X140952052Y-103052882D01*
X140952051Y-103052881D01*
X140952051Y-103052877D01*
X140932708Y-103006179D01*
X140931060Y-103001572D01*
X140874990Y-102917657D01*
X140874989Y-102917656D01*
X140665426Y-102708094D01*
X140658187Y-102704224D01*
X140585449Y-102655623D01*
X140585448Y-102655622D01*
X140585446Y-102655621D01*
X140533127Y-102633950D01*
X140533117Y-102633947D01*
X140435350Y-102614500D01*
X140435348Y-102614500D01*
X139444500Y-102614500D01*
X139377461Y-102594815D01*
X139331706Y-102542011D01*
X139320500Y-102490500D01*
X139320500Y-99330488D01*
X145749500Y-99330488D01*
X145749500Y-99669512D01*
X145754057Y-99715777D01*
X145782729Y-100006901D01*
X145848258Y-100336334D01*
X145848871Y-100339414D01*
X145889509Y-100473382D01*
X145947284Y-100663841D01*
X146023088Y-100846847D01*
X146048226Y-100907537D01*
X146077024Y-100977060D01*
X146077026Y-100977065D01*
X146236831Y-101276039D01*
X146236842Y-101276057D01*
X146425184Y-101557930D01*
X146425194Y-101557944D01*
X146640269Y-101820014D01*
X146879985Y-102059730D01*
X146879990Y-102059734D01*
X146879991Y-102059735D01*
X147142061Y-102274810D01*
X147423949Y-102463162D01*
X147423958Y-102463167D01*
X147423960Y-102463168D01*
X147722934Y-102622973D01*
X147722936Y-102622973D01*
X147722942Y-102622977D01*
X148036160Y-102752716D01*
X148360586Y-102851129D01*
X148693096Y-102917270D01*
X149030488Y-102950500D01*
X149030491Y-102950500D01*
X149369509Y-102950500D01*
X149369512Y-102950500D01*
X149706904Y-102917270D01*
X150039414Y-102851129D01*
X150363840Y-102752716D01*
X150677058Y-102622977D01*
X150976051Y-102463162D01*
X151257939Y-102274810D01*
X151520009Y-102059735D01*
X151759735Y-101820009D01*
X151974810Y-101557939D01*
X152163162Y-101276051D01*
X152322977Y-100977058D01*
X152452716Y-100663840D01*
X152551129Y-100339414D01*
X152617270Y-100006904D01*
X152650500Y-99669512D01*
X152650500Y-99330488D01*
X152617270Y-98993096D01*
X152551129Y-98660586D01*
X152452716Y-98336160D01*
X152322977Y-98022942D01*
X152297188Y-97974695D01*
X152163168Y-97723960D01*
X152163167Y-97723958D01*
X152163162Y-97723949D01*
X151974810Y-97442061D01*
X151759735Y-97179991D01*
X151759734Y-97179990D01*
X151759730Y-97179985D01*
X151520014Y-96940269D01*
X151257944Y-96725194D01*
X151257943Y-96725193D01*
X151257939Y-96725190D01*
X151010190Y-96559649D01*
X150976057Y-96536842D01*
X150976056Y-96536841D01*
X150976051Y-96536838D01*
X150976046Y-96536835D01*
X150976039Y-96536831D01*
X150677065Y-96377026D01*
X150677060Y-96377024D01*
X150664991Y-96372025D01*
X150582805Y-96337982D01*
X150363841Y-96247284D01*
X150130436Y-96176482D01*
X150039414Y-96148871D01*
X150039411Y-96148870D01*
X150039410Y-96148870D01*
X149706901Y-96082729D01*
X149469199Y-96059318D01*
X149369512Y-96049500D01*
X149030488Y-96049500D01*
X148939738Y-96058437D01*
X148693098Y-96082729D01*
X148360589Y-96148870D01*
X148036158Y-96247284D01*
X147722939Y-96377024D01*
X147722934Y-96377026D01*
X147423960Y-96536831D01*
X147423942Y-96536842D01*
X147142069Y-96725184D01*
X147142055Y-96725194D01*
X146879985Y-96940269D01*
X146640269Y-97179985D01*
X146425194Y-97442055D01*
X146425184Y-97442069D01*
X146236842Y-97723942D01*
X146236831Y-97723960D01*
X146077026Y-98022934D01*
X146077024Y-98022939D01*
X145947284Y-98336158D01*
X145848870Y-98660589D01*
X145782729Y-98993098D01*
X145758804Y-99236022D01*
X145749500Y-99330488D01*
X139320500Y-99330488D01*
X139320500Y-96165650D01*
X139320423Y-96164869D01*
X139320500Y-96164462D01*
X139320500Y-96159560D01*
X139321430Y-96159560D01*
X139333442Y-96096223D01*
X139356139Y-96065042D01*
X139519364Y-95901816D01*
X139580687Y-95868334D01*
X139607044Y-95865500D01*
X139828577Y-95865500D01*
X139828582Y-95865500D01*
X139903518Y-95854582D01*
X139972726Y-95820748D01*
X140019099Y-95798078D01*
X140019102Y-95798076D01*
X140110076Y-95707102D01*
X140110078Y-95707099D01*
X140146915Y-95631747D01*
X140166582Y-95591518D01*
X140177500Y-95516582D01*
X140177500Y-95073418D01*
X140166582Y-94998482D01*
X140155013Y-94974818D01*
X140110078Y-94882900D01*
X140110076Y-94882897D01*
X140019102Y-94791923D01*
X140019099Y-94791921D01*
X139903521Y-94735419D01*
X139903519Y-94735418D01*
X139903518Y-94735418D01*
X139828582Y-94724500D01*
X139485418Y-94724500D01*
X139410482Y-94735418D01*
X139410480Y-94735418D01*
X139410478Y-94735419D01*
X139285666Y-94796436D01*
X139283903Y-94792830D01*
X139236469Y-94809067D01*
X139168626Y-94792363D01*
X139120583Y-94741632D01*
X139107593Y-94672981D01*
X139119589Y-94630732D01*
X139146582Y-94575518D01*
X139157500Y-94500582D01*
X139157500Y-94340898D01*
X139177185Y-94273859D01*
X139193814Y-94253221D01*
X140020813Y-93426222D01*
X140082136Y-93392738D01*
X140151828Y-93397722D01*
X140207761Y-93439594D01*
X140223055Y-93466452D01*
X140235137Y-93495622D01*
X140235138Y-93495624D01*
X140235139Y-93495625D01*
X140323379Y-93610621D01*
X140438375Y-93698861D01*
X140438376Y-93698861D01*
X140438377Y-93698862D01*
X140483013Y-93717350D01*
X140572291Y-93754330D01*
X140699280Y-93771048D01*
X140715999Y-93773250D01*
X140716000Y-93773250D01*
X140716001Y-93773250D01*
X140730977Y-93771278D01*
X140859709Y-93754330D01*
X140993625Y-93698861D01*
X141108621Y-93610621D01*
X141108623Y-93610617D01*
X141108627Y-93610615D01*
X141114372Y-93604871D01*
X141116888Y-93607387D01*
X141160183Y-93575797D01*
X141202092Y-93568500D01*
X141499908Y-93568500D01*
X141566947Y-93588185D01*
X141586412Y-93606086D01*
X141587628Y-93604871D01*
X141593372Y-93610615D01*
X141593377Y-93610619D01*
X141593379Y-93610621D01*
X141708375Y-93698861D01*
X141708376Y-93698861D01*
X141708377Y-93698862D01*
X141753013Y-93717350D01*
X141842291Y-93754330D01*
X141969280Y-93771048D01*
X141985999Y-93773250D01*
X141986000Y-93773250D01*
X141986001Y-93773250D01*
X142000977Y-93771278D01*
X142129709Y-93754330D01*
X142263625Y-93698861D01*
X142378621Y-93610621D01*
X142466861Y-93495625D01*
X142522330Y-93361709D01*
X142541250Y-93218000D01*
X142522330Y-93074291D01*
X142466861Y-92940375D01*
X142448733Y-92916750D01*
X142438939Y-92903986D01*
X142413745Y-92838817D01*
X142427784Y-92770372D01*
X142476598Y-92720382D01*
X142537315Y-92704500D01*
X151433434Y-92704500D01*
X151433436Y-92704500D01*
X151511692Y-92683531D01*
X151528938Y-92678910D01*
X151614562Y-92629475D01*
X151684475Y-92559562D01*
X153081474Y-91162563D01*
X153084299Y-91157670D01*
X153085556Y-91155494D01*
X153130908Y-91076941D01*
X153130907Y-91076941D01*
X153130910Y-91076938D01*
X153136640Y-91055553D01*
X153173004Y-90995895D01*
X153235851Y-90965366D01*
X153305227Y-90973661D01*
G37*
G04 #@! TD.AperFunction*
G04 #@! TA.AperFunction,Conductor*
G36*
X134658420Y-104328458D02*
G01*
X134754164Y-104424202D01*
X134787649Y-104485525D01*
X134782665Y-104555217D01*
X134740793Y-104611150D01*
X134713936Y-104626444D01*
X134596376Y-104675138D01*
X134481379Y-104763379D01*
X134393137Y-104878377D01*
X134337671Y-105012287D01*
X134337670Y-105012291D01*
X134319257Y-105152152D01*
X134318750Y-105156000D01*
X134335914Y-105286374D01*
X134337670Y-105299708D01*
X134337671Y-105299712D01*
X134393137Y-105433622D01*
X134393138Y-105433624D01*
X134393139Y-105433625D01*
X134481379Y-105548621D01*
X134552850Y-105603463D01*
X134594051Y-105659889D01*
X134598206Y-105729635D01*
X134565042Y-105789519D01*
X134526796Y-105827764D01*
X134465473Y-105861249D01*
X134395781Y-105856263D01*
X134339848Y-105814391D01*
X134336013Y-105808972D01*
X134270990Y-105711657D01*
X134270989Y-105711656D01*
X134061426Y-105502094D01*
X134054187Y-105498224D01*
X133981449Y-105449623D01*
X133981448Y-105449622D01*
X133981446Y-105449621D01*
X133929127Y-105427950D01*
X133929117Y-105427947D01*
X133831350Y-105408500D01*
X133831348Y-105408500D01*
X133094500Y-105408500D01*
X133027461Y-105388815D01*
X132981706Y-105336011D01*
X132970500Y-105284500D01*
X132970500Y-104619299D01*
X132990185Y-104552260D01*
X133042989Y-104506505D01*
X133094495Y-104495299D01*
X133449134Y-104495299D01*
X133449139Y-104495299D01*
X133449139Y-104495298D01*
X133540575Y-104480817D01*
X133556256Y-104472826D01*
X133624924Y-104459929D01*
X133688038Y-104484933D01*
X133732775Y-104519261D01*
X133866691Y-104574730D01*
X133993680Y-104591448D01*
X134010399Y-104593650D01*
X134010400Y-104593650D01*
X134010401Y-104593650D01*
X134025377Y-104591678D01*
X134154109Y-104574730D01*
X134288025Y-104519261D01*
X134403021Y-104431021D01*
X134472365Y-104340650D01*
X134528791Y-104299450D01*
X134598537Y-104295295D01*
X134658420Y-104328458D01*
G37*
G04 #@! TD.AperFunction*
G04 #@! TA.AperFunction,Conductor*
G36*
X132248876Y-82194530D02*
G01*
X132305853Y-82234971D01*
X132331920Y-82299795D01*
X132332500Y-82311772D01*
X132332500Y-82730000D01*
X132332500Y-82730002D01*
X132332499Y-82730002D01*
X132351947Y-82827769D01*
X132351948Y-82827770D01*
X132351949Y-82827775D01*
X132366968Y-82864034D01*
X132371290Y-82874468D01*
X132372939Y-82879078D01*
X132429006Y-82962989D01*
X132429009Y-82962992D01*
X132511899Y-83018377D01*
X132511900Y-83018377D01*
X132511901Y-83018378D01*
X132564220Y-83040049D01*
X132564225Y-83040051D01*
X132564229Y-83040051D01*
X132564230Y-83040052D01*
X132661997Y-83059500D01*
X132662000Y-83059500D01*
X133572045Y-83059500D01*
X133639084Y-83079185D01*
X133659720Y-83095812D01*
X133660455Y-83096547D01*
X133775664Y-83182793D01*
X133775671Y-83182797D01*
X133910517Y-83233091D01*
X133910516Y-83233091D01*
X133917444Y-83233835D01*
X133970127Y-83239500D01*
X135015872Y-83239499D01*
X135063416Y-83234388D01*
X135132176Y-83246795D01*
X135183312Y-83294406D01*
X135199608Y-83341489D01*
X135201270Y-83354109D01*
X135244061Y-83457418D01*
X135253500Y-83504868D01*
X135253500Y-83586851D01*
X135244061Y-83634303D01*
X135226670Y-83676287D01*
X135211845Y-83788897D01*
X135207750Y-83820000D01*
X135218872Y-83904482D01*
X135226670Y-83963708D01*
X135226671Y-83963712D01*
X135282138Y-84097623D01*
X135282139Y-84097625D01*
X135352264Y-84189014D01*
X135377458Y-84254183D01*
X135363420Y-84322628D01*
X135352264Y-84339986D01*
X135282139Y-84431374D01*
X135282138Y-84431376D01*
X135226671Y-84565287D01*
X135226670Y-84565291D01*
X135214838Y-84655166D01*
X135207750Y-84709000D01*
X135226670Y-84852709D01*
X135241063Y-84887458D01*
X135244061Y-84894694D01*
X135253500Y-84942147D01*
X135253500Y-85060051D01*
X135244061Y-85107503D01*
X135226670Y-85149487D01*
X135208326Y-85288825D01*
X135207750Y-85293200D01*
X135225059Y-85424676D01*
X135226670Y-85436908D01*
X135226671Y-85436912D01*
X135282138Y-85570823D01*
X135282139Y-85570825D01*
X135323029Y-85624114D01*
X135348223Y-85689283D01*
X135334185Y-85757728D01*
X135323029Y-85775086D01*
X135282139Y-85828374D01*
X135282138Y-85828376D01*
X135226671Y-85962287D01*
X135226670Y-85962291D01*
X135212776Y-86067828D01*
X135207750Y-86106000D01*
X135214762Y-86159264D01*
X135226670Y-86249708D01*
X135226670Y-86249709D01*
X135244061Y-86291694D01*
X135253500Y-86339147D01*
X135253500Y-86507851D01*
X135244061Y-86555303D01*
X135226670Y-86597287D01*
X135208140Y-86738039D01*
X135207750Y-86741000D01*
X135220679Y-86839207D01*
X135226670Y-86884708D01*
X135226671Y-86884712D01*
X135282137Y-87018622D01*
X135282138Y-87018624D01*
X135282139Y-87018625D01*
X135370379Y-87133621D01*
X135485375Y-87221861D01*
X135485376Y-87221861D01*
X135485377Y-87221862D01*
X135499322Y-87227638D01*
X135619291Y-87277330D01*
X135746280Y-87294048D01*
X135762999Y-87296250D01*
X135763000Y-87296250D01*
X135763001Y-87296250D01*
X135777977Y-87294278D01*
X135906709Y-87277330D01*
X136040625Y-87221861D01*
X136130718Y-87152729D01*
X136195887Y-87127536D01*
X136240112Y-87134432D01*
X136240281Y-87133584D01*
X136325321Y-87150499D01*
X136325324Y-87150500D01*
X136325326Y-87150500D01*
X136975500Y-87150500D01*
X137042539Y-87170185D01*
X137088294Y-87222989D01*
X137099500Y-87274500D01*
X137099500Y-87924678D01*
X137114032Y-87997735D01*
X137114034Y-87997740D01*
X137128601Y-88019542D01*
X137149480Y-88086217D01*
X137149500Y-88088432D01*
X137149500Y-88971408D01*
X137129815Y-89038447D01*
X137077011Y-89084202D01*
X137007853Y-89094146D01*
X136950014Y-89069784D01*
X136929625Y-89054139D01*
X136929623Y-89054138D01*
X136795712Y-88998671D01*
X136795710Y-88998670D01*
X136795709Y-88998670D01*
X136712241Y-88987681D01*
X136652001Y-88979750D01*
X136651999Y-88979750D01*
X136508291Y-88998670D01*
X136508287Y-88998671D01*
X136374376Y-89054138D01*
X136374374Y-89054139D01*
X136312986Y-89101244D01*
X136247817Y-89126438D01*
X136179372Y-89112399D01*
X136129382Y-89063585D01*
X136113500Y-89002868D01*
X136113500Y-88472858D01*
X136113500Y-88472856D01*
X136089614Y-88383712D01*
X136087478Y-88380012D01*
X136043473Y-88303794D01*
X136043470Y-88303791D01*
X136043469Y-88303788D01*
X135978212Y-88238531D01*
X135724212Y-87984530D01*
X135644288Y-87938386D01*
X135644285Y-87938385D01*
X135644283Y-87938384D01*
X135643408Y-87938150D01*
X135555138Y-87914498D01*
X135547425Y-87913483D01*
X135483530Y-87885213D01*
X135463867Y-87859955D01*
X135462044Y-87861257D01*
X135456074Y-87852895D01*
X135365102Y-87761923D01*
X135365099Y-87761921D01*
X135249521Y-87705419D01*
X135249519Y-87705418D01*
X135249518Y-87705418D01*
X135174582Y-87694500D01*
X134831418Y-87694500D01*
X134756482Y-87705418D01*
X134756480Y-87705418D01*
X134756478Y-87705419D01*
X134640900Y-87761921D01*
X134640897Y-87761923D01*
X134580681Y-87822140D01*
X134519358Y-87855625D01*
X134449666Y-87850641D01*
X134405319Y-87822140D01*
X134369819Y-87786640D01*
X134336334Y-87725317D01*
X134333500Y-87698959D01*
X134333500Y-87656194D01*
X134353185Y-87589155D01*
X134384614Y-87555876D01*
X134387384Y-87553862D01*
X134387391Y-87553859D01*
X134474859Y-87466391D01*
X134531017Y-87356175D01*
X134531017Y-87356173D01*
X134531018Y-87356172D01*
X134531018Y-87356171D01*
X134540508Y-87296250D01*
X134545500Y-87264735D01*
X134545499Y-86923266D01*
X134545499Y-86923265D01*
X134545499Y-86923260D01*
X134531018Y-86831829D01*
X134531018Y-86831828D01*
X134531017Y-86831826D01*
X134531017Y-86831825D01*
X134474859Y-86721609D01*
X134474857Y-86721607D01*
X134474854Y-86721603D01*
X134387396Y-86634145D01*
X134387393Y-86634143D01*
X134387391Y-86634141D01*
X134277175Y-86577983D01*
X134277174Y-86577982D01*
X134277171Y-86577981D01*
X134185735Y-86563500D01*
X133784260Y-86563500D01*
X133784260Y-86563501D01*
X133692829Y-86577981D01*
X133692828Y-86577981D01*
X133582607Y-86634142D01*
X133582603Y-86634145D01*
X133531181Y-86685568D01*
X133469858Y-86719053D01*
X133400166Y-86714069D01*
X133344233Y-86672197D01*
X133319816Y-86606733D01*
X133319500Y-86597887D01*
X133319500Y-85805858D01*
X133319500Y-85805856D01*
X133295614Y-85716712D01*
X133295611Y-85716706D01*
X133249473Y-85636794D01*
X133249470Y-85636791D01*
X133249469Y-85636788D01*
X133184212Y-85571531D01*
X132803212Y-85190530D01*
X132803211Y-85190529D01*
X132803208Y-85190527D01*
X132723290Y-85144387D01*
X132723289Y-85144386D01*
X132723288Y-85144386D01*
X132634144Y-85120500D01*
X128477856Y-85120500D01*
X128411029Y-85138406D01*
X128411028Y-85138405D01*
X128388716Y-85144384D01*
X128388709Y-85144387D01*
X128308791Y-85190527D01*
X128308786Y-85190531D01*
X127674531Y-85824786D01*
X127674527Y-85824791D01*
X127635633Y-85892159D01*
X127635633Y-85892160D01*
X127628386Y-85904710D01*
X127604500Y-85993856D01*
X127604500Y-86691189D01*
X127584815Y-86758228D01*
X127549391Y-86794291D01*
X127474399Y-86844398D01*
X127419033Y-86927260D01*
X127419032Y-86927264D01*
X127404500Y-87000321D01*
X127404500Y-88299678D01*
X127419032Y-88372735D01*
X127419033Y-88372739D01*
X127423892Y-88380011D01*
X127474399Y-88455601D01*
X127518713Y-88485210D01*
X127557260Y-88510966D01*
X127557264Y-88510967D01*
X127630321Y-88525499D01*
X127630324Y-88525500D01*
X127630326Y-88525500D01*
X128279676Y-88525500D01*
X128279677Y-88525499D01*
X128352740Y-88510966D01*
X128435601Y-88455601D01*
X128490966Y-88372740D01*
X128505500Y-88299674D01*
X128505500Y-87000326D01*
X128505500Y-87000323D01*
X128505499Y-87000321D01*
X128490967Y-86927264D01*
X128490966Y-86927260D01*
X128486449Y-86920500D01*
X128435601Y-86844399D01*
X128435600Y-86844398D01*
X128360609Y-86794291D01*
X128315804Y-86740679D01*
X128305500Y-86691189D01*
X128305500Y-86236544D01*
X128325185Y-86169505D01*
X128341819Y-86148863D01*
X128632863Y-85857819D01*
X128694186Y-85824334D01*
X128720544Y-85821500D01*
X129433697Y-85821500D01*
X129500736Y-85841185D01*
X129546491Y-85893989D01*
X129556435Y-85963147D01*
X129556170Y-85964898D01*
X129545500Y-86032265D01*
X129545500Y-86168343D01*
X129530751Y-86223388D01*
X129531498Y-86223698D01*
X129529147Y-86229372D01*
X129528888Y-86230342D01*
X129528386Y-86231209D01*
X129504500Y-86320356D01*
X129504500Y-86691189D01*
X129484815Y-86758228D01*
X129449391Y-86794291D01*
X129374399Y-86844398D01*
X129319033Y-86927260D01*
X129319032Y-86927264D01*
X129304500Y-87000321D01*
X129304500Y-88299678D01*
X129319032Y-88372735D01*
X129319033Y-88372739D01*
X129323892Y-88380011D01*
X129374399Y-88455601D01*
X129418713Y-88485210D01*
X129457260Y-88510966D01*
X129457264Y-88510967D01*
X129530321Y-88525499D01*
X129530324Y-88525500D01*
X129530326Y-88525500D01*
X130179676Y-88525500D01*
X130179677Y-88525499D01*
X130252740Y-88510966D01*
X130335601Y-88455601D01*
X130390966Y-88372740D01*
X130390967Y-88372737D01*
X130391939Y-88370392D01*
X130395425Y-88366065D01*
X130397751Y-88362585D01*
X130398062Y-88362793D01*
X130435779Y-88315988D01*
X130437015Y-88315576D01*
X130423301Y-88302985D01*
X130405500Y-88238972D01*
X130405500Y-88046558D01*
X130425185Y-87979519D01*
X130467499Y-87939171D01*
X130517212Y-87910470D01*
X130755819Y-87671861D01*
X130817142Y-87638377D01*
X130886833Y-87643361D01*
X130942767Y-87685232D01*
X130967184Y-87750697D01*
X130967500Y-87759543D01*
X130967500Y-87920004D01*
X130947815Y-87987043D01*
X130899795Y-88030489D01*
X130898825Y-88030982D01*
X130898825Y-88030983D01*
X130788609Y-88087141D01*
X130788608Y-88087142D01*
X130788603Y-88087145D01*
X130701145Y-88174603D01*
X130701142Y-88174608D01*
X130701141Y-88174609D01*
X130644983Y-88284825D01*
X130640553Y-88293520D01*
X130637426Y-88291926D01*
X130607975Y-88334980D01*
X130596445Y-88339849D01*
X130617383Y-88362338D01*
X130630500Y-88417844D01*
X130630500Y-88717739D01*
X130644981Y-88809170D01*
X130644981Y-88809171D01*
X130644982Y-88809174D01*
X130644983Y-88809175D01*
X130699485Y-88916141D01*
X130701142Y-88919392D01*
X130701145Y-88919396D01*
X130788603Y-89006854D01*
X130788605Y-89006855D01*
X130788609Y-89006859D01*
X130898825Y-89063017D01*
X130898826Y-89063017D01*
X130898828Y-89063018D01*
X130933947Y-89068579D01*
X130990265Y-89077500D01*
X131391734Y-89077499D01*
X131391739Y-89077499D01*
X131391739Y-89077498D01*
X131440447Y-89069784D01*
X131483170Y-89063018D01*
X131483171Y-89063018D01*
X131483172Y-89063017D01*
X131483175Y-89063017D01*
X131593391Y-89006859D01*
X131680859Y-88919391D01*
X131737017Y-88809175D01*
X131737017Y-88809173D01*
X131737018Y-88809172D01*
X131737018Y-88809171D01*
X131741324Y-88781984D01*
X131751500Y-88717735D01*
X131751499Y-88376266D01*
X131751499Y-88376265D01*
X131751499Y-88376260D01*
X131737018Y-88284829D01*
X131737018Y-88284828D01*
X131737017Y-88284826D01*
X131737017Y-88284825D01*
X131682014Y-88176876D01*
X131668500Y-88120584D01*
X131668500Y-87735092D01*
X131688185Y-87668053D01*
X131706114Y-87648609D01*
X131704874Y-87647369D01*
X131710619Y-87641623D01*
X131730094Y-87616243D01*
X131798861Y-87526625D01*
X131854330Y-87392709D01*
X131873250Y-87249000D01*
X131854330Y-87105291D01*
X131810853Y-87000326D01*
X131798862Y-86971377D01*
X131798861Y-86971376D01*
X131798861Y-86971375D01*
X131710621Y-86856379D01*
X131595625Y-86768139D01*
X131595624Y-86768138D01*
X131595622Y-86768137D01*
X131461712Y-86712671D01*
X131461710Y-86712670D01*
X131461709Y-86712670D01*
X131349545Y-86697903D01*
X131318001Y-86693750D01*
X131317999Y-86693750D01*
X131174291Y-86712670D01*
X131174287Y-86712671D01*
X131040377Y-86768137D01*
X130925372Y-86856384D01*
X130919628Y-86862129D01*
X130917111Y-86859612D01*
X130873817Y-86891203D01*
X130831908Y-86898500D01*
X130636854Y-86898500D01*
X130586482Y-86911997D01*
X130516632Y-86910334D01*
X130458770Y-86871170D01*
X130431267Y-86806942D01*
X130442854Y-86738039D01*
X130466706Y-86704543D01*
X130535859Y-86635391D01*
X130592017Y-86525175D01*
X130592017Y-86525173D01*
X130592018Y-86525172D01*
X130592018Y-86525171D01*
X130596903Y-86494327D01*
X130606500Y-86433735D01*
X130606499Y-86032266D01*
X130606499Y-86032265D01*
X130606499Y-86032260D01*
X130595830Y-85964897D01*
X130604785Y-85895604D01*
X130649781Y-85842152D01*
X130716533Y-85821513D01*
X130718303Y-85821500D01*
X132391456Y-85821500D01*
X132458495Y-85841185D01*
X132479132Y-85857814D01*
X132582182Y-85960863D01*
X132615666Y-86022184D01*
X132618500Y-86048543D01*
X132618500Y-87859258D01*
X132598815Y-87926297D01*
X132573437Y-87953168D01*
X132573509Y-87953240D01*
X132571022Y-87955726D01*
X132567389Y-87959574D01*
X132566606Y-87960142D01*
X132479145Y-88047603D01*
X132479142Y-88047608D01*
X132479141Y-88047609D01*
X132460584Y-88084030D01*
X132422981Y-88157827D01*
X132422981Y-88157828D01*
X132408500Y-88249264D01*
X132408500Y-88590739D01*
X132422981Y-88682170D01*
X132422981Y-88682171D01*
X132422982Y-88682174D01*
X132422983Y-88682175D01*
X132473838Y-88781984D01*
X132479142Y-88792392D01*
X132479145Y-88792396D01*
X132499068Y-88812319D01*
X132532553Y-88873642D01*
X132527569Y-88943334D01*
X132499068Y-88987681D01*
X132479145Y-89007603D01*
X132479142Y-89007608D01*
X132479141Y-89007609D01*
X132468918Y-89027673D01*
X132422981Y-89117827D01*
X132422981Y-89117828D01*
X132408500Y-89209264D01*
X132408500Y-89550739D01*
X132422981Y-89642170D01*
X132422981Y-89642171D01*
X132422982Y-89642174D01*
X132422983Y-89642175D01*
X132479141Y-89752391D01*
X132566609Y-89839859D01*
X132566616Y-89839862D01*
X132567379Y-89840417D01*
X132568090Y-89841339D01*
X132573510Y-89846759D01*
X132572809Y-89847459D01*
X132610048Y-89895744D01*
X132618500Y-89940740D01*
X132618500Y-91116456D01*
X132598815Y-91183495D01*
X132582181Y-91204137D01*
X132098137Y-91688181D01*
X132036814Y-91721666D01*
X132010456Y-91724500D01*
X129564189Y-91724500D01*
X129497150Y-91704815D01*
X129451395Y-91652011D01*
X129441250Y-91584314D01*
X129442001Y-91578615D01*
X129460250Y-91440000D01*
X129441330Y-91296291D01*
X129385861Y-91162375D01*
X129361481Y-91130603D01*
X129336287Y-91065435D01*
X129350325Y-90996990D01*
X129378520Y-90965792D01*
X129376965Y-90964237D01*
X129385598Y-90955603D01*
X129385597Y-90955603D01*
X129385601Y-90955601D01*
X129440966Y-90872740D01*
X129455500Y-90799674D01*
X129455500Y-89500326D01*
X129455500Y-89500323D01*
X129455499Y-89500321D01*
X129440967Y-89427264D01*
X129440966Y-89427260D01*
X129385601Y-89344399D01*
X129314686Y-89297016D01*
X129302739Y-89289033D01*
X129302735Y-89289032D01*
X129229677Y-89274500D01*
X129229674Y-89274500D01*
X128580326Y-89274500D01*
X128580324Y-89274500D01*
X128507260Y-89289033D01*
X128498887Y-89294628D01*
X128432209Y-89315503D01*
X128364829Y-89297016D01*
X128361113Y-89294628D01*
X128354078Y-89289928D01*
X128352740Y-89289034D01*
X128352739Y-89289033D01*
X128352740Y-89289033D01*
X128279676Y-89274500D01*
X128279674Y-89274500D01*
X127630326Y-89274500D01*
X127630323Y-89274500D01*
X127557264Y-89289032D01*
X127557260Y-89289033D01*
X127474399Y-89344399D01*
X127419033Y-89427260D01*
X127419032Y-89427264D01*
X127404500Y-89500321D01*
X127404500Y-90799678D01*
X127419032Y-90872735D01*
X127419033Y-90872739D01*
X127437405Y-90900235D01*
X127474399Y-90955601D01*
X127549390Y-91005708D01*
X127594196Y-91059319D01*
X127604500Y-91108810D01*
X127604500Y-91806144D01*
X127610577Y-91828824D01*
X127626501Y-91888252D01*
X127626501Y-91888255D01*
X127626502Y-91888255D01*
X127628386Y-91895290D01*
X127674527Y-91975208D01*
X127674529Y-91975211D01*
X127674530Y-91975212D01*
X127989531Y-92290212D01*
X128054788Y-92355469D01*
X128054791Y-92355470D01*
X128054794Y-92355473D01*
X128134706Y-92401611D01*
X128134707Y-92401611D01*
X128134712Y-92401614D01*
X128223856Y-92425500D01*
X128223858Y-92425500D01*
X132253142Y-92425500D01*
X132253144Y-92425500D01*
X132342288Y-92401614D01*
X132342292Y-92401612D01*
X132372898Y-92383941D01*
X132372900Y-92383940D01*
X132422212Y-92355470D01*
X133249470Y-91528212D01*
X133295614Y-91448288D01*
X133313682Y-91380856D01*
X133319500Y-91359144D01*
X133319500Y-91075113D01*
X133339185Y-91008074D01*
X133391989Y-90962319D01*
X133461147Y-90952375D01*
X133524703Y-90981400D01*
X133531181Y-90987432D01*
X133582603Y-91038854D01*
X133582605Y-91038855D01*
X133582609Y-91038859D01*
X133692825Y-91095017D01*
X133692826Y-91095017D01*
X133692828Y-91095018D01*
X133727947Y-91100579D01*
X133784265Y-91109500D01*
X134185734Y-91109499D01*
X134185739Y-91109499D01*
X134185739Y-91109498D01*
X134231454Y-91102258D01*
X134277170Y-91095018D01*
X134277171Y-91095018D01*
X134277172Y-91095017D01*
X134277175Y-91095017D01*
X134387391Y-91038859D01*
X134474859Y-90951391D01*
X134531017Y-90841175D01*
X134531026Y-90841116D01*
X134531057Y-90841049D01*
X134534034Y-90831891D01*
X134535217Y-90832275D01*
X134560955Y-90777982D01*
X134620266Y-90741050D01*
X134690128Y-90742046D01*
X134748362Y-90780655D01*
X134776477Y-90844618D01*
X134777500Y-90860513D01*
X134777500Y-92629145D01*
X134792072Y-92683530D01*
X134801384Y-92718283D01*
X134801387Y-92718290D01*
X134847527Y-92798208D01*
X134847529Y-92798211D01*
X134847530Y-92798212D01*
X135420787Y-93371469D01*
X135500712Y-93417614D01*
X135589856Y-93441500D01*
X135589858Y-93441500D01*
X136063142Y-93441500D01*
X136063144Y-93441500D01*
X136152288Y-93417614D01*
X136232212Y-93371470D01*
X136355114Y-93248567D01*
X136416433Y-93215085D01*
X136486125Y-93220069D01*
X136542059Y-93261940D01*
X136561597Y-93304669D01*
X136561861Y-93304577D01*
X136562858Y-93307428D01*
X136563934Y-93309780D01*
X136564353Y-93311700D01*
X136609206Y-93439880D01*
X136609207Y-93439882D01*
X136631399Y-93469952D01*
X136689850Y-93549150D01*
X136732134Y-93580357D01*
X136774384Y-93636003D01*
X136782500Y-93680126D01*
X136782500Y-95570419D01*
X136788154Y-95591521D01*
X136816881Y-95698732D01*
X136816881Y-95698733D01*
X136819621Y-95703477D01*
X136819625Y-95703483D01*
X136883296Y-95813766D01*
X136883300Y-95813771D01*
X137249348Y-96179819D01*
X137282833Y-96241142D01*
X137277849Y-96310834D01*
X137235977Y-96366767D01*
X137170513Y-96391184D01*
X137161667Y-96391500D01*
X136424650Y-96391500D01*
X136326882Y-96410947D01*
X136326876Y-96410949D01*
X136280182Y-96430290D01*
X136275575Y-96431938D01*
X136191657Y-96488009D01*
X136191656Y-96488010D01*
X135982093Y-96697574D01*
X135978221Y-96704819D01*
X135929621Y-96777553D01*
X135907950Y-96829872D01*
X135907947Y-96829882D01*
X135888500Y-96927649D01*
X135888500Y-96927652D01*
X135888500Y-97788748D01*
X135888500Y-97788750D01*
X135888499Y-97788750D01*
X135907947Y-97886517D01*
X135907948Y-97886518D01*
X135907949Y-97886523D01*
X135922844Y-97922482D01*
X135927290Y-97933216D01*
X135928939Y-97937826D01*
X135985009Y-98021742D01*
X135985010Y-98021743D01*
X136194572Y-98231304D01*
X136201805Y-98235170D01*
X136274551Y-98283777D01*
X136326877Y-98305451D01*
X136326881Y-98305451D01*
X136326882Y-98305452D01*
X136424649Y-98324900D01*
X136424652Y-98324900D01*
X137034500Y-98324900D01*
X137101539Y-98344585D01*
X137147294Y-98397389D01*
X137158500Y-98448900D01*
X137158500Y-100735722D01*
X137138815Y-100802761D01*
X137086011Y-100848516D01*
X137069439Y-100854698D01*
X137056164Y-100858596D01*
X136993438Y-100887242D01*
X136976866Y-100893423D01*
X136951146Y-100900976D01*
X136916207Y-100906000D01*
X136895793Y-100906000D01*
X136860855Y-100900976D01*
X136835134Y-100893423D01*
X136818561Y-100887241D01*
X136755842Y-100858598D01*
X136755837Y-100858596D01*
X136755836Y-100858596D01*
X136715829Y-100846849D01*
X136715821Y-100846847D01*
X136643847Y-100836500D01*
X135456000Y-100836500D01*
X135455998Y-100836500D01*
X135358230Y-100855947D01*
X135358224Y-100855949D01*
X135311530Y-100875290D01*
X135300085Y-100879385D01*
X135288307Y-100882959D01*
X135287617Y-100880686D01*
X135246708Y-100893494D01*
X135179329Y-100875007D01*
X135132641Y-100823026D01*
X135120500Y-100769514D01*
X135120500Y-100631060D01*
X135133100Y-100576600D01*
X135164470Y-100512427D01*
X135179582Y-100481518D01*
X135190500Y-100406582D01*
X135190500Y-100063418D01*
X135179582Y-99988482D01*
X135177222Y-99983656D01*
X135123078Y-99872900D01*
X135123076Y-99872897D01*
X135062860Y-99812681D01*
X135029375Y-99751358D01*
X135034359Y-99681666D01*
X135062860Y-99637319D01*
X135123076Y-99577102D01*
X135123078Y-99577099D01*
X135160732Y-99500076D01*
X135179582Y-99461518D01*
X135190500Y-99386582D01*
X135190500Y-99043418D01*
X135179582Y-98968482D01*
X135166871Y-98942482D01*
X135123078Y-98852900D01*
X135123076Y-98852897D01*
X135032102Y-98761923D01*
X135032099Y-98761921D01*
X134916521Y-98705419D01*
X134916519Y-98705418D01*
X134916518Y-98705418D01*
X134841582Y-98694500D01*
X134398418Y-98694500D01*
X134323482Y-98705418D01*
X134323480Y-98705418D01*
X134323478Y-98705419D01*
X134207900Y-98761921D01*
X134207897Y-98761923D01*
X134166642Y-98803180D01*
X134105319Y-98836666D01*
X134078960Y-98839500D01*
X133783482Y-98839500D01*
X133687981Y-98865089D01*
X133687978Y-98865090D01*
X133602358Y-98914522D01*
X133595910Y-98919471D01*
X133594417Y-98917526D01*
X133543955Y-98945069D01*
X133474265Y-98940072D01*
X133418339Y-98898191D01*
X133395146Y-98843295D01*
X133380817Y-98752826D01*
X133380816Y-98752822D01*
X133343315Y-98679221D01*
X133329800Y-98622927D01*
X133329800Y-98454996D01*
X133343315Y-98398701D01*
X133382817Y-98321175D01*
X133382817Y-98321173D01*
X133382818Y-98321172D01*
X133382818Y-98321171D01*
X133391318Y-98267502D01*
X133397300Y-98229735D01*
X133397299Y-97828266D01*
X133397299Y-97828260D01*
X133382818Y-97736829D01*
X133382818Y-97736828D01*
X133382817Y-97736826D01*
X133382817Y-97736825D01*
X133326659Y-97626609D01*
X133326657Y-97626607D01*
X133326654Y-97626603D01*
X133239197Y-97539146D01*
X133239193Y-97539143D01*
X133239191Y-97539141D01*
X133239188Y-97539139D01*
X133231897Y-97533843D01*
X133189229Y-97478515D01*
X133183247Y-97408901D01*
X133215850Y-97347105D01*
X133276687Y-97312745D01*
X133288591Y-97310582D01*
X133290509Y-97310330D01*
X133424425Y-97254861D01*
X133539421Y-97166621D01*
X133627661Y-97051625D01*
X133683130Y-96917709D01*
X133702050Y-96774000D01*
X133700916Y-96765390D01*
X133692942Y-96704819D01*
X133683130Y-96630291D01*
X133627661Y-96496375D01*
X133627658Y-96496371D01*
X133623597Y-96489336D01*
X133625680Y-96488133D01*
X133604898Y-96434373D01*
X133605764Y-96406179D01*
X133615700Y-96337982D01*
X133615700Y-95994823D01*
X133615700Y-95994818D01*
X133604782Y-95919882D01*
X133595628Y-95901158D01*
X133548278Y-95804300D01*
X133548276Y-95804297D01*
X133488060Y-95744081D01*
X133454575Y-95682758D01*
X133459559Y-95613066D01*
X133488060Y-95568719D01*
X133548276Y-95508502D01*
X133548278Y-95508499D01*
X133583103Y-95437262D01*
X133604782Y-95392918D01*
X133615700Y-95317982D01*
X133615700Y-94974818D01*
X133604782Y-94899882D01*
X133596479Y-94882898D01*
X133548278Y-94784300D01*
X133548276Y-94784297D01*
X133457302Y-94693323D01*
X133457299Y-94693321D01*
X133341721Y-94636819D01*
X133341719Y-94636818D01*
X133341718Y-94636818D01*
X133266782Y-94625900D01*
X133266777Y-94625900D01*
X133071744Y-94625900D01*
X133004705Y-94606215D01*
X132984063Y-94589581D01*
X132974819Y-94580337D01*
X132941334Y-94519014D01*
X132938500Y-94492656D01*
X132938500Y-94346500D01*
X132958185Y-94279461D01*
X133010989Y-94233706D01*
X133062500Y-94222500D01*
X133112676Y-94222500D01*
X133112677Y-94222499D01*
X133185740Y-94207966D01*
X133268601Y-94152601D01*
X133323966Y-94069740D01*
X133338500Y-93996674D01*
X133338500Y-92947326D01*
X133338500Y-92947323D01*
X133338499Y-92947321D01*
X133323967Y-92874264D01*
X133323966Y-92874260D01*
X133286750Y-92818562D01*
X133268601Y-92791399D01*
X133213235Y-92754405D01*
X133185739Y-92736033D01*
X133185735Y-92736032D01*
X133112677Y-92721500D01*
X133112674Y-92721500D01*
X132063326Y-92721500D01*
X132063323Y-92721500D01*
X131990264Y-92736032D01*
X131990260Y-92736033D01*
X131907399Y-92791399D01*
X131852033Y-92874260D01*
X131852032Y-92874264D01*
X131837500Y-92947321D01*
X131837500Y-93996678D01*
X131852032Y-94069735D01*
X131852033Y-94069739D01*
X131868108Y-94093797D01*
X131907399Y-94152601D01*
X131963484Y-94190075D01*
X131990260Y-94207966D01*
X131990264Y-94207967D01*
X132063321Y-94222499D01*
X132063324Y-94222500D01*
X132063326Y-94222500D01*
X132113500Y-94222500D01*
X132180539Y-94242185D01*
X132226294Y-94294989D01*
X132237500Y-94346500D01*
X132237500Y-94735344D01*
X132252661Y-94791924D01*
X132252660Y-94791924D01*
X132252661Y-94791926D01*
X132261384Y-94824484D01*
X132261385Y-94824486D01*
X132307527Y-94904408D01*
X132307531Y-94904413D01*
X132438381Y-95035263D01*
X132471866Y-95096586D01*
X132474700Y-95122944D01*
X132474700Y-95169856D01*
X132455015Y-95236895D01*
X132438381Y-95257537D01*
X132036737Y-95659181D01*
X131975414Y-95692666D01*
X131949056Y-95695500D01*
X131859618Y-95695500D01*
X131784682Y-95706418D01*
X131784680Y-95706418D01*
X131784678Y-95706419D01*
X131669100Y-95762921D01*
X131669097Y-95762923D01*
X131608881Y-95823140D01*
X131547558Y-95856625D01*
X131477866Y-95851641D01*
X131433519Y-95823140D01*
X131398019Y-95787640D01*
X131364534Y-95726317D01*
X131361700Y-95699959D01*
X131361700Y-95689040D01*
X131381385Y-95622001D01*
X131398014Y-95601363D01*
X131464276Y-95535102D01*
X131464276Y-95535100D01*
X131464278Y-95535099D01*
X131512107Y-95437262D01*
X131520782Y-95419518D01*
X131531700Y-95344582D01*
X131531700Y-94901418D01*
X131520782Y-94826482D01*
X131512268Y-94809067D01*
X131464278Y-94710900D01*
X131464276Y-94710897D01*
X131373302Y-94619923D01*
X131373299Y-94619921D01*
X131257721Y-94563419D01*
X131257719Y-94563418D01*
X131257718Y-94563418D01*
X131182782Y-94552500D01*
X130839618Y-94552500D01*
X130764682Y-94563418D01*
X130764680Y-94563418D01*
X130764678Y-94563419D01*
X130649100Y-94619921D01*
X130649097Y-94619923D01*
X130558123Y-94710897D01*
X130558121Y-94710900D01*
X130501619Y-94826478D01*
X130501618Y-94826480D01*
X130501618Y-94826482D01*
X130490700Y-94901418D01*
X130490700Y-95344582D01*
X130501618Y-95419518D01*
X130501618Y-95419519D01*
X130501619Y-95419521D01*
X130558121Y-95535099D01*
X130558123Y-95535101D01*
X130558124Y-95535102D01*
X130624382Y-95601360D01*
X130657866Y-95662681D01*
X130660700Y-95689040D01*
X130660700Y-95699959D01*
X130641015Y-95766998D01*
X130624381Y-95787640D01*
X130558123Y-95853897D01*
X130558121Y-95853900D01*
X130501619Y-95969478D01*
X130501618Y-95969480D01*
X130501618Y-95969482D01*
X130490700Y-96044418D01*
X130490700Y-96487582D01*
X130497877Y-96536842D01*
X130501618Y-96562518D01*
X130561675Y-96685367D01*
X130573434Y-96754240D01*
X130548650Y-96815313D01*
X130481539Y-96902774D01*
X130481538Y-96902776D01*
X130426071Y-97036687D01*
X130426070Y-97036691D01*
X130407444Y-97178170D01*
X130407150Y-97180400D01*
X130424620Y-97313099D01*
X130426070Y-97324108D01*
X130426071Y-97324112D01*
X130450284Y-97382568D01*
X130457753Y-97452037D01*
X130426477Y-97514516D01*
X130390184Y-97541420D01*
X130323698Y-97573923D01*
X130323697Y-97573923D01*
X130232723Y-97664897D01*
X130232721Y-97664900D01*
X130176219Y-97780478D01*
X130176218Y-97780480D01*
X130176218Y-97780482D01*
X130165300Y-97855418D01*
X130165300Y-98198582D01*
X130169643Y-98228392D01*
X130175341Y-98267502D01*
X130165526Y-98336679D01*
X130119870Y-98389568D01*
X130052867Y-98409378D01*
X130036451Y-98408317D01*
X129997202Y-98403150D01*
X129997199Y-98403150D01*
X129853491Y-98422070D01*
X129853487Y-98422071D01*
X129719577Y-98477537D01*
X129604579Y-98565779D01*
X129516337Y-98680777D01*
X129460871Y-98814687D01*
X129460870Y-98814691D01*
X129441950Y-98958399D01*
X129441950Y-98958400D01*
X129460870Y-99102108D01*
X129460871Y-99102112D01*
X129516337Y-99236022D01*
X129516338Y-99236024D01*
X129516339Y-99236025D01*
X129604579Y-99351021D01*
X129719575Y-99439261D01*
X129719576Y-99439261D01*
X129719577Y-99439262D01*
X129739203Y-99447391D01*
X129853491Y-99494730D01*
X129928684Y-99504629D01*
X129932690Y-99505157D01*
X129996586Y-99533424D01*
X130035057Y-99591749D01*
X130035888Y-99661613D01*
X130004185Y-99715777D01*
X129268438Y-100451525D01*
X129268437Y-100451526D01*
X129223415Y-100496547D01*
X129162092Y-100530032D01*
X129130162Y-100532411D01*
X129130162Y-100532500D01*
X129128973Y-100532500D01*
X129127631Y-100532600D01*
X129126104Y-100532500D01*
X127677700Y-100532500D01*
X127610661Y-100512815D01*
X127564906Y-100460011D01*
X127553700Y-100408500D01*
X127553700Y-99833500D01*
X127573385Y-99766461D01*
X127626189Y-99720706D01*
X127677700Y-99709500D01*
X127729577Y-99709500D01*
X127729582Y-99709500D01*
X127804518Y-99698582D01*
X127888501Y-99657525D01*
X127920099Y-99642078D01*
X127920101Y-99642077D01*
X127928316Y-99633862D01*
X127989638Y-99600375D01*
X128059330Y-99605357D01*
X128103684Y-99633862D01*
X128111898Y-99642077D01*
X128111900Y-99642078D01*
X128222656Y-99696222D01*
X128227482Y-99698582D01*
X128302418Y-99709500D01*
X128302423Y-99709500D01*
X128745577Y-99709500D01*
X128745582Y-99709500D01*
X128820518Y-99698582D01*
X128904501Y-99657525D01*
X128936099Y-99642078D01*
X128936102Y-99642076D01*
X129027076Y-99551102D01*
X129027078Y-99551099D01*
X129070871Y-99461518D01*
X129083582Y-99435518D01*
X129094500Y-99360582D01*
X129094500Y-99017418D01*
X129083582Y-98942482D01*
X129069913Y-98914522D01*
X129027078Y-98826900D01*
X129027076Y-98826897D01*
X128936102Y-98735923D01*
X128936099Y-98735921D01*
X128820521Y-98679419D01*
X128820519Y-98679418D01*
X128820518Y-98679418D01*
X128745582Y-98668500D01*
X128302418Y-98668500D01*
X128239971Y-98677598D01*
X128227481Y-98679418D01*
X128172271Y-98706409D01*
X128103398Y-98718168D01*
X128039101Y-98690824D01*
X127999794Y-98633060D01*
X127997956Y-98563214D01*
X128008322Y-98541193D01*
X128006564Y-98540334D01*
X128064378Y-98422071D01*
X128067582Y-98415518D01*
X128078500Y-98340582D01*
X128078500Y-97997418D01*
X128067582Y-97922482D01*
X128067581Y-97922480D01*
X128067272Y-97920358D01*
X128077086Y-97851181D01*
X128091599Y-97826997D01*
X128101861Y-97813625D01*
X128157330Y-97679709D01*
X128176250Y-97536000D01*
X128174826Y-97525187D01*
X128185587Y-97456154D01*
X128190365Y-97447019D01*
X128215614Y-97403288D01*
X128221166Y-97382568D01*
X128222257Y-97378498D01*
X128235452Y-97329250D01*
X128239500Y-97314144D01*
X128239500Y-96886500D01*
X128259185Y-96819461D01*
X128311989Y-96773706D01*
X128363500Y-96762500D01*
X128413676Y-96762500D01*
X128413677Y-96762499D01*
X128486740Y-96747966D01*
X128569601Y-96692601D01*
X128624966Y-96609740D01*
X128639500Y-96536674D01*
X128639500Y-95487326D01*
X128639500Y-95487323D01*
X128639499Y-95487321D01*
X128624967Y-95414264D01*
X128624966Y-95414260D01*
X128607223Y-95387706D01*
X128569601Y-95331399D01*
X128486740Y-95276034D01*
X128486739Y-95276033D01*
X128486735Y-95276032D01*
X128413677Y-95261500D01*
X128413674Y-95261500D01*
X127364326Y-95261500D01*
X127364323Y-95261500D01*
X127291264Y-95276032D01*
X127291260Y-95276033D01*
X127208397Y-95331400D01*
X127167602Y-95392456D01*
X127113990Y-95437262D01*
X127044665Y-95445969D01*
X126981638Y-95415815D01*
X126944918Y-95356372D01*
X126940500Y-95323566D01*
X126940500Y-93472000D01*
X128984750Y-93472000D01*
X128999015Y-93580355D01*
X129003670Y-93615708D01*
X129003671Y-93615712D01*
X129059137Y-93749622D01*
X129059138Y-93749624D01*
X129059139Y-93749625D01*
X129147379Y-93864621D01*
X129262375Y-93952861D01*
X129262376Y-93952861D01*
X129262377Y-93952862D01*
X129274499Y-93957883D01*
X129396291Y-94008330D01*
X129523280Y-94025048D01*
X129539999Y-94027250D01*
X129540000Y-94027250D01*
X129540001Y-94027250D01*
X129591525Y-94020466D01*
X129683709Y-94008330D01*
X129683709Y-94008329D01*
X129691766Y-94007269D01*
X129692124Y-94009993D01*
X129748531Y-94011328D01*
X129806400Y-94050481D01*
X129813896Y-94060555D01*
X129875398Y-94152600D01*
X129958260Y-94207966D01*
X129958264Y-94207967D01*
X130031321Y-94222499D01*
X130031324Y-94222500D01*
X130031326Y-94222500D01*
X131080676Y-94222500D01*
X131080677Y-94222499D01*
X131153740Y-94207966D01*
X131236601Y-94152601D01*
X131291966Y-94069740D01*
X131306500Y-93996674D01*
X131306500Y-92947326D01*
X131306500Y-92947323D01*
X131306499Y-92947321D01*
X131291967Y-92874264D01*
X131291966Y-92874260D01*
X131254750Y-92818562D01*
X131236601Y-92791399D01*
X131181235Y-92754405D01*
X131153739Y-92736033D01*
X131153735Y-92736032D01*
X131080677Y-92721500D01*
X131080674Y-92721500D01*
X130031326Y-92721500D01*
X130031323Y-92721500D01*
X129958264Y-92736032D01*
X129958260Y-92736033D01*
X129875398Y-92791399D01*
X129813897Y-92883444D01*
X129760285Y-92928249D01*
X129690960Y-92936956D01*
X129686951Y-92936097D01*
X129683709Y-92935670D01*
X129603156Y-92925064D01*
X129540001Y-92916750D01*
X129539999Y-92916750D01*
X129396291Y-92935670D01*
X129396287Y-92935671D01*
X129262377Y-92991137D01*
X129147379Y-93079379D01*
X129059137Y-93194377D01*
X129003671Y-93328287D01*
X129003670Y-93328291D01*
X128985020Y-93469952D01*
X128984750Y-93472000D01*
X126940500Y-93472000D01*
X126940500Y-82715001D01*
X126960185Y-82647962D01*
X127012989Y-82602207D01*
X127082147Y-82592263D01*
X127135336Y-82613225D01*
X127426571Y-82815931D01*
X127759179Y-83000543D01*
X128108758Y-83150559D01*
X128161621Y-83167144D01*
X128219693Y-83205995D01*
X128247542Y-83270074D01*
X128248500Y-83285458D01*
X128248500Y-83684959D01*
X128228815Y-83751998D01*
X128212181Y-83772640D01*
X128195923Y-83788897D01*
X128195921Y-83788900D01*
X128139419Y-83904478D01*
X128139418Y-83904480D01*
X128139418Y-83904482D01*
X128128500Y-83979418D01*
X128128500Y-84422582D01*
X128139418Y-84497518D01*
X128139418Y-84497519D01*
X128139419Y-84497521D01*
X128195921Y-84613099D01*
X128195923Y-84613102D01*
X128286897Y-84704076D01*
X128286900Y-84704078D01*
X128397656Y-84758222D01*
X128402482Y-84760582D01*
X128477418Y-84771500D01*
X128477423Y-84771500D01*
X128820577Y-84771500D01*
X128820582Y-84771500D01*
X128895518Y-84760582D01*
X128968592Y-84724858D01*
X129011099Y-84704078D01*
X129011102Y-84704076D01*
X129102076Y-84613102D01*
X129102078Y-84613099D01*
X129136503Y-84542681D01*
X129158582Y-84497518D01*
X129169500Y-84422582D01*
X129169500Y-83979418D01*
X129158582Y-83904482D01*
X129134733Y-83855698D01*
X129102078Y-83788900D01*
X129102076Y-83788897D01*
X129085819Y-83772640D01*
X129052334Y-83711317D01*
X129049500Y-83684959D01*
X129049500Y-83499126D01*
X129069185Y-83432087D01*
X129121989Y-83386332D01*
X129186044Y-83375762D01*
X129222796Y-83379500D01*
X129222799Y-83379500D01*
X129603205Y-83379500D01*
X129666280Y-83373085D01*
X129981660Y-83341015D01*
X130354280Y-83264439D01*
X130354290Y-83264436D01*
X130717233Y-83150562D01*
X130717234Y-83150561D01*
X130717242Y-83150559D01*
X131066821Y-83000543D01*
X131399429Y-82815931D01*
X131711654Y-82598616D01*
X132000291Y-82350829D01*
X132118627Y-82226338D01*
X132179081Y-82191312D01*
X132248876Y-82194530D01*
G37*
G04 #@! TD.AperFunction*
G04 #@! TA.AperFunction,Conductor*
G36*
X166100640Y-83958685D02*
G01*
X166121282Y-83975319D01*
X167609181Y-85463218D01*
X167642666Y-85524541D01*
X167645500Y-85550899D01*
X167645500Y-90217100D01*
X167625815Y-90284139D01*
X167609181Y-90304781D01*
X162935176Y-94978785D01*
X162873853Y-95012270D01*
X162804161Y-95007286D01*
X162759814Y-94978785D01*
X162267975Y-94486947D01*
X162267974Y-94486946D01*
X162206030Y-94445557D01*
X162108290Y-94426114D01*
X162010549Y-94445557D01*
X161948604Y-94486946D01*
X161489449Y-94946101D01*
X161448060Y-95008046D01*
X161441525Y-95040900D01*
X161428617Y-95105787D01*
X161448060Y-95203527D01*
X161486795Y-95261500D01*
X161489449Y-95265471D01*
X161981288Y-95757310D01*
X162014773Y-95818633D01*
X162009789Y-95888325D01*
X161981288Y-95932672D01*
X161591672Y-96322288D01*
X161530349Y-96355773D01*
X161460657Y-96350789D01*
X161416310Y-96322288D01*
X160924471Y-95830449D01*
X160916793Y-95825319D01*
X160862527Y-95789060D01*
X160764787Y-95769617D01*
X160667046Y-95789060D01*
X160605101Y-95830449D01*
X160145946Y-96289604D01*
X160104557Y-96351549D01*
X160084800Y-96450864D01*
X160052413Y-96512774D01*
X160010640Y-96541229D01*
X159996378Y-96547136D01*
X159881379Y-96635379D01*
X159793137Y-96750377D01*
X159737671Y-96884287D01*
X159737670Y-96884291D01*
X159718750Y-97028000D01*
X159733940Y-97143381D01*
X159737670Y-97171708D01*
X159737671Y-97171712D01*
X159793137Y-97305622D01*
X159793138Y-97305624D01*
X159793139Y-97305625D01*
X159881379Y-97420621D01*
X159996375Y-97508861D01*
X159996376Y-97508861D01*
X159996377Y-97508862D01*
X160035797Y-97525190D01*
X160113935Y-97557555D01*
X160168339Y-97601395D01*
X160190404Y-97667689D01*
X160173125Y-97735389D01*
X160154164Y-97759797D01*
X158402438Y-99511525D01*
X158332529Y-99581433D01*
X158327876Y-99587498D01*
X158271448Y-99628700D01*
X158201702Y-99632855D01*
X158140781Y-99598642D01*
X158108029Y-99536925D01*
X158105500Y-99512011D01*
X158105500Y-98026057D01*
X158125185Y-97959018D01*
X158141819Y-97938376D01*
X163080376Y-92999819D01*
X163141699Y-92966334D01*
X163168057Y-92963500D01*
X164379309Y-92963500D01*
X164379310Y-92963500D01*
X164426915Y-92950743D01*
X164439672Y-92947326D01*
X164455163Y-92943174D01*
X164474812Y-92937910D01*
X164560436Y-92888475D01*
X164630349Y-92818562D01*
X167305474Y-90143437D01*
X167312944Y-90130499D01*
X167354910Y-90057812D01*
X167363407Y-90026102D01*
X167370273Y-90000481D01*
X167376162Y-89978500D01*
X167380500Y-89962310D01*
X167380500Y-89863438D01*
X167380500Y-86793406D01*
X167378584Y-86786257D01*
X167356505Y-86703856D01*
X167354910Y-86697903D01*
X167305475Y-86612279D01*
X167235562Y-86542366D01*
X166653722Y-85960526D01*
X166653721Y-85960525D01*
X166568097Y-85911090D01*
X166512855Y-85896288D01*
X166512853Y-85896287D01*
X166512851Y-85896286D01*
X166472595Y-85885500D01*
X166472594Y-85885500D01*
X165348613Y-85885500D01*
X165281574Y-85865815D01*
X165235819Y-85813011D01*
X165225875Y-85743853D01*
X165254900Y-85680297D01*
X165260932Y-85673819D01*
X165333854Y-85600896D01*
X165333859Y-85600891D01*
X165390017Y-85490675D01*
X165390017Y-85490673D01*
X165390018Y-85490672D01*
X165390018Y-85490671D01*
X165398532Y-85436912D01*
X165404500Y-85399235D01*
X165404499Y-84997766D01*
X165404499Y-84997760D01*
X165390018Y-84906329D01*
X165390018Y-84906328D01*
X165390017Y-84906326D01*
X165390017Y-84906325D01*
X165333859Y-84796109D01*
X165333857Y-84796107D01*
X165333854Y-84796103D01*
X165323932Y-84786181D01*
X165290447Y-84724858D01*
X165295431Y-84655166D01*
X165323932Y-84610819D01*
X165333854Y-84600896D01*
X165333859Y-84600891D01*
X165390017Y-84490675D01*
X165390017Y-84490673D01*
X165390018Y-84490672D01*
X165390018Y-84490671D01*
X165395734Y-84454582D01*
X165404500Y-84399235D01*
X165404499Y-84062999D01*
X165424183Y-83995961D01*
X165476987Y-83950206D01*
X165528499Y-83939000D01*
X166033601Y-83939000D01*
X166100640Y-83958685D01*
G37*
G04 #@! TD.AperFunction*
G04 #@! TA.AperFunction,Conductor*
G36*
X168921676Y-87037027D02*
G01*
X168958231Y-87044298D01*
X168974325Y-87047500D01*
X168974326Y-87047500D01*
X169299500Y-87047500D01*
X169366539Y-87067185D01*
X169412294Y-87119989D01*
X169423500Y-87171500D01*
X169423500Y-91152144D01*
X169403815Y-91219183D01*
X169387181Y-91239825D01*
X168355526Y-92271479D01*
X168306089Y-92357106D01*
X168306088Y-92357106D01*
X168298900Y-92383938D01*
X168298900Y-92383940D01*
X168283058Y-92443063D01*
X168283056Y-92443068D01*
X168280500Y-92452605D01*
X168280500Y-94926099D01*
X168260815Y-94993138D01*
X168244181Y-95013780D01*
X167425270Y-95832690D01*
X167363947Y-95866175D01*
X167318195Y-95867482D01*
X167286735Y-95862500D01*
X167286729Y-95862500D01*
X166885260Y-95862500D01*
X166885260Y-95862501D01*
X166793829Y-95876981D01*
X166793824Y-95876983D01*
X166779024Y-95884524D01*
X166710354Y-95897419D01*
X166645615Y-95871141D01*
X166605359Y-95814033D01*
X166602369Y-95744227D01*
X166611332Y-95719577D01*
X166645581Y-95649520D01*
X166645580Y-95649520D01*
X166645582Y-95649518D01*
X166656500Y-95574582D01*
X166656500Y-95231418D01*
X166645582Y-95156482D01*
X166620798Y-95105786D01*
X166589078Y-95040900D01*
X166589076Y-95040897D01*
X166497819Y-94949640D01*
X166464334Y-94888317D01*
X166461500Y-94861959D01*
X166461500Y-94342927D01*
X166481185Y-94275888D01*
X166503331Y-94251817D01*
X166502878Y-94251364D01*
X166508621Y-94245621D01*
X166537515Y-94207966D01*
X166596861Y-94130625D01*
X166652330Y-93996709D01*
X166671250Y-93853000D01*
X166652330Y-93709291D01*
X166609582Y-93606086D01*
X166596862Y-93575377D01*
X166596861Y-93575376D01*
X166596861Y-93575375D01*
X166508621Y-93460379D01*
X166393625Y-93372139D01*
X166392007Y-93371469D01*
X166383654Y-93368009D01*
X166329251Y-93324168D01*
X166307186Y-93257874D01*
X166324465Y-93190175D01*
X166343422Y-93165771D01*
X168698474Y-90810721D01*
X168699095Y-90809646D01*
X168704853Y-90799674D01*
X168738124Y-90742046D01*
X168747910Y-90725096D01*
X168766810Y-90654562D01*
X168773500Y-90629594D01*
X168773500Y-90530722D01*
X168773500Y-87158647D01*
X168793185Y-87091608D01*
X168845989Y-87045853D01*
X168915147Y-87035909D01*
X168921676Y-87037027D01*
G37*
G04 #@! TD.AperFunction*
G04 #@! TA.AperFunction,Conductor*
G36*
X160567834Y-84102206D02*
G01*
X160623767Y-84144078D01*
X160648184Y-84209542D01*
X160648500Y-84218388D01*
X160648500Y-84985180D01*
X160654500Y-85030756D01*
X160654502Y-85030763D01*
X160694361Y-85116240D01*
X160701150Y-85130799D01*
X160779201Y-85208850D01*
X160879240Y-85255499D01*
X160924821Y-85261500D01*
X161123178Y-85261499D01*
X161123180Y-85261499D01*
X161138372Y-85259499D01*
X161168760Y-85255499D01*
X161221597Y-85230860D01*
X161290671Y-85220369D01*
X161326401Y-85230859D01*
X161379240Y-85255499D01*
X161424821Y-85261500D01*
X161623178Y-85261499D01*
X161623180Y-85261499D01*
X161638372Y-85259499D01*
X161668760Y-85255499D01*
X161721597Y-85230860D01*
X161790671Y-85220369D01*
X161826401Y-85230859D01*
X161879240Y-85255499D01*
X161924821Y-85261500D01*
X162123178Y-85261499D01*
X162123180Y-85261499D01*
X162138372Y-85259499D01*
X162168760Y-85255499D01*
X162221597Y-85230860D01*
X162290671Y-85220369D01*
X162326401Y-85230859D01*
X162379240Y-85255499D01*
X162424821Y-85261500D01*
X162623178Y-85261499D01*
X162623180Y-85261499D01*
X162638372Y-85259499D01*
X162668760Y-85255499D01*
X162721597Y-85230860D01*
X162790671Y-85220369D01*
X162826401Y-85230859D01*
X162879240Y-85255499D01*
X162917685Y-85260560D01*
X162981581Y-85288825D01*
X163020053Y-85347149D01*
X163024440Y-85367315D01*
X163029500Y-85405756D01*
X163029502Y-85405763D01*
X163072390Y-85497735D01*
X163076150Y-85505799D01*
X163154201Y-85583850D01*
X163254240Y-85630499D01*
X163299821Y-85636500D01*
X163647622Y-85636499D01*
X163647632Y-85636500D01*
X163662065Y-85636500D01*
X163780565Y-85636500D01*
X163879435Y-85636500D01*
X164260435Y-85636500D01*
X164398387Y-85636500D01*
X164465426Y-85656185D01*
X164486068Y-85672819D01*
X164487068Y-85673819D01*
X164520553Y-85735142D01*
X164515569Y-85804834D01*
X164473697Y-85860767D01*
X164408233Y-85885184D01*
X164399387Y-85885500D01*
X163299819Y-85885500D01*
X163254243Y-85891500D01*
X163254236Y-85891502D01*
X163154200Y-85938150D01*
X163076150Y-86016200D01*
X163029500Y-86116241D01*
X163023501Y-86161811D01*
X163023500Y-86161827D01*
X163023500Y-86360180D01*
X163029500Y-86405756D01*
X163029503Y-86405766D01*
X163054138Y-86458596D01*
X163064630Y-86527673D01*
X163054139Y-86563403D01*
X163033935Y-86606733D01*
X163029500Y-86616243D01*
X163023501Y-86661811D01*
X163023500Y-86661827D01*
X163023500Y-86860180D01*
X163029500Y-86905756D01*
X163029503Y-86905766D01*
X163054138Y-86958596D01*
X163064630Y-87027673D01*
X163054139Y-87063403D01*
X163031327Y-87112326D01*
X163029500Y-87116243D01*
X163023501Y-87161811D01*
X163023500Y-87161827D01*
X163023500Y-87360180D01*
X163029500Y-87405756D01*
X163029503Y-87405766D01*
X163054138Y-87458596D01*
X163064630Y-87527673D01*
X163054139Y-87563404D01*
X163029500Y-87616243D01*
X163023501Y-87661811D01*
X163023500Y-87661827D01*
X163023500Y-87860180D01*
X163029500Y-87905756D01*
X163029503Y-87905766D01*
X163054138Y-87958596D01*
X163064630Y-88027673D01*
X163054139Y-88063403D01*
X163030372Y-88114374D01*
X163029500Y-88116243D01*
X163023501Y-88161811D01*
X163023500Y-88161827D01*
X163023500Y-88360180D01*
X163029500Y-88405756D01*
X163029503Y-88405766D01*
X163054138Y-88458596D01*
X163064630Y-88527673D01*
X163054139Y-88563403D01*
X163041393Y-88590739D01*
X163029500Y-88616243D01*
X163023501Y-88661811D01*
X163023500Y-88661827D01*
X163023500Y-88860180D01*
X163029500Y-88905756D01*
X163029503Y-88905766D01*
X163054138Y-88958596D01*
X163064630Y-89027673D01*
X163054139Y-89063403D01*
X163030383Y-89114350D01*
X163029500Y-89116243D01*
X163023501Y-89161811D01*
X163023500Y-89161827D01*
X163023500Y-89360180D01*
X163029500Y-89405756D01*
X163029503Y-89405766D01*
X163054138Y-89458596D01*
X163064630Y-89527673D01*
X163054139Y-89563403D01*
X163034660Y-89605178D01*
X163029500Y-89616243D01*
X163023501Y-89661811D01*
X163023500Y-89661827D01*
X163023500Y-89860180D01*
X163029500Y-89905756D01*
X163029503Y-89905766D01*
X163054138Y-89958596D01*
X163064630Y-90027673D01*
X163054139Y-90063403D01*
X163031367Y-90112240D01*
X163029500Y-90116243D01*
X163023501Y-90161811D01*
X163023500Y-90161827D01*
X163023500Y-90360180D01*
X163029500Y-90405756D01*
X163029503Y-90405766D01*
X163054138Y-90458596D01*
X163064630Y-90527673D01*
X163054139Y-90563403D01*
X163047255Y-90578167D01*
X163029500Y-90616242D01*
X163024439Y-90654687D01*
X162996172Y-90718583D01*
X162937848Y-90757054D01*
X162917684Y-90761440D01*
X162879243Y-90766500D01*
X162879238Y-90766501D01*
X162826403Y-90791139D01*
X162757325Y-90801630D01*
X162721595Y-90791138D01*
X162668759Y-90766500D01*
X162623188Y-90760501D01*
X162623185Y-90760500D01*
X162623179Y-90760500D01*
X162623172Y-90760500D01*
X162424819Y-90760500D01*
X162379243Y-90766500D01*
X162379238Y-90766501D01*
X162326403Y-90791139D01*
X162257325Y-90801630D01*
X162221595Y-90791138D01*
X162168759Y-90766500D01*
X162123188Y-90760501D01*
X162123185Y-90760500D01*
X162123179Y-90760500D01*
X162123172Y-90760500D01*
X161924819Y-90760500D01*
X161879243Y-90766500D01*
X161879238Y-90766501D01*
X161826403Y-90791139D01*
X161757325Y-90801630D01*
X161721595Y-90791138D01*
X161668759Y-90766500D01*
X161623188Y-90760501D01*
X161623185Y-90760500D01*
X161623179Y-90760500D01*
X161623172Y-90760500D01*
X161424819Y-90760500D01*
X161379243Y-90766500D01*
X161379238Y-90766501D01*
X161326403Y-90791139D01*
X161257325Y-90801630D01*
X161221595Y-90791138D01*
X161168759Y-90766500D01*
X161123188Y-90760501D01*
X161123185Y-90760500D01*
X161123179Y-90760500D01*
X161123172Y-90760500D01*
X160924819Y-90760500D01*
X160879243Y-90766500D01*
X160879238Y-90766501D01*
X160826403Y-90791139D01*
X160757325Y-90801630D01*
X160721595Y-90791138D01*
X160668759Y-90766500D01*
X160623188Y-90760501D01*
X160623185Y-90760500D01*
X160623179Y-90760500D01*
X160623172Y-90760500D01*
X160424819Y-90760500D01*
X160379243Y-90766500D01*
X160379236Y-90766502D01*
X160279200Y-90813150D01*
X160201150Y-90891200D01*
X160154500Y-90991241D01*
X160148501Y-91036811D01*
X160148500Y-91036827D01*
X160148500Y-91731248D01*
X160128815Y-91798287D01*
X160076011Y-91844042D01*
X160006853Y-91853986D01*
X159948972Y-91829592D01*
X159947972Y-91828824D01*
X159906793Y-91772379D01*
X159899500Y-91730480D01*
X159899500Y-91389076D01*
X159899499Y-91389062D01*
X159899499Y-91036819D01*
X159896499Y-91014031D01*
X159893499Y-90991240D01*
X159846850Y-90891201D01*
X159768799Y-90813150D01*
X159668760Y-90766501D01*
X159668758Y-90766500D01*
X159623188Y-90760501D01*
X159623185Y-90760500D01*
X159623179Y-90760500D01*
X159623172Y-90760500D01*
X159424819Y-90760500D01*
X159379243Y-90766500D01*
X159379238Y-90766501D01*
X159326403Y-90791139D01*
X159257325Y-90801630D01*
X159221595Y-90791138D01*
X159168759Y-90766500D01*
X159123188Y-90760501D01*
X159123185Y-90760500D01*
X159123179Y-90760500D01*
X159123172Y-90760500D01*
X158924819Y-90760500D01*
X158879243Y-90766500D01*
X158879238Y-90766501D01*
X158826403Y-90791139D01*
X158757325Y-90801630D01*
X158721595Y-90791138D01*
X158668759Y-90766500D01*
X158623188Y-90760501D01*
X158623185Y-90760500D01*
X158623179Y-90760500D01*
X158623172Y-90760500D01*
X158424819Y-90760500D01*
X158379243Y-90766500D01*
X158379238Y-90766501D01*
X158326403Y-90791139D01*
X158257325Y-90801630D01*
X158221595Y-90791138D01*
X158168759Y-90766500D01*
X158123188Y-90760501D01*
X158123185Y-90760500D01*
X158123179Y-90760500D01*
X158123172Y-90760500D01*
X157924819Y-90760500D01*
X157879243Y-90766500D01*
X157879238Y-90766501D01*
X157826403Y-90791139D01*
X157757325Y-90801630D01*
X157721595Y-90791138D01*
X157668759Y-90766500D01*
X157630313Y-90761439D01*
X157566416Y-90733173D01*
X157527945Y-90674848D01*
X157523560Y-90654695D01*
X157518499Y-90616240D01*
X157493860Y-90563403D01*
X157483369Y-90494327D01*
X157493858Y-90458601D01*
X157518499Y-90405760D01*
X157524500Y-90360179D01*
X157524499Y-90161822D01*
X157518499Y-90116240D01*
X157493860Y-90063403D01*
X157483369Y-89994327D01*
X157493858Y-89958601D01*
X157518499Y-89905760D01*
X157524500Y-89860179D01*
X157524499Y-89661822D01*
X157523874Y-89657076D01*
X157518499Y-89616243D01*
X157518499Y-89616240D01*
X157493860Y-89563403D01*
X157483369Y-89494327D01*
X157493858Y-89458601D01*
X157518499Y-89405760D01*
X157524500Y-89360179D01*
X157524499Y-89161822D01*
X157523524Y-89154418D01*
X157520461Y-89131149D01*
X157518499Y-89116240D01*
X157493860Y-89063403D01*
X157483369Y-88994327D01*
X157493858Y-88958601D01*
X157518499Y-88905760D01*
X157524500Y-88860179D01*
X157524499Y-88661822D01*
X157524460Y-88661529D01*
X157521499Y-88639031D01*
X157518499Y-88616240D01*
X157493860Y-88563403D01*
X157483369Y-88494327D01*
X157493858Y-88458601D01*
X157518499Y-88405760D01*
X157524500Y-88360179D01*
X157524499Y-88161822D01*
X157523973Y-88157828D01*
X157521499Y-88139031D01*
X157518499Y-88116240D01*
X157493860Y-88063403D01*
X157483369Y-87994327D01*
X157493858Y-87958601D01*
X157518499Y-87905760D01*
X157524500Y-87860179D01*
X157524499Y-87661822D01*
X157518499Y-87616240D01*
X157471850Y-87516201D01*
X157393799Y-87438150D01*
X157293760Y-87391501D01*
X157293758Y-87391500D01*
X157248188Y-87385501D01*
X157248185Y-87385500D01*
X157248179Y-87385500D01*
X157248172Y-87385500D01*
X156424826Y-87385500D01*
X156403277Y-87388336D01*
X156386382Y-87390560D01*
X156317349Y-87379793D01*
X156294715Y-87365996D01*
X156281916Y-87356175D01*
X156272446Y-87348908D01*
X156231245Y-87292481D01*
X156227090Y-87222735D01*
X156261303Y-87161815D01*
X156323020Y-87129063D01*
X156369610Y-87130958D01*
X156369834Y-87129261D01*
X156382726Y-87130958D01*
X156424821Y-87136500D01*
X157248178Y-87136499D01*
X157248180Y-87136499D01*
X157263881Y-87134432D01*
X157293760Y-87130499D01*
X157393799Y-87083850D01*
X157471850Y-87005799D01*
X157518499Y-86905760D01*
X157524500Y-86860179D01*
X157524499Y-86661822D01*
X157523228Y-86652170D01*
X157518499Y-86616243D01*
X157518499Y-86616240D01*
X157493860Y-86563403D01*
X157483369Y-86494327D01*
X157493858Y-86458601D01*
X157518499Y-86405760D01*
X157524500Y-86360179D01*
X157524499Y-86161822D01*
X157524162Y-86159265D01*
X157519350Y-86122704D01*
X157518499Y-86116240D01*
X157493860Y-86063403D01*
X157483369Y-85994327D01*
X157493858Y-85958601D01*
X157518499Y-85905760D01*
X157524500Y-85860179D01*
X157524499Y-85661822D01*
X157523831Y-85656749D01*
X157521118Y-85636137D01*
X157518499Y-85616240D01*
X157493860Y-85563403D01*
X157483369Y-85494327D01*
X157493858Y-85458601D01*
X157518499Y-85405760D01*
X157523560Y-85367313D01*
X157551825Y-85303418D01*
X157610148Y-85264946D01*
X157630304Y-85260560D01*
X157668760Y-85255499D01*
X157721597Y-85230860D01*
X157790671Y-85220369D01*
X157826401Y-85230859D01*
X157879240Y-85255499D01*
X157924821Y-85261500D01*
X158123178Y-85261499D01*
X158123180Y-85261499D01*
X158138372Y-85259499D01*
X158168760Y-85255499D01*
X158221597Y-85230860D01*
X158290671Y-85220369D01*
X158326401Y-85230859D01*
X158379240Y-85255499D01*
X158424821Y-85261500D01*
X158623178Y-85261499D01*
X158623180Y-85261499D01*
X158638372Y-85259499D01*
X158668760Y-85255499D01*
X158721597Y-85230860D01*
X158790671Y-85220369D01*
X158826401Y-85230859D01*
X158879240Y-85255499D01*
X158924821Y-85261500D01*
X159123178Y-85261499D01*
X159123180Y-85261499D01*
X159138372Y-85259499D01*
X159168760Y-85255499D01*
X159221597Y-85230860D01*
X159290671Y-85220369D01*
X159326401Y-85230859D01*
X159379240Y-85255499D01*
X159424821Y-85261500D01*
X159623178Y-85261499D01*
X159623180Y-85261499D01*
X159638372Y-85259499D01*
X159668760Y-85255499D01*
X159721597Y-85230860D01*
X159790671Y-85220369D01*
X159826401Y-85230859D01*
X159879240Y-85255499D01*
X159924821Y-85261500D01*
X160123178Y-85261499D01*
X160123180Y-85261499D01*
X160138372Y-85259499D01*
X160168760Y-85255499D01*
X160268799Y-85208850D01*
X160346850Y-85130799D01*
X160393499Y-85030760D01*
X160399500Y-84985179D01*
X160399500Y-84574207D01*
X160399500Y-84219388D01*
X160419185Y-84152349D01*
X160435815Y-84131711D01*
X160436821Y-84130705D01*
X160498142Y-84097222D01*
X160567834Y-84102206D01*
G37*
G04 #@! TD.AperFunction*
G04 #@! TA.AperFunction,Conductor*
G36*
X140063276Y-87939825D02*
G01*
X140110885Y-87990963D01*
X140113864Y-87997485D01*
X140114033Y-87997739D01*
X140114034Y-87997740D01*
X140128601Y-88019542D01*
X140149480Y-88086217D01*
X140149500Y-88088432D01*
X140149500Y-88380010D01*
X140157585Y-88410182D01*
X140172771Y-88466857D01*
X140172775Y-88466872D01*
X140173386Y-88469154D01*
X140173386Y-88469155D01*
X140219354Y-88548774D01*
X140231742Y-88578683D01*
X140233385Y-88584815D01*
X140279527Y-88664737D01*
X140279531Y-88664742D01*
X140528320Y-88913531D01*
X140561805Y-88974854D01*
X140556821Y-89044546D01*
X140514949Y-89100479D01*
X140456829Y-89124151D01*
X140445290Y-89125670D01*
X140445287Y-89125671D01*
X140311376Y-89181138D01*
X140311374Y-89181139D01*
X140191373Y-89273219D01*
X140126204Y-89298413D01*
X140057759Y-89284374D01*
X140028206Y-89262524D01*
X139603362Y-88837680D01*
X139569877Y-88776357D01*
X139574861Y-88706665D01*
X139603357Y-88662323D01*
X139780470Y-88485212D01*
X139826614Y-88405288D01*
X139828707Y-88397478D01*
X139833387Y-88380012D01*
X139833387Y-88380011D01*
X139838701Y-88360178D01*
X139850500Y-88316144D01*
X139850500Y-88088432D01*
X139870185Y-88021393D01*
X139871358Y-88019602D01*
X139885966Y-87997740D01*
X139885966Y-87997739D01*
X139892752Y-87987584D01*
X139893984Y-87988407D01*
X139929283Y-87944607D01*
X139995577Y-87922544D01*
X140063276Y-87939825D01*
G37*
G04 #@! TD.AperFunction*
G04 #@! TA.AperFunction,Conductor*
G36*
X154745295Y-85090185D02*
G01*
X154765937Y-85106819D01*
X155246937Y-85587819D01*
X155280422Y-85649142D01*
X155275438Y-85718834D01*
X155233566Y-85774767D01*
X155168102Y-85799184D01*
X155159256Y-85799500D01*
X154868260Y-85799500D01*
X154868260Y-85799501D01*
X154776829Y-85813981D01*
X154776828Y-85813981D01*
X154666607Y-85870142D01*
X154666603Y-85870145D01*
X154579145Y-85957603D01*
X154579142Y-85957608D01*
X154579141Y-85957609D01*
X154575428Y-85964897D01*
X154522981Y-86067827D01*
X154522981Y-86067828D01*
X154508500Y-86159264D01*
X154508500Y-86560739D01*
X154522981Y-86652170D01*
X154522981Y-86652171D01*
X154522982Y-86652174D01*
X154522983Y-86652175D01*
X154578884Y-86761887D01*
X154579142Y-86762392D01*
X154579145Y-86762396D01*
X154666603Y-86849854D01*
X154666605Y-86849855D01*
X154666609Y-86849859D01*
X154776825Y-86906017D01*
X154776826Y-86906017D01*
X154784476Y-86909915D01*
X154835272Y-86957890D01*
X154852067Y-87025711D01*
X154829529Y-87091846D01*
X154784476Y-87130885D01*
X154776826Y-87134782D01*
X154776825Y-87134783D01*
X154666609Y-87190941D01*
X154666608Y-87190942D01*
X154666603Y-87190945D01*
X154579145Y-87278403D01*
X154579142Y-87278408D01*
X154522981Y-87388627D01*
X154522981Y-87388628D01*
X154508500Y-87480064D01*
X154508500Y-87480065D01*
X154508500Y-87673941D01*
X154508501Y-87866500D01*
X154488817Y-87933539D01*
X154436013Y-87979294D01*
X154384501Y-87990500D01*
X153915500Y-87990500D01*
X153848461Y-87970815D01*
X153802706Y-87918011D01*
X153791500Y-87866500D01*
X153791500Y-85194500D01*
X153811185Y-85127461D01*
X153863989Y-85081706D01*
X153915500Y-85070500D01*
X154678256Y-85070500D01*
X154745295Y-85090185D01*
G37*
G04 #@! TD.AperFunction*
G04 #@! TA.AperFunction,Conductor*
G36*
X142563271Y-82939822D02*
G01*
X142610883Y-82990958D01*
X142613862Y-82997482D01*
X142614033Y-82997739D01*
X142614034Y-82997740D01*
X142669399Y-83080601D01*
X142749999Y-83134455D01*
X142752260Y-83135966D01*
X142752264Y-83135967D01*
X142825321Y-83150499D01*
X142825324Y-83150500D01*
X142825326Y-83150500D01*
X142975500Y-83150500D01*
X143042539Y-83170185D01*
X143088294Y-83222989D01*
X143099500Y-83274500D01*
X143099500Y-83424673D01*
X143109671Y-83475810D01*
X143109671Y-83524190D01*
X143104416Y-83550610D01*
X143099500Y-83575326D01*
X143099500Y-83924674D01*
X143099501Y-83924678D01*
X143109671Y-83975810D01*
X143109671Y-84024190D01*
X143099500Y-84075326D01*
X143099500Y-84424673D01*
X143109671Y-84475810D01*
X143109671Y-84524190D01*
X143099500Y-84575326D01*
X143099500Y-84924673D01*
X143109671Y-84975810D01*
X143109671Y-85024190D01*
X143102538Y-85060051D01*
X143099500Y-85075326D01*
X143099500Y-85424674D01*
X143099501Y-85424678D01*
X143109671Y-85475810D01*
X143109671Y-85524190D01*
X143099500Y-85575326D01*
X143099500Y-85924673D01*
X143109671Y-85975810D01*
X143109671Y-86024190D01*
X143099500Y-86075326D01*
X143099500Y-86424673D01*
X143109671Y-86475810D01*
X143109671Y-86524190D01*
X143099500Y-86575326D01*
X143099500Y-86725500D01*
X143079815Y-86792539D01*
X143027011Y-86838294D01*
X142975500Y-86849500D01*
X142825326Y-86849500D01*
X142774190Y-86859671D01*
X142725810Y-86859671D01*
X142674674Y-86849500D01*
X142325326Y-86849500D01*
X142274190Y-86859671D01*
X142225810Y-86859671D01*
X142174674Y-86849500D01*
X141825326Y-86849500D01*
X141774190Y-86859671D01*
X141725810Y-86859671D01*
X141674674Y-86849500D01*
X141325326Y-86849500D01*
X141274190Y-86859671D01*
X141225810Y-86859671D01*
X141174674Y-86849500D01*
X140825326Y-86849500D01*
X140774190Y-86859671D01*
X140725810Y-86859671D01*
X140674674Y-86849500D01*
X140325326Y-86849500D01*
X140325323Y-86849500D01*
X140252264Y-86864032D01*
X140252260Y-86864033D01*
X140180477Y-86911997D01*
X140169399Y-86919399D01*
X140122565Y-86989493D01*
X140107249Y-87012415D01*
X140106016Y-87011591D01*
X140070719Y-87055391D01*
X140004424Y-87077455D01*
X139936725Y-87060175D01*
X139889115Y-87009037D01*
X139886137Y-87002516D01*
X139877436Y-86989494D01*
X139830601Y-86919399D01*
X139747740Y-86864034D01*
X139747739Y-86864033D01*
X139747735Y-86864032D01*
X139674677Y-86849500D01*
X139674674Y-86849500D01*
X139325326Y-86849500D01*
X139274190Y-86859671D01*
X139225810Y-86859671D01*
X139174674Y-86849500D01*
X138825326Y-86849500D01*
X138774190Y-86859671D01*
X138725810Y-86859671D01*
X138674674Y-86849500D01*
X138325326Y-86849500D01*
X138274190Y-86859671D01*
X138225810Y-86859671D01*
X138174674Y-86849500D01*
X137825326Y-86849500D01*
X137774190Y-86859671D01*
X137725810Y-86859671D01*
X137674674Y-86849500D01*
X137524500Y-86849500D01*
X137457461Y-86829815D01*
X137411706Y-86777011D01*
X137400500Y-86725500D01*
X137400500Y-86575326D01*
X137398148Y-86563501D01*
X137390328Y-86524188D01*
X137390328Y-86475810D01*
X137400500Y-86424674D01*
X137400500Y-86075326D01*
X137400500Y-86075323D01*
X137400499Y-86075321D01*
X137385967Y-86002264D01*
X137385966Y-86002260D01*
X137368293Y-85975810D01*
X137330601Y-85919399D01*
X137247740Y-85864034D01*
X137247739Y-85864033D01*
X137237585Y-85857249D01*
X137238409Y-85856015D01*
X137194610Y-85820722D01*
X137172544Y-85754429D01*
X137189822Y-85686729D01*
X137240958Y-85639117D01*
X137247482Y-85636137D01*
X137247737Y-85635966D01*
X137247740Y-85635966D01*
X137330601Y-85580601D01*
X137385966Y-85497740D01*
X137400500Y-85424674D01*
X137400500Y-85075326D01*
X137390328Y-85024188D01*
X137390328Y-84975810D01*
X137400500Y-84924674D01*
X137400500Y-84575326D01*
X137400500Y-84575323D01*
X137400499Y-84575321D01*
X137385967Y-84502264D01*
X137385966Y-84502260D01*
X137382946Y-84497740D01*
X137330601Y-84419399D01*
X137247740Y-84364034D01*
X137247739Y-84364033D01*
X137237585Y-84357249D01*
X137238409Y-84356015D01*
X137194610Y-84320722D01*
X137172544Y-84254429D01*
X137189822Y-84186729D01*
X137240958Y-84139117D01*
X137247482Y-84136137D01*
X137247737Y-84135966D01*
X137247740Y-84135966D01*
X137330601Y-84080601D01*
X137385966Y-83997740D01*
X137400500Y-83924674D01*
X137400500Y-83575326D01*
X137390328Y-83524188D01*
X137390328Y-83475810D01*
X137400500Y-83424674D01*
X137400500Y-83138070D01*
X137420185Y-83071031D01*
X137472989Y-83025276D01*
X137542147Y-83015332D01*
X137605703Y-83044357D01*
X137627602Y-83069180D01*
X137641505Y-83089987D01*
X137641509Y-83089992D01*
X137724399Y-83145377D01*
X137724400Y-83145377D01*
X137724401Y-83145378D01*
X137762244Y-83161053D01*
X137776725Y-83167051D01*
X137776729Y-83167051D01*
X137776730Y-83167052D01*
X137874497Y-83186500D01*
X137874500Y-83186500D01*
X139118002Y-83186500D01*
X139183777Y-83173415D01*
X139215775Y-83167051D01*
X139243558Y-83155542D01*
X139313025Y-83148073D01*
X139315152Y-83148476D01*
X139325326Y-83150500D01*
X139674674Y-83150500D01*
X139725811Y-83140328D01*
X139774189Y-83140328D01*
X139825326Y-83150500D01*
X140174674Y-83150500D01*
X140225811Y-83140328D01*
X140274189Y-83140328D01*
X140325326Y-83150500D01*
X140674674Y-83150500D01*
X140725811Y-83140328D01*
X140774189Y-83140328D01*
X140825326Y-83150500D01*
X141174676Y-83150500D01*
X141174677Y-83150499D01*
X141247740Y-83135966D01*
X141330601Y-83080601D01*
X141385966Y-82997740D01*
X141385966Y-82997739D01*
X141392751Y-82987585D01*
X141393984Y-82988409D01*
X141429278Y-82944610D01*
X141495571Y-82922544D01*
X141563271Y-82939822D01*
X141610883Y-82990958D01*
X141613862Y-82997482D01*
X141614033Y-82997739D01*
X141614034Y-82997740D01*
X141669399Y-83080601D01*
X141749999Y-83134455D01*
X141752260Y-83135966D01*
X141752264Y-83135967D01*
X141825321Y-83150499D01*
X141825324Y-83150500D01*
X141825326Y-83150500D01*
X142174676Y-83150500D01*
X142174677Y-83150499D01*
X142247740Y-83135966D01*
X142330601Y-83080601D01*
X142385966Y-82997740D01*
X142385966Y-82997739D01*
X142392751Y-82987585D01*
X142393984Y-82988409D01*
X142429278Y-82944610D01*
X142495571Y-82922544D01*
X142563271Y-82939822D01*
G37*
G04 #@! TD.AperFunction*
G04 #@! TA.AperFunction,Conductor*
G36*
X146630552Y-84036642D02*
G01*
X146651194Y-84053276D01*
X146742181Y-84144263D01*
X146775666Y-84205586D01*
X146778500Y-84231944D01*
X146778500Y-84391144D01*
X146798523Y-84465869D01*
X146800663Y-84473856D01*
X146800663Y-84473858D01*
X146802384Y-84480283D01*
X146802388Y-84480293D01*
X146848527Y-84560208D01*
X146848529Y-84560211D01*
X146848530Y-84560212D01*
X147020943Y-84732625D01*
X147175777Y-84887458D01*
X147209262Y-84948781D01*
X147212096Y-84975139D01*
X147212096Y-85204375D01*
X147219545Y-85255498D01*
X147223014Y-85279311D01*
X147276271Y-85388250D01*
X147288030Y-85457123D01*
X147263246Y-85518196D01*
X147220139Y-85574374D01*
X147220138Y-85574376D01*
X147164671Y-85708287D01*
X147164670Y-85708291D01*
X147147047Y-85842152D01*
X147145750Y-85852000D01*
X147160613Y-85964897D01*
X147164750Y-85996314D01*
X147153985Y-86065349D01*
X147107605Y-86117605D01*
X147041811Y-86136500D01*
X146580100Y-86136500D01*
X146513061Y-86116815D01*
X146467306Y-86064011D01*
X146456100Y-86012500D01*
X146456099Y-85651265D01*
X146453806Y-85636788D01*
X146452332Y-85627482D01*
X146461285Y-85558191D01*
X146499317Y-85509710D01*
X146534621Y-85482621D01*
X146622861Y-85367625D01*
X146678330Y-85233709D01*
X146697250Y-85090000D01*
X146678330Y-84946291D01*
X146622861Y-84812375D01*
X146534621Y-84697379D01*
X146419625Y-84609139D01*
X146419624Y-84609138D01*
X146419622Y-84609137D01*
X146285712Y-84553671D01*
X146285710Y-84553670D01*
X146285709Y-84553670D01*
X146271303Y-84551773D01*
X146195448Y-84541786D01*
X146131552Y-84513519D01*
X146093082Y-84455194D01*
X146088697Y-84435039D01*
X146078330Y-84356291D01*
X146022861Y-84222375D01*
X146018309Y-84216443D01*
X145993115Y-84151276D01*
X146007153Y-84082831D01*
X146055966Y-84032840D01*
X146116685Y-84016957D01*
X146563513Y-84016957D01*
X146630552Y-84036642D01*
G37*
G04 #@! TD.AperFunction*
G04 #@! TA.AperFunction,Conductor*
G36*
X145538971Y-81386642D02*
G01*
X145569701Y-81419647D01*
X145571927Y-81417981D01*
X145663491Y-81540294D01*
X145663494Y-81540297D01*
X145778703Y-81626543D01*
X145778710Y-81626547D01*
X145913556Y-81676841D01*
X145913555Y-81676841D01*
X145920483Y-81677585D01*
X145973166Y-81683250D01*
X147018911Y-81683249D01*
X147078522Y-81676841D01*
X147213370Y-81626546D01*
X147289433Y-81569604D01*
X147354897Y-81545188D01*
X147423170Y-81560039D01*
X147451425Y-81581191D01*
X147531219Y-81660985D01*
X147531222Y-81660987D01*
X147641978Y-81715131D01*
X147646804Y-81717491D01*
X147721740Y-81728409D01*
X147721745Y-81728409D01*
X148064899Y-81728409D01*
X148064904Y-81728409D01*
X148139840Y-81717491D01*
X148209885Y-81683248D01*
X148255421Y-81660987D01*
X148255424Y-81660985D01*
X148315641Y-81600769D01*
X148376964Y-81567284D01*
X148446656Y-81572268D01*
X148491003Y-81600769D01*
X148551219Y-81660985D01*
X148551222Y-81660987D01*
X148661978Y-81715131D01*
X148666804Y-81717491D01*
X148741740Y-81728409D01*
X148741745Y-81728409D01*
X149084899Y-81728409D01*
X149084904Y-81728409D01*
X149159840Y-81717491D01*
X149229885Y-81683248D01*
X149275421Y-81660987D01*
X149283785Y-81655016D01*
X149285285Y-81657117D01*
X149333395Y-81630839D01*
X149403088Y-81635815D01*
X149459027Y-81677679D01*
X149459035Y-81677691D01*
X149509025Y-81744469D01*
X149509026Y-81744470D01*
X149509028Y-81744472D01*
X149591471Y-81806188D01*
X149616971Y-81825277D01*
X149658842Y-81881211D01*
X149663826Y-81950903D01*
X149630341Y-82012226D01*
X149616972Y-82023810D01*
X149534528Y-82085528D01*
X149510015Y-82118273D01*
X149454081Y-82160143D01*
X149384389Y-82165127D01*
X149338696Y-82144879D01*
X149334914Y-82142178D01*
X149219337Y-82085677D01*
X149219335Y-82085676D01*
X149219334Y-82085676D01*
X149144398Y-82074758D01*
X148801234Y-82074758D01*
X148726298Y-82085676D01*
X148726296Y-82085676D01*
X148726294Y-82085677D01*
X148610716Y-82142179D01*
X148610713Y-82142181D01*
X148550497Y-82202398D01*
X148489174Y-82235883D01*
X148419482Y-82230899D01*
X148375135Y-82202398D01*
X148314918Y-82142181D01*
X148314915Y-82142179D01*
X148199337Y-82085677D01*
X148199335Y-82085676D01*
X148199334Y-82085676D01*
X148124398Y-82074758D01*
X147781234Y-82074758D01*
X147706298Y-82085676D01*
X147706296Y-82085676D01*
X147706294Y-82085677D01*
X147590716Y-82142179D01*
X147590713Y-82142181D01*
X147499739Y-82233155D01*
X147499737Y-82233158D01*
X147443235Y-82348736D01*
X147443234Y-82348738D01*
X147443234Y-82348740D01*
X147432316Y-82423676D01*
X147432316Y-82423681D01*
X147432316Y-82665147D01*
X147424218Y-82705862D01*
X147424490Y-82705935D01*
X147423381Y-82710073D01*
X147422880Y-82712593D01*
X147422387Y-82713783D01*
X147422386Y-82713785D01*
X147422386Y-82713786D01*
X147407299Y-82770091D01*
X147398500Y-82802930D01*
X147398500Y-83480348D01*
X147378815Y-83547387D01*
X147362181Y-83568029D01*
X147347427Y-83582783D01*
X147286104Y-83616268D01*
X147216412Y-83611284D01*
X147172065Y-83582783D01*
X146975270Y-83385988D01*
X146975265Y-83385984D01*
X146895348Y-83339844D01*
X146895344Y-83339842D01*
X146891140Y-83338716D01*
X146891140Y-83338715D01*
X146821744Y-83320121D01*
X146806201Y-83315957D01*
X146806200Y-83315957D01*
X145914961Y-83315957D01*
X145847922Y-83296272D01*
X145827280Y-83279638D01*
X145517173Y-82969531D01*
X145517168Y-82969527D01*
X145437250Y-82923387D01*
X145437243Y-82923384D01*
X145422369Y-82919398D01*
X145422369Y-82919399D01*
X145385236Y-82909449D01*
X145348104Y-82899500D01*
X145348103Y-82899500D01*
X144338434Y-82899500D01*
X144271395Y-82879815D01*
X144269574Y-82878623D01*
X144247740Y-82864034D01*
X144247739Y-82864033D01*
X144247738Y-82864033D01*
X144174676Y-82849500D01*
X144174674Y-82849500D01*
X143524500Y-82849500D01*
X143457461Y-82829815D01*
X143411706Y-82777011D01*
X143400500Y-82725500D01*
X143400500Y-82075323D01*
X143400499Y-82075321D01*
X143385967Y-82002264D01*
X143385966Y-82002260D01*
X143366723Y-81973461D01*
X143330601Y-81919399D01*
X143262721Y-81874043D01*
X143217916Y-81820433D01*
X143209209Y-81751108D01*
X143239363Y-81688080D01*
X143243912Y-81683280D01*
X143523917Y-81403276D01*
X143585240Y-81369791D01*
X143611598Y-81366957D01*
X145471932Y-81366957D01*
X145538971Y-81386642D01*
G37*
G04 #@! TD.AperFunction*
G04 #@! TA.AperFunction,Conductor*
G36*
X165972754Y-77240185D02*
G01*
X166018509Y-77292989D01*
X166028453Y-77362147D01*
X166003772Y-77420401D01*
X165954767Y-77483710D01*
X165753553Y-77806527D01*
X165753548Y-77806536D01*
X165586022Y-78148059D01*
X165586016Y-78148074D01*
X165453904Y-78504787D01*
X165453902Y-78504796D01*
X165422628Y-78625582D01*
X165386769Y-78685546D01*
X165324182Y-78716605D01*
X165302587Y-78718500D01*
X164981041Y-78718500D01*
X164914002Y-78698815D01*
X164893360Y-78682181D01*
X164877102Y-78665923D01*
X164877099Y-78665921D01*
X164761521Y-78609419D01*
X164761519Y-78609418D01*
X164761518Y-78609418D01*
X164686582Y-78598500D01*
X164243418Y-78598500D01*
X164168482Y-78609418D01*
X164168480Y-78609418D01*
X164168478Y-78609419D01*
X164052900Y-78665921D01*
X164052897Y-78665923D01*
X163961923Y-78756897D01*
X163961921Y-78756900D01*
X163905419Y-78872478D01*
X163905418Y-78872480D01*
X163905418Y-78872482D01*
X163894500Y-78947418D01*
X163894500Y-79290582D01*
X163905418Y-79365518D01*
X163905418Y-79365519D01*
X163905419Y-79365521D01*
X163961921Y-79481099D01*
X163961923Y-79481102D01*
X164052897Y-79572076D01*
X164052900Y-79572078D01*
X164163656Y-79626222D01*
X164168482Y-79628582D01*
X164243418Y-79639500D01*
X164243423Y-79639500D01*
X164686577Y-79639500D01*
X164686582Y-79639500D01*
X164761518Y-79628582D01*
X164821486Y-79599265D01*
X164877099Y-79572078D01*
X164877102Y-79572076D01*
X164893360Y-79555819D01*
X164954683Y-79522334D01*
X164981041Y-79519500D01*
X165158256Y-79519500D01*
X165225295Y-79539185D01*
X165271050Y-79591989D01*
X165282096Y-79637219D01*
X165282989Y-79654818D01*
X165300946Y-80008918D01*
X165356904Y-80374185D01*
X165358552Y-80384940D01*
X165407831Y-80575267D01*
X165453904Y-80753212D01*
X165586016Y-81109925D01*
X165586022Y-81109940D01*
X165753548Y-81451463D01*
X165753553Y-81451472D01*
X165954771Y-81774295D01*
X166182996Y-82069139D01*
X166187620Y-82075112D01*
X166303994Y-82197537D01*
X166328263Y-82223068D01*
X166360184Y-82285220D01*
X166353436Y-82354763D01*
X166310161Y-82409618D01*
X166244099Y-82432368D01*
X166238389Y-82432500D01*
X162752824Y-82432500D01*
X162657323Y-82458089D01*
X162657320Y-82458090D01*
X162571700Y-82507522D01*
X162571695Y-82507526D01*
X161808180Y-83271041D01*
X161746857Y-83304526D01*
X161677165Y-83299542D01*
X161621232Y-83257670D01*
X161596815Y-83192206D01*
X161596499Y-83183385D01*
X161596499Y-82874266D01*
X161596499Y-82874260D01*
X161582018Y-82782829D01*
X161582018Y-82782828D01*
X161582017Y-82782826D01*
X161582017Y-82782825D01*
X161525859Y-82672609D01*
X161525857Y-82672607D01*
X161525854Y-82672603D01*
X161438396Y-82585145D01*
X161438393Y-82585143D01*
X161438391Y-82585141D01*
X161328175Y-82528983D01*
X161328174Y-82528982D01*
X161328171Y-82528981D01*
X161236735Y-82514500D01*
X160835260Y-82514500D01*
X160835260Y-82514501D01*
X160743829Y-82528981D01*
X160743828Y-82528981D01*
X160633607Y-82585142D01*
X160633603Y-82585145D01*
X160615681Y-82603068D01*
X160554358Y-82636553D01*
X160484666Y-82631569D01*
X160440319Y-82603068D01*
X160422396Y-82585145D01*
X160422393Y-82585143D01*
X160422391Y-82585141D01*
X160312175Y-82528983D01*
X160312174Y-82528982D01*
X160312171Y-82528981D01*
X160220735Y-82514500D01*
X160045899Y-82514500D01*
X159978860Y-82494815D01*
X159958218Y-82478181D01*
X159610819Y-82130782D01*
X159577334Y-82069459D01*
X159574500Y-82043101D01*
X159574500Y-81883423D01*
X159574500Y-81883418D01*
X159563582Y-81808482D01*
X159546869Y-81774295D01*
X159507078Y-81692900D01*
X159501107Y-81684537D01*
X159503181Y-81683055D01*
X159476849Y-81634832D01*
X159481833Y-81565140D01*
X159483454Y-81561022D01*
X159504464Y-81510298D01*
X159540330Y-81423709D01*
X159559250Y-81280000D01*
X159540330Y-81136291D01*
X159484861Y-81002375D01*
X159396621Y-80887379D01*
X159281625Y-80799139D01*
X159281624Y-80799138D01*
X159281622Y-80799137D01*
X159147712Y-80743671D01*
X159147710Y-80743670D01*
X159147709Y-80743670D01*
X159075854Y-80734210D01*
X159004001Y-80724750D01*
X159003999Y-80724750D01*
X158860291Y-80743670D01*
X158860287Y-80743671D01*
X158726377Y-80799137D01*
X158611379Y-80887379D01*
X158523137Y-81002377D01*
X158467671Y-81136287D01*
X158467670Y-81136291D01*
X158448750Y-81279999D01*
X158448750Y-81280001D01*
X158463101Y-81389007D01*
X158452336Y-81458042D01*
X158405956Y-81510298D01*
X158338687Y-81529183D01*
X158292711Y-81519754D01*
X158258709Y-81505670D01*
X158186854Y-81496210D01*
X158115001Y-81486750D01*
X158114999Y-81486750D01*
X157971291Y-81505670D01*
X157971287Y-81505671D01*
X157837377Y-81561137D01*
X157722379Y-81649379D01*
X157634137Y-81764377D01*
X157578671Y-81898287D01*
X157576930Y-81904785D01*
X157540562Y-81964444D01*
X157477714Y-81994971D01*
X157473342Y-81995626D01*
X157362432Y-82010228D01*
X157336291Y-82013670D01*
X157336290Y-82013670D01*
X157336287Y-82013671D01*
X157202377Y-82069137D01*
X157087379Y-82157379D01*
X156999137Y-82272377D01*
X156943671Y-82406287D01*
X156943670Y-82406291D01*
X156936851Y-82458089D01*
X156924750Y-82550000D01*
X156943101Y-82689390D01*
X156943670Y-82693708D01*
X156943670Y-82693709D01*
X156952409Y-82714807D01*
X156959876Y-82784277D01*
X156928600Y-82846755D01*
X156868511Y-82882407D01*
X156818450Y-82884731D01*
X156791735Y-82880500D01*
X156642899Y-82880500D01*
X156575860Y-82860815D01*
X156555218Y-82844181D01*
X156530563Y-82819526D01*
X156530562Y-82819525D01*
X156444938Y-82770090D01*
X156389756Y-82755304D01*
X156389755Y-82755303D01*
X156349436Y-82744500D01*
X156349435Y-82744500D01*
X155299106Y-82744500D01*
X155232067Y-82724815D01*
X155196004Y-82689390D01*
X155162602Y-82639400D01*
X155158341Y-82636553D01*
X155101561Y-82598614D01*
X155079739Y-82584033D01*
X155079735Y-82584032D01*
X155006677Y-82569500D01*
X155006674Y-82569500D01*
X153915500Y-82569500D01*
X153848461Y-82549815D01*
X153802706Y-82497011D01*
X153791500Y-82445500D01*
X153791500Y-82248899D01*
X153811185Y-82181860D01*
X153827819Y-82161218D01*
X154541219Y-81447819D01*
X154602542Y-81414334D01*
X154628900Y-81411500D01*
X157521435Y-81411500D01*
X157521436Y-81411500D01*
X157585152Y-81394427D01*
X157616938Y-81385910D01*
X157702562Y-81336475D01*
X157772475Y-81266562D01*
X157772474Y-81266562D01*
X157831043Y-81207993D01*
X159184219Y-79854819D01*
X159245542Y-79821334D01*
X159271900Y-79818500D01*
X159431577Y-79818500D01*
X159431582Y-79818500D01*
X159506518Y-79807582D01*
X159564310Y-79779329D01*
X159622099Y-79751078D01*
X159622102Y-79751076D01*
X159713076Y-79660102D01*
X159713078Y-79660099D01*
X159746375Y-79591989D01*
X159769582Y-79544518D01*
X159780500Y-79469582D01*
X159780500Y-79026418D01*
X159769582Y-78951482D01*
X159767222Y-78946656D01*
X159713078Y-78835900D01*
X159713076Y-78835897D01*
X159622102Y-78744923D01*
X159622099Y-78744921D01*
X159506521Y-78688419D01*
X159506519Y-78688418D01*
X159506518Y-78688418D01*
X159431582Y-78677500D01*
X159088418Y-78677500D01*
X159013482Y-78688418D01*
X159013480Y-78688418D01*
X159013478Y-78688419D01*
X158897900Y-78744921D01*
X158837680Y-78805141D01*
X158776356Y-78838625D01*
X158706665Y-78833640D01*
X158662314Y-78805136D01*
X158651815Y-78794636D01*
X158618333Y-78733311D01*
X158615500Y-78706959D01*
X158615500Y-78435122D01*
X158623319Y-78391788D01*
X158644489Y-78335028D01*
X158644490Y-78335024D01*
X158644489Y-78335024D01*
X158644491Y-78335022D01*
X158648146Y-78301023D01*
X158650499Y-78279144D01*
X158650500Y-78279129D01*
X158650500Y-77676870D01*
X158650499Y-77676855D01*
X158647060Y-77644870D01*
X158644491Y-77620978D01*
X158644490Y-77620975D01*
X158597337Y-77494552D01*
X158597335Y-77494549D01*
X158589221Y-77483710D01*
X158540637Y-77418809D01*
X158516221Y-77353347D01*
X158531073Y-77285074D01*
X158580478Y-77235668D01*
X158639905Y-77220500D01*
X165905715Y-77220500D01*
X165972754Y-77240185D01*
G37*
G04 #@! TD.AperFunction*
G04 #@! TA.AperFunction,Conductor*
G36*
X137482539Y-81936185D02*
G01*
X137528294Y-81988989D01*
X137539500Y-82040500D01*
X137539500Y-82050242D01*
X137540060Y-82061631D01*
X137540731Y-82075292D01*
X137542152Y-82089718D01*
X137543658Y-82099871D01*
X137545000Y-82118063D01*
X137545000Y-82834436D01*
X137525315Y-82901475D01*
X137472511Y-82947230D01*
X137403353Y-82957174D01*
X137339797Y-82928149D01*
X137333319Y-82922117D01*
X137330603Y-82919401D01*
X137330601Y-82919400D01*
X137330601Y-82919399D01*
X137270255Y-82879078D01*
X137247739Y-82864033D01*
X137247735Y-82864032D01*
X137174678Y-82849500D01*
X137168614Y-82848903D01*
X137168764Y-82847370D01*
X137119950Y-82835373D01*
X137114525Y-82832535D01*
X137114522Y-82832533D01*
X137047490Y-82812851D01*
X137047478Y-82812848D01*
X136975501Y-82802500D01*
X136975500Y-82802500D01*
X136523500Y-82802500D01*
X136456461Y-82782815D01*
X136410706Y-82730011D01*
X136399500Y-82678500D01*
X136399500Y-82040500D01*
X136419185Y-81973461D01*
X136471989Y-81927706D01*
X136523500Y-81916500D01*
X137415500Y-81916500D01*
X137482539Y-81936185D01*
G37*
G04 #@! TD.AperFunction*
G04 #@! TA.AperFunction,Conductor*
G36*
X157352134Y-77240185D02*
G01*
X157397889Y-77292989D01*
X157407833Y-77362147D01*
X157384362Y-77418808D01*
X157365680Y-77443767D01*
X157327664Y-77494549D01*
X157327662Y-77494552D01*
X157280509Y-77620975D01*
X157274500Y-77676855D01*
X157274500Y-78279144D01*
X157280509Y-78335024D01*
X157327662Y-78461447D01*
X157327664Y-78461450D01*
X157408528Y-78569472D01*
X157511045Y-78646215D01*
X157516549Y-78650335D01*
X157516552Y-78650337D01*
X157558343Y-78665924D01*
X157642978Y-78697491D01*
X157659358Y-78699252D01*
X157668218Y-78700205D01*
X157732769Y-78726943D01*
X157772617Y-78784336D01*
X157775110Y-78854161D01*
X157766363Y-78877953D01*
X157730418Y-78951479D01*
X157729663Y-78956664D01*
X157719500Y-79026418D01*
X157719500Y-79469582D01*
X157730418Y-79544518D01*
X157730418Y-79544519D01*
X157730419Y-79544521D01*
X157786921Y-79660099D01*
X157786923Y-79660102D01*
X157877897Y-79751076D01*
X157877900Y-79751078D01*
X157955597Y-79789062D01*
X158007180Y-79836189D01*
X158025094Y-79903723D01*
X158003653Y-79970222D01*
X157988818Y-79988143D01*
X157352782Y-80624181D01*
X157291459Y-80657666D01*
X157265101Y-80660500D01*
X154372563Y-80660500D01*
X154344096Y-80668127D01*
X154344097Y-80668128D01*
X154277059Y-80686090D01*
X154270561Y-80689843D01*
X154270559Y-80689844D01*
X154191440Y-80735522D01*
X154191435Y-80735526D01*
X153185438Y-81741525D01*
X153115527Y-81811435D01*
X153115525Y-81811437D01*
X153115525Y-81811438D01*
X153110332Y-81820433D01*
X153066090Y-81897061D01*
X153059236Y-81922639D01*
X153022869Y-81982298D01*
X152960021Y-82012826D01*
X152923277Y-82013481D01*
X152781002Y-81994750D01*
X152780999Y-81994750D01*
X152637291Y-82013670D01*
X152637287Y-82013671D01*
X152503376Y-82069138D01*
X152503374Y-82069139D01*
X152413542Y-82138070D01*
X152348373Y-82163264D01*
X152279928Y-82149226D01*
X152238790Y-82114006D01*
X152217472Y-82085528D01*
X152109450Y-82004664D01*
X152109447Y-82004662D01*
X151983024Y-81957509D01*
X151927144Y-81951500D01*
X151927130Y-81951500D01*
X151399870Y-81951500D01*
X151399855Y-81951500D01*
X151343975Y-81957509D01*
X151217552Y-82004662D01*
X151217549Y-82004664D01*
X151109528Y-82085528D01*
X151028664Y-82193549D01*
X151028662Y-82193552D01*
X150992182Y-82291361D01*
X150950311Y-82347295D01*
X150884846Y-82371712D01*
X150816573Y-82356860D01*
X150767168Y-82307455D01*
X150759818Y-82291361D01*
X150723337Y-82193552D01*
X150723335Y-82193549D01*
X150642472Y-82085528D01*
X150546481Y-82013670D01*
X150534528Y-82004722D01*
X150492657Y-81948788D01*
X150487673Y-81879096D01*
X150521158Y-81817773D01*
X150534529Y-81806188D01*
X150590382Y-81764377D01*
X150616972Y-81744472D01*
X150697836Y-81636450D01*
X150744991Y-81510022D01*
X150748646Y-81476023D01*
X150750999Y-81454144D01*
X150751000Y-81454129D01*
X150751000Y-80851870D01*
X150750999Y-80851855D01*
X150748145Y-80825318D01*
X150744991Y-80795978D01*
X150739930Y-80782409D01*
X150697837Y-80669552D01*
X150697835Y-80669549D01*
X150616972Y-80561528D01*
X150562780Y-80520960D01*
X150534528Y-80499811D01*
X150492657Y-80443877D01*
X150487673Y-80374185D01*
X150521158Y-80312862D01*
X150534529Y-80301277D01*
X150563290Y-80279747D01*
X150642472Y-80220472D01*
X150723336Y-80112450D01*
X150770491Y-79986022D01*
X150775360Y-79940734D01*
X150776499Y-79930144D01*
X150776500Y-79930129D01*
X150776500Y-79327870D01*
X150776499Y-79327855D01*
X150772490Y-79290576D01*
X150770491Y-79271978D01*
X150763779Y-79253983D01*
X150723337Y-79145552D01*
X150723335Y-79145549D01*
X150719917Y-79140983D01*
X150642472Y-79037528D01*
X150547277Y-78966266D01*
X150505407Y-78910333D01*
X150500423Y-78840642D01*
X150533908Y-78779319D01*
X150547278Y-78767733D01*
X150642472Y-78696472D01*
X150723336Y-78588450D01*
X150770491Y-78462022D01*
X150774146Y-78428023D01*
X150776499Y-78406144D01*
X150776500Y-78406129D01*
X150776500Y-77803870D01*
X150776499Y-77803855D01*
X150773645Y-77777318D01*
X150770491Y-77747978D01*
X150752723Y-77700339D01*
X150723337Y-77621552D01*
X150723335Y-77621549D01*
X150722908Y-77620978D01*
X150642472Y-77513528D01*
X150549282Y-77443767D01*
X150507411Y-77387833D01*
X150502427Y-77318141D01*
X150535912Y-77256818D01*
X150597235Y-77223334D01*
X150623593Y-77220500D01*
X157285095Y-77220500D01*
X157352134Y-77240185D01*
G37*
G04 #@! TD.AperFunction*
G04 #@! TA.AperFunction,Conductor*
G36*
X141612539Y-77240185D02*
G01*
X141658294Y-77292989D01*
X141669500Y-77344500D01*
X141669500Y-79912278D01*
X141684033Y-79985339D01*
X141691602Y-79996667D01*
X141712480Y-80063344D01*
X141712500Y-80065558D01*
X141712500Y-80198904D01*
X141692815Y-80265943D01*
X141676185Y-80286580D01*
X141626355Y-80336411D01*
X141583595Y-80379171D01*
X141522271Y-80412655D01*
X141452580Y-80407671D01*
X141396646Y-80365799D01*
X141385429Y-80347784D01*
X141380444Y-80338000D01*
X141332859Y-80244609D01*
X141332855Y-80244605D01*
X141332854Y-80244603D01*
X141312932Y-80224681D01*
X141279447Y-80163358D01*
X141284431Y-80093666D01*
X141312932Y-80049319D01*
X141332854Y-80029396D01*
X141332859Y-80029391D01*
X141389017Y-79919175D01*
X141389017Y-79919173D01*
X141389018Y-79919172D01*
X141389018Y-79919171D01*
X141399210Y-79854819D01*
X141403500Y-79827735D01*
X141403499Y-79486266D01*
X141403499Y-79486260D01*
X141389018Y-79394829D01*
X141389018Y-79394828D01*
X141389017Y-79394826D01*
X141389017Y-79394825D01*
X141332859Y-79284609D01*
X141332857Y-79284607D01*
X141332854Y-79284603D01*
X141245396Y-79197145D01*
X141245393Y-79197143D01*
X141245391Y-79197141D01*
X141135175Y-79140983D01*
X141135174Y-79140982D01*
X141135171Y-79140981D01*
X141043735Y-79126500D01*
X140642260Y-79126500D01*
X140642260Y-79126501D01*
X140550829Y-79140981D01*
X140550828Y-79140981D01*
X140440607Y-79197142D01*
X140353139Y-79284611D01*
X140349549Y-79289553D01*
X140304863Y-79324779D01*
X140305753Y-79326320D01*
X140218794Y-79376527D01*
X140218784Y-79376534D01*
X140028178Y-79567137D01*
X139966855Y-79600621D01*
X139897163Y-79595636D01*
X139852817Y-79567136D01*
X139812512Y-79526831D01*
X139789711Y-79495449D01*
X139739859Y-79397609D01*
X139739857Y-79397607D01*
X139739854Y-79397603D01*
X139652396Y-79310145D01*
X139652393Y-79310143D01*
X139652391Y-79310141D01*
X139542175Y-79253983D01*
X139542174Y-79253982D01*
X139542171Y-79253981D01*
X139450735Y-79239500D01*
X139049260Y-79239500D01*
X139049260Y-79239501D01*
X138957829Y-79253981D01*
X138957828Y-79253981D01*
X138847607Y-79310142D01*
X138847603Y-79310145D01*
X138760145Y-79397603D01*
X138760142Y-79397608D01*
X138703981Y-79507827D01*
X138703981Y-79507828D01*
X138693806Y-79572076D01*
X138689500Y-79599265D01*
X138689500Y-79751078D01*
X138689501Y-79884500D01*
X138669817Y-79951539D01*
X138617013Y-79997294D01*
X138565501Y-80008500D01*
X133550998Y-80008500D01*
X133453230Y-80027947D01*
X133453224Y-80027949D01*
X133406530Y-80047290D01*
X133401922Y-80048938D01*
X133343315Y-80088098D01*
X133276637Y-80108975D01*
X133209257Y-80090490D01*
X133162567Y-80038510D01*
X133150584Y-79978717D01*
X133168320Y-79629000D01*
X133149053Y-79249081D01*
X133091448Y-78873060D01*
X132996098Y-78504796D01*
X132994390Y-78500185D01*
X132863983Y-78148074D01*
X132863977Y-78148059D01*
X132696451Y-77806536D01*
X132696446Y-77806527D01*
X132495232Y-77483710D01*
X132495229Y-77483705D01*
X132446227Y-77420400D01*
X132420760Y-77355338D01*
X132434509Y-77286835D01*
X132483112Y-77236640D01*
X132544285Y-77220500D01*
X141545500Y-77220500D01*
X141612539Y-77240185D01*
G37*
G04 #@! TD.AperFunction*
G04 #@! TA.AperFunction,Conductor*
G36*
X136200917Y-84601685D02*
G01*
X136202768Y-84602898D01*
X136252258Y-84635966D01*
X136325321Y-84650499D01*
X136325324Y-84650500D01*
X136325326Y-84650500D01*
X136697273Y-84650500D01*
X136975500Y-84650500D01*
X137042539Y-84670185D01*
X137088294Y-84722989D01*
X137099500Y-84774500D01*
X137099500Y-85225500D01*
X137079815Y-85292539D01*
X137027011Y-85338294D01*
X136975500Y-85349500D01*
X136325323Y-85349500D01*
X136252264Y-85364032D01*
X136252260Y-85364033D01*
X136169398Y-85419400D01*
X136160760Y-85428038D01*
X136159143Y-85426420D01*
X136118127Y-85460697D01*
X136068640Y-85471000D01*
X135633000Y-85471000D01*
X135565961Y-85451315D01*
X135520206Y-85398511D01*
X135509000Y-85347000D01*
X135509000Y-84706000D01*
X135528685Y-84638961D01*
X135581489Y-84593206D01*
X135633000Y-84582000D01*
X136133878Y-84582000D01*
X136200917Y-84601685D01*
G37*
G04 #@! TD.AperFunction*
M02*
