G04 #@! TF.GenerationSoftware,KiCad,Pcbnew,8.0.8*
G04 #@! TF.CreationDate,2025-02-05T10:03:22-05:00*
G04 #@! TF.ProjectId,RW_board,52575f62-6f61-4726-942e-6b696361645f,rev?*
G04 #@! TF.SameCoordinates,Original*
G04 #@! TF.FileFunction,Legend,Top*
G04 #@! TF.FilePolarity,Positive*
%FSLAX46Y46*%
G04 Gerber Fmt 4.6, Leading zero omitted, Abs format (unit mm)*
G04 Created by KiCad (PCBNEW 8.0.8) date 2025-02-05 10:03:22*
%MOMM*%
%LPD*%
G01*
G04 APERTURE LIST*
G04 Aperture macros list*
%AMRoundRect*
0 Rectangle with rounded corners*
0 $1 Rounding radius*
0 $2 $3 $4 $5 $6 $7 $8 $9 X,Y pos of 4 corners*
0 Add a 4 corners polygon primitive as box body*
4,1,4,$2,$3,$4,$5,$6,$7,$8,$9,$2,$3,0*
0 Add four circle primitives for the rounded corners*
1,1,$1+$1,$2,$3*
1,1,$1+$1,$4,$5*
1,1,$1+$1,$6,$7*
1,1,$1+$1,$8,$9*
0 Add four rect primitives between the rounded corners*
20,1,$1+$1,$2,$3,$4,$5,0*
20,1,$1+$1,$4,$5,$6,$7,0*
20,1,$1+$1,$6,$7,$8,$9,0*
20,1,$1+$1,$8,$9,$2,$3,0*%
%AMRotRect*
0 Rectangle, with rotation*
0 The origin of the aperture is its center*
0 $1 length*
0 $2 width*
0 $3 Rotation angle, in degrees counterclockwise*
0 Add horizontal line*
21,1,$1,$2,0,0,$3*%
G04 Aperture macros list end*
%ADD10C,0.200000*%
%ADD11C,0.150000*%
%ADD12C,0.250000*%
%ADD13C,0.120000*%
%ADD14C,0.100000*%
%ADD15C,0.127000*%
%ADD16C,0.010000*%
%ADD17RoundRect,0.135000X-0.135000X-0.185000X0.135000X-0.185000X0.135000X0.185000X-0.135000X0.185000X0*%
%ADD18RoundRect,0.140000X0.140000X0.170000X-0.140000X0.170000X-0.140000X-0.170000X0.140000X-0.170000X0*%
%ADD19R,1.000000X1.000000*%
%ADD20C,0.800000*%
%ADD21C,7.000000*%
%ADD22RoundRect,0.135000X0.185000X-0.135000X0.185000X0.135000X-0.185000X0.135000X-0.185000X-0.135000X0*%
%ADD23RoundRect,0.135000X0.135000X0.185000X-0.135000X0.185000X-0.135000X-0.185000X0.135000X-0.185000X0*%
%ADD24C,6.400000*%
%ADD25RoundRect,0.140000X-0.140000X-0.170000X0.140000X-0.170000X0.140000X0.170000X-0.140000X0.170000X0*%
%ADD26RoundRect,0.225000X-0.225000X-0.250000X0.225000X-0.250000X0.225000X0.250000X-0.225000X0.250000X0*%
%ADD27R,1.600000X2.180000*%
%ADD28RoundRect,0.135000X-0.185000X0.135000X-0.185000X-0.135000X0.185000X-0.135000X0.185000X0.135000X0*%
%ADD29RoundRect,0.140000X0.170000X-0.140000X0.170000X0.140000X-0.170000X0.140000X-0.170000X-0.140000X0*%
%ADD30RoundRect,0.225000X0.225000X0.250000X-0.225000X0.250000X-0.225000X-0.250000X0.225000X-0.250000X0*%
%ADD31RoundRect,0.200000X-0.200000X-0.450000X0.200000X-0.450000X0.200000X0.450000X-0.200000X0.450000X0*%
%ADD32O,0.800000X1.300000*%
%ADD33RotRect,0.700000X1.000000X135.000000*%
%ADD34RotRect,0.600000X0.700000X45.000000*%
%ADD35RoundRect,0.140000X-0.170000X0.140000X-0.170000X-0.140000X0.170000X-0.140000X0.170000X0.140000X0*%
%ADD36RoundRect,0.250000X-0.475000X0.250000X-0.475000X-0.250000X0.475000X-0.250000X0.475000X0.250000X0*%
%ADD37RoundRect,0.102000X1.700000X-0.490000X1.700000X0.490000X-1.700000X0.490000X-1.700000X-0.490000X0*%
%ADD38R,1.650000X2.600000*%
%ADD39RoundRect,0.062500X-0.375000X-0.062500X0.375000X-0.062500X0.375000X0.062500X-0.375000X0.062500X0*%
%ADD40RoundRect,0.062500X-0.062500X-0.375000X0.062500X-0.375000X0.062500X0.375000X-0.062500X0.375000X0*%
%ADD41R,5.150000X5.150000*%
%ADD42R,0.700000X1.000000*%
%ADD43R,0.700000X0.600000*%
%ADD44RoundRect,0.218750X0.218750X0.256250X-0.218750X0.256250X-0.218750X-0.256250X0.218750X-0.256250X0*%
%ADD45R,0.600000X1.250000*%
%ADD46R,0.340000X0.500000*%
%ADD47R,0.340000X1.000000*%
%ADD48R,0.340000X0.800000*%
%ADD49R,1.640000X0.600000*%
%ADD50R,2.290000X1.710000*%
%ADD51RoundRect,0.250000X0.475000X-0.250000X0.475000X0.250000X-0.475000X0.250000X-0.475000X-0.250000X0*%
%ADD52R,1.100000X0.600000*%
%ADD53R,0.690000X0.385000*%
%ADD54R,0.690000X1.035000*%
%ADD55RoundRect,0.250000X-0.450000X0.262500X-0.450000X-0.262500X0.450000X-0.262500X0.450000X0.262500X0*%
%ADD56R,0.300000X0.800000*%
%ADD57R,0.800000X0.300000*%
%ADD58R,5.800000X3.800000*%
%ADD59RoundRect,0.200000X-0.275000X0.200000X-0.275000X-0.200000X0.275000X-0.200000X0.275000X0.200000X0*%
%ADD60RoundRect,0.087500X0.725000X0.087500X-0.725000X0.087500X-0.725000X-0.087500X0.725000X-0.087500X0*%
%ADD61C,0.650000*%
%ADD62O,1.204000X2.304000*%
%ADD63O,1.204000X2.004000*%
G04 APERTURE END LIST*
D10*
X143998695Y-119553231D02*
X143998695Y-119096088D01*
X144798695Y-119324660D02*
X143998695Y-119324660D01*
X143998695Y-118905612D02*
X144798695Y-118372278D01*
X143998695Y-118372278D02*
X144798695Y-118905612D01*
X145344885Y-120366041D02*
X145306790Y-120327945D01*
X145306790Y-120327945D02*
X145268695Y-120251755D01*
X145268695Y-120251755D02*
X145268695Y-120061279D01*
X145268695Y-120061279D02*
X145306790Y-119985088D01*
X145306790Y-119985088D02*
X145344885Y-119946993D01*
X145344885Y-119946993D02*
X145421076Y-119908898D01*
X145421076Y-119908898D02*
X145497266Y-119908898D01*
X145497266Y-119908898D02*
X145611552Y-119946993D01*
X145611552Y-119946993D02*
X146068695Y-120404136D01*
X146068695Y-120404136D02*
X146068695Y-119908898D01*
X145535361Y-119223183D02*
X146068695Y-119223183D01*
X145230600Y-119413659D02*
X145802028Y-119604136D01*
X145802028Y-119604136D02*
X145802028Y-119108897D01*
X145268695Y-118918421D02*
X146068695Y-118651754D01*
X146068695Y-118651754D02*
X145268695Y-118385088D01*
D11*
X152739969Y-79231295D02*
X153235207Y-79231295D01*
X153235207Y-79231295D02*
X152968541Y-79536057D01*
X152968541Y-79536057D02*
X153082826Y-79536057D01*
X153082826Y-79536057D02*
X153159017Y-79574152D01*
X153159017Y-79574152D02*
X153197112Y-79612247D01*
X153197112Y-79612247D02*
X153235207Y-79688438D01*
X153235207Y-79688438D02*
X153235207Y-79878914D01*
X153235207Y-79878914D02*
X153197112Y-79955104D01*
X153197112Y-79955104D02*
X153159017Y-79993200D01*
X153159017Y-79993200D02*
X153082826Y-80031295D01*
X153082826Y-80031295D02*
X152854255Y-80031295D01*
X152854255Y-80031295D02*
X152778064Y-79993200D01*
X152778064Y-79993200D02*
X152739969Y-79955104D01*
X153578065Y-79955104D02*
X153616160Y-79993200D01*
X153616160Y-79993200D02*
X153578065Y-80031295D01*
X153578065Y-80031295D02*
X153539969Y-79993200D01*
X153539969Y-79993200D02*
X153578065Y-79955104D01*
X153578065Y-79955104D02*
X153578065Y-80031295D01*
X153882826Y-79231295D02*
X154378064Y-79231295D01*
X154378064Y-79231295D02*
X154111398Y-79536057D01*
X154111398Y-79536057D02*
X154225683Y-79536057D01*
X154225683Y-79536057D02*
X154301874Y-79574152D01*
X154301874Y-79574152D02*
X154339969Y-79612247D01*
X154339969Y-79612247D02*
X154378064Y-79688438D01*
X154378064Y-79688438D02*
X154378064Y-79878914D01*
X154378064Y-79878914D02*
X154339969Y-79955104D01*
X154339969Y-79955104D02*
X154301874Y-79993200D01*
X154301874Y-79993200D02*
X154225683Y-80031295D01*
X154225683Y-80031295D02*
X153997112Y-80031295D01*
X153997112Y-80031295D02*
X153920921Y-79993200D01*
X153920921Y-79993200D02*
X153882826Y-79955104D01*
X154606636Y-79231295D02*
X154873303Y-80031295D01*
X154873303Y-80031295D02*
X155139969Y-79231295D01*
D12*
X171695619Y-115104003D02*
X171219428Y-115437336D01*
X171695619Y-115675431D02*
X170695619Y-115675431D01*
X170695619Y-115675431D02*
X170695619Y-115294479D01*
X170695619Y-115294479D02*
X170743238Y-115199241D01*
X170743238Y-115199241D02*
X170790857Y-115151622D01*
X170790857Y-115151622D02*
X170886095Y-115104003D01*
X170886095Y-115104003D02*
X171028952Y-115104003D01*
X171028952Y-115104003D02*
X171124190Y-115151622D01*
X171124190Y-115151622D02*
X171171809Y-115199241D01*
X171171809Y-115199241D02*
X171219428Y-115294479D01*
X171219428Y-115294479D02*
X171219428Y-115675431D01*
X171648000Y-114294479D02*
X171695619Y-114389717D01*
X171695619Y-114389717D02*
X171695619Y-114580193D01*
X171695619Y-114580193D02*
X171648000Y-114675431D01*
X171648000Y-114675431D02*
X171552761Y-114723050D01*
X171552761Y-114723050D02*
X171171809Y-114723050D01*
X171171809Y-114723050D02*
X171076571Y-114675431D01*
X171076571Y-114675431D02*
X171028952Y-114580193D01*
X171028952Y-114580193D02*
X171028952Y-114389717D01*
X171028952Y-114389717D02*
X171076571Y-114294479D01*
X171076571Y-114294479D02*
X171171809Y-114246860D01*
X171171809Y-114246860D02*
X171267047Y-114246860D01*
X171267047Y-114246860D02*
X171362285Y-114723050D01*
X171695619Y-113389717D02*
X171171809Y-113389717D01*
X171171809Y-113389717D02*
X171076571Y-113437336D01*
X171076571Y-113437336D02*
X171028952Y-113532574D01*
X171028952Y-113532574D02*
X171028952Y-113723050D01*
X171028952Y-113723050D02*
X171076571Y-113818288D01*
X171648000Y-113389717D02*
X171695619Y-113484955D01*
X171695619Y-113484955D02*
X171695619Y-113723050D01*
X171695619Y-113723050D02*
X171648000Y-113818288D01*
X171648000Y-113818288D02*
X171552761Y-113865907D01*
X171552761Y-113865907D02*
X171457523Y-113865907D01*
X171457523Y-113865907D02*
X171362285Y-113818288D01*
X171362285Y-113818288D02*
X171314666Y-113723050D01*
X171314666Y-113723050D02*
X171314666Y-113484955D01*
X171314666Y-113484955D02*
X171267047Y-113389717D01*
X171648000Y-112484955D02*
X171695619Y-112580193D01*
X171695619Y-112580193D02*
X171695619Y-112770669D01*
X171695619Y-112770669D02*
X171648000Y-112865907D01*
X171648000Y-112865907D02*
X171600380Y-112913526D01*
X171600380Y-112913526D02*
X171505142Y-112961145D01*
X171505142Y-112961145D02*
X171219428Y-112961145D01*
X171219428Y-112961145D02*
X171124190Y-112913526D01*
X171124190Y-112913526D02*
X171076571Y-112865907D01*
X171076571Y-112865907D02*
X171028952Y-112770669D01*
X171028952Y-112770669D02*
X171028952Y-112580193D01*
X171028952Y-112580193D02*
X171076571Y-112484955D01*
X171028952Y-112199240D02*
X171028952Y-111818288D01*
X170695619Y-112056383D02*
X171552761Y-112056383D01*
X171552761Y-112056383D02*
X171648000Y-112008764D01*
X171648000Y-112008764D02*
X171695619Y-111913526D01*
X171695619Y-111913526D02*
X171695619Y-111818288D01*
X171695619Y-111484954D02*
X171028952Y-111484954D01*
X170695619Y-111484954D02*
X170743238Y-111532573D01*
X170743238Y-111532573D02*
X170790857Y-111484954D01*
X170790857Y-111484954D02*
X170743238Y-111437335D01*
X170743238Y-111437335D02*
X170695619Y-111484954D01*
X170695619Y-111484954D02*
X170790857Y-111484954D01*
X171695619Y-110865907D02*
X171648000Y-110961145D01*
X171648000Y-110961145D02*
X171600380Y-111008764D01*
X171600380Y-111008764D02*
X171505142Y-111056383D01*
X171505142Y-111056383D02*
X171219428Y-111056383D01*
X171219428Y-111056383D02*
X171124190Y-111008764D01*
X171124190Y-111008764D02*
X171076571Y-110961145D01*
X171076571Y-110961145D02*
X171028952Y-110865907D01*
X171028952Y-110865907D02*
X171028952Y-110723050D01*
X171028952Y-110723050D02*
X171076571Y-110627812D01*
X171076571Y-110627812D02*
X171124190Y-110580193D01*
X171124190Y-110580193D02*
X171219428Y-110532574D01*
X171219428Y-110532574D02*
X171505142Y-110532574D01*
X171505142Y-110532574D02*
X171600380Y-110580193D01*
X171600380Y-110580193D02*
X171648000Y-110627812D01*
X171648000Y-110627812D02*
X171695619Y-110723050D01*
X171695619Y-110723050D02*
X171695619Y-110865907D01*
X171028952Y-110104002D02*
X171695619Y-110104002D01*
X171124190Y-110104002D02*
X171076571Y-110056383D01*
X171076571Y-110056383D02*
X171028952Y-109961145D01*
X171028952Y-109961145D02*
X171028952Y-109818288D01*
X171028952Y-109818288D02*
X171076571Y-109723050D01*
X171076571Y-109723050D02*
X171171809Y-109675431D01*
X171171809Y-109675431D02*
X171695619Y-109675431D01*
X170695619Y-108532573D02*
X171695619Y-108294478D01*
X171695619Y-108294478D02*
X170981333Y-108104002D01*
X170981333Y-108104002D02*
X171695619Y-107913526D01*
X171695619Y-107913526D02*
X170695619Y-107675431D01*
X171695619Y-107294478D02*
X170695619Y-107294478D01*
X171695619Y-106865907D02*
X171171809Y-106865907D01*
X171171809Y-106865907D02*
X171076571Y-106913526D01*
X171076571Y-106913526D02*
X171028952Y-107008764D01*
X171028952Y-107008764D02*
X171028952Y-107151621D01*
X171028952Y-107151621D02*
X171076571Y-107246859D01*
X171076571Y-107246859D02*
X171124190Y-107294478D01*
X171648000Y-106008764D02*
X171695619Y-106104002D01*
X171695619Y-106104002D02*
X171695619Y-106294478D01*
X171695619Y-106294478D02*
X171648000Y-106389716D01*
X171648000Y-106389716D02*
X171552761Y-106437335D01*
X171552761Y-106437335D02*
X171171809Y-106437335D01*
X171171809Y-106437335D02*
X171076571Y-106389716D01*
X171076571Y-106389716D02*
X171028952Y-106294478D01*
X171028952Y-106294478D02*
X171028952Y-106104002D01*
X171028952Y-106104002D02*
X171076571Y-106008764D01*
X171076571Y-106008764D02*
X171171809Y-105961145D01*
X171171809Y-105961145D02*
X171267047Y-105961145D01*
X171267047Y-105961145D02*
X171362285Y-106437335D01*
X171648000Y-105151621D02*
X171695619Y-105246859D01*
X171695619Y-105246859D02*
X171695619Y-105437335D01*
X171695619Y-105437335D02*
X171648000Y-105532573D01*
X171648000Y-105532573D02*
X171552761Y-105580192D01*
X171552761Y-105580192D02*
X171171809Y-105580192D01*
X171171809Y-105580192D02*
X171076571Y-105532573D01*
X171076571Y-105532573D02*
X171028952Y-105437335D01*
X171028952Y-105437335D02*
X171028952Y-105246859D01*
X171028952Y-105246859D02*
X171076571Y-105151621D01*
X171076571Y-105151621D02*
X171171809Y-105104002D01*
X171171809Y-105104002D02*
X171267047Y-105104002D01*
X171267047Y-105104002D02*
X171362285Y-105580192D01*
X171695619Y-104532573D02*
X171648000Y-104627811D01*
X171648000Y-104627811D02*
X171552761Y-104675430D01*
X171552761Y-104675430D02*
X170695619Y-104675430D01*
X171171809Y-103056382D02*
X171219428Y-102913525D01*
X171219428Y-102913525D02*
X171267047Y-102865906D01*
X171267047Y-102865906D02*
X171362285Y-102818287D01*
X171362285Y-102818287D02*
X171505142Y-102818287D01*
X171505142Y-102818287D02*
X171600380Y-102865906D01*
X171600380Y-102865906D02*
X171648000Y-102913525D01*
X171648000Y-102913525D02*
X171695619Y-103008763D01*
X171695619Y-103008763D02*
X171695619Y-103389715D01*
X171695619Y-103389715D02*
X170695619Y-103389715D01*
X170695619Y-103389715D02*
X170695619Y-103056382D01*
X170695619Y-103056382D02*
X170743238Y-102961144D01*
X170743238Y-102961144D02*
X170790857Y-102913525D01*
X170790857Y-102913525D02*
X170886095Y-102865906D01*
X170886095Y-102865906D02*
X170981333Y-102865906D01*
X170981333Y-102865906D02*
X171076571Y-102913525D01*
X171076571Y-102913525D02*
X171124190Y-102961144D01*
X171124190Y-102961144D02*
X171171809Y-103056382D01*
X171171809Y-103056382D02*
X171171809Y-103389715D01*
X171695619Y-102246858D02*
X171648000Y-102342096D01*
X171648000Y-102342096D02*
X171600380Y-102389715D01*
X171600380Y-102389715D02*
X171505142Y-102437334D01*
X171505142Y-102437334D02*
X171219428Y-102437334D01*
X171219428Y-102437334D02*
X171124190Y-102389715D01*
X171124190Y-102389715D02*
X171076571Y-102342096D01*
X171076571Y-102342096D02*
X171028952Y-102246858D01*
X171028952Y-102246858D02*
X171028952Y-102104001D01*
X171028952Y-102104001D02*
X171076571Y-102008763D01*
X171076571Y-102008763D02*
X171124190Y-101961144D01*
X171124190Y-101961144D02*
X171219428Y-101913525D01*
X171219428Y-101913525D02*
X171505142Y-101913525D01*
X171505142Y-101913525D02*
X171600380Y-101961144D01*
X171600380Y-101961144D02*
X171648000Y-102008763D01*
X171648000Y-102008763D02*
X171695619Y-102104001D01*
X171695619Y-102104001D02*
X171695619Y-102246858D01*
X171695619Y-101056382D02*
X171171809Y-101056382D01*
X171171809Y-101056382D02*
X171076571Y-101104001D01*
X171076571Y-101104001D02*
X171028952Y-101199239D01*
X171028952Y-101199239D02*
X171028952Y-101389715D01*
X171028952Y-101389715D02*
X171076571Y-101484953D01*
X171648000Y-101056382D02*
X171695619Y-101151620D01*
X171695619Y-101151620D02*
X171695619Y-101389715D01*
X171695619Y-101389715D02*
X171648000Y-101484953D01*
X171648000Y-101484953D02*
X171552761Y-101532572D01*
X171552761Y-101532572D02*
X171457523Y-101532572D01*
X171457523Y-101532572D02*
X171362285Y-101484953D01*
X171362285Y-101484953D02*
X171314666Y-101389715D01*
X171314666Y-101389715D02*
X171314666Y-101151620D01*
X171314666Y-101151620D02*
X171267047Y-101056382D01*
X171695619Y-100580191D02*
X171028952Y-100580191D01*
X171219428Y-100580191D02*
X171124190Y-100532572D01*
X171124190Y-100532572D02*
X171076571Y-100484953D01*
X171076571Y-100484953D02*
X171028952Y-100389715D01*
X171028952Y-100389715D02*
X171028952Y-100294477D01*
X171695619Y-99532572D02*
X170695619Y-99532572D01*
X171648000Y-99532572D02*
X171695619Y-99627810D01*
X171695619Y-99627810D02*
X171695619Y-99818286D01*
X171695619Y-99818286D02*
X171648000Y-99913524D01*
X171648000Y-99913524D02*
X171600380Y-99961143D01*
X171600380Y-99961143D02*
X171505142Y-100008762D01*
X171505142Y-100008762D02*
X171219428Y-100008762D01*
X171219428Y-100008762D02*
X171124190Y-99961143D01*
X171124190Y-99961143D02*
X171076571Y-99913524D01*
X171076571Y-99913524D02*
X171028952Y-99818286D01*
X171028952Y-99818286D02*
X171028952Y-99627810D01*
X171028952Y-99627810D02*
X171076571Y-99532572D01*
X170695619Y-98437333D02*
X171695619Y-98104000D01*
X171695619Y-98104000D02*
X170695619Y-97770667D01*
X171695619Y-96913524D02*
X171695619Y-97484952D01*
X171695619Y-97199238D02*
X170695619Y-97199238D01*
X170695619Y-97199238D02*
X170838476Y-97294476D01*
X170838476Y-97294476D02*
X170933714Y-97389714D01*
X170933714Y-97389714D02*
X170981333Y-97484952D01*
D11*
X152778064Y-77783485D02*
X152816160Y-77745390D01*
X152816160Y-77745390D02*
X152892350Y-77707295D01*
X152892350Y-77707295D02*
X153082826Y-77707295D01*
X153082826Y-77707295D02*
X153159017Y-77745390D01*
X153159017Y-77745390D02*
X153197112Y-77783485D01*
X153197112Y-77783485D02*
X153235207Y-77859676D01*
X153235207Y-77859676D02*
X153235207Y-77935866D01*
X153235207Y-77935866D02*
X153197112Y-78050152D01*
X153197112Y-78050152D02*
X152739969Y-78507295D01*
X152739969Y-78507295D02*
X153235207Y-78507295D01*
X153920922Y-77973961D02*
X153920922Y-78507295D01*
X153730446Y-77669200D02*
X153539969Y-78240628D01*
X153539969Y-78240628D02*
X154035208Y-78240628D01*
X154225684Y-77707295D02*
X154492351Y-78507295D01*
X154492351Y-78507295D02*
X154759017Y-77707295D01*
D10*
X146614885Y-120366041D02*
X146576790Y-120327945D01*
X146576790Y-120327945D02*
X146538695Y-120251755D01*
X146538695Y-120251755D02*
X146538695Y-120061279D01*
X146538695Y-120061279D02*
X146576790Y-119985088D01*
X146576790Y-119985088D02*
X146614885Y-119946993D01*
X146614885Y-119946993D02*
X146691076Y-119908898D01*
X146691076Y-119908898D02*
X146767266Y-119908898D01*
X146767266Y-119908898D02*
X146881552Y-119946993D01*
X146881552Y-119946993D02*
X147338695Y-120404136D01*
X147338695Y-120404136D02*
X147338695Y-119908898D01*
X146805361Y-119223183D02*
X147338695Y-119223183D01*
X146500600Y-119413659D02*
X147072028Y-119604136D01*
X147072028Y-119604136D02*
X147072028Y-119108897D01*
X146538695Y-118918421D02*
X147338695Y-118651754D01*
X147338695Y-118651754D02*
X146538695Y-118385088D01*
D11*
X153197112Y-80755295D02*
X152816160Y-80755295D01*
X152816160Y-80755295D02*
X152778064Y-81136247D01*
X152778064Y-81136247D02*
X152816160Y-81098152D01*
X152816160Y-81098152D02*
X152892350Y-81060057D01*
X152892350Y-81060057D02*
X153082826Y-81060057D01*
X153082826Y-81060057D02*
X153159017Y-81098152D01*
X153159017Y-81098152D02*
X153197112Y-81136247D01*
X153197112Y-81136247D02*
X153235207Y-81212438D01*
X153235207Y-81212438D02*
X153235207Y-81402914D01*
X153235207Y-81402914D02*
X153197112Y-81479104D01*
X153197112Y-81479104D02*
X153159017Y-81517200D01*
X153159017Y-81517200D02*
X153082826Y-81555295D01*
X153082826Y-81555295D02*
X152892350Y-81555295D01*
X152892350Y-81555295D02*
X152816160Y-81517200D01*
X152816160Y-81517200D02*
X152778064Y-81479104D01*
X153463779Y-80755295D02*
X153730446Y-81555295D01*
X153730446Y-81555295D02*
X153997112Y-80755295D01*
D10*
X138918695Y-119934231D02*
X139718695Y-119667564D01*
X139718695Y-119667564D02*
X138918695Y-119400898D01*
X139718695Y-119134231D02*
X138918695Y-119134231D01*
X139718695Y-118753279D02*
X138918695Y-118753279D01*
X138918695Y-118753279D02*
X139718695Y-118296136D01*
X139718695Y-118296136D02*
X138918695Y-118296136D01*
X127080768Y-93960695D02*
X127347435Y-94760695D01*
X127347435Y-94760695D02*
X127614101Y-93960695D01*
X127880768Y-94760695D02*
X127880768Y-93960695D01*
X128261720Y-94760695D02*
X128261720Y-93960695D01*
X128261720Y-93960695D02*
X128718863Y-94760695D01*
X128718863Y-94760695D02*
X128718863Y-93960695D01*
X143528695Y-119108802D02*
X143147742Y-119375469D01*
X143528695Y-119565945D02*
X142728695Y-119565945D01*
X142728695Y-119565945D02*
X142728695Y-119261183D01*
X142728695Y-119261183D02*
X142766790Y-119184993D01*
X142766790Y-119184993D02*
X142804885Y-119146898D01*
X142804885Y-119146898D02*
X142881076Y-119108802D01*
X142881076Y-119108802D02*
X142995361Y-119108802D01*
X142995361Y-119108802D02*
X143071552Y-119146898D01*
X143071552Y-119146898D02*
X143109647Y-119184993D01*
X143109647Y-119184993D02*
X143147742Y-119261183D01*
X143147742Y-119261183D02*
X143147742Y-119565945D01*
X142728695Y-118842136D02*
X143528695Y-118308802D01*
X142728695Y-118308802D02*
X143528695Y-118842136D01*
X140099790Y-119908898D02*
X140061695Y-119985088D01*
X140061695Y-119985088D02*
X140061695Y-120099374D01*
X140061695Y-120099374D02*
X140099790Y-120213660D01*
X140099790Y-120213660D02*
X140175980Y-120289850D01*
X140175980Y-120289850D02*
X140252171Y-120327945D01*
X140252171Y-120327945D02*
X140404552Y-120366041D01*
X140404552Y-120366041D02*
X140518838Y-120366041D01*
X140518838Y-120366041D02*
X140671219Y-120327945D01*
X140671219Y-120327945D02*
X140747409Y-120289850D01*
X140747409Y-120289850D02*
X140823600Y-120213660D01*
X140823600Y-120213660D02*
X140861695Y-120099374D01*
X140861695Y-120099374D02*
X140861695Y-120023183D01*
X140861695Y-120023183D02*
X140823600Y-119908898D01*
X140823600Y-119908898D02*
X140785504Y-119870802D01*
X140785504Y-119870802D02*
X140518838Y-119870802D01*
X140518838Y-119870802D02*
X140518838Y-120023183D01*
X140861695Y-119527945D02*
X140061695Y-119527945D01*
X140061695Y-119527945D02*
X140861695Y-119070802D01*
X140861695Y-119070802D02*
X140061695Y-119070802D01*
X140861695Y-118689850D02*
X140061695Y-118689850D01*
X140061695Y-118689850D02*
X140061695Y-118499374D01*
X140061695Y-118499374D02*
X140099790Y-118385088D01*
X140099790Y-118385088D02*
X140175980Y-118308898D01*
X140175980Y-118308898D02*
X140252171Y-118270803D01*
X140252171Y-118270803D02*
X140404552Y-118232707D01*
X140404552Y-118232707D02*
X140518838Y-118232707D01*
X140518838Y-118232707D02*
X140671219Y-118270803D01*
X140671219Y-118270803D02*
X140747409Y-118308898D01*
X140747409Y-118308898D02*
X140823600Y-118385088D01*
X140823600Y-118385088D02*
X140861695Y-118499374D01*
X140861695Y-118499374D02*
X140861695Y-118689850D01*
X130027101Y-106317790D02*
X129950911Y-106279695D01*
X129950911Y-106279695D02*
X129836625Y-106279695D01*
X129836625Y-106279695D02*
X129722339Y-106317790D01*
X129722339Y-106317790D02*
X129646149Y-106393980D01*
X129646149Y-106393980D02*
X129608054Y-106470171D01*
X129608054Y-106470171D02*
X129569958Y-106622552D01*
X129569958Y-106622552D02*
X129569958Y-106736838D01*
X129569958Y-106736838D02*
X129608054Y-106889219D01*
X129608054Y-106889219D02*
X129646149Y-106965409D01*
X129646149Y-106965409D02*
X129722339Y-107041600D01*
X129722339Y-107041600D02*
X129836625Y-107079695D01*
X129836625Y-107079695D02*
X129912816Y-107079695D01*
X129912816Y-107079695D02*
X130027101Y-107041600D01*
X130027101Y-107041600D02*
X130065197Y-107003504D01*
X130065197Y-107003504D02*
X130065197Y-106736838D01*
X130065197Y-106736838D02*
X129912816Y-106736838D01*
X130369958Y-106851123D02*
X130750911Y-106851123D01*
X130293768Y-107079695D02*
X130560435Y-106279695D01*
X130560435Y-106279695D02*
X130827101Y-107079695D01*
X130979482Y-106279695D02*
X131436625Y-106279695D01*
X131208053Y-107079695D02*
X131208053Y-106279695D01*
X131703292Y-106660647D02*
X131969958Y-106660647D01*
X132084244Y-107079695D02*
X131703292Y-107079695D01*
X131703292Y-107079695D02*
X131703292Y-106279695D01*
X131703292Y-106279695D02*
X132084244Y-106279695D01*
X137648695Y-119934231D02*
X138448695Y-119667564D01*
X138448695Y-119667564D02*
X137648695Y-119400898D01*
X138448695Y-119134231D02*
X137648695Y-119134231D01*
X138448695Y-118753279D02*
X137648695Y-118753279D01*
X137648695Y-118753279D02*
X138448695Y-118296136D01*
X138448695Y-118296136D02*
X137648695Y-118296136D01*
D11*
X150796826Y-84057247D02*
X150530160Y-84057247D01*
X150530160Y-84476295D02*
X150530160Y-83676295D01*
X150530160Y-83676295D02*
X150911112Y-83676295D01*
X151177778Y-84247723D02*
X151558731Y-84247723D01*
X151101588Y-84476295D02*
X151368255Y-83676295D01*
X151368255Y-83676295D02*
X151634921Y-84476295D01*
X151901588Y-83676295D02*
X151901588Y-84323914D01*
X151901588Y-84323914D02*
X151939683Y-84400104D01*
X151939683Y-84400104D02*
X151977778Y-84438200D01*
X151977778Y-84438200D02*
X152053969Y-84476295D01*
X152053969Y-84476295D02*
X152206350Y-84476295D01*
X152206350Y-84476295D02*
X152282540Y-84438200D01*
X152282540Y-84438200D02*
X152320635Y-84400104D01*
X152320635Y-84400104D02*
X152358731Y-84323914D01*
X152358731Y-84323914D02*
X152358731Y-83676295D01*
X153120635Y-84476295D02*
X152739683Y-84476295D01*
X152739683Y-84476295D02*
X152739683Y-83676295D01*
X153273016Y-83676295D02*
X153730159Y-83676295D01*
X153501587Y-84476295D02*
X153501587Y-83676295D01*
D10*
X141496790Y-119908898D02*
X141458695Y-119985088D01*
X141458695Y-119985088D02*
X141458695Y-120099374D01*
X141458695Y-120099374D02*
X141496790Y-120213660D01*
X141496790Y-120213660D02*
X141572980Y-120289850D01*
X141572980Y-120289850D02*
X141649171Y-120327945D01*
X141649171Y-120327945D02*
X141801552Y-120366041D01*
X141801552Y-120366041D02*
X141915838Y-120366041D01*
X141915838Y-120366041D02*
X142068219Y-120327945D01*
X142068219Y-120327945D02*
X142144409Y-120289850D01*
X142144409Y-120289850D02*
X142220600Y-120213660D01*
X142220600Y-120213660D02*
X142258695Y-120099374D01*
X142258695Y-120099374D02*
X142258695Y-120023183D01*
X142258695Y-120023183D02*
X142220600Y-119908898D01*
X142220600Y-119908898D02*
X142182504Y-119870802D01*
X142182504Y-119870802D02*
X141915838Y-119870802D01*
X141915838Y-119870802D02*
X141915838Y-120023183D01*
X142258695Y-119527945D02*
X141458695Y-119527945D01*
X141458695Y-119527945D02*
X142258695Y-119070802D01*
X142258695Y-119070802D02*
X141458695Y-119070802D01*
X142258695Y-118689850D02*
X141458695Y-118689850D01*
X141458695Y-118689850D02*
X141458695Y-118499374D01*
X141458695Y-118499374D02*
X141496790Y-118385088D01*
X141496790Y-118385088D02*
X141572980Y-118308898D01*
X141572980Y-118308898D02*
X141649171Y-118270803D01*
X141649171Y-118270803D02*
X141801552Y-118232707D01*
X141801552Y-118232707D02*
X141915838Y-118232707D01*
X141915838Y-118232707D02*
X142068219Y-118270803D01*
X142068219Y-118270803D02*
X142144409Y-118308898D01*
X142144409Y-118308898D02*
X142220600Y-118385088D01*
X142220600Y-118385088D02*
X142258695Y-118499374D01*
X142258695Y-118499374D02*
X142258695Y-118689850D01*
X141927054Y-108222695D02*
X141927054Y-107422695D01*
X141927054Y-107422695D02*
X142117530Y-107422695D01*
X142117530Y-107422695D02*
X142231816Y-107460790D01*
X142231816Y-107460790D02*
X142308006Y-107536980D01*
X142308006Y-107536980D02*
X142346101Y-107613171D01*
X142346101Y-107613171D02*
X142384197Y-107765552D01*
X142384197Y-107765552D02*
X142384197Y-107879838D01*
X142384197Y-107879838D02*
X142346101Y-108032219D01*
X142346101Y-108032219D02*
X142308006Y-108108409D01*
X142308006Y-108108409D02*
X142231816Y-108184600D01*
X142231816Y-108184600D02*
X142117530Y-108222695D01*
X142117530Y-108222695D02*
X141927054Y-108222695D01*
X143184197Y-108222695D02*
X142917530Y-107841742D01*
X142727054Y-108222695D02*
X142727054Y-107422695D01*
X142727054Y-107422695D02*
X143031816Y-107422695D01*
X143031816Y-107422695D02*
X143108006Y-107460790D01*
X143108006Y-107460790D02*
X143146101Y-107498885D01*
X143146101Y-107498885D02*
X143184197Y-107575076D01*
X143184197Y-107575076D02*
X143184197Y-107689361D01*
X143184197Y-107689361D02*
X143146101Y-107765552D01*
X143146101Y-107765552D02*
X143108006Y-107803647D01*
X143108006Y-107803647D02*
X143031816Y-107841742D01*
X143031816Y-107841742D02*
X142727054Y-107841742D01*
X143488958Y-107994123D02*
X143869911Y-107994123D01*
X143412768Y-108222695D02*
X143679435Y-107422695D01*
X143679435Y-107422695D02*
X143946101Y-108222695D01*
X144212768Y-108222695D02*
X144212768Y-107422695D01*
X144593720Y-108222695D02*
X144593720Y-107422695D01*
X144593720Y-107422695D02*
X145050863Y-108222695D01*
X145050863Y-108222695D02*
X145050863Y-107422695D01*
D13*
X154786359Y-88774000D02*
X155093641Y-88774000D01*
X154786359Y-89534000D02*
X155093641Y-89534000D01*
X165461836Y-83838500D02*
X165246164Y-83838500D01*
X165461836Y-84558500D02*
X165246164Y-84558500D01*
X169516359Y-96521000D02*
X169823641Y-96521000D01*
X169516359Y-97281000D02*
X169823641Y-97281000D01*
X140016000Y-106996000D02*
X141416000Y-106996000D01*
X140016000Y-108396000D02*
X140016000Y-106996000D01*
X141416000Y-106996000D02*
X141416000Y-108396000D01*
X141416000Y-108396000D02*
X140016000Y-108396000D01*
X131888000Y-92772000D02*
X133288000Y-92772000D01*
X131888000Y-94172000D02*
X131888000Y-92772000D01*
X133288000Y-92772000D02*
X133288000Y-94172000D01*
X133288000Y-94172000D02*
X131888000Y-94172000D01*
X131367559Y-95886000D02*
X131674841Y-95886000D01*
X131367559Y-96646000D02*
X131674841Y-96646000D01*
X151120000Y-115403641D02*
X151120000Y-115096359D01*
X151880000Y-115403641D02*
X151880000Y-115096359D01*
X147972359Y-77725000D02*
X148279641Y-77725000D01*
X147972359Y-78485000D02*
X148279641Y-78485000D01*
X132494636Y-97669000D02*
X132278964Y-97669000D01*
X132494636Y-98389000D02*
X132278964Y-98389000D01*
X139300641Y-93899000D02*
X138993359Y-93899000D01*
X139300641Y-94659000D02*
X138993359Y-94659000D01*
X146297764Y-85492000D02*
X146513436Y-85492000D01*
X146297764Y-86212000D02*
X146513436Y-86212000D01*
X138924420Y-99977000D02*
X139205580Y-99977000D01*
X138924420Y-100997000D02*
X139205580Y-100997000D01*
X167989000Y-87237000D02*
X171609000Y-87237000D01*
X167989000Y-93357000D02*
X167989000Y-87237000D01*
X171609000Y-87237000D02*
X171609000Y-93357000D01*
X171609000Y-93357000D02*
X167989000Y-93357000D01*
X149353000Y-84301359D02*
X149353000Y-84608641D01*
X150113000Y-84301359D02*
X150113000Y-84608641D01*
X128144000Y-98832641D02*
X128144000Y-98525359D01*
X128904000Y-98832641D02*
X128904000Y-98525359D01*
X132609000Y-89007836D02*
X132609000Y-88792164D01*
X133329000Y-89007836D02*
X133329000Y-88792164D01*
X131966580Y-112139000D02*
X131685420Y-112139000D01*
X131966580Y-113159000D02*
X131685420Y-113159000D01*
X139392164Y-88390000D02*
X139607836Y-88390000D01*
X139392164Y-89110000D02*
X139607836Y-89110000D01*
X136509000Y-116139000D02*
X136509000Y-121859000D01*
X136509000Y-121859000D02*
X142494000Y-121859000D01*
X137579000Y-116139000D02*
X136509000Y-116139000D01*
X137579000Y-116439000D02*
X137579000Y-116139000D01*
X137869000Y-115849000D02*
X137369000Y-115849000D01*
X137869000Y-116149000D02*
X137869000Y-115849000D01*
X142494000Y-116439000D02*
X137579000Y-116439000D01*
X142494000Y-116439000D02*
X147409000Y-116439000D01*
X147409000Y-116139000D02*
X148479000Y-116139000D01*
X147409000Y-116439000D02*
X147409000Y-116139000D01*
X148479000Y-116139000D02*
X148479000Y-121859000D01*
X148479000Y-121859000D02*
X142494000Y-121859000D01*
X147982359Y-79249000D02*
X148289641Y-79249000D01*
X147982359Y-80009000D02*
X148289641Y-80009000D01*
D14*
X160694076Y-97085685D02*
X161577959Y-97969569D01*
X161754736Y-98499899D02*
X161754736Y-98499899D01*
X161825447Y-98429188D02*
X161825447Y-98429188D01*
X162709330Y-94999720D02*
X163663924Y-95954315D01*
X161754736Y-98499899D02*
G75*
G02*
X161825446Y-98429189I35355J35355D01*
G01*
X161825447Y-98429188D02*
G75*
G02*
X161754736Y-98499899I-35353J-35358D01*
G01*
D13*
X132888400Y-104336964D02*
X132888400Y-104552636D01*
X133608400Y-104336964D02*
X133608400Y-104552636D01*
X134240000Y-101603359D02*
X134240000Y-101910641D01*
X135000000Y-101603359D02*
X135000000Y-101910641D01*
X133625000Y-90951164D02*
X133625000Y-91166836D01*
X134345000Y-90951164D02*
X134345000Y-91166836D01*
X159660000Y-82457164D02*
X159660000Y-82672836D01*
X160380000Y-82457164D02*
X160380000Y-82672836D01*
X130663836Y-85873000D02*
X130448164Y-85873000D01*
X130663836Y-86593000D02*
X130448164Y-86593000D01*
X133625000Y-86721836D02*
X133625000Y-86506164D01*
X134345000Y-86721836D02*
X134345000Y-86506164D01*
X158624000Y-82718641D02*
X158624000Y-82411359D01*
X159384000Y-82718641D02*
X159384000Y-82411359D01*
X162620000Y-117903641D02*
X162620000Y-117596359D01*
X163380000Y-117903641D02*
X163380000Y-117596359D01*
X132492636Y-98685000D02*
X132276964Y-98685000D01*
X132492636Y-99405000D02*
X132276964Y-99405000D01*
X145761039Y-81621498D02*
X145761039Y-82144002D01*
X147231039Y-81621498D02*
X147231039Y-82144002D01*
D15*
X135160000Y-109506000D02*
X139160000Y-109506000D01*
X135160000Y-111886000D02*
X135160000Y-111126000D01*
X135160000Y-113506000D02*
X139160000Y-113506000D01*
X139160000Y-111886000D02*
X139160000Y-111126000D01*
D10*
X137260000Y-114006000D02*
G75*
G02*
X137060000Y-114006000I-100000J0D01*
G01*
X137060000Y-114006000D02*
G75*
G02*
X137260000Y-114006000I100000J0D01*
G01*
D13*
X148249681Y-80777909D02*
X148556963Y-80777909D01*
X148249681Y-81537909D02*
X148556963Y-81537909D01*
X134646641Y-87885000D02*
X134339359Y-87885000D01*
X134646641Y-88645000D02*
X134339359Y-88645000D01*
X128037000Y-104286164D02*
X128037000Y-104501836D01*
X128757000Y-104286164D02*
X128757000Y-104501836D01*
X133758000Y-83177748D02*
X133758000Y-83700252D01*
X135228000Y-83177748D02*
X135228000Y-83700252D01*
X168883359Y-114301000D02*
X169190641Y-114301000D01*
X168883359Y-115061000D02*
X169190641Y-115061000D01*
D10*
X142545000Y-79837600D02*
X145745000Y-79837600D01*
X145745000Y-77337600D02*
X142545000Y-77337600D01*
D13*
X156664000Y-84876000D02*
X156664000Y-84641000D01*
X156664000Y-91621000D02*
X156664000Y-91146000D01*
X157139000Y-84401000D02*
X156964000Y-84401000D01*
X157139000Y-91621000D02*
X156664000Y-91621000D01*
X163409000Y-84401000D02*
X163884000Y-84401000D01*
X163409000Y-91621000D02*
X163884000Y-91621000D01*
X163884000Y-84401000D02*
X163884000Y-84876000D01*
X163884000Y-91621000D02*
X163884000Y-91146000D01*
X156664000Y-84401000D02*
X156424000Y-84071000D01*
X156904000Y-84071000D01*
X156664000Y-84401000D01*
G36*
X156664000Y-84401000D02*
G01*
X156424000Y-84071000D01*
X156904000Y-84071000D01*
X156664000Y-84401000D01*
G37*
X140483000Y-80244836D02*
X140483000Y-80029164D01*
X141203000Y-80244836D02*
X141203000Y-80029164D01*
X134240000Y-99571359D02*
X134240000Y-99878641D01*
X135000000Y-99571359D02*
X135000000Y-99878641D01*
D14*
X156780000Y-108913000D02*
X158130000Y-108913000D01*
X156830000Y-111813000D02*
X158080000Y-111813000D01*
X158580000Y-111963000D02*
X158580000Y-111963000D01*
X158580000Y-112063000D02*
X158580000Y-112063000D01*
X158580000Y-111963000D02*
G75*
G02*
X158580000Y-112063000I0J-50000D01*
G01*
X158580000Y-112063000D02*
G75*
G02*
X158580000Y-111963000I0J50000D01*
G01*
D13*
X134646641Y-89028000D02*
X134339359Y-89028000D01*
X134646641Y-89788000D02*
X134339359Y-89788000D01*
X131674841Y-94743000D02*
X131367559Y-94743000D01*
X131674841Y-95503000D02*
X131367559Y-95503000D01*
X150050500Y-81888000D02*
X152335500Y-81888000D01*
X152335500Y-80418000D02*
X150050500Y-80418000D01*
X152335500Y-81888000D02*
X152335500Y-80418000D01*
X150076000Y-80364000D02*
X152361000Y-80364000D01*
X152361000Y-78894000D02*
X150076000Y-78894000D01*
X152361000Y-80364000D02*
X152361000Y-78894000D01*
D10*
X127455000Y-88625000D02*
X130355000Y-88625000D01*
X127455000Y-89175000D02*
X127455000Y-88625000D01*
X130355000Y-88625000D02*
X130355000Y-89175000D01*
X130355000Y-89175000D02*
X127455000Y-89175000D01*
X130505000Y-87025000D02*
X130505000Y-88275000D01*
X135297000Y-107594000D02*
X135297000Y-104319000D01*
D14*
X137847000Y-103644000D02*
X137847000Y-103644000D01*
X137947000Y-103644000D02*
X137947000Y-103644000D01*
D10*
X138597000Y-107569000D02*
X138597000Y-104294000D01*
D14*
X137847000Y-103644000D02*
G75*
G02*
X137947000Y-103644000I50000J0D01*
G01*
X137947000Y-103644000D02*
G75*
G02*
X137847000Y-103644000I-50000J0D01*
G01*
D13*
X157950000Y-78713000D02*
X160235000Y-78713000D01*
X160235000Y-77243000D02*
X157950000Y-77243000D01*
X160235000Y-78713000D02*
X160235000Y-77243000D01*
X150076000Y-83412000D02*
X152361000Y-83412000D01*
X152361000Y-81942000D02*
X150076000Y-81942000D01*
X152361000Y-83412000D02*
X152361000Y-81942000D01*
X150076000Y-78840000D02*
X152361000Y-78840000D01*
X152361000Y-77370000D02*
X150076000Y-77370000D01*
X152361000Y-78840000D02*
X152361000Y-77370000D01*
X135002600Y-80277252D02*
X135002600Y-79754748D01*
X136472600Y-80277252D02*
X136472600Y-79754748D01*
X132523000Y-105853000D02*
X133923000Y-105853000D01*
X132523000Y-107253000D02*
X132523000Y-105853000D01*
X133923000Y-105853000D02*
X133923000Y-107253000D01*
X133923000Y-107253000D02*
X132523000Y-107253000D01*
X127189000Y-95312000D02*
X128589000Y-95312000D01*
X127189000Y-96712000D02*
X127189000Y-95312000D01*
X128589000Y-95312000D02*
X128589000Y-96712000D01*
X128589000Y-96712000D02*
X127189000Y-96712000D01*
X166726000Y-95805164D02*
X166726000Y-96020836D01*
X167446000Y-95805164D02*
X167446000Y-96020836D01*
X131966580Y-113790000D02*
X131685420Y-113790000D01*
X131966580Y-114810000D02*
X131685420Y-114810000D01*
X143384000Y-89307641D02*
X143384000Y-89000359D01*
X144144000Y-89307641D02*
X144144000Y-89000359D01*
D10*
X154432000Y-82120000D02*
X154432000Y-82120000D01*
X154432000Y-82120000D02*
X154432000Y-82120000D01*
X154432000Y-82220000D02*
X154432000Y-82220000D01*
X154432000Y-82120000D02*
G75*
G02*
X154432000Y-82220000I0J-50000D01*
G01*
X154432000Y-82220000D02*
G75*
G02*
X154432000Y-82120000I0J50000D01*
G01*
X154432000Y-82220000D02*
G75*
G02*
X154432000Y-82120000I0J50000D01*
G01*
D13*
X154451164Y-86000000D02*
X154666836Y-86000000D01*
X154451164Y-86720000D02*
X154666836Y-86720000D01*
X147402596Y-84369152D02*
X147402596Y-84676434D01*
X148162596Y-84369152D02*
X148162596Y-84676434D01*
X164085000Y-79475359D02*
X164085000Y-79782641D01*
X164845000Y-79475359D02*
X164845000Y-79782641D01*
X138993359Y-94915000D02*
X139300641Y-94915000D01*
X138993359Y-95675000D02*
X139300641Y-95675000D01*
X159164000Y-93306336D02*
X159164000Y-93090664D01*
X159884000Y-93306336D02*
X159884000Y-93090664D01*
X127001000Y-104367359D02*
X127001000Y-104674641D01*
X127761000Y-104367359D02*
X127761000Y-104674641D01*
D10*
X140361000Y-104472500D02*
G75*
G02*
X140333000Y-104472500I-14000J0D01*
G01*
X140333000Y-104472500D02*
G75*
G02*
X140361000Y-104472500I14000J0D01*
G01*
D13*
X160676000Y-82457164D02*
X160676000Y-82672836D01*
X161396000Y-82457164D02*
X161396000Y-82672836D01*
X135536000Y-100640936D02*
X135536000Y-101095064D01*
X137006000Y-100640936D02*
X137006000Y-101095064D01*
X148309175Y-82265258D02*
X148616457Y-82265258D01*
X148309175Y-83025258D02*
X148616457Y-83025258D01*
X138890000Y-80142164D02*
X138890000Y-80357836D01*
X139610000Y-80142164D02*
X139610000Y-80357836D01*
X166739641Y-97033000D02*
X166432359Y-97033000D01*
X166739641Y-97793000D02*
X166432359Y-97793000D01*
X148337000Y-84301359D02*
X148337000Y-84608641D01*
X149097000Y-84301359D02*
X149097000Y-84608641D01*
X139024164Y-96001000D02*
X139239836Y-96001000D01*
X139024164Y-96721000D02*
X139239836Y-96721000D01*
X165461836Y-84838500D02*
X165246164Y-84838500D01*
X165461836Y-85558500D02*
X165246164Y-85558500D01*
X163640000Y-117857836D02*
X163640000Y-117642164D01*
X164360000Y-117857836D02*
X164360000Y-117642164D01*
X158903641Y-78868000D02*
X158596359Y-78868000D01*
X158903641Y-79628000D02*
X158596359Y-79628000D01*
X138924420Y-101598000D02*
X139205580Y-101598000D01*
X138924420Y-102618000D02*
X139205580Y-102618000D01*
X154786359Y-89917000D02*
X155093641Y-89917000D01*
X154786359Y-90677000D02*
X155093641Y-90677000D01*
X133605000Y-119406641D02*
X133605000Y-119099359D01*
X134365000Y-119406641D02*
X134365000Y-119099359D01*
X129005359Y-83821000D02*
X129312641Y-83821000D01*
X129005359Y-84581000D02*
X129312641Y-84581000D01*
D12*
X143875000Y-82100000D02*
G75*
G02*
X143625000Y-82100000I-125000J0D01*
G01*
X143625000Y-82100000D02*
G75*
G02*
X143875000Y-82100000I125000J0D01*
G01*
D13*
X136764500Y-91964742D02*
X136764500Y-92439258D01*
X137809500Y-91964742D02*
X137809500Y-92439258D01*
X131597836Y-104527000D02*
X131382164Y-104527000D01*
X131597836Y-105247000D02*
X131382164Y-105247000D01*
X130474000Y-99848000D02*
X128974000Y-99848000D01*
X130474000Y-99848000D02*
X131974000Y-99848000D01*
X130474000Y-103068000D02*
X128974000Y-103068000D01*
X130474000Y-103068000D02*
X131974000Y-103068000D01*
X132926500Y-103223000D02*
X132446500Y-103223000D01*
X132686500Y-102893000D01*
X132926500Y-103223000D01*
G36*
X132926500Y-103223000D02*
G01*
X132446500Y-103223000D01*
X132686500Y-102893000D01*
X132926500Y-103223000D01*
G37*
X129307000Y-104286164D02*
X129307000Y-104501836D01*
X130027000Y-104286164D02*
X130027000Y-104501836D01*
X139006420Y-98341000D02*
X139287580Y-98341000D01*
X139006420Y-99361000D02*
X139287580Y-99361000D01*
X132609000Y-82696164D02*
X132609000Y-82911836D01*
X133329000Y-82696164D02*
X133329000Y-82911836D01*
X132665200Y-95502759D02*
X132665200Y-95810041D01*
X133425200Y-95502759D02*
X133425200Y-95810041D01*
X136996000Y-80271252D02*
X136996000Y-79748748D01*
X138466000Y-80271252D02*
X138466000Y-79748748D01*
X130355800Y-98383359D02*
X130355800Y-98690641D01*
X131115800Y-98383359D02*
X131115800Y-98690641D01*
X165706000Y-96066641D02*
X165706000Y-95759359D01*
X166466000Y-96066641D02*
X166466000Y-95759359D01*
X162561000Y-115342641D02*
X162561000Y-115035359D01*
X163321000Y-115342641D02*
X163321000Y-115035359D01*
X129856000Y-92772000D02*
X131256000Y-92772000D01*
X129856000Y-94172000D02*
X129856000Y-92772000D01*
X131256000Y-92772000D02*
X131256000Y-94172000D01*
X131256000Y-94172000D02*
X129856000Y-94172000D01*
X131597836Y-103511000D02*
X131382164Y-103511000D01*
X131597836Y-104231000D02*
X131382164Y-104231000D01*
X130831000Y-89134836D02*
X130831000Y-88919164D01*
X131551000Y-89134836D02*
X131551000Y-88919164D01*
D10*
X152756000Y-116730000D02*
X152756000Y-117980000D01*
X152756000Y-120700000D02*
X152756000Y-121980000D01*
X161696000Y-116730000D02*
X161696000Y-117980000D01*
X161696000Y-121980000D02*
X161696000Y-120700000D01*
X154076000Y-113380000D02*
G75*
G02*
X153876000Y-113380000I-100000J0D01*
G01*
X153876000Y-113380000D02*
G75*
G02*
X154076000Y-113380000I100000J0D01*
G01*
D13*
X154451164Y-87320800D02*
X154666836Y-87320800D01*
X154451164Y-88040800D02*
X154666836Y-88040800D01*
X139039164Y-97094000D02*
X139254836Y-97094000D01*
X139039164Y-97814000D02*
X139254836Y-97814000D01*
X127128000Y-98525359D02*
X127128000Y-98832641D01*
X127888000Y-98525359D02*
X127888000Y-98832641D01*
X156231000Y-82823164D02*
X156231000Y-83038836D01*
X156951000Y-82823164D02*
X156951000Y-83038836D01*
%LPC*%
D16*
X154376000Y-115250000D02*
X153676000Y-115250000D01*
X153676000Y-114000000D01*
X154376000Y-114000000D01*
X154376000Y-115250000D01*
G36*
X154376000Y-115250000D02*
G01*
X153676000Y-115250000D01*
X153676000Y-114000000D01*
X154376000Y-114000000D01*
X154376000Y-115250000D01*
G37*
X155176000Y-115250000D02*
X154476000Y-115250000D01*
X154476000Y-114000000D01*
X155176000Y-114000000D01*
X155176000Y-115250000D01*
G36*
X155176000Y-115250000D02*
G01*
X154476000Y-115250000D01*
X154476000Y-114000000D01*
X155176000Y-114000000D01*
X155176000Y-115250000D01*
G37*
X155676000Y-115250000D02*
X155276000Y-115250000D01*
X155276000Y-114000000D01*
X155676000Y-114000000D01*
X155676000Y-115250000D01*
G36*
X155676000Y-115250000D02*
G01*
X155276000Y-115250000D01*
X155276000Y-114000000D01*
X155676000Y-114000000D01*
X155676000Y-115250000D01*
G37*
X156176000Y-115250000D02*
X155776000Y-115250000D01*
X155776000Y-114000000D01*
X156176000Y-114000000D01*
X156176000Y-115250000D01*
G36*
X156176000Y-115250000D02*
G01*
X155776000Y-115250000D01*
X155776000Y-114000000D01*
X156176000Y-114000000D01*
X156176000Y-115250000D01*
G37*
X156676000Y-115250000D02*
X156276000Y-115250000D01*
X156276000Y-114000000D01*
X156676000Y-114000000D01*
X156676000Y-115250000D01*
G36*
X156676000Y-115250000D02*
G01*
X156276000Y-115250000D01*
X156276000Y-114000000D01*
X156676000Y-114000000D01*
X156676000Y-115250000D01*
G37*
X157176000Y-115250000D02*
X156776000Y-115250000D01*
X156776000Y-114000000D01*
X157176000Y-114000000D01*
X157176000Y-115250000D01*
G36*
X157176000Y-115250000D02*
G01*
X156776000Y-115250000D01*
X156776000Y-114000000D01*
X157176000Y-114000000D01*
X157176000Y-115250000D01*
G37*
X157676000Y-115250000D02*
X157276000Y-115250000D01*
X157276000Y-114000000D01*
X157676000Y-114000000D01*
X157676000Y-115250000D01*
G36*
X157676000Y-115250000D02*
G01*
X157276000Y-115250000D01*
X157276000Y-114000000D01*
X157676000Y-114000000D01*
X157676000Y-115250000D01*
G37*
X158176000Y-115250000D02*
X157776000Y-115250000D01*
X157776000Y-114000000D01*
X158176000Y-114000000D01*
X158176000Y-115250000D01*
G36*
X158176000Y-115250000D02*
G01*
X157776000Y-115250000D01*
X157776000Y-114000000D01*
X158176000Y-114000000D01*
X158176000Y-115250000D01*
G37*
X158676000Y-115250000D02*
X158276000Y-115250000D01*
X158276000Y-114000000D01*
X158676000Y-114000000D01*
X158676000Y-115250000D01*
G36*
X158676000Y-115250000D02*
G01*
X158276000Y-115250000D01*
X158276000Y-114000000D01*
X158676000Y-114000000D01*
X158676000Y-115250000D01*
G37*
X159176000Y-115250000D02*
X158776000Y-115250000D01*
X158776000Y-114000000D01*
X159176000Y-114000000D01*
X159176000Y-115250000D01*
G36*
X159176000Y-115250000D02*
G01*
X158776000Y-115250000D01*
X158776000Y-114000000D01*
X159176000Y-114000000D01*
X159176000Y-115250000D01*
G37*
X159976000Y-115250000D02*
X159276000Y-115250000D01*
X159276000Y-114000000D01*
X159976000Y-114000000D01*
X159976000Y-115250000D01*
G36*
X159976000Y-115250000D02*
G01*
X159276000Y-115250000D01*
X159276000Y-114000000D01*
X159976000Y-114000000D01*
X159976000Y-115250000D01*
G37*
X160776000Y-115250000D02*
X160076000Y-115250000D01*
X160076000Y-114000000D01*
X160776000Y-114000000D01*
X160776000Y-115250000D01*
G36*
X160776000Y-115250000D02*
G01*
X160076000Y-115250000D01*
X160076000Y-114000000D01*
X160776000Y-114000000D01*
X160776000Y-115250000D01*
G37*
D17*
X154430000Y-89154000D03*
X155450000Y-89154000D03*
D18*
X165834000Y-84198500D03*
X164874000Y-84198500D03*
D17*
X169160000Y-96901000D03*
X170180000Y-96901000D03*
D19*
X140716000Y-107696000D03*
D20*
X127556845Y-77772845D03*
X127556845Y-81485155D03*
D21*
X129413000Y-79629000D03*
D20*
X129413000Y-82254000D03*
X131269155Y-77772845D03*
X131269155Y-81485155D03*
X132038000Y-79629000D03*
D19*
X132588000Y-93472000D03*
D17*
X131011200Y-96266000D03*
X132031200Y-96266000D03*
D22*
X151500000Y-115760000D03*
X151500000Y-114740000D03*
D17*
X147616000Y-78105000D03*
X148636000Y-78105000D03*
D18*
X132866800Y-98029000D03*
X131906800Y-98029000D03*
D23*
X139657000Y-94279000D03*
X138637000Y-94279000D03*
D24*
X149200000Y-99500000D03*
D25*
X145925600Y-85852000D03*
X146885600Y-85852000D03*
D26*
X138290000Y-100487000D03*
X139840000Y-100487000D03*
D27*
X169799000Y-85707000D03*
X169799000Y-94887000D03*
D28*
X149733000Y-83945000D03*
X149733000Y-84965000D03*
D22*
X128524000Y-99189000D03*
X128524000Y-98169000D03*
D29*
X132969000Y-89380000D03*
X132969000Y-88420000D03*
D30*
X132601000Y-112649000D03*
X131051000Y-112649000D03*
D25*
X139020000Y-88750000D03*
X139980000Y-88750000D03*
D31*
X138119000Y-117299000D03*
D32*
X139369000Y-117299000D03*
X140619000Y-117299000D03*
X141869000Y-117299000D03*
X143119000Y-117299000D03*
X144369000Y-117299000D03*
X145619000Y-117299000D03*
X146869000Y-117299000D03*
D17*
X147626000Y-79629000D03*
X148646000Y-79629000D03*
D33*
X162355777Y-97757437D03*
D34*
X163557858Y-96555355D03*
X162143645Y-95141142D03*
X160800142Y-96484645D03*
D35*
X133248400Y-103964800D03*
X133248400Y-104924800D03*
D28*
X134620000Y-101247000D03*
X134620000Y-102267000D03*
D35*
X133985000Y-90579000D03*
X133985000Y-91539000D03*
X160020000Y-82085000D03*
X160020000Y-83045000D03*
D18*
X131036000Y-86233000D03*
X130076000Y-86233000D03*
D29*
X133985000Y-87094000D03*
X133985000Y-86134000D03*
D22*
X159004000Y-83075000D03*
X159004000Y-82055000D03*
X163000000Y-118260000D03*
X163000000Y-117240000D03*
D18*
X132864800Y-99045000D03*
X131904800Y-99045000D03*
D36*
X146496039Y-80932750D03*
X146496039Y-82832750D03*
D37*
X137160000Y-112691000D03*
X137160000Y-110321000D03*
D17*
X147893322Y-81157909D03*
X148913322Y-81157909D03*
D20*
X166412000Y-79629000D03*
X167180845Y-77772845D03*
X167180845Y-81485155D03*
D21*
X169037000Y-79629000D03*
D20*
X169037000Y-82254000D03*
X170893155Y-77772845D03*
X170893155Y-81485155D03*
D23*
X135003000Y-88265000D03*
X133983000Y-88265000D03*
D35*
X128397000Y-103914000D03*
X128397000Y-104874000D03*
D36*
X134493000Y-82489000D03*
X134493000Y-84389000D03*
D17*
X168527000Y-114681000D03*
X169547000Y-114681000D03*
D38*
X142745000Y-78587600D03*
X145545000Y-78587600D03*
D39*
X156836500Y-85261000D03*
X156836500Y-85761000D03*
X156836500Y-86261000D03*
X156836500Y-86761000D03*
X156836500Y-87261000D03*
X156836500Y-87761000D03*
X156836500Y-88261000D03*
X156836500Y-88761000D03*
X156836500Y-89261000D03*
X156836500Y-89761000D03*
X156836500Y-90261000D03*
X156836500Y-90761000D03*
D40*
X157524000Y-91448500D03*
X158024000Y-91448500D03*
X158524000Y-91448500D03*
X159024000Y-91448500D03*
X159524000Y-91448500D03*
X160024000Y-91448500D03*
X160524000Y-91448500D03*
X161024000Y-91448500D03*
X161524000Y-91448500D03*
X162024000Y-91448500D03*
X162524000Y-91448500D03*
X163024000Y-91448500D03*
D39*
X163711500Y-90761000D03*
X163711500Y-90261000D03*
X163711500Y-89761000D03*
X163711500Y-89261000D03*
X163711500Y-88761000D03*
X163711500Y-88261000D03*
X163711500Y-87761000D03*
X163711500Y-87261000D03*
X163711500Y-86761000D03*
X163711500Y-86261000D03*
X163711500Y-85761000D03*
X163711500Y-85261000D03*
D40*
X163024000Y-84573500D03*
X162524000Y-84573500D03*
X162024000Y-84573500D03*
X161524000Y-84573500D03*
X161024000Y-84573500D03*
X160524000Y-84573500D03*
X160024000Y-84573500D03*
X159524000Y-84573500D03*
X159024000Y-84573500D03*
X158524000Y-84573500D03*
X158024000Y-84573500D03*
X157524000Y-84573500D03*
D41*
X160274000Y-88011000D03*
D29*
X140843000Y-80617000D03*
X140843000Y-79657000D03*
D28*
X134620000Y-99215000D03*
X134620000Y-100235000D03*
D42*
X158480000Y-111113000D03*
D43*
X158480000Y-109413000D03*
X156480000Y-109413000D03*
X156480000Y-111313000D03*
D23*
X135003000Y-89408000D03*
X133983000Y-89408000D03*
X132031200Y-95123000D03*
X131011200Y-95123000D03*
D44*
X151638000Y-81153000D03*
X150063000Y-81153000D03*
X151663500Y-79629000D03*
X150088500Y-79629000D03*
D45*
X129855000Y-87650000D03*
X128905000Y-87650000D03*
X127955000Y-87650000D03*
X127955000Y-90150000D03*
X128905000Y-90150000D03*
X129855000Y-90150000D03*
D46*
X137922000Y-104319000D03*
X137272000Y-104319000D03*
X136622000Y-104319000D03*
D47*
X135972000Y-104569000D03*
D48*
X135972000Y-107569000D03*
X136622000Y-107569000D03*
X137272000Y-107569000D03*
X137922000Y-107569000D03*
D49*
X137272000Y-104869000D03*
D50*
X136947000Y-106314000D03*
D44*
X159537500Y-77978000D03*
X157962500Y-77978000D03*
X151663500Y-82677000D03*
X150088500Y-82677000D03*
X151663500Y-78105000D03*
X150088500Y-78105000D03*
D51*
X135737600Y-80966000D03*
X135737600Y-79066000D03*
D20*
X166412000Y-119253000D03*
X167180845Y-117396845D03*
X167180845Y-121109155D03*
X169037000Y-116628000D03*
D21*
X169037000Y-119253000D03*
D20*
X170893155Y-117396845D03*
X170893155Y-121109155D03*
D19*
X133223000Y-106553000D03*
X127889000Y-96012000D03*
D35*
X167086000Y-95433000D03*
X167086000Y-96393000D03*
D30*
X132601000Y-114300000D03*
X131051000Y-114300000D03*
D22*
X143764000Y-89664000D03*
X143764000Y-88644000D03*
D52*
X154432000Y-83120000D03*
X154432000Y-84520000D03*
D25*
X154079000Y-86360000D03*
X155039000Y-86360000D03*
D28*
X147782596Y-84012793D03*
X147782596Y-85032793D03*
X164465000Y-79119000D03*
X164465000Y-80139000D03*
D17*
X138637000Y-95295000D03*
X139657000Y-95295000D03*
D29*
X159524000Y-93678500D03*
X159524000Y-92718500D03*
D28*
X127381000Y-104011000D03*
X127381000Y-105031000D03*
D53*
X140335000Y-105006000D03*
D54*
X140335000Y-105918000D03*
D35*
X161036000Y-82085000D03*
X161036000Y-83045000D03*
D55*
X136271000Y-99955500D03*
X136271000Y-101780500D03*
D17*
X147952816Y-82645258D03*
X148972816Y-82645258D03*
D35*
X139250000Y-79770000D03*
X139250000Y-80730000D03*
D23*
X167096000Y-97413000D03*
X166076000Y-97413000D03*
D28*
X148717000Y-83945000D03*
X148717000Y-84965000D03*
D25*
X138652000Y-96361000D03*
X139612000Y-96361000D03*
D18*
X165834000Y-85198500D03*
X164874000Y-85198500D03*
D29*
X164000000Y-118230000D03*
X164000000Y-117270000D03*
D23*
X159260000Y-79248000D03*
X158240000Y-79248000D03*
D26*
X138290000Y-102108000D03*
X139840000Y-102108000D03*
D17*
X154430000Y-90297000D03*
X155450000Y-90297000D03*
D22*
X133985000Y-119763000D03*
X133985000Y-118743000D03*
D17*
X128649000Y-84201000D03*
X129669000Y-84201000D03*
D56*
X143000000Y-82500000D03*
X142500000Y-82500000D03*
X142000000Y-82500000D03*
X141500000Y-82500000D03*
X141000000Y-82500000D03*
X140500000Y-82500000D03*
X140000000Y-82500000D03*
X139500000Y-82500000D03*
X139000000Y-82500000D03*
X138500000Y-82500000D03*
X138000000Y-82500000D03*
X137500000Y-82500000D03*
D57*
X136750000Y-83250000D03*
X136750000Y-83750000D03*
X136750000Y-84250000D03*
X136750000Y-84750000D03*
X136750000Y-85250000D03*
X136750000Y-85750000D03*
X136750000Y-86250000D03*
X136750000Y-86750000D03*
D56*
X137500000Y-87500000D03*
X138000000Y-87500000D03*
X138500000Y-87500000D03*
X139000000Y-87500000D03*
X139500000Y-87500000D03*
X140000000Y-87500000D03*
X140500000Y-87500000D03*
X141000000Y-87500000D03*
X141500000Y-87500000D03*
X142000000Y-87500000D03*
X142500000Y-87500000D03*
X143000000Y-87500000D03*
D57*
X143750000Y-86750000D03*
X143750000Y-86250000D03*
X143750000Y-85750000D03*
X143750000Y-85250000D03*
X143750000Y-84750000D03*
X143750000Y-84250000D03*
X143750000Y-83750000D03*
X143750000Y-83250000D03*
D58*
X140250000Y-85000000D03*
D59*
X137287000Y-91377000D03*
X137287000Y-93027000D03*
D18*
X131970000Y-104887000D03*
X131010000Y-104887000D03*
D60*
X132586500Y-102458000D03*
X132586500Y-101958000D03*
X132586500Y-101458000D03*
X132586500Y-100958000D03*
X132586500Y-100458000D03*
X128361500Y-100458000D03*
X128361500Y-100958000D03*
X128361500Y-101458000D03*
X128361500Y-101958000D03*
X128361500Y-102458000D03*
D35*
X129667000Y-103914000D03*
X129667000Y-104874000D03*
D26*
X138372000Y-98851000D03*
X139922000Y-98851000D03*
D35*
X132969000Y-82324000D03*
X132969000Y-83284000D03*
D28*
X133045200Y-95146400D03*
X133045200Y-96166400D03*
D51*
X137731000Y-80960000D03*
X137731000Y-79060000D03*
D28*
X130735800Y-98027000D03*
X130735800Y-99047000D03*
D22*
X166086000Y-96423000D03*
X166086000Y-95403000D03*
X162941000Y-115699000D03*
X162941000Y-114679000D03*
D19*
X130556000Y-93472000D03*
D20*
X127556845Y-117396845D03*
X127556845Y-121109155D03*
X129413000Y-116628000D03*
D21*
X129413000Y-119253000D03*
D20*
X131269155Y-117396845D03*
X131269155Y-121109155D03*
X132038000Y-119253000D03*
D18*
X131970000Y-103871000D03*
X131010000Y-103871000D03*
D29*
X131191000Y-89507000D03*
X131191000Y-88547000D03*
D61*
X154336000Y-115700000D03*
X160116000Y-115700000D03*
D62*
X152906000Y-115200000D03*
X161546000Y-115200000D03*
D63*
X152906000Y-119380000D03*
X161546000Y-119380000D03*
D25*
X154079000Y-87680800D03*
X155039000Y-87680800D03*
X138667000Y-97454000D03*
X139627000Y-97454000D03*
D28*
X127508000Y-98169000D03*
X127508000Y-99189000D03*
D35*
X156591000Y-82451000D03*
X156591000Y-83411000D03*
%LPD*%
M02*
